<?xml version="1.0" encoding="UTF-8"?>
<svg id="SVGDoc" width="197" height="153"
  xmlns="http://www.w3.org/2000/svg" version="1.1"
  xmlns:xlink="http://www.w3.org/1999/xlink"
  xmlns:avocode="https://avocode.com/" viewBox="0 0 197 153">
  <defs>
    <clipPath id="ClipPath1026">
      <path d="M19.99996,152v-16.00002h-12.99992c-3.31375,0 -6.00002,-2.68628 -6.00002,-5.99997v-123.00002c0,-3.31369 2.68627,-5.99997 6.00002,-5.99997h182.99995c3.31375,0 6.00002,2.68628 6.00002,5.99997v123.00002c0,3.31369 -2.68627,5.99997 -6.00002,5.99997h-150z" fill="#ffffff"></path>
    </clipPath>
  </defs>
  <desc>Generated with Avocode.</desc>
  <g>
    <g>
      <title>Rectangle 4 copy</title>
      <path d="M19.99996,152l0,-16.00002h-12.99992c-3.31375,0 -6.00002,-2.68628 -6.00002,-5.99997v-123.00002c0,-3.31369 2.68627,-5.99997 6.00002,-5.99997h182.99995c3.31375,0 6.00002,2.68628 6.00002,5.99997v123.00002c0,3.31369 -2.68627,5.99997 -6.00002,5.99997h-150z" fill="#4f67af" fill-opacity="1"></path>
      <path d="M19.99996,152l0,-16.00002h-12.99992c-3.31375,0 -6.00002,-2.68628 -6.00002,-5.99997v-123.00002c0,-3.31369 2.68627,-5.99997 6.00002,-5.99997h182.99995c3.31375,0 6.00002,2.68628 6.00002,5.99997v123.00002c0,3.31369 -2.68627,5.99997 -6.00002,5.99997h-150z" fill-opacity="0" fill="#ffffff" stroke-linejoin="round" stroke-linecap="round" stroke-opacity="1" stroke="#028fea" stroke-miterlimit="20" stroke-width="2" clip-path="url(&quot;#ClipPath1026&quot;)"></path>
    </g>
  </g>
</svg>