<?xml version="1.0" encoding="UTF-8"?>
<svg id="SVGDoc" width="51" height="64" xmlns="http://www.w3.org/2000/svg" version="1.1" xmlns:xlink="http://www.w3.org/1999/xlink" xmlns:avocode="https://avocode.com/" viewBox="0 0 51 64"><defs></defs><desc>Generated with Avocode.</desc><g><g><title>Shape 1 copy</title><path d="M10.99998,25h29.00002c0.55264,0 0.99998,0.44761 0.99998,1.00027c0,0.55265 -0.44735,0.9999 -0.99998,0.9999h-29.00002c-0.55264,0 -0.99998,-0.44725 -0.99998,-0.9999c0,-0.55265 0.44735,-1.00027 0.99998,-1.00027zM40.99998,37.99984c0,0.55302 -0.44735,1.00027 -0.99998,1.00027h-29.00002c-0.55264,0 -0.99998,-0.44725 -0.99998,-1.00027c0,-0.55229 0.44735,-0.9999 0.99998,-0.9999h29.00002c0.55264,0 0.99998,0.44761 0.99998,0.9999zM40.99998,44.00017c0,0.55265 -0.44735,0.9999 -0.99998,0.9999h-29.00002c-0.55264,0 -0.99998,-0.44725 -0.99998,-0.9999c0,-0.55265 0.44735,-0.9999 0.99998,-0.9999h29.00002c0.55264,0 0.99998,0.44725 0.99998,0.9999zM40.99998,50.00014c0,0.55265 -0.44735,0.9999 -0.99998,0.9999h-29.00002c-0.55264,0 -0.99998,-0.44725 -0.99998,-0.9999c0,-0.55265 0.44735,-0.9999 0.99998,-0.9999h29.00002c0.55264,0 0.99998,0.44725 0.99998,0.9999zM40.99998,32.00024c0,0.55265 -0.44735,0.9999 -0.99998,0.9999h-29.00002c-0.55264,0 -0.99998,-0.44725 -0.99998,-0.9999c0,-0.55302 0.44735,-1.00009 0.99998,-1.00009h29.00002c0.55264,0 0.99998,0.44707 0.99998,1.00009zM10,19.00022c0,-0.55284 0.44735,-1.00009 0.99998,-1.00009h11.00006c0.55264,0 0.99998,0.44725 0.99998,1.00009c0,0.55247 -0.44735,1.00009 -0.99998,1.00009h-11.00006c-0.55264,0 -0.99998,-0.44761 -0.99998,-1.00009zM51.00006,15.00024v44.99984c0,2.21098 -1.78917,4.00016 -4.00005,4.00016h-43.00003c-2.21088,0 -3.99994,-1.78918 -3.99994,-4.00016v-55.99987c0,-2.2108 1.78905,-3.99998 3.99994,-3.99998h31.99997c0.2774,0 0.52734,0.11231 0.70805,0.29386l13.99807,13.99792c0.18162,0.18083 0.294,0.43089 0.294,0.70822zM37.00005,14.00034h10.58578l-10.58578,-10.58604zM48.99998,16.00014h-13.00003c-0.55264,0 -0.99998,-0.44761 -0.99998,-0.9999v-12.99984h-30.99998c-1.10447,0 -1.99997,0.89522 -1.99997,1.99981v55.99987c0,1.10458 0.8955,1.99999 1.99997,1.99999h43.00003c1.10447,0 1.99997,-0.89541 1.99997,-1.99999z" fill="#ffffff" fill-opacity="1"></path></g></g></svg>