<?xml version="1.0" encoding="UTF-8"?>
<svg id="SVGDoc" width="21" height="17" xmlns="http://www.w3.org/2000/svg" version="1.1" xmlns:xlink="http://www.w3.org/1999/xlink" xmlns:avocode="https://avocode.com/" viewBox="0 0 21 17"><defs></defs><desc>Generated with Avocode.</desc><g><g><title>message copy 2</title><path d="M20.82253,1.57876l-9.46308,8.37457c-0.03881,0.06227 -0.08559,0.12108 -0.14034,0.17499c-0.14917,0.14727 -0.3351,0.23614 -0.52864,0.26661c-0.31587,0.07538 -0.66303,-0.00804 -0.90965,-0.25026c-0.06441,-0.06392 -0.11779,-0.13447 -0.16015,-0.20938l-5.58982,-4.57148c-0.37628,-0.37139 -0.37628,-0.97368 0,-1.34411c0.37617,-0.37042 0.98614,-0.37042 1.3623,0l5.08658,4.16152l7.15642,-6.33181l-14.63412,0.00729c-0.95135,0.0354 -1.13521,0.21696 -1.17066,1.1457l0.00647,11.19431c0.04884,0.78448 0.25752,0.92363 1.14892,0.94797l-1.14838,-0.00728l0.00001,0.0196l17.34006,-0.00691l-0.00001,-0.01279l-1.34741,0.00854c1.30165,-0.02621 1.34466,-0.22894 1.34591,-1.78908l-0.00649,-7.72067c0,-0.52533 0.43133,-0.95059 0.96336,-0.95059c0.53204,0 0.96336,0.42527 0.96336,0.95059l0.0072,8.56399h-0.00754v0.94867c0,1.05065 -0.86266,1.90215 -1.92673,1.90215h-1.02356v0.0008l-15.2932,0.0061v-0.0069h-1.02356c-1.00192,0 -1.82527,-0.75493 -1.91803,-1.72021l-0.00783,-13.54003c0.02894,-0.95905 0.77943,-1.7398 1.73478,-1.83253l17.57448,-0.00876c0.85467,0.01849 1.57219,0.58573 1.80448,1.35833c-0.03016,0.06225 -0.06701,0.12075 -0.10965,0.1746c-0.02594,0.03355 -0.05444,0.06579 -0.08551,0.09646zM1.83071,1.85729l0,0.00417l0.65928,-0.0045zM17.22028,15.14972l0.61076,-0.00387c-0.17879,0.0036 -0.38133,0.00387 -0.61076,0.00387zM2.98676,15.1447l0.793,0.00502c-0.3112,0 -0.57291,0.00099 -0.793,-0.00502z" fill="#028fea" fill-opacity="1"></path></g></g></svg>