<?xml version="1.0" encoding="UTF-8"?>
<svg id="SVGDoc" width="72" height="72" xmlns="http://www.w3.org/2000/svg" version="1.1" xmlns:xlink="http://www.w3.org/1999/xlink" xmlns:avocode="https://avocode.com/" viewBox="0 0 72 72"><defs><linearGradient id="LinearGradient1115" gradientUnits="userSpaceOnUse" x1="0.00010013580322265625" y1="4.004046678543091" x2="72.00010013580322" y2="68.00535893440247"><stop stop-opacity="0" stop-color="#ffffff" offset="0"></stop><stop stop-opacity="1" stop-color="#0d225d" offset="1"></stop></linearGradient></defs><desc>Generated with Avocode.</desc><g><g><title>Shape 47</title><path d="M71.99957,36.00564c0,0.58306 -0.47207,1.05258 -1.05457,1.05258h-16.98154v2.40053h4.58164c0.5825,0 1.05469,0.47337 1.05469,1.05547c0,0.58017 -0.47218,1.05354 -1.05469,1.05354h-4.58164v2.4015h9.33655c0.4414,-1.31139 1.67988,-2.25525 3.1358,-2.25525c1.82465,0 3.3094,1.48458 3.3094,3.30783c0,1.82806 -1.48453,3.31072 -3.3094,3.31072c-1.45592,0 -2.6944,-0.94674 -3.1358,-2.25333h-9.33655v2.32549c0,0.46952 -0.05894,0.93712 -0.17521,1.38933c-0.12234,0.47433 -0.5508,0.79184 -1.02047,0.79184c-0.0872,0 -0.17544,-0.00962 -0.26356,-0.03367c-0.56408,-0.14432 -0.90363,-0.71968 -0.75863,-1.28349c0.07198,-0.28191 0.10838,-0.57247 0.10838,-0.864v-24.79911c0,-1.90407 -1.54953,-3.456 -3.45428,-3.456h-24.79946c-0.2932,0 -0.58411,0.03752 -0.8646,0.11161c-0.56408,0.14336 -1.13926,-0.19628 -1.28437,-0.76009c-0.14511,-0.56381 0.19455,-1.13917 0.75851,-1.28349c0.45227,-0.11642 0.92022,-0.17511 1.39057,-0.17511h2.32716v-3.18275c0,-0.62058 -0.24227,-1.20556 -0.68172,-1.64333l-6.93878,-6.9399c-0.462,0.22899 -0.96577,0.34637 -1.47022,0.34637c-0.84743,0 -1.69487,-0.32424 -2.33997,-0.96791c-1.29032,-1.29023 -1.29032,-3.39057 0,-4.67984c1.29021,-1.29215 3.38951,-1.29215 4.67995,0c1.02917,1.02949 1.2347,2.57276 0.62164,3.81007l6.9389,6.93702c0.83782,0.83898 1.29936,1.95314 1.29936,3.13753v3.18275h2.39971v-4.5817c0,-0.58402 0.47207,-1.05643 1.05457,-1.05643c0.58262,0 1.05469,0.47241 1.05469,1.05643v4.5817h2.3996v-16.98366c0,-0.58113 0.47241,-1.05354 1.05469,-1.05354c0.5825,0 1.0548,0.47241 1.0548,1.05354v16.98366h2.39971v-4.5817c0,-0.58402 0.47207,-1.05643 1.05457,-1.05643c0.58262,0 1.05469,0.47241 1.05469,1.05643v4.5817h2.3996v-9.33563c-1.30875,-0.44451 -2.25437,-1.67989 -2.25437,-3.13753c0,-1.82421 1.48441,-3.30976 3.30906,-3.30976c1.82453,0 3.30929,1.48554 3.30929,3.30976c0,1.45764 -0.94563,2.69302 -2.25449,3.13753v9.33563h2.32693c3.0677,0 5.56377,2.49675 5.56377,5.56308v2.32645h3.181c0.62164,0 1.20598,-0.24342 1.64555,-0.68216l6.93638,-6.93702c-0.22511,-0.45028 -0.34492,-0.95155 -0.34492,-1.47111c0,-0.88613 0.34424,-1.71549 0.9692,-2.33992c0.62519,-0.62635 1.45615,-0.96984 2.34009,-0.96984c0.88383,0 1.7149,0.34348 2.33997,0.96984c0.62496,0.62443 0.96909,1.45379 0.96909,2.33992c0,0.88324 -0.34412,1.71453 -0.96909,2.33992c-0.62508,0.62539 -1.45615,0.96791 -2.33997,0.96791c-0.51979,0 -1.02093,-0.11834 -1.47297,-0.34252l-6.93638,6.93605c-0.83759,0.83706 -1.95179,1.29792 -3.13694,1.29792h-3.181v2.39957h4.58164c0.5825,0 1.05492,0.47337 1.05492,1.0545c0,0.58306 -0.47241,1.05547 -1.05492,1.05547h-4.58164v2.40053h16.98154c0.5825,0 1.05457,0.46952 1.05457,1.0545zM67.49071,16.84178c0,0.31943 0.12486,0.6225 0.35133,0.84764c0.22682,0.22706 0.52803,0.3531 0.84846,0.3531c0.32043,0 0.62164,-0.12604 0.84846,-0.3531c0.22659,-0.22514 0.35145,-0.52821 0.35145,-0.84764c0,-0.32039 -0.12486,-0.62154 -0.35145,-0.85053c-0.22682,-0.22514 -0.52803,-0.34926 -0.84846,-0.34926c-0.32043,0 -0.62164,0.12412 -0.84846,0.34926c-0.22648,0.22899 -0.35133,0.53014 -0.35133,0.85053zM17.68499,2.46647c-0.23392,-0.23476 -0.54119,-0.35022 -0.84846,-0.35022c-0.30739,0 -0.61443,0.11546 -0.84846,0.35022c-0.46783,0.46567 -0.46783,1.22865 0,1.69625c0.46795,0.4676 1.22921,0.4676 1.69693,0c0.46783,-0.4676 0.46783,-1.23057 0,-1.69625zM46.21774,5.56936c0,-0.66195 -0.5381,-1.20075 -1.1998,-1.20075c-0.66147,0 -1.19957,0.5388 -1.19957,1.20075c0,0.66195 0.5381,1.19882 1.19957,1.19882c0.66147,0 1.1998,-0.53687 1.1998,-1.19882zM65.23622,45.02184c0,0.66291 0.53833,1.20075 1.19991,1.20075c0.66147,0 1.1998,-0.53784 1.1998,-1.20075c0,-0.66003 -0.53833,-1.19882 -1.1998,-1.19882c-0.66181,0 -1.20014,0.5388 -1.19991,1.19882zM57.50322,71.03421c-0.6451,0.64656 -1.49265,0.96791 -2.33986,0.96791c-0.84755,0 -1.69498,-0.32135 -2.3402,-0.96791c-1.02917,-1.02949 -1.23459,-2.57276 -0.62187,-3.80814l-6.93878,-6.93894c-0.83794,-0.83802 -1.29948,-1.95314 -1.29948,-3.13657v-3.18372h-2.3996v4.58363c0,0.58306 -0.47218,1.05547 -1.05469,1.05547c-0.5825,0 -1.05457,-0.47241 -1.05457,-1.05547v-4.58363h-2.39971v16.98463c0,0.58113 -0.47207,1.05258 -1.05457,1.05258c-0.5825,0 -1.05469,-0.47145 -1.05469,-1.05258v-16.98463h-2.39937v4.58363c0,0.58306 -0.4723,1.05547 -1.05492,1.05547c-0.58228,0 -1.05457,-0.47241 -1.05457,-1.05547v-4.58363h-2.39971v9.33755c1.30909,0.44162 2.25449,1.67893 2.25449,3.13657c0,1.82518 -1.48441,3.30976 -3.30906,3.30976c-1.82453,0 -3.30917,-1.48458 -3.30917,-3.30976c0,-1.45764 0.94551,-2.69495 2.2546,-3.13657v-9.33755h-2.32716c-3.0677,0 -5.56366,-2.49482 -5.56366,-5.56212v-2.32549h-3.18089c-0.62164,0 -1.20609,0.24053 -1.64555,0.68119l-6.93649,6.93605c0.22522,0.45028 0.34504,0.95348 0.34504,1.47111c0,0.88613 -0.34424,1.71742 -0.96931,2.34088c-0.62508,0.62635 -1.45603,0.96887 -2.34009,0.96887c-0.88394,0 -1.71501,-0.34252 -2.33997,-0.96887c-0.62508,-0.62347 -0.96931,-1.45475 -0.96931,-2.34088c0,-0.88324 0.34424,-1.71453 0.96909,-2.33992c0.62508,-0.62443 1.45603,-0.96791 2.33997,-0.96791c0.51979,0 1.02081,0.12123 1.47274,0.34348l6.93638,-6.93605c0.83794,-0.83802 1.95202,-1.29792 3.13705,-1.29792h3.181v-2.4015h-4.58176c-0.58239,0 -1.05457,-0.47337 -1.05457,-1.05354c0,-0.58209 0.47218,-1.05547 1.05457,-1.05547h4.58176v-2.40053h-16.98154c-0.58239,0 -1.05469,-0.46952 -1.05469,-1.05258c0,-0.58498 0.4723,-1.0545 1.05469,-1.0545h16.98154v-2.40053h-4.58176c-0.58239,0 -1.05457,-0.47241 -1.05457,-1.05547c0,-0.58113 0.47218,-1.0545 1.05457,-1.0545h4.58176v-2.39957h-9.33666c-0.44151,1.30947 -1.67988,2.25429 -3.13591,2.25429c-1.82453,0 -3.30917,-1.48458 -3.30917,-3.30783c0,-1.82518 1.48453,-3.30976 3.30917,-3.30976c1.45603,0 2.69451,0.94578 3.13591,2.25429h9.33678v-2.32645c0,-0.47049 0.05894,-0.93808 0.17532,-1.39029c0.14511,-0.56285 0.72018,-0.90345 1.28437,-0.75816c0.56396,0.14528 0.90363,0.71968 0.7584,1.28542c-0.07221,0.27806 -0.10872,0.57055 -0.10872,0.86304v24.79911c0,1.906 1.54953,3.45504 3.45428,3.45504h24.79958c0.29308,0 0.58399,-0.03849 0.86437,-0.10968c0.56454,-0.14336 1.13937,0.19435 1.28426,0.75624c0.14523,0.56574 -0.19432,1.1411 -0.7584,1.28638c-0.45216,0.11931 -0.91976,0.17415 -1.39023,0.17415h-2.32716v3.18372c0,0.6225 0.24216,1.2046 0.68172,1.64333l6.93878,6.93798c1.23768,-0.61096 2.78103,-0.4041 3.8102,0.62347c1.29032,1.29215 1.29032,3.39154 0,4.67888zM6.76355,26.98752c0,-0.66195 -0.53833,-1.19979 -1.1998,-1.19979c-0.66147,0 -1.1998,0.53784 -1.1998,1.19979c0,0.65906 0.53822,1.20075 1.1998,1.20075c0.6617,0 1.19991,-0.54168 1.1998,-1.20075zM4.50906,55.16759c0,-0.31943 -0.12474,-0.6225 -0.35133,-0.84668c-0.22671,-0.22803 -0.52792,-0.35407 -0.84846,-0.35407c-0.32043,0 -0.62164,0.12604 -0.84835,0.35407c-0.22671,0.22418 -0.35145,0.52725 -0.35145,0.84668c0,0.32135 0.12474,0.62154 0.35145,0.84957c0.22671,0.2261 0.52792,0.35022 0.84835,0.35022c0.32055,0 0.62176,-0.12412 0.84846,-0.35022c0.22659,-0.22803 0.35133,-0.52821 0.35133,-0.84957zM26.98183,65.24021c-0.66147,0 -1.1998,0.5388 -1.1998,1.20075c0,0.66291 0.5381,1.19979 1.1998,1.19979c0.6617,0 1.1998,-0.53687 1.1998,-1.19979c0,-0.66195 -0.53833,-1.20075 -1.1998,-1.20075zM56.01183,67.84761c-0.2338,-0.23572 -0.54131,-0.35118 -0.84846,-0.35118c-0.30727,0 -0.61443,0.11546 -0.84846,0.35118c-0.46783,0.46952 -0.46783,1.22961 0,1.69625c0.46772,0.46856 1.2291,0.46856 1.69693,0c0.46772,-0.46664 0.46772,-1.22673 0,-1.69625zM45.73389,36.56946c0.92766,0.91211 1.46667,2.1167 1.46667,3.38288c0,1.71742 -0.98042,3.30783 -2.54654,4.21801c-0.15553,2.31875 -2.27028,4.16221 -4.84898,4.16221c-1.53969,0 -2.91355,-0.6581 -3.80447,-1.67989c-0.89069,1.02179 -2.26456,1.67989 -3.80447,1.67989c-2.67929,0 -4.85905,-1.99066 -4.85905,-4.43546c0,-0.00385 0,-0.00385 0,-0.00385c-1.57837,-1.03815 -2.53647,-2.71323 -2.53624,-4.50569c0,-1.17862 0.40615,-2.287 1.11076,-3.20103c-0.72075,-0.85534 -1.11076,-1.89734 -1.11076,-2.99995c0,-2.25621 1.64989,-4.16606 3.90839,-4.7876c-0.06672,-0.27325 -0.10391,-0.55996 -0.10391,-0.84764c0,-2.13691 1.89537,-3.87357 4.22493,-3.87357c1.26205,0 2.39559,0.5109 3.17036,1.31717c0.77499,-0.80627 1.90865,-1.31717 3.17036,-1.31717c2.32956,0 4.22527,1.73666 4.22527,3.87357c0,0.28768 -0.03731,0.5744 -0.10403,0.84764c2.25861,0.62154 3.90839,2.53139 3.90839,4.7876c0,1.26617 -0.53925,2.47077 -1.46667,3.38288zM42.90536,36.56946c0,-0.39063 0.21641,-0.75143 0.56259,-0.93327c1.01624,-0.53591 1.62266,-1.45283 1.62266,-2.4496c0,-1.58657 -1.50364,-2.87776 -3.35747,-2.88834c-0.00938,0 -0.01877,0 -0.02815,0c-0.01007,0 -0.02014,0 -0.03021,0c-0.51178,0.00385 -1.00204,0.10102 -1.45809,0.29441c-0.53673,0.2261 -1.1554,-0.02502 -1.38153,-0.56189c-0.22636,-0.53687 0.02518,-1.15553 0.56213,-1.38259c0.5508,-0.23188 1.13091,-0.3762 1.73069,-0.43392c0.09029,-0.18184 0.15839,-0.4041 0.15839,-0.66291c0,-0.97465 -0.94917,-1.7636 -2.11567,-1.7636c-1.1665,0 -2.11567,0.78895 -2.11567,1.7636c0,0.58209 -0.47241,1.0545 -1.05469,1.0545c-0.5825,0 -1.0548,-0.47241 -1.0548,-1.0545c0,-0.97465 -0.94906,-1.7636 -2.11555,-1.7636c-1.1665,0 -2.11567,0.78895 -2.11567,1.7636c0,0.45798 0.20977,0.80242 0.38567,1.01121c0.00069,0 0.00092,0.00192 0.00172,0.00192c0.01797,0.02117 0.03479,0.0433 0.05104,0.06543c0.00458,0.00673 0.00984,0.01443 0.01419,0.02117c0.00847,0.01155 0.01556,0.02405 0.0238,0.03849c0.27145,0.43777 0.19009,1.01698 -0.21412,1.35854c-0.19821,0.16741 -0.44014,0.25016 -0.68092,0.25016c-0.00938,0 -0.01877,0 -0.02804,0c-1.85394,0.01058 -3.35781,1.30177 -3.35804,2.88834c0,0.57536 0.2013,1.12378 0.57552,1.59426c0.57724,-0.35503 1.22795,-0.62635 1.93497,-0.78895c0.5674,-0.13085 1.13365,0.22514 1.26366,0.79376c0.13035,0.5667 -0.22442,1.1334 -0.79205,1.26329c-1.75587,0.40217 -2.98233,1.77514 -2.98233,3.33862c0,0.86496 0.38876,1.69336 1.0548,2.32549c0.1807,-0.29249 0.39848,-0.56766 0.65117,-0.81974c0.41302,-0.40891 1.08078,-0.40795 1.49139,0.00481c0.4105,0.41372 0.40855,1.08144 -0.00446,1.49228c-0.42343,0.42142 -0.65643,0.95733 -0.65643,1.50671c0,1.28157 1.23333,2.32549 2.74979,2.32549c1.51623,0 2.7499,-1.04392 2.7499,-2.32549v-2.25718c0,-0.96695 -0.72247,-1.84153 -1.79775,-2.18117c-0.55561,-0.17607 -0.86449,-0.76875 -0.68985,-1.32102c0.17452,-0.55804 0.76618,-0.86592 1.32225,-0.69178c0.42103,0.13374 0.81036,0.31654 1.16535,0.5388v-5.85365c0,-0.58306 0.47207,-1.05547 1.05457,-1.05547c0.5825,0 1.05457,0.47241 1.05457,1.05547v1.34699c0.78255,-0.49261 1.72977,-0.78318 2.7499,-0.78318c0.5825,0 1.05457,0.47241 1.05457,1.05643c0,0.58306 -0.47207,1.05354 -1.05457,1.05354c-1.51623,0 -2.7499,1.04488 -2.7499,2.32741v6.76479c0,1.28157 1.23367,2.32549 2.7499,2.32549c1.51634,0 2.74979,-1.04392 2.74979,-2.32549c0,-0.96695 -0.72235,-1.84634 -1.79764,-2.18405c-0.55561,-0.17415 -0.86483,-0.76586 -0.69008,-1.32294c0.17475,-0.55323 0.76687,-0.86496 1.32225,-0.68889c1.23825,0.38774 2.21821,1.20363 2.77267,2.23216c0.58365,-0.53014 0.92903,-1.23923 0.92903,-1.98104c0,-0.99966 -0.60642,-1.91369 -1.62266,-2.4496c-0.34618,-0.18377 -0.56259,-0.54265 -0.56259,-0.93327z" fill="#028fea" fill-opacity="1"></path><path d="M71.99957,36.00564c0,0.58306 -0.47207,1.05258 -1.05457,1.05258h-16.98154v2.40053h4.58164c0.5825,0 1.05469,0.47337 1.05469,1.05547c0,0.58017 -0.47218,1.05354 -1.05469,1.05354h-4.58164v2.4015h9.33655c0.4414,-1.31139 1.67988,-2.25525 3.1358,-2.25525c1.82465,0 3.3094,1.48458 3.3094,3.30783c0,1.82806 -1.48453,3.31072 -3.3094,3.31072c-1.45592,0 -2.6944,-0.94674 -3.1358,-2.25333h-9.33655v2.32549c0,0.46952 -0.05894,0.93712 -0.17521,1.38933c-0.12234,0.47433 -0.5508,0.79184 -1.02047,0.79184c-0.0872,0 -0.17544,-0.00962 -0.26356,-0.03367c-0.56408,-0.14432 -0.90363,-0.71968 -0.75863,-1.28349c0.07198,-0.28191 0.10838,-0.57247 0.10838,-0.864v-24.79911c0,-1.90407 -1.54953,-3.456 -3.45428,-3.456h-24.79946c-0.2932,0 -0.58411,0.03752 -0.8646,0.11161c-0.56408,0.14336 -1.13926,-0.19628 -1.28437,-0.76009c-0.14511,-0.56381 0.19455,-1.13917 0.75851,-1.28349c0.45227,-0.11642 0.92022,-0.17511 1.39057,-0.17511h2.32716v-3.18275c0,-0.62058 -0.24227,-1.20556 -0.68172,-1.64333l-6.93878,-6.9399c-0.462,0.22899 -0.96577,0.34637 -1.47022,0.34637c-0.84743,0 -1.69487,-0.32424 -2.33997,-0.96791c-1.29032,-1.29023 -1.29032,-3.39057 0,-4.67984c1.29021,-1.29215 3.38951,-1.29215 4.67995,0c1.02917,1.02949 1.2347,2.57276 0.62164,3.81007l6.9389,6.93702c0.83782,0.83898 1.29936,1.95314 1.29936,3.13753v3.18275h2.39971v-4.5817c0,-0.58402 0.47207,-1.05643 1.05457,-1.05643c0.58262,0 1.05469,0.47241 1.05469,1.05643v4.5817h2.3996v-16.98366c0,-0.58113 0.47241,-1.05354 1.05469,-1.05354c0.5825,0 1.0548,0.47241 1.0548,1.05354v16.98366h2.39971v-4.5817c0,-0.58402 0.47207,-1.05643 1.05457,-1.05643c0.58262,0 1.05469,0.47241 1.05469,1.05643v4.5817h2.3996v-9.33563c-1.30875,-0.44451 -2.25437,-1.67989 -2.25437,-3.13753c0,-1.82421 1.48441,-3.30976 3.30906,-3.30976c1.82453,0 3.30929,1.48554 3.30929,3.30976c0,1.45764 -0.94563,2.69302 -2.25449,3.13753v9.33563h2.32693c3.0677,0 5.56377,2.49675 5.56377,5.56308v2.32645h3.181c0.62164,0 1.20598,-0.24342 1.64555,-0.68216l6.93638,-6.93702c-0.22511,-0.45028 -0.34492,-0.95155 -0.34492,-1.47111c0,-0.88613 0.34424,-1.71549 0.9692,-2.33992c0.62519,-0.62635 1.45615,-0.96984 2.34009,-0.96984c0.88383,0 1.7149,0.34348 2.33997,0.96984c0.62496,0.62443 0.96909,1.45379 0.96909,2.33992c0,0.88324 -0.34412,1.71453 -0.96909,2.33992c-0.62508,0.62539 -1.45615,0.96791 -2.33997,0.96791c-0.51979,0 -1.02093,-0.11834 -1.47297,-0.34252l-6.93638,6.93605c-0.83759,0.83706 -1.95179,1.29792 -3.13694,1.29792h-3.181v2.39957h4.58164c0.5825,0 1.05492,0.47337 1.05492,1.0545c0,0.58306 -0.47241,1.05547 -1.05492,1.05547h-4.58164v2.40053h16.98154c0.5825,0 1.05457,0.46952 1.05457,1.0545zM67.49071,16.84178c0,0.31943 0.12486,0.6225 0.35133,0.84764c0.22682,0.22706 0.52803,0.3531 0.84846,0.3531c0.32043,0 0.62164,-0.12604 0.84846,-0.3531c0.22659,-0.22514 0.35145,-0.52821 0.35145,-0.84764c0,-0.32039 -0.12486,-0.62154 -0.35145,-0.85053c-0.22682,-0.22514 -0.52803,-0.34926 -0.84846,-0.34926c-0.32043,0 -0.62164,0.12412 -0.84846,0.34926c-0.22648,0.22899 -0.35133,0.53014 -0.35133,0.85053zM17.68499,2.46647c-0.23392,-0.23476 -0.54119,-0.35022 -0.84846,-0.35022c-0.30739,0 -0.61443,0.11546 -0.84846,0.35022c-0.46783,0.46567 -0.46783,1.22865 0,1.69625c0.46795,0.4676 1.22921,0.4676 1.69693,0c0.46783,-0.4676 0.46783,-1.23057 0,-1.69625zM46.21774,5.56936c0,-0.66195 -0.5381,-1.20075 -1.1998,-1.20075c-0.66147,0 -1.19957,0.5388 -1.19957,1.20075c0,0.66195 0.5381,1.19882 1.19957,1.19882c0.66147,0 1.1998,-0.53687 1.1998,-1.19882zM65.23622,45.02184c0,0.66291 0.53833,1.20075 1.19991,1.20075c0.66147,0 1.1998,-0.53784 1.1998,-1.20075c0,-0.66003 -0.53833,-1.19882 -1.1998,-1.19882c-0.66181,0 -1.20014,0.5388 -1.19991,1.19882zM57.50322,71.03421c-0.6451,0.64656 -1.49265,0.96791 -2.33986,0.96791c-0.84755,0 -1.69498,-0.32135 -2.3402,-0.96791c-1.02917,-1.02949 -1.23459,-2.57276 -0.62187,-3.80814l-6.93878,-6.93894c-0.83794,-0.83802 -1.29948,-1.95314 -1.29948,-3.13657v-3.18372h-2.3996v4.58363c0,0.58306 -0.47218,1.05547 -1.05469,1.05547c-0.5825,0 -1.05457,-0.47241 -1.05457,-1.05547v-4.58363h-2.39971v16.98463c0,0.58113 -0.47207,1.05258 -1.05457,1.05258c-0.5825,0 -1.05469,-0.47145 -1.05469,-1.05258v-16.98463h-2.39937v4.58363c0,0.58306 -0.4723,1.05547 -1.05492,1.05547c-0.58228,0 -1.05457,-0.47241 -1.05457,-1.05547v-4.58363h-2.39971v9.33755c1.30909,0.44162 2.25449,1.67893 2.25449,3.13657c0,1.82518 -1.48441,3.30976 -3.30906,3.30976c-1.82453,0 -3.30917,-1.48458 -3.30917,-3.30976c0,-1.45764 0.94551,-2.69495 2.2546,-3.13657v-9.33755h-2.32716c-3.0677,0 -5.56366,-2.49482 -5.56366,-5.56212v-2.32549h-3.18089c-0.62164,0 -1.20609,0.24053 -1.64555,0.68119l-6.93649,6.93605c0.22522,0.45028 0.34504,0.95348 0.34504,1.47111c0,0.88613 -0.34424,1.71742 -0.96931,2.34088c-0.62508,0.62635 -1.45603,0.96887 -2.34009,0.96887c-0.88394,0 -1.71501,-0.34252 -2.33997,-0.96887c-0.62508,-0.62347 -0.96931,-1.45475 -0.96931,-2.34088c0,-0.88324 0.34424,-1.71453 0.96909,-2.33992c0.62508,-0.62443 1.45603,-0.96791 2.33997,-0.96791c0.51979,0 1.02081,0.12123 1.47274,0.34348l6.93638,-6.93605c0.83794,-0.83802 1.95202,-1.29792 3.13705,-1.29792h3.181v-2.4015h-4.58176c-0.58239,0 -1.05457,-0.47337 -1.05457,-1.05354c0,-0.58209 0.47218,-1.05547 1.05457,-1.05547h4.58176v-2.40053h-16.98154c-0.58239,0 -1.05469,-0.46952 -1.05469,-1.05258c0,-0.58498 0.4723,-1.0545 1.05469,-1.0545h16.98154v-2.40053h-4.58176c-0.58239,0 -1.05457,-0.47241 -1.05457,-1.05547c0,-0.58113 0.47218,-1.0545 1.05457,-1.0545h4.58176v-2.39957h-9.33666c-0.44151,1.30947 -1.67988,2.25429 -3.13591,2.25429c-1.82453,0 -3.30917,-1.48458 -3.30917,-3.30783c0,-1.82518 1.48453,-3.30976 3.30917,-3.30976c1.45603,0 2.69451,0.94578 3.13591,2.25429h9.33678v-2.32645c0,-0.47049 0.05894,-0.93808 0.17532,-1.39029c0.14511,-0.56285 0.72018,-0.90345 1.28437,-0.75816c0.56396,0.14528 0.90363,0.71968 0.7584,1.28542c-0.07221,0.27806 -0.10872,0.57055 -0.10872,0.86304v24.79911c0,1.906 1.54953,3.45504 3.45428,3.45504h24.79958c0.29308,0 0.58399,-0.03849 0.86437,-0.10968c0.56454,-0.14336 1.13937,0.19435 1.28426,0.75624c0.14523,0.56574 -0.19432,1.1411 -0.7584,1.28638c-0.45216,0.11931 -0.91976,0.17415 -1.39023,0.17415h-2.32716v3.18372c0,0.6225 0.24216,1.2046 0.68172,1.64333l6.93878,6.93798c1.23768,-0.61096 2.78103,-0.4041 3.8102,0.62347c1.29032,1.29215 1.29032,3.39154 0,4.67888zM6.76355,26.98752c0,-0.66195 -0.53833,-1.19979 -1.1998,-1.19979c-0.66147,0 -1.1998,0.53784 -1.1998,1.19979c0,0.65906 0.53822,1.20075 1.1998,1.20075c0.6617,0 1.19991,-0.54168 1.1998,-1.20075zM4.50906,55.16759c0,-0.31943 -0.12474,-0.6225 -0.35133,-0.84668c-0.22671,-0.22803 -0.52792,-0.35407 -0.84846,-0.35407c-0.32043,0 -0.62164,0.12604 -0.84835,0.35407c-0.22671,0.22418 -0.35145,0.52725 -0.35145,0.84668c0,0.32135 0.12474,0.62154 0.35145,0.84957c0.22671,0.2261 0.52792,0.35022 0.84835,0.35022c0.32055,0 0.62176,-0.12412 0.84846,-0.35022c0.22659,-0.22803 0.35133,-0.52821 0.35133,-0.84957zM26.98183,65.24021c-0.66147,0 -1.1998,0.5388 -1.1998,1.20075c0,0.66291 0.5381,1.19979 1.1998,1.19979c0.6617,0 1.1998,-0.53687 1.1998,-1.19979c0,-0.66195 -0.53833,-1.20075 -1.1998,-1.20075zM56.01183,67.84761c-0.2338,-0.23572 -0.54131,-0.35118 -0.84846,-0.35118c-0.30727,0 -0.61443,0.11546 -0.84846,0.35118c-0.46783,0.46952 -0.46783,1.22961 0,1.69625c0.46772,0.46856 1.2291,0.46856 1.69693,0c0.46772,-0.46664 0.46772,-1.22673 0,-1.69625zM45.73389,36.56946c0.92766,0.91211 1.46667,2.1167 1.46667,3.38288c0,1.71742 -0.98042,3.30783 -2.54654,4.21801c-0.15553,2.31875 -2.27028,4.16221 -4.84898,4.16221c-1.53969,0 -2.91355,-0.6581 -3.80447,-1.67989c-0.89069,1.02179 -2.26456,1.67989 -3.80447,1.67989c-2.67929,0 -4.85905,-1.99066 -4.85905,-4.43546c0,-0.00385 0,-0.00385 0,-0.00385c-1.57837,-1.03815 -2.53647,-2.71323 -2.53624,-4.50569c0,-1.17862 0.40615,-2.287 1.11076,-3.20103c-0.72075,-0.85534 -1.11076,-1.89734 -1.11076,-2.99995c0,-2.25621 1.64989,-4.16606 3.90839,-4.7876c-0.06672,-0.27325 -0.10391,-0.55996 -0.10391,-0.84764c0,-2.13691 1.89537,-3.87357 4.22493,-3.87357c1.26205,0 2.39559,0.5109 3.17036,1.31717c0.77499,-0.80627 1.90865,-1.31717 3.17036,-1.31717c2.32956,0 4.22527,1.73666 4.22527,3.87357c0,0.28768 -0.03731,0.5744 -0.10403,0.84764c2.25861,0.62154 3.90839,2.53139 3.90839,4.7876c0,1.26617 -0.53925,2.47077 -1.46667,3.38288zM42.90536,36.56946c0,-0.39063 0.21641,-0.75143 0.56259,-0.93327c1.01624,-0.53591 1.62266,-1.45283 1.62266,-2.4496c0,-1.58657 -1.50364,-2.87776 -3.35747,-2.88834c-0.00938,0 -0.01877,0 -0.02815,0c-0.01007,0 -0.02014,0 -0.03021,0c-0.51178,0.00385 -1.00204,0.10102 -1.45809,0.29441c-0.53673,0.2261 -1.1554,-0.02502 -1.38153,-0.56189c-0.22636,-0.53687 0.02518,-1.15553 0.56213,-1.38259c0.5508,-0.23188 1.13091,-0.3762 1.73069,-0.43392c0.09029,-0.18184 0.15839,-0.4041 0.15839,-0.66291c0,-0.97465 -0.94917,-1.7636 -2.11567,-1.7636c-1.1665,0 -2.11567,0.78895 -2.11567,1.7636c0,0.58209 -0.47241,1.0545 -1.05469,1.0545c-0.5825,0 -1.0548,-0.47241 -1.0548,-1.0545c0,-0.97465 -0.94906,-1.7636 -2.11555,-1.7636c-1.1665,0 -2.11567,0.78895 -2.11567,1.7636c0,0.45798 0.20977,0.80242 0.38567,1.01121c0.00069,0 0.00092,0.00192 0.00172,0.00192c0.01797,0.02117 0.03479,0.0433 0.05104,0.06543c0.00458,0.00673 0.00984,0.01443 0.01419,0.02117c0.00847,0.01155 0.01556,0.02405 0.0238,0.03849c0.27145,0.43777 0.19009,1.01698 -0.21412,1.35854c-0.19821,0.16741 -0.44014,0.25016 -0.68092,0.25016c-0.00938,0 -0.01877,0 -0.02804,0c-1.85394,0.01058 -3.35781,1.30177 -3.35804,2.88834c0,0.57536 0.2013,1.12378 0.57552,1.59426c0.57724,-0.35503 1.22795,-0.62635 1.93497,-0.78895c0.5674,-0.13085 1.13365,0.22514 1.26366,0.79376c0.13035,0.5667 -0.22442,1.1334 -0.79205,1.26329c-1.75587,0.40217 -2.98233,1.77514 -2.98233,3.33862c0,0.86496 0.38876,1.69336 1.0548,2.32549c0.1807,-0.29249 0.39848,-0.56766 0.65117,-0.81974c0.41302,-0.40891 1.08078,-0.40795 1.49139,0.00481c0.4105,0.41372 0.40855,1.08144 -0.00446,1.49228c-0.42343,0.42142 -0.65643,0.95733 -0.65643,1.50671c0,1.28157 1.23333,2.32549 2.74979,2.32549c1.51623,0 2.7499,-1.04392 2.7499,-2.32549v-2.25718c0,-0.96695 -0.72247,-1.84153 -1.79775,-2.18117c-0.55561,-0.17607 -0.86449,-0.76875 -0.68985,-1.32102c0.17452,-0.55804 0.76618,-0.86592 1.32225,-0.69178c0.42103,0.13374 0.81036,0.31654 1.16535,0.5388v-5.85365c0,-0.58306 0.47207,-1.05547 1.05457,-1.05547c0.5825,0 1.05457,0.47241 1.05457,1.05547v1.34699c0.78255,-0.49261 1.72977,-0.78318 2.7499,-0.78318c0.5825,0 1.05457,0.47241 1.05457,1.05643c0,0.58306 -0.47207,1.05354 -1.05457,1.05354c-1.51623,0 -2.7499,1.04488 -2.7499,2.32741v6.76479c0,1.28157 1.23367,2.32549 2.7499,2.32549c1.51634,0 2.74979,-1.04392 2.74979,-2.32549c0,-0.96695 -0.72235,-1.84634 -1.79764,-2.18405c-0.55561,-0.17415 -0.86483,-0.76586 -0.69008,-1.32294c0.17475,-0.55323 0.76687,-0.86496 1.32225,-0.68889c1.23825,0.38774 2.21821,1.20363 2.77267,2.23216c0.58365,-0.53014 0.92903,-1.23923 0.92903,-1.98104c0,-0.99966 -0.60642,-1.91369 -1.62266,-2.4496c-0.34618,-0.18377 -0.56259,-0.54265 -0.56259,-0.93327z" fill="url(#LinearGradient1115)"></path></g></g></svg>