<?xml version="1.0" encoding="UTF-8"?>
<svg id="SVGDoc" width="61" height="61" xmlns="http://www.w3.org/2000/svg" version="1.1" xmlns:xlink="http://www.w3.org/1999/xlink" xmlns:avocode="https://avocode.com/" viewBox="0 0 61 61"><defs><linearGradient id="LinearGradient1165" gradientUnits="userSpaceOnUse" x1="0.004956603050231934" y1="3.0038912296295166" x2="61.00495660305023" y2="57.98702645301819"><stop stop-opacity="0" stop-color="#ffffff" offset="0"></stop><stop stop-opacity="1" stop-color="#0d225d" offset="1"></stop></linearGradient></defs><desc>Generated with Avocode.</desc><g><g><title>Shape 54</title><path d="M60.1123,0.87797c0.57175,0.57247 0.89333,1.35084 0.89333,2.15904v40.68016c0,0.8082 -0.32158,1.58368 -0.89333,2.15711c-0.57209,0.57151 -1.348,0.8919 -2.15698,0.8919h-10.16659c0,1.07856 -0.42835,2.11382 -1.1911,2.87776c-0.76275,0.76201 -1.79707,1.19016 -2.87556,1.19016c-1.07849,0 -2.11281,-0.42815 -2.87579,-1.19016c-0.76252,-0.76394 -1.19087,-1.7992 -1.19087,-2.87776h-3.05008v12.20472h4.06666c0.26951,0 0.52826,0.1068 0.71892,0.2973c0.19066,0.1905 0.29755,0.44932 0.29755,0.72064c0,0.2694 -0.10689,0.52725 -0.29755,0.71872c-0.19066,0.18954 -0.44941,0.29634 -0.71892,0.29634h-20.33352c-0.26962,0 -0.52814,-0.1068 -0.71903,-0.29634c-0.19066,-0.19147 -0.29766,-0.44932 -0.29766,-0.71872c0,-0.27132 0.107,-0.53014 0.29766,-0.72064c0.19089,-0.1905 0.44941,-0.2973 0.71903,-0.2973h4.06677v-12.20472h-21.35021c-0.8091,0 -1.58478,-0.32039 -2.15675,-0.8919c-0.57209,-0.57343 -0.89333,-1.34892 -0.89333,-2.15711v-40.68016c0,-0.8082 0.32124,-1.58657 0.89333,-2.15904c0.57198,-0.57055 1.34766,-0.89094 2.15675,-0.89094h54.90028c0.80898,0 1.58489,0.32039 2.15698,0.89094zM34.57195,46.76618h-8.13343v12.20472h8.13343zM48.75164,26.37463c1.33392,-1.33641 2.08466,-3.14619 2.08717,-5.03198c0,-1.40953 -0.41725,-2.78443 -1.19934,-3.95727c-0.78197,-1.169 -1.89354,-2.08207 -3.19416,-2.62086c-1.30028,-0.54072 -2.73125,-0.67927 -4.11175,-0.40602c-1.38062,0.27613 -2.64851,0.95348 -3.6438,1.95025c-0.99518,0.99485 -1.67313,2.26487 -1.94778,3.64458c-0.27477,1.38067 -0.13367,2.81041 0.40501,4.11314c0.53856,1.29985 1.45088,2.41304 2.62127,3.19719c1.17027,0.78029 2.54631,1.19594 3.95382,1.19594c1.88656,-0.00192 3.6953,-0.75239 5.02956,-2.08495zM42.70538,32.53039h2.03339v-2.09554c-0.67543,0.0789 -1.35796,0.0789 -2.03339,0zM47.49096,32.82673c0.19066,0.19147 0.29778,0.45028 0.29778,0.71872v3.0519h7.11674v-30.5094h-48.80047v30.5094h33.55042v-3.0519c0,-0.26844 0.10689,-0.52725 0.29755,-0.71872c0.19089,-0.18954 0.44941,-0.29634 0.71903,-0.29634v-2.56987c-2.0351,-0.72064 -3.75034,-2.13595 -4.84234,-3.99865c-1.09222,-1.85981 -1.49094,-4.04964 -1.12587,-6.17789c0.36472,-2.12825 1.47034,-4.06022 3.12035,-5.45051c1.65024,-1.39221 3.73947,-2.15423 5.89794,-2.15423c2.15824,0 4.24736,0.76201 5.89771,2.15423c1.65024,1.39029 2.75562,3.32226 3.12057,5.45051c0.36484,2.12825 -0.03365,4.31808 -1.12587,6.17789c-1.09222,1.8627 -2.80724,3.278 -4.84234,3.99865v2.56987c0.26939,0 0.52814,0.1068 0.7188,0.29634zM45.75523,34.56242h-4.06677v12.20376c0,0.54072 0.21435,1.05739 0.59566,1.43936c0.38143,0.38101 0.89859,0.59653 1.43795,0.59653c0.53913,0 1.05629,-0.21552 1.43795,-0.59653c0.38109,-0.38197 0.59521,-0.89864 0.59521,-1.43936zM58.97224,3.037c0,-0.27229 -0.10723,-0.53014 -0.29789,-0.72064c-0.19066,-0.19147 -0.44907,-0.29826 -0.71903,-0.29826h-54.90028c-0.26974,0 -0.52849,0.1068 -0.71915,0.29826c-0.19066,0.1905 -0.29755,0.44836 -0.29755,0.72064v40.68016c0,0.26747 0.10689,0.52629 0.29755,0.71679c0.19066,0.1905 0.44941,0.2973 0.71915,0.2973h36.60038v-6.09899h-34.56711c-0.26962,0 -0.52837,-0.10776 -0.71903,-0.29922c-0.19066,-0.18858 -0.29766,-0.44739 -0.29766,-0.72064v-32.54432c0,-0.26844 0.107,-0.52629 0.29766,-0.71679c0.19066,-0.19243 0.44941,-0.29922 0.71903,-0.29922h50.83385c0.26974,0 0.52814,0.1068 0.71892,0.29922c0.19066,0.1905 0.29778,0.44836 0.29778,0.71679v32.54432c0,0.27325 -0.10712,0.53206 -0.29778,0.72064c-0.19077,0.19147 -0.44918,0.29922 -0.71892,0.29922h-8.13343v6.09899h10.16659c0.26997,0 0.52837,-0.1068 0.71903,-0.2973c0.19066,-0.1905 0.29789,-0.44932 0.29789,-0.71679zM27.75288,42.40192c-0.19066,-0.19147 -0.29766,-0.44932 -0.29766,-0.72064c0,-0.2694 0.107,-0.52629 0.29766,-0.71872c0.19089,-0.18954 0.44941,-0.29538 0.71903,-0.29538h4.06677c0.26939,0 0.52814,0.10584 0.7188,0.29538c0.19066,0.19243 0.29755,0.44932 0.29755,0.71872c0,0.27132 -0.10689,0.52918 -0.29755,0.72064c-0.19066,0.1905 -0.44941,0.29826 -0.7188,0.29826h-4.06677c-0.26962,0 -0.52814,-0.10776 -0.71903,-0.29826zM32.24079,10.45124c0.19066,0.19147 0.29789,0.45028 0.29789,0.72064v8.13584c0,0.27036 -0.10723,0.52725 -0.29789,0.71872c-0.19066,0.1905 -0.44918,0.2973 -0.7188,0.2973h-1.01669v2.03396h1.01669c0.26962,0 0.52814,0.10776 0.7188,0.29922c0.19066,0.18858 0.29789,0.44836 0.29789,0.72064v8.13392c0,0.2694 -0.10723,0.52725 -0.29789,0.71776c-0.19066,0.19243 -0.44918,0.30115 -0.7188,0.30115h-20.33352c-0.26974,0 -0.52849,-0.10872 -0.71915,-0.30115c-0.19066,-0.1905 -0.29755,-0.44836 -0.29755,-0.71776v-8.13392c0,-0.27229 0.10689,-0.53206 0.29755,-0.72064c0.19066,-0.19147 0.44941,-0.29922 0.71915,-0.29922h1.01658v-2.03396h-1.01658c-0.26974,0 -0.52849,-0.1068 -0.71915,-0.2973c-0.19066,-0.19147 -0.29755,-0.44836 -0.29755,-0.71872v-8.13584c0,-0.27036 0.10689,-0.52918 0.29755,-0.72064c0.19066,-0.18954 0.44941,-0.29441 0.71915,-0.29441h20.33352c0.26962,0 0.52814,0.10487 0.7188,0.29441zM30.50529,24.39358h-18.30025v6.10092h18.30025zM28.47191,20.32374h-14.23347v2.03396h14.23347zM30.50529,12.18886h-18.30025v6.10188h18.30025zM13.5194,15.95948c-0.19066,-0.19147 -0.29789,-0.44932 -0.29789,-0.71872c0,-0.27229 0.10723,-0.52918 0.29789,-0.72064c0.19089,-0.19147 0.44941,-0.29826 0.71903,-0.29826h2.03339c0.26939,0 0.52814,0.1068 0.7188,0.29826c0.19066,0.19147 0.29755,0.44836 0.29755,0.72064c0,0.2694 -0.10689,0.52725 -0.29755,0.71872c-0.19066,0.1905 -0.44941,0.29826 -0.7188,0.29826h-2.03339c-0.26962,0 -0.52814,-0.10776 -0.71903,-0.29826zM19.61945,15.95948c-0.19066,-0.19147 -0.29766,-0.44932 -0.29766,-0.71872c0,-0.27229 0.107,-0.52918 0.29766,-0.72064c0.19089,-0.19147 0.44941,-0.29826 0.71903,-0.29826h2.03339c0.26939,0 0.52814,0.1068 0.7188,0.29826c0.19066,0.19147 0.29789,0.44836 0.29789,0.72064c0,0.2694 -0.10723,0.52725 -0.29789,0.71872c-0.19066,0.1905 -0.44941,0.29826 -0.7188,0.29826h-2.03339c-0.26962,0 -0.52814,-0.10776 -0.71903,-0.29826zM25.71949,15.95948c-0.19066,-0.19147 -0.29789,-0.44932 -0.29789,-0.71872c0,-0.27229 0.10723,-0.52918 0.29789,-0.72064c0.19089,-0.19147 0.44941,-0.29826 0.71903,-0.29826h2.03339c0.26939,0 0.52814,0.1068 0.7188,0.29826c0.19066,0.19147 0.29766,0.44836 0.29766,0.72064c0,0.2694 -0.107,0.52725 -0.29766,0.71872c-0.19066,0.1905 -0.44941,0.29826 -0.7188,0.29826h-2.03339c-0.26962,0 -0.52814,-0.10776 -0.71903,-0.29826zM13.5194,28.16324c-0.19066,-0.1905 -0.29789,-0.44932 -0.29789,-0.71872c0,-0.27036 0.10723,-0.53014 0.29789,-0.71968c0.19089,-0.1905 0.44941,-0.2973 0.71903,-0.2973h2.03339c0.26939,0 0.52814,0.1068 0.7188,0.2973c0.19066,0.18954 0.29755,0.44932 0.29755,0.71968c0,0.2694 -0.10689,0.52821 -0.29755,0.71872c-0.19066,0.1905 -0.44941,0.29634 -0.7188,0.29634h-2.03339c-0.26962,0 -0.52814,-0.10584 -0.71903,-0.29634zM19.61945,28.16324c-0.19066,-0.1905 -0.29766,-0.44932 -0.29766,-0.71872c0,-0.27036 0.107,-0.53014 0.29766,-0.71968c0.19089,-0.1905 0.44941,-0.2973 0.71903,-0.2973h2.03339c0.26939,0 0.52814,0.1068 0.7188,0.2973c0.19066,0.18954 0.29789,0.44932 0.29789,0.71968c0,0.2694 -0.10723,0.52821 -0.29789,0.71872c-0.19066,0.1905 -0.44941,0.29634 -0.7188,0.29634h-2.03339c-0.26962,0 -0.52814,-0.10584 -0.71903,-0.29634zM25.71949,28.16324c-0.19066,-0.1905 -0.29789,-0.44932 -0.29789,-0.71872c0,-0.27036 0.10723,-0.53014 0.29789,-0.71968c0.19089,-0.1905 0.44941,-0.2973 0.71903,-0.2973h2.03339c0.26939,0 0.52814,0.1068 0.7188,0.2973c0.19066,0.18954 0.29766,0.44932 0.29766,0.71968c0,0.2694 -0.107,0.52821 -0.29766,0.71872c-0.19066,0.1905 -0.44941,0.29634 -0.7188,0.29634h-2.03339c-0.26962,0 -0.52814,-0.10584 -0.71903,-0.29634zM49.52435,22.06232c-0.19077,0.1905 -0.44941,0.29538 -0.71892,0.29538c-0.26962,0 -0.52814,-0.10487 -0.71903,-0.29538c-0.19066,-0.19147 -0.29766,-0.44932 -0.29766,-0.71968c0,-1.07952 -0.42835,-2.11382 -1.1911,-2.87776c-0.76275,-0.76201 -1.79707,-1.19113 -2.87556,-1.19113c-0.26974,0 -0.52837,-0.1068 -0.7188,-0.29826c-0.19066,-0.19147 -0.29789,-0.44836 -0.29789,-0.71776c0,-0.2694 0.10723,-0.52821 0.29789,-0.71968c0.19043,-0.19243 0.44907,-0.2973 0.7188,-0.2973c1.61716,0 3.16795,0.64271 4.31168,1.78861c1.14361,1.14398 1.78665,2.69591 1.78814,4.31327c0,0.27036 -0.10689,0.52821 -0.29755,0.71968z" fill="#028fea" fill-opacity="1"></path><path d="M60.1123,0.87797c0.57175,0.57247 0.89333,1.35084 0.89333,2.15904v40.68016c0,0.8082 -0.32158,1.58368 -0.89333,2.15711c-0.57209,0.57151 -1.348,0.8919 -2.15698,0.8919h-10.16659c0,1.07856 -0.42835,2.11382 -1.1911,2.87776c-0.76275,0.76201 -1.79707,1.19016 -2.87556,1.19016c-1.07849,0 -2.11281,-0.42815 -2.87579,-1.19016c-0.76252,-0.76394 -1.19087,-1.7992 -1.19087,-2.87776h-3.05008v12.20472h4.06666c0.26951,0 0.52826,0.1068 0.71892,0.2973c0.19066,0.1905 0.29755,0.44932 0.29755,0.72064c0,0.2694 -0.10689,0.52725 -0.29755,0.71872c-0.19066,0.18954 -0.44941,0.29634 -0.71892,0.29634h-20.33352c-0.26962,0 -0.52814,-0.1068 -0.71903,-0.29634c-0.19066,-0.19147 -0.29766,-0.44932 -0.29766,-0.71872c0,-0.27132 0.107,-0.53014 0.29766,-0.72064c0.19089,-0.1905 0.44941,-0.2973 0.71903,-0.2973h4.06677v-12.20472h-21.35021c-0.8091,0 -1.58478,-0.32039 -2.15675,-0.8919c-0.57209,-0.57343 -0.89333,-1.34892 -0.89333,-2.15711v-40.68016c0,-0.8082 0.32124,-1.58657 0.89333,-2.15904c0.57198,-0.57055 1.34766,-0.89094 2.15675,-0.89094h54.90028c0.80898,0 1.58489,0.32039 2.15698,0.89094zM34.57195,46.76618h-8.13343v12.20472h8.13343zM48.75164,26.37463c1.33392,-1.33641 2.08466,-3.14619 2.08717,-5.03198c0,-1.40953 -0.41725,-2.78443 -1.19934,-3.95727c-0.78197,-1.169 -1.89354,-2.08207 -3.19416,-2.62086c-1.30028,-0.54072 -2.73125,-0.67927 -4.11175,-0.40602c-1.38062,0.27613 -2.64851,0.95348 -3.6438,1.95025c-0.99518,0.99485 -1.67313,2.26487 -1.94778,3.64458c-0.27477,1.38067 -0.13367,2.81041 0.40501,4.11314c0.53856,1.29985 1.45088,2.41304 2.62127,3.19719c1.17027,0.78029 2.54631,1.19594 3.95382,1.19594c1.88656,-0.00192 3.6953,-0.75239 5.02956,-2.08495zM42.70538,32.53039h2.03339v-2.09554c-0.67543,0.0789 -1.35796,0.0789 -2.03339,0zM47.49096,32.82673c0.19066,0.19147 0.29778,0.45028 0.29778,0.71872v3.0519h7.11674v-30.5094h-48.80047v30.5094h33.55042v-3.0519c0,-0.26844 0.10689,-0.52725 0.29755,-0.71872c0.19089,-0.18954 0.44941,-0.29634 0.71903,-0.29634v-2.56987c-2.0351,-0.72064 -3.75034,-2.13595 -4.84234,-3.99865c-1.09222,-1.85981 -1.49094,-4.04964 -1.12587,-6.17789c0.36472,-2.12825 1.47034,-4.06022 3.12035,-5.45051c1.65024,-1.39221 3.73947,-2.15423 5.89794,-2.15423c2.15824,0 4.24736,0.76201 5.89771,2.15423c1.65024,1.39029 2.75562,3.32226 3.12057,5.45051c0.36484,2.12825 -0.03365,4.31808 -1.12587,6.17789c-1.09222,1.8627 -2.80724,3.278 -4.84234,3.99865v2.56987c0.26939,0 0.52814,0.1068 0.7188,0.29634zM45.75523,34.56242h-4.06677v12.20376c0,0.54072 0.21435,1.05739 0.59566,1.43936c0.38143,0.38101 0.89859,0.59653 1.43795,0.59653c0.53913,0 1.05629,-0.21552 1.43795,-0.59653c0.38109,-0.38197 0.59521,-0.89864 0.59521,-1.43936zM58.97224,3.037c0,-0.27229 -0.10723,-0.53014 -0.29789,-0.72064c-0.19066,-0.19147 -0.44907,-0.29826 -0.71903,-0.29826h-54.90028c-0.26974,0 -0.52849,0.1068 -0.71915,0.29826c-0.19066,0.1905 -0.29755,0.44836 -0.29755,0.72064v40.68016c0,0.26747 0.10689,0.52629 0.29755,0.71679c0.19066,0.1905 0.44941,0.2973 0.71915,0.2973h36.60038v-6.09899h-34.56711c-0.26962,0 -0.52837,-0.10776 -0.71903,-0.29922c-0.19066,-0.18858 -0.29766,-0.44739 -0.29766,-0.72064v-32.54432c0,-0.26844 0.107,-0.52629 0.29766,-0.71679c0.19066,-0.19243 0.44941,-0.29922 0.71903,-0.29922h50.83385c0.26974,0 0.52814,0.1068 0.71892,0.29922c0.19066,0.1905 0.29778,0.44836 0.29778,0.71679v32.54432c0,0.27325 -0.10712,0.53206 -0.29778,0.72064c-0.19077,0.19147 -0.44918,0.29922 -0.71892,0.29922h-8.13343v6.09899h10.16659c0.26997,0 0.52837,-0.1068 0.71903,-0.2973c0.19066,-0.1905 0.29789,-0.44932 0.29789,-0.71679zM27.75288,42.40192c-0.19066,-0.19147 -0.29766,-0.44932 -0.29766,-0.72064c0,-0.2694 0.107,-0.52629 0.29766,-0.71872c0.19089,-0.18954 0.44941,-0.29538 0.71903,-0.29538h4.06677c0.26939,0 0.52814,0.10584 0.7188,0.29538c0.19066,0.19243 0.29755,0.44932 0.29755,0.71872c0,0.27132 -0.10689,0.52918 -0.29755,0.72064c-0.19066,0.1905 -0.44941,0.29826 -0.7188,0.29826h-4.06677c-0.26962,0 -0.52814,-0.10776 -0.71903,-0.29826zM32.24079,10.45124c0.19066,0.19147 0.29789,0.45028 0.29789,0.72064v8.13584c0,0.27036 -0.10723,0.52725 -0.29789,0.71872c-0.19066,0.1905 -0.44918,0.2973 -0.7188,0.2973h-1.01669v2.03396h1.01669c0.26962,0 0.52814,0.10776 0.7188,0.29922c0.19066,0.18858 0.29789,0.44836 0.29789,0.72064v8.13392c0,0.2694 -0.10723,0.52725 -0.29789,0.71776c-0.19066,0.19243 -0.44918,0.30115 -0.7188,0.30115h-20.33352c-0.26974,0 -0.52849,-0.10872 -0.71915,-0.30115c-0.19066,-0.1905 -0.29755,-0.44836 -0.29755,-0.71776v-8.13392c0,-0.27229 0.10689,-0.53206 0.29755,-0.72064c0.19066,-0.19147 0.44941,-0.29922 0.71915,-0.29922h1.01658v-2.03396h-1.01658c-0.26974,0 -0.52849,-0.1068 -0.71915,-0.2973c-0.19066,-0.19147 -0.29755,-0.44836 -0.29755,-0.71872v-8.13584c0,-0.27036 0.10689,-0.52918 0.29755,-0.72064c0.19066,-0.18954 0.44941,-0.29441 0.71915,-0.29441h20.33352c0.26962,0 0.52814,0.10487 0.7188,0.29441zM30.50529,24.39358h-18.30025v6.10092h18.30025zM28.47191,20.32374h-14.23347v2.03396h14.23347zM30.50529,12.18886h-18.30025v6.10188h18.30025zM13.5194,15.95948c-0.19066,-0.19147 -0.29789,-0.44932 -0.29789,-0.71872c0,-0.27229 0.10723,-0.52918 0.29789,-0.72064c0.19089,-0.19147 0.44941,-0.29826 0.71903,-0.29826h2.03339c0.26939,0 0.52814,0.1068 0.7188,0.29826c0.19066,0.19147 0.29755,0.44836 0.29755,0.72064c0,0.2694 -0.10689,0.52725 -0.29755,0.71872c-0.19066,0.1905 -0.44941,0.29826 -0.7188,0.29826h-2.03339c-0.26962,0 -0.52814,-0.10776 -0.71903,-0.29826zM19.61945,15.95948c-0.19066,-0.19147 -0.29766,-0.44932 -0.29766,-0.71872c0,-0.27229 0.107,-0.52918 0.29766,-0.72064c0.19089,-0.19147 0.44941,-0.29826 0.71903,-0.29826h2.03339c0.26939,0 0.52814,0.1068 0.7188,0.29826c0.19066,0.19147 0.29789,0.44836 0.29789,0.72064c0,0.2694 -0.10723,0.52725 -0.29789,0.71872c-0.19066,0.1905 -0.44941,0.29826 -0.7188,0.29826h-2.03339c-0.26962,0 -0.52814,-0.10776 -0.71903,-0.29826zM25.71949,15.95948c-0.19066,-0.19147 -0.29789,-0.44932 -0.29789,-0.71872c0,-0.27229 0.10723,-0.52918 0.29789,-0.72064c0.19089,-0.19147 0.44941,-0.29826 0.71903,-0.29826h2.03339c0.26939,0 0.52814,0.1068 0.7188,0.29826c0.19066,0.19147 0.29766,0.44836 0.29766,0.72064c0,0.2694 -0.107,0.52725 -0.29766,0.71872c-0.19066,0.1905 -0.44941,0.29826 -0.7188,0.29826h-2.03339c-0.26962,0 -0.52814,-0.10776 -0.71903,-0.29826zM13.5194,28.16324c-0.19066,-0.1905 -0.29789,-0.44932 -0.29789,-0.71872c0,-0.27036 0.10723,-0.53014 0.29789,-0.71968c0.19089,-0.1905 0.44941,-0.2973 0.71903,-0.2973h2.03339c0.26939,0 0.52814,0.1068 0.7188,0.2973c0.19066,0.18954 0.29755,0.44932 0.29755,0.71968c0,0.2694 -0.10689,0.52821 -0.29755,0.71872c-0.19066,0.1905 -0.44941,0.29634 -0.7188,0.29634h-2.03339c-0.26962,0 -0.52814,-0.10584 -0.71903,-0.29634zM19.61945,28.16324c-0.19066,-0.1905 -0.29766,-0.44932 -0.29766,-0.71872c0,-0.27036 0.107,-0.53014 0.29766,-0.71968c0.19089,-0.1905 0.44941,-0.2973 0.71903,-0.2973h2.03339c0.26939,0 0.52814,0.1068 0.7188,0.2973c0.19066,0.18954 0.29789,0.44932 0.29789,0.71968c0,0.2694 -0.10723,0.52821 -0.29789,0.71872c-0.19066,0.1905 -0.44941,0.29634 -0.7188,0.29634h-2.03339c-0.26962,0 -0.52814,-0.10584 -0.71903,-0.29634zM25.71949,28.16324c-0.19066,-0.1905 -0.29789,-0.44932 -0.29789,-0.71872c0,-0.27036 0.10723,-0.53014 0.29789,-0.71968c0.19089,-0.1905 0.44941,-0.2973 0.71903,-0.2973h2.03339c0.26939,0 0.52814,0.1068 0.7188,0.2973c0.19066,0.18954 0.29766,0.44932 0.29766,0.71968c0,0.2694 -0.107,0.52821 -0.29766,0.71872c-0.19066,0.1905 -0.44941,0.29634 -0.7188,0.29634h-2.03339c-0.26962,0 -0.52814,-0.10584 -0.71903,-0.29634zM49.52435,22.06232c-0.19077,0.1905 -0.44941,0.29538 -0.71892,0.29538c-0.26962,0 -0.52814,-0.10487 -0.71903,-0.29538c-0.19066,-0.19147 -0.29766,-0.44932 -0.29766,-0.71968c0,-1.07952 -0.42835,-2.11382 -1.1911,-2.87776c-0.76275,-0.76201 -1.79707,-1.19113 -2.87556,-1.19113c-0.26974,0 -0.52837,-0.1068 -0.7188,-0.29826c-0.19066,-0.19147 -0.29789,-0.44836 -0.29789,-0.71776c0,-0.2694 0.10723,-0.52821 0.29789,-0.71968c0.19043,-0.19243 0.44907,-0.2973 0.7188,-0.2973c1.61716,0 3.16795,0.64271 4.31168,1.78861c1.14361,1.14398 1.78665,2.69591 1.78814,4.31327c0,0.27036 -0.10689,0.52821 -0.29755,0.71968z" fill="url(#LinearGradient1165)"></path></g></g></svg>