<?xml version="1.0" encoding="UTF-8"?>
<svg id="SVGDoc" width="57" height="66" xmlns="http://www.w3.org/2000/svg" version="1.1" xmlns:xlink="http://www.w3.org/1999/xlink" xmlns:avocode="https://avocode.com/" viewBox="0 0 57 66"><defs><linearGradient id="LinearGradient1215" gradientUnits="userSpaceOnUse" x1="-0.007149219512939453" y1="7.000351428985596" x2="56.99285078048706" y2="59.00054979324341"><stop stop-opacity="0" stop-color="#ffffff" offset="0"></stop><stop stop-opacity="1" stop-color="#0d225d" offset="1"></stop></linearGradient></defs><desc>Generated with Avocode.</desc><g><g><title>Shape 52</title><path d="M14.12093,10.68798c-0.10677,0.31173 -0.50789,0.46279 -0.91736,0.46279c-0.40089,0 -0.82832,-0.15106 -0.89951,-0.46279l-0.46314,-2.12055l-0.46303,2.12055c-0.07118,0.31173 -0.49862,0.46279 -0.89951,0.46279c-0.4097,0 -0.8194,-0.15106 -0.91736,-0.46279l-1.77258,-5.45725c-0.18253,-0.55131 1.17107,-0.95829 1.32706,-0.41083l1.35384,4.5894l0.70347,-3.02496c0.05367,-0.23861 0.3653,-0.36465 0.66788,-0.36465c0.30315,0 0.61478,0.12604 0.66811,0.36465l0.70358,3.02496l1.35384,-4.5894c0.15564,-0.54746 1.5097,-0.14047 1.32694,0.41083zM16.95174,10.5273c0,-0.07505 -0.04143,0.10968 1.6745,-5.55635c0.09796,-0.31173 0.49885,-0.46279 0.90855,-0.46279c0.4097,0 0.81024,0.15106 0.90832,0.46279c1.73824,5.70933 1.68331,5.48226 1.68331,5.55635c0,0.33001 -0.50777,0.57247 -0.89058,0.57247c-0.22259,0 -0.40066,-0.07312 -0.45422,-0.26074l-0.3027,-1.118h-1.87958l-0.30258,1.118c-0.05344,0.18762 -0.23163,0.26074 -0.45433,0.26074c-0.3828,0 -0.89069,-0.24246 -0.89069,-0.57247zM20.18492,8.64728l-0.64991,-2.39476l-0.65037,2.39476zM27.06133,10.72262l-1.69224,-3.0952v3.04324c0,0.28576 -0.34721,0.42911 -0.69477,0.42911c-0.34721,0 -0.69466,-0.14336 -0.69466,-0.42911v-5.68143c0,-0.29441 0.34744,-0.42911 0.69466,-0.42911c0.49896,0 0.68596,0.04522 1.02425,0.69755l1.44276,2.76326v-3.04036c0,-0.29441 0.34756,-0.42045 0.69477,-0.42045c0.34744,0 0.69466,0.12604 0.69466,0.42045v5.69009c0,0.28576 -0.34721,0.42911 -0.69466,0.42911c-0.32043,0 -0.60551,-0.06446 -0.77477,-0.37716zM34.68321,4.56012c0.29411,0 0.41874,0.32424 0.41874,0.61865c0,0.33963 -0.15141,0.63212 -0.41874,0.63212h-1.22898v4.85976c0,0.28576 -0.34721,0.42911 -0.69466,0.42911c-0.34756,0 -0.69477,-0.14336 -0.69477,-0.42911v-4.85976h-1.22898c-0.26722,0 -0.41862,-0.29249 -0.41862,-0.63212c0,-0.29441 0.12486,-0.61865 0.41862,-0.61865zM38.37874,7.28778h1.33598c0.26733,0 0.41874,0.26074 0.41874,0.54746c0,0.24053 -0.12463,0.52629 -0.41874,0.52629h-1.33598v1.52018h2.38701c0.26722,0 0.41874,0.28672 0.41874,0.61673c0,0.28576 -0.12486,0.60134 -0.41874,0.60134h-3.1707c-0.30293,0 -0.60551,-0.14336 -0.60551,-0.42911v-5.68143c0,-0.28479 0.30258,-0.42911 0.60551,-0.42911h3.1707c0.29388,0 0.41874,0.31173 0.41874,0.59941c0,0.33194 -0.15152,0.61769 -0.41874,0.61769h-2.38701zM45.30733,4.56012c1.22898,0 2.19097,0.57343 2.19097,2.11189v2.31683c0,1.53846 -0.96199,2.11093 -2.19097,2.11093h-1.57642c-0.36507,0 -0.60551,-0.19628 -0.60551,-0.42045v-5.69874c0,-0.22225 0.24044,-0.42045 0.60551,-0.42045zM44.5146,5.77723v4.10448h0.79308c0.49839,0 0.8012,-0.28479 0.8012,-0.89286v-2.31683c0,-0.61 -0.30281,-0.89479 -0.8012,-0.89479zM24.96397,38.08005c0,-1.39318 1.12965,-2.5285 2.51804,-2.5285h2.01382c1.3884,0 2.51839,1.13532 2.51839,2.5285c0,0.53302 -0.43098,0.96695 -0.96279,0.96695c-0.53169,0 -0.96268,-0.43392 -0.96268,-0.96695c0,-0.32905 -0.26608,-0.5946 -0.59292,-0.5946h-2.01382c-0.32684,0 -0.59292,0.26555 -0.59292,0.5946c0,0.53302 -0.43064,0.96695 -0.96245,0.96695c-0.53169,0 -0.96268,-0.43392 -0.96268,-0.96695zM53.48837,0.00055c1.93039,0 3.50086,1.57791 3.50063,3.51469v58.96849c0,1.93775 -1.57024,3.51662 -3.50063,3.51662h-49.99489c-1.93039,0 -3.50063,-1.57887 -3.50063,-3.51662v-58.96849c0,-1.93678 1.57047,-3.51469 3.50063,-3.51469zM55.06377,3.51524c0,-0.87266 -0.70667,-1.58176 -1.57539,-1.58176h-49.99489c-0.86838,0 -1.57516,0.7091 -1.57516,1.58176v58.96849c0,0.87458 0.70679,1.58272 1.57516,1.58272h49.99489c0.86872,0 1.57539,-0.70813 1.57539,-1.58272zM52.23181,16.41559v41.65962c0,1.7357 -1.40705,3.15004 -3.13671,3.15004h-41.21166c-1.72989,0 -3.13683,-1.41434 -3.13683,-3.15004v-7.34785c0,-0.53399 0.43098,-0.96791 0.96268,-0.96791c0.53181,0 0.96279,0.43392 0.96279,0.96791v7.34785c0,0.66965 0.54325,1.21326 1.21136,1.21326h1.34205v-7.94534c0,-3.59359 2.48909,-6.48481 5.80605,-7.17851l8.29479,-1.62409v-1.72415c-1.74625,-1.34603 -2.70973,-3.16543 -2.97569,-5.14648c-1.06636,-0.1905 -1.87889,-1.12859 -1.87889,-2.25237v-7.99441c0,-3.82257 3.0938,-6.93124 6.89884,-6.93509c0.00103,0 6.2273,0 6.22845,0c2.36366,0 4.53804,1.19113 5.81623,3.19237c0.28759,0.45028 0.1577,1.04488 -0.28988,1.33352c-0.44746,0.29057 -1.04313,0.15971 -1.33026,-0.29057c-0.92262,-1.44321 -2.49104,-2.30336 -4.19609,-2.30336h-6.21998c-2.7467,0 -4.98184,2.24467 -4.98184,5.00312v3.54644c0.43831,0.04426 0.95901,0.12893 1.45042,0.29345v-3.55991c0,-1.601 1.29787,-2.90566 2.89318,-2.90566h0.78827c1.67667,0 1.92867,1.1411 2.96013,1.1411c1.00788,0 1.30646,-1.1411 2.96036,-1.1411h0.78804c1.59519,0 2.89295,1.30466 2.89295,2.90566v3.55991c0.49129,-0.16453 1.01212,-0.24919 1.45054,-0.29345v-2.34762c0,-0.53399 0.43121,-0.96502 0.96279,-0.96502c0.53169,0 0.96268,0.43104 0.96268,0.96502c0,1.96565 0,4.47683 0,6.79558c0,1.12378 -0.81253,2.06186 -1.87878,2.25237c-0.26802,1.99163 -1.23882,3.80718 -2.97569,5.14648v1.72415l8.28346,1.62216c3.33572,0.69755 5.81749,3.59262 5.81749,7.18044v7.94534h1.34205c0.66788,0 1.21124,-0.54361 1.21124,-1.21326v-41.65962c0,-0.67157 -0.54337,-1.21518 -1.21124,-1.21518h-41.21166c-0.66811,0 -1.21136,0.54361 -1.21136,1.21518v29.79165c0,0.53302 -0.43098,0.96791 -0.96279,0.96791c-0.53169,0 -0.96268,-0.43489 -0.96268,-0.96791v-29.79165c0,-1.7357 1.40694,-3.14908 3.13683,-3.14908h41.21143c1.72989,0 3.13694,1.41338 3.13694,3.14908zM45.82758,59.28847v-2.85563h-4.27013c-0.63755,0 -1.1562,0.52148 -1.1562,1.1613v1.69433zM24.82333,39.51845c0.00366,0.00192 0.00744,0.00385 0.01122,0.0077c1.09715,0.74951 2.32235,1.13629 3.65467,1.1536c1.33221,-0.01732 2.55775,-0.4041 3.65433,-1.1536c0.00423,-0.00385 0.00778,-0.00577 0.01179,-0.0077c1.77155,-1.21326 2.57858,-2.9605 2.61818,-4.80492c0.01133,-0.52533 0.43877,-0.94674 0.96245,-0.94674h0.49622c0.19249,0 0.34893,-0.15587 0.34893,-0.34926v-2.50156c-0.58216,0.07793 -1.11809,0.22129 -1.30142,0.40217c-0.34996,0.34926 -0.86975,0.44932 -1.32454,0.25882c-0.45547,-0.19243 -0.75005,-0.63405 -0.75005,-1.13051v-4.74334c0,-0.53591 -0.43407,-0.9708 -0.96783,-0.9708h-0.78793c-0.83084,0 -1.13445,1.13917 -2.96013,1.13917c-1.82648,0 -2.1381,-1.13917 -2.96013,-1.13917h-0.78827c-0.53352,0 -0.96771,0.43489 -0.96771,0.9708v4.74334c0,1.08433 -1.3068,1.63275 -2.07447,0.8717c-0.18299,-0.18088 -0.71926,-0.32424 -1.30142,-0.40217v2.50156c0,0.19339 0.15667,0.34926 0.34927,0.34926h0.49587c0.52345,0 0.95146,0.42142 0.96279,0.94674c0.03983,1.86462 0.86288,3.60225 2.61818,4.80492zM25.25179,41.94977v1.38837c0,1.79246 1.45203,3.25203 3.23742,3.25203c1.78505,0 3.23742,-1.45956 3.23742,-3.25203v-1.38837c-1.00788,0.42719 -2.08591,0.65041 -3.22666,0.66484c-0.00355,0 -0.02151,0 -0.02151,0c-1.14075,-0.01443 -2.21889,-0.23765 -3.22666,-0.66484zM11.15073,51.34313v3.15485h4.26991c1.69956,0 3.08201,1.38933 3.08201,3.09616v1.69433h19.97314v-1.69433c0,-1.70683 1.38245,-3.09616 3.08167,-3.09616h4.27013v-3.15485c0,-2.69014 -1.8663,-4.78183 -4.27231,-5.28406l-8.03226,-1.57213c-0.52208,2.30721 -2.57984,4.03617 -5.0338,4.03617c-2.4543,0 -4.51206,-1.72896 -5.03403,-4.03617l-8.04359,1.57406c-2.39353,0.50031 -4.26064,2.59392 -4.26064,5.28214zM11.15096,56.43284v2.85563h5.42622v-1.69433c0,-0.63982 -0.51876,-1.1613 -1.15631,-1.1613z" fill="#028fea" fill-opacity="1"></path><path d="M14.12093,10.68798c-0.10677,0.31173 -0.50789,0.46279 -0.91736,0.46279c-0.40089,0 -0.82832,-0.15106 -0.89951,-0.46279l-0.46314,-2.12055l-0.46303,2.12055c-0.07118,0.31173 -0.49862,0.46279 -0.89951,0.46279c-0.4097,0 -0.8194,-0.15106 -0.91736,-0.46279l-1.77258,-5.45725c-0.18253,-0.55131 1.17107,-0.95829 1.32706,-0.41083l1.35384,4.5894l0.70347,-3.02496c0.05367,-0.23861 0.3653,-0.36465 0.66788,-0.36465c0.30315,0 0.61478,0.12604 0.66811,0.36465l0.70358,3.02496l1.35384,-4.5894c0.15564,-0.54746 1.5097,-0.14047 1.32694,0.41083zM16.95174,10.5273c0,-0.07505 -0.04143,0.10968 1.6745,-5.55635c0.09796,-0.31173 0.49885,-0.46279 0.90855,-0.46279c0.4097,0 0.81024,0.15106 0.90832,0.46279c1.73824,5.70933 1.68331,5.48226 1.68331,5.55635c0,0.33001 -0.50777,0.57247 -0.89058,0.57247c-0.22259,0 -0.40066,-0.07312 -0.45422,-0.26074l-0.3027,-1.118h-1.87958l-0.30258,1.118c-0.05344,0.18762 -0.23163,0.26074 -0.45433,0.26074c-0.3828,0 -0.89069,-0.24246 -0.89069,-0.57247zM20.18492,8.64728l-0.64991,-2.39476l-0.65037,2.39476zM27.06133,10.72262l-1.69224,-3.0952v3.04324c0,0.28576 -0.34721,0.42911 -0.69477,0.42911c-0.34721,0 -0.69466,-0.14336 -0.69466,-0.42911v-5.68143c0,-0.29441 0.34744,-0.42911 0.69466,-0.42911c0.49896,0 0.68596,0.04522 1.02425,0.69755l1.44276,2.76326v-3.04036c0,-0.29441 0.34756,-0.42045 0.69477,-0.42045c0.34744,0 0.69466,0.12604 0.69466,0.42045v5.69009c0,0.28576 -0.34721,0.42911 -0.69466,0.42911c-0.32043,0 -0.60551,-0.06446 -0.77477,-0.37716zM34.68321,4.56012c0.29411,0 0.41874,0.32424 0.41874,0.61865c0,0.33963 -0.15141,0.63212 -0.41874,0.63212h-1.22898v4.85976c0,0.28576 -0.34721,0.42911 -0.69466,0.42911c-0.34756,0 -0.69477,-0.14336 -0.69477,-0.42911v-4.85976h-1.22898c-0.26722,0 -0.41862,-0.29249 -0.41862,-0.63212c0,-0.29441 0.12486,-0.61865 0.41862,-0.61865zM38.37874,7.28778h1.33598c0.26733,0 0.41874,0.26074 0.41874,0.54746c0,0.24053 -0.12463,0.52629 -0.41874,0.52629h-1.33598v1.52018h2.38701c0.26722,0 0.41874,0.28672 0.41874,0.61673c0,0.28576 -0.12486,0.60134 -0.41874,0.60134h-3.1707c-0.30293,0 -0.60551,-0.14336 -0.60551,-0.42911v-5.68143c0,-0.28479 0.30258,-0.42911 0.60551,-0.42911h3.1707c0.29388,0 0.41874,0.31173 0.41874,0.59941c0,0.33194 -0.15152,0.61769 -0.41874,0.61769h-2.38701zM45.30733,4.56012c1.22898,0 2.19097,0.57343 2.19097,2.11189v2.31683c0,1.53846 -0.96199,2.11093 -2.19097,2.11093h-1.57642c-0.36507,0 -0.60551,-0.19628 -0.60551,-0.42045v-5.69874c0,-0.22225 0.24044,-0.42045 0.60551,-0.42045zM44.5146,5.77723v4.10448h0.79308c0.49839,0 0.8012,-0.28479 0.8012,-0.89286v-2.31683c0,-0.61 -0.30281,-0.89479 -0.8012,-0.89479zM24.96397,38.08005c0,-1.39318 1.12965,-2.5285 2.51804,-2.5285h2.01382c1.3884,0 2.51839,1.13532 2.51839,2.5285c0,0.53302 -0.43098,0.96695 -0.96279,0.96695c-0.53169,0 -0.96268,-0.43392 -0.96268,-0.96695c0,-0.32905 -0.26608,-0.5946 -0.59292,-0.5946h-2.01382c-0.32684,0 -0.59292,0.26555 -0.59292,0.5946c0,0.53302 -0.43064,0.96695 -0.96245,0.96695c-0.53169,0 -0.96268,-0.43392 -0.96268,-0.96695zM53.48837,0.00055c1.93039,0 3.50086,1.57791 3.50063,3.51469v58.96849c0,1.93775 -1.57024,3.51662 -3.50063,3.51662h-49.99489c-1.93039,0 -3.50063,-1.57887 -3.50063,-3.51662v-58.96849c0,-1.93678 1.57047,-3.51469 3.50063,-3.51469zM55.06377,3.51524c0,-0.87266 -0.70667,-1.58176 -1.57539,-1.58176h-49.99489c-0.86838,0 -1.57516,0.7091 -1.57516,1.58176v58.96849c0,0.87458 0.70679,1.58272 1.57516,1.58272h49.99489c0.86872,0 1.57539,-0.70813 1.57539,-1.58272zM52.23181,16.41559v41.65962c0,1.7357 -1.40705,3.15004 -3.13671,3.15004h-41.21166c-1.72989,0 -3.13683,-1.41434 -3.13683,-3.15004v-7.34785c0,-0.53399 0.43098,-0.96791 0.96268,-0.96791c0.53181,0 0.96279,0.43392 0.96279,0.96791v7.34785c0,0.66965 0.54325,1.21326 1.21136,1.21326h1.34205v-7.94534c0,-3.59359 2.48909,-6.48481 5.80605,-7.17851l8.29479,-1.62409v-1.72415c-1.74625,-1.34603 -2.70973,-3.16543 -2.97569,-5.14648c-1.06636,-0.1905 -1.87889,-1.12859 -1.87889,-2.25237v-7.99441c0,-3.82257 3.0938,-6.93124 6.89884,-6.93509c0.00103,0 6.2273,0 6.22845,0c2.36366,0 4.53804,1.19113 5.81623,3.19237c0.28759,0.45028 0.1577,1.04488 -0.28988,1.33352c-0.44746,0.29057 -1.04313,0.15971 -1.33026,-0.29057c-0.92262,-1.44321 -2.49104,-2.30336 -4.19609,-2.30336h-6.21998c-2.7467,0 -4.98184,2.24467 -4.98184,5.00312v3.54644c0.43831,0.04426 0.95901,0.12893 1.45042,0.29345v-3.55991c0,-1.601 1.29787,-2.90566 2.89318,-2.90566h0.78827c1.67667,0 1.92867,1.1411 2.96013,1.1411c1.00788,0 1.30646,-1.1411 2.96036,-1.1411h0.78804c1.59519,0 2.89295,1.30466 2.89295,2.90566v3.55991c0.49129,-0.16453 1.01212,-0.24919 1.45054,-0.29345v-2.34762c0,-0.53399 0.43121,-0.96502 0.96279,-0.96502c0.53169,0 0.96268,0.43104 0.96268,0.96502c0,1.96565 0,4.47683 0,6.79558c0,1.12378 -0.81253,2.06186 -1.87878,2.25237c-0.26802,1.99163 -1.23882,3.80718 -2.97569,5.14648v1.72415l8.28346,1.62216c3.33572,0.69755 5.81749,3.59262 5.81749,7.18044v7.94534h1.34205c0.66788,0 1.21124,-0.54361 1.21124,-1.21326v-41.65962c0,-0.67157 -0.54337,-1.21518 -1.21124,-1.21518h-41.21166c-0.66811,0 -1.21136,0.54361 -1.21136,1.21518v29.79165c0,0.53302 -0.43098,0.96791 -0.96279,0.96791c-0.53169,0 -0.96268,-0.43489 -0.96268,-0.96791v-29.79165c0,-1.7357 1.40694,-3.14908 3.13683,-3.14908h41.21143c1.72989,0 3.13694,1.41338 3.13694,3.14908zM45.82758,59.28847v-2.85563h-4.27013c-0.63755,0 -1.1562,0.52148 -1.1562,1.1613v1.69433zM24.82333,39.51845c0.00366,0.00192 0.00744,0.00385 0.01122,0.0077c1.09715,0.74951 2.32235,1.13629 3.65467,1.1536c1.33221,-0.01732 2.55775,-0.4041 3.65433,-1.1536c0.00423,-0.00385 0.00778,-0.00577 0.01179,-0.0077c1.77155,-1.21326 2.57858,-2.9605 2.61818,-4.80492c0.01133,-0.52533 0.43877,-0.94674 0.96245,-0.94674h0.49622c0.19249,0 0.34893,-0.15587 0.34893,-0.34926v-2.50156c-0.58216,0.07793 -1.11809,0.22129 -1.30142,0.40217c-0.34996,0.34926 -0.86975,0.44932 -1.32454,0.25882c-0.45547,-0.19243 -0.75005,-0.63405 -0.75005,-1.13051v-4.74334c0,-0.53591 -0.43407,-0.9708 -0.96783,-0.9708h-0.78793c-0.83084,0 -1.13445,1.13917 -2.96013,1.13917c-1.82648,0 -2.1381,-1.13917 -2.96013,-1.13917h-0.78827c-0.53352,0 -0.96771,0.43489 -0.96771,0.9708v4.74334c0,1.08433 -1.3068,1.63275 -2.07447,0.8717c-0.18299,-0.18088 -0.71926,-0.32424 -1.30142,-0.40217v2.50156c0,0.19339 0.15667,0.34926 0.34927,0.34926h0.49587c0.52345,0 0.95146,0.42142 0.96279,0.94674c0.03983,1.86462 0.86288,3.60225 2.61818,4.80492zM25.25179,41.94977v1.38837c0,1.79246 1.45203,3.25203 3.23742,3.25203c1.78505,0 3.23742,-1.45956 3.23742,-3.25203v-1.38837c-1.00788,0.42719 -2.08591,0.65041 -3.22666,0.66484c-0.00355,0 -0.02151,0 -0.02151,0c-1.14075,-0.01443 -2.21889,-0.23765 -3.22666,-0.66484zM11.15073,51.34313v3.15485h4.26991c1.69956,0 3.08201,1.38933 3.08201,3.09616v1.69433h19.97314v-1.69433c0,-1.70683 1.38245,-3.09616 3.08167,-3.09616h4.27013v-3.15485c0,-2.69014 -1.8663,-4.78183 -4.27231,-5.28406l-8.03226,-1.57213c-0.52208,2.30721 -2.57984,4.03617 -5.0338,4.03617c-2.4543,0 -4.51206,-1.72896 -5.03403,-4.03617l-8.04359,1.57406c-2.39353,0.50031 -4.26064,2.59392 -4.26064,5.28214zM11.15096,56.43284v2.85563h5.42622v-1.69433c0,-0.63982 -0.51876,-1.1613 -1.15631,-1.1613z" fill="url(#LinearGradient1215)"></path></g></g></svg>