<?xml version="1.0" encoding="UTF-8"?>
<svg id="SVGDoc" width="61" height="61" xmlns="http://www.w3.org/2000/svg" version="1.1" xmlns:xlink="http://www.w3.org/1999/xlink" xmlns:avocode="https://avocode.com/" viewBox="0 0 61 61"><defs><linearGradient id="LinearGradient1240" gradientUnits="userSpaceOnUse" x1="-0.015048980712890625" y1="2.9731292724609375" x2="60.98495101928711" y2="58.014949798583984"><stop stop-opacity="0" stop-color="#ffffff" offset="0"></stop><stop stop-opacity="1" stop-color="#0d225d" offset="1"></stop></linearGradient></defs><desc>Generated with Avocode.</desc><g><g><title>Shape 51</title><path d="M5.06864,10.17414c0,-0.56189 0.45536,-1.01602 1.01669,-1.01602h6.10062c0.56133,0 1.01681,0.45413 1.01681,1.01602c0,0.55996 -0.45547,1.01506 -1.01681,1.01506h-6.10062c-0.56133,0 -1.01669,-0.45509 -1.01669,-1.01506zM16.25295,10.17414c0,-0.56189 0.45513,-1.01602 1.01669,-1.01602h9.1507c0.56156,0 1.01669,0.45413 1.01669,1.01602c0,0.55996 -0.45513,1.01506 -1.01669,1.01506h-9.1507c-0.56156,0 -1.01669,-0.45509 -1.01669,-1.01506zM5.06864,21.34938c0,-0.56093 0.45536,-1.01506 1.01669,-1.01506h32.53578c0.56156,0 1.01681,0.45413 1.01681,1.01506c0,0.56093 -0.45525,1.01602 -1.01681,1.01602h-32.53578c-0.56133,0 -1.01669,-0.45509 -1.01669,-1.01602zM5.06864,25.41345c0,-0.55996 0.45536,-1.01602 1.01669,-1.01602h14.2345c0.56133,0 1.01681,0.45605 1.01681,1.01602c0,0.56093 -0.45547,1.01602 -1.01681,1.01602h-14.2345c-0.56133,0 -1.01669,-0.45509 -1.01669,-1.01602zM5.06864,33.54159c0,-0.56093 0.45536,-1.01506 1.01669,-1.01506h14.2345c0.56133,0 1.01681,0.45413 1.01681,1.01506c0,0.56093 -0.45547,1.01602 -1.01681,1.01602h-14.2345c-0.56133,0 -1.01669,-0.45509 -1.01669,-1.01602zM5.06864,41.66878c0,-0.55996 0.45536,-1.01602 1.01669,-1.01602h14.2345c0.56133,0 1.01681,0.45605 1.01681,1.01602c0,0.56189 -0.45547,1.01602 -1.01681,1.01602h-14.2345c-0.56133,0 -1.01669,-0.45413 -1.01669,-1.01602zM5.06864,49.79692c0,-0.56093 0.45536,-1.01602 1.01669,-1.01602h14.2345c0.56133,0 1.01681,0.45509 1.01681,1.01602c0,0.55996 -0.45547,1.01602 -1.01681,1.01602h-14.2345c-0.56133,0 -1.01669,-0.45605 -1.01669,-1.01602zM60.98962,30.54261v14.69185c-0.01053,3.34151 -1.63502,6.47134 -4.3618,8.40813l-9.83711,6.99571c-0.63023,0.44643 -1.47457,0.44643 -2.10468,0l-0.83359,-0.59171c-0.57163,0.58979 -1.35841,0.92365 -2.18102,0.92654h-38.63628c-1.68468,0 -3.05019,-1.36527 -3.05019,-3.04709v-50.79993c0,-1.68278 1.36551,-3.04805 3.05019,-3.04805h1.01669v-1.01698c0,-1.68182 1.36585,-3.04613 3.05019,-3.04613h38.63628c1.68468,0 3.05042,1.36431 3.05042,3.04613v21.54708l11.59069,5.00216c0.37125,0.1626 0.61066,0.52725 0.6102,0.93231zM6.08533,4.07804h25.4187c0.02232,0 0.0428,0.01251 0.06809,0.00866c0.08617,0.00481 0.17132,0.0202 0.25326,0.04907c0.02232,0.0077 0.05676,0.01155 0.06912,0.01443c0.01213,0.00673 0.0214,0.01636 0.03445,0.02309c0.11078,0.04811 0.21149,0.11738 0.29789,0.20301l12.201,12.19221c0.08503,0.08563 0.15392,0.18665 0.20348,0.29634c0.00481,0.01347 0.01202,0.01347 0.02117,0.0356c0.00927,0.02117 0.00813,0.04618 0.01534,0.07024c0.02724,0.07986 0.04372,0.16356 0.04887,0.25016c0.00183,0.02213 0.01305,0.04233 0.01305,0.06446v6.44536l0.6102,-0.26555c0.25692,-0.10968 0.54829,-0.10968 0.80521,0l0.60986,0.26555v-20.66961c0,-0.55996 -0.45513,-1.01506 -1.01669,-1.01506h-38.63628c-0.56122,0 -1.01669,0.45509 -1.01669,1.01506zM32.52073,15.25231c0,0.56189 0.45547,1.01794 1.01669,1.01794h7.7132l-8.7299,-8.72371zM42.12701,58.81793l-5.53928,-3.94188h-30.5024c-0.56133,0 -1.01669,-0.45413 -1.01669,-1.01506c0,-0.56189 0.45536,-1.01602 1.01669,-1.01602h27.77962c-0.65426,-0.6023 -1.22875,-1.28445 -1.70906,-2.03204h-7.76905c-0.56156,0 -1.01669,-0.45605 -1.01669,-1.01602c0,-0.56093 0.45513,-1.01602 1.01669,-1.01602h6.74206c-0.24113,-0.65714 -0.41359,-1.3393 -0.51453,-2.03107h-24.52904c-0.56133,0 -1.01669,-0.45605 -1.01669,-1.01602c0,-0.56093 0.45536,-1.01794 1.01669,-1.01794h24.40189v-2.03107h-6.10039c-0.56156,0 -1.01669,-0.45413 -1.01669,-1.01602c0,-0.55996 0.45513,-1.01602 1.01669,-1.01602h6.10039v-2.03204h-24.40189c-0.56133,0 -1.01669,-0.45317 -1.01669,-1.01698c0,-0.55996 0.45536,-1.01409 1.01669,-1.01409h24.40189v-2.03204h-6.10039c-0.56156,0 -1.01669,-0.45509 -1.01669,-1.01602c0,-0.56093 0.45513,-1.01506 1.01669,-1.01506h6.10039v-1.98393c0,-0.01636 0.00721,-0.03464 0.00721,-0.04907h-24.4091c-0.56133,0 -1.01669,-0.45605 -1.01669,-1.01602c0,-0.56093 0.45536,-1.01506 1.01669,-1.01506h27.6749l4.70753,-2.033h-14.08092c-0.56156,0 -1.01669,-0.45509 -1.01669,-1.01602c0,-0.55996 0.45513,-1.01602 1.01669,-1.01602h14.23428c0.56156,0 1.01681,0.45605 1.01681,1.01602c-0.00378,0.22129 -0.08217,0.43585 -0.2227,0.60903l3.2729,-1.41434v-6.30682h-9.1507c-1.68434,0 -3.05019,-1.36527 -3.05019,-3.04902v-9.14224h-27.45209c-0.56156,0 -1.01681,0.45509 -1.01681,1.01602v50.79993c0,0.559 0.45525,1.01409 1.01681,1.01409h38.63628c0.15965,-0.00289 0.31574,-0.04522 0.45559,-0.12219zM58.95612,31.2113l-13.21781,-5.70644l-11.35792,4.9069l-0.01934,0.00866l-1.84032,0.79473v14.01932c0.0103,2.68244 1.3163,5.19651 3.50681,6.7494l9.71077,6.90911l9.711,-6.90719c2.19086,-1.55482 3.49686,-4.06888 3.50681,-6.75132zM46.14515,27.89288l10.16739,4.38831c0.37113,0.16068 0.61054,0.52725 0.61008,0.93327v12.01999c-0.0095,2.02723 -0.99712,3.92264 -2.65171,5.09548l-7.94289,5.64775c-0.35282,0.25208 -0.82638,0.25208 -1.17943,0l-7.94254,-5.64775c-1.65493,-1.17092 -2.64278,-3.06826 -2.65182,-5.09548v-12.01999c-0.00046,-0.40602 0.23895,-0.7726 0.6102,-0.93327l10.16739,-4.38831c0.25921,-0.11353 0.55401,-0.11353 0.81333,0zM45.73831,29.93261l-9.15058,3.94765v11.35419c0.00904,1.37008 0.67875,2.64973 1.79867,3.43772l7.35191,5.23115l7.35226,-5.22345c1.12118,-0.79088 1.79123,-2.07245 1.79867,-3.44542v-11.34746zM43.52708,45.34799l7.51762,-9.39239c0.35122,-0.43874 0.99094,-0.5109 1.4296,-0.15875c0.43865,0.35022 0.50961,0.98908 0.15873,1.42974l-8.13389,10.15922c-0.34332,0.42815 -0.96508,0.50512 -1.40419,0.17511l-4.067,-3.04709c-0.29068,-0.21744 -0.44289,-0.57247 -0.3994,-0.93424c0.0436,-0.35984 0.2758,-0.66965 0.60997,-0.81204c0.33417,-0.14336 0.71892,-0.09525 1.0096,0.12027z" fill="#028fea" fill-opacity="1"></path><path d="M5.06864,10.17414c0,-0.56189 0.45536,-1.01602 1.01669,-1.01602h6.10062c0.56133,0 1.01681,0.45413 1.01681,1.01602c0,0.55996 -0.45547,1.01506 -1.01681,1.01506h-6.10062c-0.56133,0 -1.01669,-0.45509 -1.01669,-1.01506zM16.25295,10.17414c0,-0.56189 0.45513,-1.01602 1.01669,-1.01602h9.1507c0.56156,0 1.01669,0.45413 1.01669,1.01602c0,0.55996 -0.45513,1.01506 -1.01669,1.01506h-9.1507c-0.56156,0 -1.01669,-0.45509 -1.01669,-1.01506zM5.06864,21.34938c0,-0.56093 0.45536,-1.01506 1.01669,-1.01506h32.53578c0.56156,0 1.01681,0.45413 1.01681,1.01506c0,0.56093 -0.45525,1.01602 -1.01681,1.01602h-32.53578c-0.56133,0 -1.01669,-0.45509 -1.01669,-1.01602zM5.06864,25.41345c0,-0.55996 0.45536,-1.01602 1.01669,-1.01602h14.2345c0.56133,0 1.01681,0.45605 1.01681,1.01602c0,0.56093 -0.45547,1.01602 -1.01681,1.01602h-14.2345c-0.56133,0 -1.01669,-0.45509 -1.01669,-1.01602zM5.06864,33.54159c0,-0.56093 0.45536,-1.01506 1.01669,-1.01506h14.2345c0.56133,0 1.01681,0.45413 1.01681,1.01506c0,0.56093 -0.45547,1.01602 -1.01681,1.01602h-14.2345c-0.56133,0 -1.01669,-0.45509 -1.01669,-1.01602zM5.06864,41.66878c0,-0.55996 0.45536,-1.01602 1.01669,-1.01602h14.2345c0.56133,0 1.01681,0.45605 1.01681,1.01602c0,0.56189 -0.45547,1.01602 -1.01681,1.01602h-14.2345c-0.56133,0 -1.01669,-0.45413 -1.01669,-1.01602zM5.06864,49.79692c0,-0.56093 0.45536,-1.01602 1.01669,-1.01602h14.2345c0.56133,0 1.01681,0.45509 1.01681,1.01602c0,0.55996 -0.45547,1.01602 -1.01681,1.01602h-14.2345c-0.56133,0 -1.01669,-0.45605 -1.01669,-1.01602zM60.98962,30.54261v14.69185c-0.01053,3.34151 -1.63502,6.47134 -4.3618,8.40813l-9.83711,6.99571c-0.63023,0.44643 -1.47457,0.44643 -2.10468,0l-0.83359,-0.59171c-0.57163,0.58979 -1.35841,0.92365 -2.18102,0.92654h-38.63628c-1.68468,0 -3.05019,-1.36527 -3.05019,-3.04709v-50.79993c0,-1.68278 1.36551,-3.04805 3.05019,-3.04805h1.01669v-1.01698c0,-1.68182 1.36585,-3.04613 3.05019,-3.04613h38.63628c1.68468,0 3.05042,1.36431 3.05042,3.04613v21.54708l11.59069,5.00216c0.37125,0.1626 0.61066,0.52725 0.6102,0.93231zM6.08533,4.07804h25.4187c0.02232,0 0.0428,0.01251 0.06809,0.00866c0.08617,0.00481 0.17132,0.0202 0.25326,0.04907c0.02232,0.0077 0.05676,0.01155 0.06912,0.01443c0.01213,0.00673 0.0214,0.01636 0.03445,0.02309c0.11078,0.04811 0.21149,0.11738 0.29789,0.20301l12.201,12.19221c0.08503,0.08563 0.15392,0.18665 0.20348,0.29634c0.00481,0.01347 0.01202,0.01347 0.02117,0.0356c0.00927,0.02117 0.00813,0.04618 0.01534,0.07024c0.02724,0.07986 0.04372,0.16356 0.04887,0.25016c0.00183,0.02213 0.01305,0.04233 0.01305,0.06446v6.44536l0.6102,-0.26555c0.25692,-0.10968 0.54829,-0.10968 0.80521,0l0.60986,0.26555v-20.66961c0,-0.55996 -0.45513,-1.01506 -1.01669,-1.01506h-38.63628c-0.56122,0 -1.01669,0.45509 -1.01669,1.01506zM32.52073,15.25231c0,0.56189 0.45547,1.01794 1.01669,1.01794h7.7132l-8.7299,-8.72371zM42.12701,58.81793l-5.53928,-3.94188h-30.5024c-0.56133,0 -1.01669,-0.45413 -1.01669,-1.01506c0,-0.56189 0.45536,-1.01602 1.01669,-1.01602h27.77962c-0.65426,-0.6023 -1.22875,-1.28445 -1.70906,-2.03204h-7.76905c-0.56156,0 -1.01669,-0.45605 -1.01669,-1.01602c0,-0.56093 0.45513,-1.01602 1.01669,-1.01602h6.74206c-0.24113,-0.65714 -0.41359,-1.3393 -0.51453,-2.03107h-24.52904c-0.56133,0 -1.01669,-0.45605 -1.01669,-1.01602c0,-0.56093 0.45536,-1.01794 1.01669,-1.01794h24.40189v-2.03107h-6.10039c-0.56156,0 -1.01669,-0.45413 -1.01669,-1.01602c0,-0.55996 0.45513,-1.01602 1.01669,-1.01602h6.10039v-2.03204h-24.40189c-0.56133,0 -1.01669,-0.45317 -1.01669,-1.01698c0,-0.55996 0.45536,-1.01409 1.01669,-1.01409h24.40189v-2.03204h-6.10039c-0.56156,0 -1.01669,-0.45509 -1.01669,-1.01602c0,-0.56093 0.45513,-1.01506 1.01669,-1.01506h6.10039v-1.98393c0,-0.01636 0.00721,-0.03464 0.00721,-0.04907h-24.4091c-0.56133,0 -1.01669,-0.45605 -1.01669,-1.01602c0,-0.56093 0.45536,-1.01506 1.01669,-1.01506h27.6749l4.70753,-2.033h-14.08092c-0.56156,0 -1.01669,-0.45509 -1.01669,-1.01602c0,-0.55996 0.45513,-1.01602 1.01669,-1.01602h14.23428c0.56156,0 1.01681,0.45605 1.01681,1.01602c-0.00378,0.22129 -0.08217,0.43585 -0.2227,0.60903l3.2729,-1.41434v-6.30682h-9.1507c-1.68434,0 -3.05019,-1.36527 -3.05019,-3.04902v-9.14224h-27.45209c-0.56156,0 -1.01681,0.45509 -1.01681,1.01602v50.79993c0,0.559 0.45525,1.01409 1.01681,1.01409h38.63628c0.15965,-0.00289 0.31574,-0.04522 0.45559,-0.12219zM58.95612,31.2113l-13.21781,-5.70644l-11.35792,4.9069l-0.01934,0.00866l-1.84032,0.79473v14.01932c0.0103,2.68244 1.3163,5.19651 3.50681,6.7494l9.71077,6.90911l9.711,-6.90719c2.19086,-1.55482 3.49686,-4.06888 3.50681,-6.75132zM46.14515,27.89288l10.16739,4.38831c0.37113,0.16068 0.61054,0.52725 0.61008,0.93327v12.01999c-0.0095,2.02723 -0.99712,3.92264 -2.65171,5.09548l-7.94289,5.64775c-0.35282,0.25208 -0.82638,0.25208 -1.17943,0l-7.94254,-5.64775c-1.65493,-1.17092 -2.64278,-3.06826 -2.65182,-5.09548v-12.01999c-0.00046,-0.40602 0.23895,-0.7726 0.6102,-0.93327l10.16739,-4.38831c0.25921,-0.11353 0.55401,-0.11353 0.81333,0zM45.73831,29.93261l-9.15058,3.94765v11.35419c0.00904,1.37008 0.67875,2.64973 1.79867,3.43772l7.35191,5.23115l7.35226,-5.22345c1.12118,-0.79088 1.79123,-2.07245 1.79867,-3.44542v-11.34746zM43.52708,45.34799l7.51762,-9.39239c0.35122,-0.43874 0.99094,-0.5109 1.4296,-0.15875c0.43865,0.35022 0.50961,0.98908 0.15873,1.42974l-8.13389,10.15922c-0.34332,0.42815 -0.96508,0.50512 -1.40419,0.17511l-4.067,-3.04709c-0.29068,-0.21744 -0.44289,-0.57247 -0.3994,-0.93424c0.0436,-0.35984 0.2758,-0.66965 0.60997,-0.81204c0.33417,-0.14336 0.71892,-0.09525 1.0096,0.12027z" fill="url(#LinearGradient1240)"></path></g></g></svg>