<?xml version="1.0" encoding="UTF-8"?>
<svg id="SVGDoc" width="62" height="62" xmlns="http://www.w3.org/2000/svg" version="1.1" xmlns:xlink="http://www.w3.org/1999/xlink" xmlns:avocode="https://avocode.com/" viewBox="0 0 62 62"><defs><linearGradient id="LinearGradient1140" gradientUnits="userSpaceOnUse" x1="-0.000011444091796875" y1="3.000931739807129" x2="61.9999885559082" y2="58.99977207183838"><stop stop-opacity="0" stop-color="#ffffff" offset="0"></stop><stop stop-opacity="1" stop-color="#0d225d" offset="1"></stop></linearGradient></defs><desc>Generated with Avocode.</desc><g><g><title>Shape 48</title><path d="M51.99941,49.00148c0,1.65295 -1.34605,2.99802 -2.99995,2.99802c-1.65379,0 -2.99995,-1.34507 -2.99995,-2.99802c0,-1.65488 1.34617,-3.00187 2.99995,-3.00187c1.6539,0 2.99995,1.34699 2.99995,3.00187zM49.99944,49.00148c0,-0.55419 -0.44827,-1.00062 -0.99998,-1.00062c-0.55183,0 -0.99987,0.44643 -0.99987,1.00062c0,0.55034 0.44804,0.9987 0.99987,0.9987c0.55172,0 0.99998,-0.44836 0.99998,-0.9987zM60.41792,16.35613c-0.27683,1.80786 -1.04691,3.46562 -2.23377,4.83571c1.16787,2.63818 1.54392,5.51882 1.06682,8.38407l-3.25687,19.54103c-0.05814,3.46755 -2.64599,6.32029 -5.99419,6.80328v4.0785h12.00005v2.00221h-61.99997v-2.00221h10.32326l7.50103,-18.75304c-0.10403,-0.05869 -0.21149,-0.11161 -0.31448,-0.17415l-5.50976,-3.30494v1.2325c0,2.20522 -1.79398,3.99961 -4.00005,3.99961c-2.20608,0 -3.99994,-1.79439 -3.99994,-3.99961v-4.2767l-4.00005,-1.33449v-18.77516l4.00005,-1.33449v-4.27767c0,-2.20811 1.79386,-4.00057 3.99994,-4.00057c2.20608,0 4.00005,1.79246 4.00005,4.00057v1.23346l5.50976,-3.30591c2.10297,-1.26136 4.51012,-1.92812 6.96144,-1.92812c4.87793,0 9.14783,2.60355 11.52889,6.48577v-0.48492c0,-4.41237 3.58875,-7.99922 7.99988,-7.99922c3.00304,0 5.62214,1.66257 6.99028,4.11699l0.43167,-2.65069c0.42229,-2.59008 2.63237,-4.46817 5.25478,-4.46817c2.93507,0 5.32322,2.38995 5.32322,5.32351v0.34637c0,0.27036 -0.02106,0.54072 -0.06191,0.8082zM37.99997,12.99923c0,3.30879 2.69108,6.00182 6.00002,6.00182c2.73788,0 5.04776,-1.84538 5.76519,-4.35656l0.21961,-1.35084c0.00538,-0.09814 0.01511,-0.19435 0.01511,-0.29441v-1.99836c0,-3.30976 -2.69085,-6.00086 -5.99991,-6.00086c-3.30894,0 -6.00002,2.6911 -6.00002,6.00086zM20.41898,59.99872h5.58094v-4.09871c-1.39687,-0.28479 -2.56783,-1.16515 -3.2777,-2.34954zM44.11089,53.99978c-1.30096,-1.27002 -2.11086,-3.04228 -2.11086,-4.99831c0,-0.34252 0.03307,-0.67253 0.07999,-1.00062h-15.07999c-1.65379,0 -3.00007,1.34507 -3.00007,2.99802c0,1.65584 1.34628,3.00091 3.00007,3.00091zM43.43511,44.77095c-3.73936,-4.08813 -6.22913,-9.18938 -7.14512,-14.64567l-2.27188,2.26872c0.09178,4.78086 1.83197,9.39528 4.94762,13.02928l0.49416,0.57632h3.22529c0.20782,-0.43585 0.45982,-0.84764 0.74993,-1.22865zM12.00002,30.40142c2.59907,1.42589 5.40573,2.44479 8.30715,3.02592l-8.30715,-4.61634zM26.81211,34.75221c0.75188,0.41564 1.74305,0.2771 2.35107,-0.33098l11.30173,-11.30031c0.34515,-0.34348 0.53501,-0.80531 0.53501,-1.29408c0,-1.00832 -0.81974,-1.82806 -1.82808,-1.82806c-0.48203,0 -0.95158,0.19628 -1.29398,0.53591l-10.69473,10.69609l-15.12497,-8.06464c-0.20222,-0.10776 -0.42927,-0.16645 -0.65826,-0.16645c-0.7719,0 -1.39984,0.62828 -1.39984,1.39895v0.18858c0,0.50801 0.2758,0.97849 0.72018,1.22576zM45.12014,43.17765l2.83104,-17.38872l-0.28015,-1.67893c-0.29995,-1.80208 -1.84399,-3.11059 -3.67104,-3.11059c-0.38177,0 -0.75474,-0.03464 -1.12301,-0.08563c0.07336,0.29153 0.12314,0.59845 0.12314,0.91307c0,1.02372 -0.39803,1.98585 -1.12118,2.70842l-3.82484,3.82546c0.62714,5.59002 3.02891,10.85388 6.8058,15.00743c0.08595,-0.06254 0.17086,-0.12989 0.26024,-0.1905zM49.02006,19.22234c-0.47218,0.38004 -0.99129,0.70429 -1.54209,0.9708c0.45502,0.35022 0.84915,0.76682 1.18206,1.23923zM12.00002,12.56434v2.77384c4.33399,-2.18213 9.13822,-3.33862 13.9999,-3.33862v2.00125c-4.89098,0 -9.71569,1.24982 -13.9999,3.59936v2.39861h13.9999v2.00029h-11.87496l12.69081,6.77057l9.18434,-9.18361v-1.0545c0,-6.35877 -5.17204,-11.53123 -11.52889,-11.53123c-2.08946,0 -4.14116,0.56862 -5.93216,1.64237zM4.00003,32.61145v-17.22516l-2.00008,0.66772v15.8926zM10.00005,38.99909v-11.30031l-0.25108,-0.13759c-1.07906,-0.59941 -1.749,-1.74147 -1.749,-2.97397v-0.18858c0,-1.37201 0.8242,-2.55255 2.00008,-3.09039v-12.30767c0,-1.1055 -0.89699,-2.00029 -2.00008,-2.00029c-1.10298,0 -1.99997,0.89479 -1.99997,2.00029v29.99851c0,1.1055 0.89699,2.00221 1.99997,2.00221c1.1031,0 2.00008,-0.89671 2.00008,-2.00221zM18.53906,39.35796c1.791,1.07375 3.8427,1.64333 5.93216,1.64333c3.09093,0 6.06869,-1.26906 8.23196,-3.47621c-0.26814,-1.06028 -0.46303,-2.14172 -0.57518,-3.23663l-1.54976,1.54904c-0.75108,0.75047 -1.7482,1.16419 -2.80827,1.16419c-0.67371,0 -1.34079,-0.17415 -1.92924,-0.50031l-0.94963,-0.52918c-4.47613,-0.15971 -8.89309,-1.29504 -12.89108,-3.30591v2.76807zM12.47804,59.99872h5.81783l3.81397,-10.68262c0.70805,-1.98297 2.60113,-3.31649 4.70913,-3.31649h10.06187c-1.5136,-1.91754 -2.70996,-4.04964 -3.52982,-6.32702c-2.45018,2.12825 -5.61436,3.32611 -8.87981,3.32611c-1.65916,0 -3.29556,-0.31173 -4.83307,-0.89864zM47.99993,59.99872v-3.99961h-19.99992v3.99961zM53.99995,49.00148c0,-2.75845 -2.24316,-5.00119 -4.99992,-5.00119c-2.75688,0 -5.00004,2.24274 -5.00004,5.00119c0,2.75653 2.24316,4.99831 5.00004,4.99831c2.75677,0 4.99992,-2.24178 4.99992,-4.99831zM56.32516,21.93076l-5.61722,-0.62347l-0.72887,4.47875l0.00778,0.04907l-0.01671,0.00481l-2.66602,16.37559c0.54394,-0.13566 1.10996,-0.21552 1.6959,-0.21552c2.33208,0 4.39499,1.15072 5.6678,2.90854l2.61005,-15.66072c0.41599,-2.5006 0.07999,-5.01851 -0.95272,-7.31706zM60.00009,5.32329c0,-1.83384 -1.49128,-3.32323 -3.32336,-3.32323c-1.63765,0 -3.01758,1.17188 -3.27988,2.78828l-1.42365,8.74391c-0.0341,0.51378 -0.11719,1.00928 -0.2433,1.49228l-0.70107,4.30461l5.58643,0.61962c0.9716,-1.0978 1.60046,-2.43325 1.82568,-3.8957l1.52092,-9.87923c0.02495,-0.16645 0.03822,-0.33579 0.03822,-0.50416z" fill="#028fea" fill-opacity="1"></path><path d="M51.99941,49.00148c0,1.65295 -1.34605,2.99802 -2.99995,2.99802c-1.65379,0 -2.99995,-1.34507 -2.99995,-2.99802c0,-1.65488 1.34617,-3.00187 2.99995,-3.00187c1.6539,0 2.99995,1.34699 2.99995,3.00187zM49.99944,49.00148c0,-0.55419 -0.44827,-1.00062 -0.99998,-1.00062c-0.55183,0 -0.99987,0.44643 -0.99987,1.00062c0,0.55034 0.44804,0.9987 0.99987,0.9987c0.55172,0 0.99998,-0.44836 0.99998,-0.9987zM60.41792,16.35613c-0.27683,1.80786 -1.04691,3.46562 -2.23377,4.83571c1.16787,2.63818 1.54392,5.51882 1.06682,8.38407l-3.25687,19.54103c-0.05814,3.46755 -2.64599,6.32029 -5.99419,6.80328v4.0785h12.00005v2.00221h-61.99997v-2.00221h10.32326l7.50103,-18.75304c-0.10403,-0.05869 -0.21149,-0.11161 -0.31448,-0.17415l-5.50976,-3.30494v1.2325c0,2.20522 -1.79398,3.99961 -4.00005,3.99961c-2.20608,0 -3.99994,-1.79439 -3.99994,-3.99961v-4.2767l-4.00005,-1.33449v-18.77516l4.00005,-1.33449v-4.27767c0,-2.20811 1.79386,-4.00057 3.99994,-4.00057c2.20608,0 4.00005,1.79246 4.00005,4.00057v1.23346l5.50976,-3.30591c2.10297,-1.26136 4.51012,-1.92812 6.96144,-1.92812c4.87793,0 9.14783,2.60355 11.52889,6.48577v-0.48492c0,-4.41237 3.58875,-7.99922 7.99988,-7.99922c3.00304,0 5.62214,1.66257 6.99028,4.11699l0.43167,-2.65069c0.42229,-2.59008 2.63237,-4.46817 5.25478,-4.46817c2.93507,0 5.32322,2.38995 5.32322,5.32351v0.34637c0,0.27036 -0.02106,0.54072 -0.06191,0.8082zM37.99997,12.99923c0,3.30879 2.69108,6.00182 6.00002,6.00182c2.73788,0 5.04776,-1.84538 5.76519,-4.35656l0.21961,-1.35084c0.00538,-0.09814 0.01511,-0.19435 0.01511,-0.29441v-1.99836c0,-3.30976 -2.69085,-6.00086 -5.99991,-6.00086c-3.30894,0 -6.00002,2.6911 -6.00002,6.00086zM20.41898,59.99872h5.58094v-4.09871c-1.39687,-0.28479 -2.56783,-1.16515 -3.2777,-2.34954zM44.11089,53.99978c-1.30096,-1.27002 -2.11086,-3.04228 -2.11086,-4.99831c0,-0.34252 0.03307,-0.67253 0.07999,-1.00062h-15.07999c-1.65379,0 -3.00007,1.34507 -3.00007,2.99802c0,1.65584 1.34628,3.00091 3.00007,3.00091zM43.43511,44.77095c-3.73936,-4.08813 -6.22913,-9.18938 -7.14512,-14.64567l-2.27188,2.26872c0.09178,4.78086 1.83197,9.39528 4.94762,13.02928l0.49416,0.57632h3.22529c0.20782,-0.43585 0.45982,-0.84764 0.74993,-1.22865zM12.00002,30.40142c2.59907,1.42589 5.40573,2.44479 8.30715,3.02592l-8.30715,-4.61634zM26.81211,34.75221c0.75188,0.41564 1.74305,0.2771 2.35107,-0.33098l11.30173,-11.30031c0.34515,-0.34348 0.53501,-0.80531 0.53501,-1.29408c0,-1.00832 -0.81974,-1.82806 -1.82808,-1.82806c-0.48203,0 -0.95158,0.19628 -1.29398,0.53591l-10.69473,10.69609l-15.12497,-8.06464c-0.20222,-0.10776 -0.42927,-0.16645 -0.65826,-0.16645c-0.7719,0 -1.39984,0.62828 -1.39984,1.39895v0.18858c0,0.50801 0.2758,0.97849 0.72018,1.22576zM45.12014,43.17765l2.83104,-17.38872l-0.28015,-1.67893c-0.29995,-1.80208 -1.84399,-3.11059 -3.67104,-3.11059c-0.38177,0 -0.75474,-0.03464 -1.12301,-0.08563c0.07336,0.29153 0.12314,0.59845 0.12314,0.91307c0,1.02372 -0.39803,1.98585 -1.12118,2.70842l-3.82484,3.82546c0.62714,5.59002 3.02891,10.85388 6.8058,15.00743c0.08595,-0.06254 0.17086,-0.12989 0.26024,-0.1905zM49.02006,19.22234c-0.47218,0.38004 -0.99129,0.70429 -1.54209,0.9708c0.45502,0.35022 0.84915,0.76682 1.18206,1.23923zM12.00002,12.56434v2.77384c4.33399,-2.18213 9.13822,-3.33862 13.9999,-3.33862v2.00125c-4.89098,0 -9.71569,1.24982 -13.9999,3.59936v2.39861h13.9999v2.00029h-11.87496l12.69081,6.77057l9.18434,-9.18361v-1.0545c0,-6.35877 -5.17204,-11.53123 -11.52889,-11.53123c-2.08946,0 -4.14116,0.56862 -5.93216,1.64237zM4.00003,32.61145v-17.22516l-2.00008,0.66772v15.8926zM10.00005,38.99909v-11.30031l-0.25108,-0.13759c-1.07906,-0.59941 -1.749,-1.74147 -1.749,-2.97397v-0.18858c0,-1.37201 0.8242,-2.55255 2.00008,-3.09039v-12.30767c0,-1.1055 -0.89699,-2.00029 -2.00008,-2.00029c-1.10298,0 -1.99997,0.89479 -1.99997,2.00029v29.99851c0,1.1055 0.89699,2.00221 1.99997,2.00221c1.1031,0 2.00008,-0.89671 2.00008,-2.00221zM18.53906,39.35796c1.791,1.07375 3.8427,1.64333 5.93216,1.64333c3.09093,0 6.06869,-1.26906 8.23196,-3.47621c-0.26814,-1.06028 -0.46303,-2.14172 -0.57518,-3.23663l-1.54976,1.54904c-0.75108,0.75047 -1.7482,1.16419 -2.80827,1.16419c-0.67371,0 -1.34079,-0.17415 -1.92924,-0.50031l-0.94963,-0.52918c-4.47613,-0.15971 -8.89309,-1.29504 -12.89108,-3.30591v2.76807zM12.47804,59.99872h5.81783l3.81397,-10.68262c0.70805,-1.98297 2.60113,-3.31649 4.70913,-3.31649h10.06187c-1.5136,-1.91754 -2.70996,-4.04964 -3.52982,-6.32702c-2.45018,2.12825 -5.61436,3.32611 -8.87981,3.32611c-1.65916,0 -3.29556,-0.31173 -4.83307,-0.89864zM47.99993,59.99872v-3.99961h-19.99992v3.99961zM53.99995,49.00148c0,-2.75845 -2.24316,-5.00119 -4.99992,-5.00119c-2.75688,0 -5.00004,2.24274 -5.00004,5.00119c0,2.75653 2.24316,4.99831 5.00004,4.99831c2.75677,0 4.99992,-2.24178 4.99992,-4.99831zM56.32516,21.93076l-5.61722,-0.62347l-0.72887,4.47875l0.00778,0.04907l-0.01671,0.00481l-2.66602,16.37559c0.54394,-0.13566 1.10996,-0.21552 1.6959,-0.21552c2.33208,0 4.39499,1.15072 5.6678,2.90854l2.61005,-15.66072c0.41599,-2.5006 0.07999,-5.01851 -0.95272,-7.31706zM60.00009,5.32329c0,-1.83384 -1.49128,-3.32323 -3.32336,-3.32323c-1.63765,0 -3.01758,1.17188 -3.27988,2.78828l-1.42365,8.74391c-0.0341,0.51378 -0.11719,1.00928 -0.2433,1.49228l-0.70107,4.30461l5.58643,0.61962c0.9716,-1.0978 1.60046,-2.43325 1.82568,-3.8957l1.52092,-9.87923c0.02495,-0.16645 0.03822,-0.33579 0.03822,-0.50416z" fill="url(#LinearGradient1140)"></path></g></g></svg>