<?xml version="1.0" encoding="UTF-8"?>
<svg id="SVGDoc" width="70" height="70" xmlns="http://www.w3.org/2000/svg" version="1.1" xmlns:xlink="http://www.w3.org/1999/xlink" xmlns:avocode="https://avocode.com/" viewBox="0 0 70 70"><defs><linearGradient id="LinearGradient1015" gradientUnits="userSpaceOnUse" x1="-0.00000667572021484375" y1="3.0014891624450684" x2="69.99999332427979" y2="67.00016164779663"><stop stop-opacity="0" stop-color="#ffffff" offset="0"></stop><stop stop-opacity="1" stop-color="#0d225d" offset="1"></stop></linearGradient></defs><desc>Generated with Avocode.</desc><g><g><title>Shape 43</title><path d="M35.04547,41.93592c-3.3173,0 -6.01604,-2.6988 -6.01604,-6.01721c0,-0.31366 0.02472,-0.62539 0.07164,-0.92654l-5.46421,-6.6782c-1.32866,-1.62505 -0.84801,-3.54355 0.31322,-4.60094c1.17245,-1.06605 3.14999,-1.36431 4.66152,0.13181h0.00023l6.12946,6.06532c0.10071,-0.00289 0.20199,-0.00577 0.30396,-0.00577c3.3173,0 6.01582,2.69784 6.01582,6.01433c0,3.31841 -2.69852,6.01721 -6.01559,6.01721zM32.40646,30.50765l-5.24837,-5.19458c-0.33154,-0.32713 -0.65334,-0.43392 -0.93304,-0.43392c-0.4501,0 -0.79079,0.2771 -0.88463,0.36273c-0.14786,0.13374 -0.84881,0.85245 -0.10426,1.7636l4.69563,5.73819c0.59704,-0.96502 1.45454,-1.73955 2.47467,-2.23601zM35.04524,39.86925c2.1777,0 3.9497,-1.77033 3.9497,-3.95054c0,-2.17732 -1.772,-3.94862 -3.9497,-3.94862c-2.1777,0 -3.94958,1.7713 -3.94958,3.94862c0,2.18021 1.77189,3.95054 3.94958,3.95054zM40.99125,55.9841c0,0.57055 -0.46246,1.03237 -1.03317,1.03237h-9.62826c-0.57072,0 -1.03317,-0.46183 -1.03317,-1.03237c0,-0.57055 0.46246,-1.03526 1.03317,-1.03526h9.62826c0.57072,0 1.03317,0.46471 1.03317,1.03526zM44.82262,51.46879c0,0.57247 -0.46268,1.0343 -1.03317,1.0343h-17.29237c-0.57072,0 -1.03317,-0.46183 -1.03317,-1.0343c0,-0.57055 0.46246,-1.03334 1.03317,-1.03334h17.29237c0.57049,0 1.03317,0.46279 1.03317,1.03334zM6.17283,34.99891c0,-0.01251 0.00046,-0.02598 0.00046,-0.03752c0,-0.00385 -0.00046,-0.00577 -0.00046,-0.00962c0,-0.00481 0.00069,-0.01058 0.0008,-0.01539c0.01671,-7.86933 3.204,-15.01032 8.34961,-20.20683c0.03239,-0.04522 0.06752,-0.08852 0.10803,-0.12893c0.04154,-0.04233 0.08617,-0.0789 0.13252,-0.11065c5.20832,-5.13974 12.35699,-8.31865 20.23476,-8.31865c0.01236,0 0.02483,0 0.03742,0c0.0032,0 0.00607,0 0.00927,0c0.00538,0 0.0103,0.00096 0.01568,0.00096c7.8075,0.01732 14.89506,3.15581 20.08186,8.22821c0.09819,0.05003 0.19032,0.11449 0.2718,0.1982c0.07748,0.07793 0.1395,0.16645 0.18665,0.2617c5.00427,5.11665 8.1221,12.08542 8.21869,19.77002c0.03296,0.10199 0.05138,0.20878 0.05138,0.32135c0,0.11065 -0.01797,0.21648 -0.05001,0.31654c-0.06649,7.28242 -2.81582,14.13573 -7.77958,19.43038c-0.02449,0.0279 -0.05081,0.05677 -0.07839,0.08467c-0.19054,0.20109 -0.38383,0.40121 -0.5809,0.59845c-5.44418,5.44282 -12.68337,8.44084 -20.38387,8.44084c-8.15094,0 -15.52219,-3.40116 -20.77023,-8.85744c-0.09499,-0.07216 -0.17773,-0.15779 -0.24342,-0.25785c-4.84154,-5.15898 -7.81197,-12.09311 -7.81208,-19.70844zM8.26286,33.91843h4.85916c0.01923,-0.15009 0.03731,-0.3406 0.05825,-0.56093c0.02472,-0.26074 0.05287,-0.55804 0.09384,-0.91114c0.5468,-4.70101 2.56393,-8.90748 5.56011,-12.18548l-3.44845,-3.44638c-4.20341,4.53071 -6.86005,10.51425 -7.12292,17.10393zM54.62265,16.82604l-3.44845,3.3925c3.01792,3.28378 5.05028,7.50564 5.59925,12.22781c0.04303,0.3685 0.0729,0.68889 0.09716,0.94578c0.01934,0.2059 0.03593,0.38293 0.05344,0.52629h4.81052c-0.26264,-6.58295 -2.9147,-12.56264 -7.11193,-17.09238zM53.16124,15.36552c-4.52831,-4.19396 -10.50327,-6.8408 -17.08282,-7.10347v4.89151c5.2066,0.24727 9.97112,2.31587 13.6274,5.61119zM34.01184,13.15067v-4.89151c-6.61034,0.24053 -12.61585,2.8893 -17.16396,7.09481l3.45062,3.45023c3.67207,-3.329 8.46989,-5.41395 13.71357,-5.65352zM54.21055,53.6057v-2.03685c0,-2.50252 -2.03796,-4.54225 -4.5425,-4.54225h-11.90277c-0.57072,0 -1.03329,-0.46183 -1.03329,-1.03334c0,-0.56959 0.46257,-1.03237 1.03329,-1.03237h11.90277c3.52592,0 6.41521,2.77481 6.59912,6.25582c3.25573,-4.26035 5.26257,-9.51843 5.47096,-15.23353h-4.9292c-0.97343,0 -1.71375,-0.58209 -1.88644,-1.48458c-0.04738,-0.25112 -0.07473,-0.54553 -0.10941,-0.91307c-0.02449,-0.25978 -0.05207,-0.55515 -0.09247,-0.90056c-0.53318,-4.58555 -2.61211,-8.65058 -5.68073,-11.70634c-0.01957,-0.01732 -0.03937,-0.03367 -0.05836,-0.05292c-0.01133,-0.01155 -0.02163,-0.02502 -0.03262,-0.03752c-3.59802,-3.53586 -8.53226,-5.6949 -13.927,-5.6949c-5.41145,0 -10.35954,2.17251 -13.95985,5.73049c-0.01568,0.01924 -0.03124,0.03752 -0.04852,0.05292c-0.02037,0.02117 -0.04166,0.04041 -0.06329,0.05869c-3.03726,3.04805 -5.09365,7.09192 -5.62351,11.64957c-0.03845,0.33098 -0.06546,0.61673 -0.08938,0.86977c-0.03685,0.38486 -0.0658,0.69178 -0.11696,0.95059c-0.17166,0.89575 -0.91084,1.47784 -1.88152,1.47784h-4.97955c0.21011,5.76609 2.25185,11.07132 5.56034,15.34995c0.12486,-3.5349 3.03761,-6.37224 6.60267,-6.37224h12.16644c0.57072,0 1.03317,0.46279 1.03317,1.03237c0,0.57151 -0.46246,1.03334 -1.03317,1.03334h-12.16644c-2.50454,0 -4.54227,2.03973 -4.54227,4.54225v2.13114c4.86099,4.96848 11.63532,8.05791 19.1185,8.05791c7.53136,0 14.34448,-3.12887 19.212,-8.1522zM69.99996,34.99891c0,9.35006 -3.64094,18.13823 -10.2515,24.75004c-6.61102,6.60989 -15.40089,10.25254 -24.7506,10.25254c-9.34776,0 -18.13648,-3.64266 -24.74682,-10.25254c-6.61057,-6.61181 -10.25105,-15.39998 -10.25105,-24.75004c0,-9.14416 3.50086,-17.7909 9.85771,-24.34691c0.39734,-0.40987 1.05137,-0.41949 1.46095,-0.02213c0.40958,0.3964 0.41988,1.05162 0.02254,1.45956c-5.98103,6.16827 -9.27498,14.30603 -9.27498,22.90947c0,18.1594 14.77318,32.93399 32.93163,32.93399c18.16086,0 32.93575,-14.77459 32.93575,-32.93399c0,-18.15843 -14.77489,-32.93303 -32.93575,-32.93303c-7.00138,0 -13.68462,2.16481 -19.32781,6.26352c-0.46143,0.33482 -1.10756,0.23188 -1.4431,-0.22995c-0.3352,-0.46086 -0.23266,-1.10742 0.22911,-1.44321c5.99842,-4.35464 13.10154,-6.65607 20.5418,-6.65607c9.34971,0 18.13934,3.63977 24.75037,10.25158c6.61079,6.60989 10.25173,15.39806 10.25173,24.74716z" fill="#028fea" fill-opacity="1"></path><path d="M35.04547,41.93592c-3.3173,0 -6.01604,-2.6988 -6.01604,-6.01721c0,-0.31366 0.02472,-0.62539 0.07164,-0.92654l-5.46421,-6.6782c-1.32866,-1.62505 -0.84801,-3.54355 0.31322,-4.60094c1.17245,-1.06605 3.14999,-1.36431 4.66152,0.13181h0.00023l6.12946,6.06532c0.10071,-0.00289 0.20199,-0.00577 0.30396,-0.00577c3.3173,0 6.01582,2.69784 6.01582,6.01433c0,3.31841 -2.69852,6.01721 -6.01559,6.01721zM32.40646,30.50765l-5.24837,-5.19458c-0.33154,-0.32713 -0.65334,-0.43392 -0.93304,-0.43392c-0.4501,0 -0.79079,0.2771 -0.88463,0.36273c-0.14786,0.13374 -0.84881,0.85245 -0.10426,1.7636l4.69563,5.73819c0.59704,-0.96502 1.45454,-1.73955 2.47467,-2.23601zM35.04524,39.86925c2.1777,0 3.9497,-1.77033 3.9497,-3.95054c0,-2.17732 -1.772,-3.94862 -3.9497,-3.94862c-2.1777,0 -3.94958,1.7713 -3.94958,3.94862c0,2.18021 1.77189,3.95054 3.94958,3.95054zM40.99125,55.9841c0,0.57055 -0.46246,1.03237 -1.03317,1.03237h-9.62826c-0.57072,0 -1.03317,-0.46183 -1.03317,-1.03237c0,-0.57055 0.46246,-1.03526 1.03317,-1.03526h9.62826c0.57072,0 1.03317,0.46471 1.03317,1.03526zM44.82262,51.46879c0,0.57247 -0.46268,1.0343 -1.03317,1.0343h-17.29237c-0.57072,0 -1.03317,-0.46183 -1.03317,-1.0343c0,-0.57055 0.46246,-1.03334 1.03317,-1.03334h17.29237c0.57049,0 1.03317,0.46279 1.03317,1.03334zM6.17283,34.99891c0,-0.01251 0.00046,-0.02598 0.00046,-0.03752c0,-0.00385 -0.00046,-0.00577 -0.00046,-0.00962c0,-0.00481 0.00069,-0.01058 0.0008,-0.01539c0.01671,-7.86933 3.204,-15.01032 8.34961,-20.20683c0.03239,-0.04522 0.06752,-0.08852 0.10803,-0.12893c0.04154,-0.04233 0.08617,-0.0789 0.13252,-0.11065c5.20832,-5.13974 12.35699,-8.31865 20.23476,-8.31865c0.01236,0 0.02483,0 0.03742,0c0.0032,0 0.00607,0 0.00927,0c0.00538,0 0.0103,0.00096 0.01568,0.00096c7.8075,0.01732 14.89506,3.15581 20.08186,8.22821c0.09819,0.05003 0.19032,0.11449 0.2718,0.1982c0.07748,0.07793 0.1395,0.16645 0.18665,0.2617c5.00427,5.11665 8.1221,12.08542 8.21869,19.77002c0.03296,0.10199 0.05138,0.20878 0.05138,0.32135c0,0.11065 -0.01797,0.21648 -0.05001,0.31654c-0.06649,7.28242 -2.81582,14.13573 -7.77958,19.43038c-0.02449,0.0279 -0.05081,0.05677 -0.07839,0.08467c-0.19054,0.20109 -0.38383,0.40121 -0.5809,0.59845c-5.44418,5.44282 -12.68337,8.44084 -20.38387,8.44084c-8.15094,0 -15.52219,-3.40116 -20.77023,-8.85744c-0.09499,-0.07216 -0.17773,-0.15779 -0.24342,-0.25785c-4.84154,-5.15898 -7.81197,-12.09311 -7.81208,-19.70844zM8.26286,33.91843h4.85916c0.01923,-0.15009 0.03731,-0.3406 0.05825,-0.56093c0.02472,-0.26074 0.05287,-0.55804 0.09384,-0.91114c0.5468,-4.70101 2.56393,-8.90748 5.56011,-12.18548l-3.44845,-3.44638c-4.20341,4.53071 -6.86005,10.51425 -7.12292,17.10393zM54.62265,16.82604l-3.44845,3.3925c3.01792,3.28378 5.05028,7.50564 5.59925,12.22781c0.04303,0.3685 0.0729,0.68889 0.09716,0.94578c0.01934,0.2059 0.03593,0.38293 0.05344,0.52629h4.81052c-0.26264,-6.58295 -2.9147,-12.56264 -7.11193,-17.09238zM53.16124,15.36552c-4.52831,-4.19396 -10.50327,-6.8408 -17.08282,-7.10347v4.89151c5.2066,0.24727 9.97112,2.31587 13.6274,5.61119zM34.01184,13.15067v-4.89151c-6.61034,0.24053 -12.61585,2.8893 -17.16396,7.09481l3.45062,3.45023c3.67207,-3.329 8.46989,-5.41395 13.71357,-5.65352zM54.21055,53.6057v-2.03685c0,-2.50252 -2.03796,-4.54225 -4.5425,-4.54225h-11.90277c-0.57072,0 -1.03329,-0.46183 -1.03329,-1.03334c0,-0.56959 0.46257,-1.03237 1.03329,-1.03237h11.90277c3.52592,0 6.41521,2.77481 6.59912,6.25582c3.25573,-4.26035 5.26257,-9.51843 5.47096,-15.23353h-4.9292c-0.97343,0 -1.71375,-0.58209 -1.88644,-1.48458c-0.04738,-0.25112 -0.07473,-0.54553 -0.10941,-0.91307c-0.02449,-0.25978 -0.05207,-0.55515 -0.09247,-0.90056c-0.53318,-4.58555 -2.61211,-8.65058 -5.68073,-11.70634c-0.01957,-0.01732 -0.03937,-0.03367 -0.05836,-0.05292c-0.01133,-0.01155 -0.02163,-0.02502 -0.03262,-0.03752c-3.59802,-3.53586 -8.53226,-5.6949 -13.927,-5.6949c-5.41145,0 -10.35954,2.17251 -13.95985,5.73049c-0.01568,0.01924 -0.03124,0.03752 -0.04852,0.05292c-0.02037,0.02117 -0.04166,0.04041 -0.06329,0.05869c-3.03726,3.04805 -5.09365,7.09192 -5.62351,11.64957c-0.03845,0.33098 -0.06546,0.61673 -0.08938,0.86977c-0.03685,0.38486 -0.0658,0.69178 -0.11696,0.95059c-0.17166,0.89575 -0.91084,1.47784 -1.88152,1.47784h-4.97955c0.21011,5.76609 2.25185,11.07132 5.56034,15.34995c0.12486,-3.5349 3.03761,-6.37224 6.60267,-6.37224h12.16644c0.57072,0 1.03317,0.46279 1.03317,1.03237c0,0.57151 -0.46246,1.03334 -1.03317,1.03334h-12.16644c-2.50454,0 -4.54227,2.03973 -4.54227,4.54225v2.13114c4.86099,4.96848 11.63532,8.05791 19.1185,8.05791c7.53136,0 14.34448,-3.12887 19.212,-8.1522zM69.99996,34.99891c0,9.35006 -3.64094,18.13823 -10.2515,24.75004c-6.61102,6.60989 -15.40089,10.25254 -24.7506,10.25254c-9.34776,0 -18.13648,-3.64266 -24.74682,-10.25254c-6.61057,-6.61181 -10.25105,-15.39998 -10.25105,-24.75004c0,-9.14416 3.50086,-17.7909 9.85771,-24.34691c0.39734,-0.40987 1.05137,-0.41949 1.46095,-0.02213c0.40958,0.3964 0.41988,1.05162 0.02254,1.45956c-5.98103,6.16827 -9.27498,14.30603 -9.27498,22.90947c0,18.1594 14.77318,32.93399 32.93163,32.93399c18.16086,0 32.93575,-14.77459 32.93575,-32.93399c0,-18.15843 -14.77489,-32.93303 -32.93575,-32.93303c-7.00138,0 -13.68462,2.16481 -19.32781,6.26352c-0.46143,0.33482 -1.10756,0.23188 -1.4431,-0.22995c-0.3352,-0.46086 -0.23266,-1.10742 0.22911,-1.44321c5.99842,-4.35464 13.10154,-6.65607 20.5418,-6.65607c9.34971,0 18.13934,3.63977 24.75037,10.25158c6.61079,6.60989 10.25173,15.39806 10.25173,24.74716z" fill="url(#LinearGradient1015)"></path></g></g></svg>