<?xml version="1.0" encoding="UTF-8"?>
<svg id="SVGDoc" width="43" height="67" xmlns="http://www.w3.org/2000/svg" version="1.1" xmlns:xlink="http://www.w3.org/1999/xlink" xmlns:avocode="https://avocode.com/" viewBox="0 0 43 67"><defs><linearGradient id="LinearGradient1090" gradientUnits="userSpaceOnUse" x1="0.013079643249511719" y1="14.000250816345215" x2="43.01307964324951" y2="52.99984645843506"><stop stop-opacity="0" stop-color="#ffffff" offset="0"></stop><stop stop-opacity="1" stop-color="#0d225d" offset="1"></stop></linearGradient></defs><desc>Generated with Avocode.</desc><g><g><title>Shape 46</title><path d="M42.9877,48.92071v8.93153c0,5.04449 -4.10408,9.14801 -9.14886,9.14801h-24.6769c-5.04467,0 -9.14886,-4.10352 -9.14886,-9.14801v-8.93153c0,-2.40727 0.92743,-4.6808 2.61131,-6.40014c1.60641,-1.63948 3.73043,-2.60066 6.00998,-2.73151c0.94025,-0.60134 2.03762,-0.98331 3.22426,-1.07567c0.88772,-0.69178 2.00191,-1.10357 3.21144,-1.10357h0.61764v-14.65529c-3.811,-2.07052 -6.40411,-6.10862 -6.40411,-10.74035c0,-6.73689 5.48046,-12.21434 12.21691,-12.21434c2.14634,0 4.2588,0.56574 6.10863,1.63563c0.46955,0.2694 0.63011,0.87074 0.35877,1.34122c-0.27122,0.46664 -0.8717,0.62828 -1.34113,0.35695c-1.55136,-0.89671 -3.32417,-1.37105 -5.12627,-1.37105c-5.65395,0 -10.25345,4.59902 -10.25345,10.25158c0,5.65256 4.59949,10.25158 10.25345,10.25158c5.65361,0 10.25333,-4.59902 10.25333,-10.25158c0,-2.40342 -0.84949,-4.74142 -2.39204,-6.58199c-0.34824,-0.41468 -0.29377,-1.03334 0.12142,-1.38259c0.41531,-0.34926 1.03455,-0.29153 1.38302,0.12315c1.83861,2.19079 2.85095,4.97714 2.85095,7.84143c0,4.63173 -2.593,8.66983 -6.40423,10.74035v14.65529h0.61787c1.20953,0 2.32372,0.4118 3.21144,1.10357c1.18664,0.09237 2.28401,0.47433 3.22426,1.07567c2.27955,0.13085 4.40334,1.09203 6.00986,2.73151c1.68411,1.71934 2.61131,3.99287 2.61131,6.40014zM17.65117,23.80505v19.35341c0,2.1244 1.7268,3.85144 3.84933,3.85144c2.12242,0 3.84922,-1.72704 3.84922,-3.85144v-19.35341c-1.21078,0.40314 -2.50477,0.6225 -3.84922,0.6225c-1.34457,0 -2.63855,-0.21937 -3.84933,-0.6225zM11.79546,42.84577v4.65482c0,1.80401 1.46885,3.27416 3.27461,3.27416h12.86076c1.80576,0 3.27484,-1.47015 3.27484,-3.27416v-4.65482c0,-1.80593 -1.46908,-3.27416 -3.27484,-3.27416h-0.61787v3.58685c0,3.20584 -2.60754,5.81324 -5.81245,5.81324c-3.20526,0 -5.8128,-2.60739 -5.8128,-5.81324v-3.58685h-0.61764c-1.80576,0 -3.27461,1.46822 -3.27461,3.27416zM41.02447,48.92071c0,-1.8906 -0.72842,-3.67633 -2.05078,-5.02621c-0.65048,-0.66388 -1.40911,-1.18632 -2.23652,-1.55097c0.53524,0.991 0.83862,2.12729 0.83862,3.33958v6.57429c0,3.85721 -3.13717,6.99282 -6.99326,6.99282h-16.20083c-0.54222,0 -0.98179,-0.4397 -0.98179,-0.98138c0,-0.54168 0.43957,-0.98138 0.98179,-0.98138h16.20083c2.77336,0 5.02991,-2.25621 5.02991,-5.03006v-6.57429c0,-1.95025 -1.08913,-3.63111 -2.70481,-4.46817c0.16869,0.51474 0.26115,1.06124 0.26115,1.63082v4.65482c0,2.88834 -2.34993,5.23692 -5.23819,5.23692h-12.86076c-2.88826,0 -5.23796,-2.34858 -5.23796,-5.23692v-4.65482c0,-0.56959 0.09247,-1.11608 0.26115,-1.63082c-1.61568,0.83706 -2.7047,2.51792 -2.7047,4.46817v6.57429c0,2.15615 1.36997,4.07177 3.40897,4.76547c0.51338,0.17318 0.7877,0.73219 0.61295,1.24501c-0.13893,0.40891 -0.52036,0.6658 -0.92915,0.6658c-0.10483,0 -0.21149,-0.01732 -0.31631,-0.05388c-2.83493,-0.96502 -4.7398,-3.62437 -4.7398,-6.6224v-6.57429c0,-1.21229 0.30361,-2.34858 0.83862,-3.33958c-0.82729,0.36465 -1.58592,0.88709 -2.2364,1.55097c-1.32248,1.34988 -2.05078,3.13561 -2.05078,5.02621v8.93153c0,3.96209 3.22334,7.18525 7.18552,7.18525h24.6769c3.96229,0 7.18563,-3.22316 7.18563,-7.18525zM27.70091,7.96634c0.54234,0 0.98179,0.43874 0.98179,0.98042v6.5358c0,0.5388 -0.43945,0.97946 -0.98179,0.97946c-0.54211,0 -0.98145,-0.44066 -0.98145,-0.97946v-2.28796h-2.17037v2.28796c0,0.5388 -0.43934,0.97946 -0.98156,0.97946c-0.54234,0 -0.98167,-0.44066 -0.98167,-0.97946v-2.28796h-2.17037v2.28796c0,0.5388 -0.43934,0.97946 -0.98145,0.97946c-0.54222,0 -0.98179,-0.44066 -0.98179,-0.97946v-2.28796h-3.15182c-0.54222,0 -0.98156,-0.43777 -0.98156,-0.98042v-3.26742c0,-0.54168 0.43934,-0.98042 0.98156,-0.98042c0.54211,0 0.98167,0.43874 0.98167,0.98042v2.287h2.17014v-2.287c0,-0.54168 0.43957,-0.98042 0.98179,-0.98042c0.54211,0 0.98145,0.43874 0.98145,0.98042v2.287h2.17037v-2.287c0,-0.54168 0.43934,-0.98042 0.98167,-0.98042c0.54222,0 0.98156,0.43874 0.98156,0.98042v2.287h2.17037v-2.287c0,-0.54168 0.43934,-0.98042 0.98145,-0.98042z" fill="#028fea" fill-opacity="1"></path><path d="M42.9877,48.92071v8.93153c0,5.04449 -4.10408,9.14801 -9.14886,9.14801h-24.6769c-5.04467,0 -9.14886,-4.10352 -9.14886,-9.14801v-8.93153c0,-2.40727 0.92743,-4.6808 2.61131,-6.40014c1.60641,-1.63948 3.73043,-2.60066 6.00998,-2.73151c0.94025,-0.60134 2.03762,-0.98331 3.22426,-1.07567c0.88772,-0.69178 2.00191,-1.10357 3.21144,-1.10357h0.61764v-14.65529c-3.811,-2.07052 -6.40411,-6.10862 -6.40411,-10.74035c0,-6.73689 5.48046,-12.21434 12.21691,-12.21434c2.14634,0 4.2588,0.56574 6.10863,1.63563c0.46955,0.2694 0.63011,0.87074 0.35877,1.34122c-0.27122,0.46664 -0.8717,0.62828 -1.34113,0.35695c-1.55136,-0.89671 -3.32417,-1.37105 -5.12627,-1.37105c-5.65395,0 -10.25345,4.59902 -10.25345,10.25158c0,5.65256 4.59949,10.25158 10.25345,10.25158c5.65361,0 10.25333,-4.59902 10.25333,-10.25158c0,-2.40342 -0.84949,-4.74142 -2.39204,-6.58199c-0.34824,-0.41468 -0.29377,-1.03334 0.12142,-1.38259c0.41531,-0.34926 1.03455,-0.29153 1.38302,0.12315c1.83861,2.19079 2.85095,4.97714 2.85095,7.84143c0,4.63173 -2.593,8.66983 -6.40423,10.74035v14.65529h0.61787c1.20953,0 2.32372,0.4118 3.21144,1.10357c1.18664,0.09237 2.28401,0.47433 3.22426,1.07567c2.27955,0.13085 4.40334,1.09203 6.00986,2.73151c1.68411,1.71934 2.61131,3.99287 2.61131,6.40014zM17.65117,23.80505v19.35341c0,2.1244 1.7268,3.85144 3.84933,3.85144c2.12242,0 3.84922,-1.72704 3.84922,-3.85144v-19.35341c-1.21078,0.40314 -2.50477,0.6225 -3.84922,0.6225c-1.34457,0 -2.63855,-0.21937 -3.84933,-0.6225zM11.79546,42.84577v4.65482c0,1.80401 1.46885,3.27416 3.27461,3.27416h12.86076c1.80576,0 3.27484,-1.47015 3.27484,-3.27416v-4.65482c0,-1.80593 -1.46908,-3.27416 -3.27484,-3.27416h-0.61787v3.58685c0,3.20584 -2.60754,5.81324 -5.81245,5.81324c-3.20526,0 -5.8128,-2.60739 -5.8128,-5.81324v-3.58685h-0.61764c-1.80576,0 -3.27461,1.46822 -3.27461,3.27416zM41.02447,48.92071c0,-1.8906 -0.72842,-3.67633 -2.05078,-5.02621c-0.65048,-0.66388 -1.40911,-1.18632 -2.23652,-1.55097c0.53524,0.991 0.83862,2.12729 0.83862,3.33958v6.57429c0,3.85721 -3.13717,6.99282 -6.99326,6.99282h-16.20083c-0.54222,0 -0.98179,-0.4397 -0.98179,-0.98138c0,-0.54168 0.43957,-0.98138 0.98179,-0.98138h16.20083c2.77336,0 5.02991,-2.25621 5.02991,-5.03006v-6.57429c0,-1.95025 -1.08913,-3.63111 -2.70481,-4.46817c0.16869,0.51474 0.26115,1.06124 0.26115,1.63082v4.65482c0,2.88834 -2.34993,5.23692 -5.23819,5.23692h-12.86076c-2.88826,0 -5.23796,-2.34858 -5.23796,-5.23692v-4.65482c0,-0.56959 0.09247,-1.11608 0.26115,-1.63082c-1.61568,0.83706 -2.7047,2.51792 -2.7047,4.46817v6.57429c0,2.15615 1.36997,4.07177 3.40897,4.76547c0.51338,0.17318 0.7877,0.73219 0.61295,1.24501c-0.13893,0.40891 -0.52036,0.6658 -0.92915,0.6658c-0.10483,0 -0.21149,-0.01732 -0.31631,-0.05388c-2.83493,-0.96502 -4.7398,-3.62437 -4.7398,-6.6224v-6.57429c0,-1.21229 0.30361,-2.34858 0.83862,-3.33958c-0.82729,0.36465 -1.58592,0.88709 -2.2364,1.55097c-1.32248,1.34988 -2.05078,3.13561 -2.05078,5.02621v8.93153c0,3.96209 3.22334,7.18525 7.18552,7.18525h24.6769c3.96229,0 7.18563,-3.22316 7.18563,-7.18525zM27.70091,7.96634c0.54234,0 0.98179,0.43874 0.98179,0.98042v6.5358c0,0.5388 -0.43945,0.97946 -0.98179,0.97946c-0.54211,0 -0.98145,-0.44066 -0.98145,-0.97946v-2.28796h-2.17037v2.28796c0,0.5388 -0.43934,0.97946 -0.98156,0.97946c-0.54234,0 -0.98167,-0.44066 -0.98167,-0.97946v-2.28796h-2.17037v2.28796c0,0.5388 -0.43934,0.97946 -0.98145,0.97946c-0.54222,0 -0.98179,-0.44066 -0.98179,-0.97946v-2.28796h-3.15182c-0.54222,0 -0.98156,-0.43777 -0.98156,-0.98042v-3.26742c0,-0.54168 0.43934,-0.98042 0.98156,-0.98042c0.54211,0 0.98167,0.43874 0.98167,0.98042v2.287h2.17014v-2.287c0,-0.54168 0.43957,-0.98042 0.98179,-0.98042c0.54211,0 0.98145,0.43874 0.98145,0.98042v2.287h2.17037v-2.287c0,-0.54168 0.43934,-0.98042 0.98167,-0.98042c0.54222,0 0.98156,0.43874 0.98156,0.98042v2.287h2.17037v-2.287c0,-0.54168 0.43934,-0.98042 0.98145,-0.98042z" fill="url(#LinearGradient1090)"></path></g></g></svg>