<?xml version="1.0" encoding="UTF-8"?>
<svg id="SVGDoc" width="44" height="61" xmlns="http://www.w3.org/2000/svg" version="1.1" xmlns:xlink="http://www.w3.org/1999/xlink" xmlns:avocode="https://avocode.com/" viewBox="0 0 44 61"><defs><linearGradient id="LinearGradient1065" gradientUnits="userSpaceOnUse" x1="0.0037207603454589844" y1="10.987479209899902" x2="44.00372076034546" y2="50.005202293395996"><stop stop-opacity="0" stop-color="#ffffff" offset="0"></stop><stop stop-opacity="1" stop-color="#0d225d" offset="1"></stop></linearGradient></defs><desc>Generated with Avocode.</desc><g><g><title>Shape 45</title><path d="M4.00344,7.87358c0,-2.16962 1.79375,-3.93418 3.9996,-3.93418c2.20585,0 3.9996,1.76456 3.9996,3.93418c0,2.17058 -1.79375,3.93515 -3.9996,3.93515c-2.20585,0 -3.9996,-1.76456 -3.9996,-3.93515zM6.00318,7.87358c0,1.08722 0.89699,1.96757 1.99986,1.96757c1.10287,0 1.99986,-0.88036 1.99986,-1.96757c0,-1.08337 -0.89699,-1.96853 -1.99986,-1.96853c-1.10287,0 -1.99986,0.88517 -1.99986,1.96853zM8.00304,49.18394c2.20585,0 3.9996,1.76456 3.9996,3.93418c0,2.16962 -1.79375,3.93418 -3.9996,3.93418c-2.20585,0 -3.9996,-1.76456 -3.9996,-3.93418c0,-2.16962 1.79375,-3.93418 3.9996,-3.93418zM8.00304,51.15248c-1.10287,0 -1.99986,0.88132 -1.99986,1.96565c0,1.08529 0.89699,1.96757 1.99986,1.96757c1.10287,0 1.99986,-0.88228 1.99986,-1.96757c0,-1.08433 -0.89699,-1.96565 -1.99986,-1.96565zM40.00014,53.11813c0,2.16962 -1.79375,3.93418 -3.9996,3.93418c-2.20596,0 -3.99971,-1.76456 -3.99971,-3.93418c0,-2.16962 1.79375,-3.93418 3.99971,-3.93418c2.20585,0 3.9996,1.76456 3.9996,3.93418zM38.00029,53.11813c0,-1.08433 -0.89699,-1.96565 -1.99974,-1.96565c-1.10287,0 -1.99986,0.88132 -1.99986,1.96565c0,1.08529 0.89699,1.96757 1.99986,1.96757c1.10275,0 1.99974,-0.88228 1.99974,-1.96757zM43.99974,53.11813c0,4.33828 -3.58852,7.86933 -7.99919,7.86933c-4.41078,0 -7.99931,-3.53105 -7.99931,-7.86933c0,-2.80367 1.55079,-5.40914 3.9996,-6.80424v-6.1625c-1.16077,-0.40795 -1.99974,-1.48843 -1.99974,-2.77096v-18.68665c0,-1.27964 0.83897,-2.36301 1.99974,-2.77v-1.24308c-2.44881,-1.39702 -3.9996,-4.00153 -3.9996,-6.80713c0,-4.33924 3.58852,-7.86837 7.99931,-7.86837c4.41067,0 7.99919,3.52912 7.99919,7.86837c0,2.80559 -1.55079,5.4101 -3.9996,6.80713v1.24308c1.16089,0.40698 1.99986,1.49035 1.99986,2.77v18.68665c0,1.28253 -0.83897,2.36301 -1.99986,2.77096v6.1625c2.44881,1.3951 3.9996,4.00057 3.9996,6.80424zM33.43066,13.20094l0.57003,0.26651v2.27642h3.9996v-2.27642l0.57003,-0.26651c2.08385,-0.97657 3.42968,-3.0673 3.42968,-5.32736c0,-3.25395 -2.69073,-5.90272 -5.99945,-5.90272c-3.30872,0 -5.99945,2.64877 -5.99945,5.90272c0,2.26006 1.34571,4.35079 3.42957,5.32736zM32.00084,37.38043c0,0.54361 0.44907,0.98427 0.99987,0.98427h5.99968c0.55069,0 0.99976,-0.44066 0.99976,-0.98427v-18.68665c0,-0.54457 -0.44907,-0.98427 -0.99976,-0.98427h-5.99968c-0.5508,0 -0.99987,0.4397 -0.99987,0.98427zM42,53.11813c0,-2.2591 -1.34583,-4.35079 -3.42968,-5.32447l-0.57003,-0.26747v-7.19391h-3.9996v7.19391l-0.57003,0.26747c-2.08385,0.97368 -3.42957,3.06537 -3.42957,5.32447c0,3.25491 2.69073,5.90176 5.99945,5.90176c3.30872,0 5.99945,-2.64684 5.99945,-5.90176zM12.00263,14.68071v1.24308c1.16089,0.40698 1.99986,1.49035 1.99986,2.77v7.8674c0,1.28061 -0.83897,2.36494 -1.99986,2.77096v2.14845h0.99987c1.65401,0 2.99984,1.32294 2.99984,2.94992c0,1.62505 -1.34583,2.94992 -2.99984,2.94992h-0.99987v1.9695h0.99987c1.65401,0 2.99984,1.3239 2.99984,2.94992c0,1.62601 -1.34583,2.95088 -2.99984,2.95088h-0.99987v1.06316c2.44892,1.3951 3.99971,4.00057 3.99971,6.80424c0,4.33828 -3.58864,7.86933 -7.99931,7.86933c-4.41055,0 -7.99931,-3.53105 -7.99931,-7.86933c0,-2.80367 1.5509,-5.40914 3.99971,-6.80424v-1.06316h-0.99998c-1.65379,0 -2.99973,-1.32486 -2.99973,-2.95088c0,-1.62601 1.34594,-2.94992 2.99973,-2.94992h0.99998v-1.9695h-0.99998c-1.65379,0 -2.99973,-1.32486 -2.99973,-2.94992c0,-1.62698 1.34594,-2.94992 2.99973,-2.94992h0.99998v-2.14845c-1.16089,-0.40602 -1.99986,-1.49035 -1.99986,-2.77096v-7.8674c0,-1.27964 0.83897,-2.36301 1.99986,-2.77v-1.24308c-2.44881,-1.39702 -3.99971,-4.00153 -3.99971,-6.80713c0,-4.33924 3.58875,-7.86837 7.99931,-7.86837c4.41067,0 7.99931,3.52912 7.99931,7.86837c0,2.80559 -1.55079,5.4101 -3.99971,6.80713zM5.43327,13.20094l0.56992,0.26651v2.27642h3.99971v-2.27642l0.56992,-0.26651c2.08385,-0.97657 3.42968,-3.0673 3.42968,-5.32736c0,-3.25395 -2.69073,-5.90272 -5.99945,-5.90272c-3.30872,0 -5.99945,2.64877 -5.99945,5.90272c0,2.26006 1.34583,4.35079 3.42968,5.32736zM10.00289,47.52618v-2.27546h-3.99971v2.27546l-0.56992,0.26747c-2.08385,0.97368 -3.42968,3.06537 -3.42968,5.32447c0,3.25491 2.69073,5.90176 5.99945,5.90176c3.30872,0 5.99945,-2.64684 5.99945,-5.90176c0,-2.2591 -1.34583,-4.35079 -3.42968,-5.32447zM13.0025,41.31558h-9.99905c-0.55092,0 -0.99987,0.4397 -0.99987,0.98427c0,0.54265 0.44895,0.98427 0.99987,0.98427h9.99905c0.55092,0 0.99998,-0.44162 0.99998,-0.98427c0,-0.54457 -0.44907,-0.98427 -0.99998,-0.98427zM10.00289,37.38043h-3.99971v1.9695h3.99971zM13.0025,33.44625h-9.99905c-0.55092,0 -0.99987,0.44162 -0.99987,0.98427c0,0.54265 0.44895,0.98427 0.99987,0.98427h9.99905c0.55092,0 0.99998,-0.44162 0.99998,-0.98427c0,-0.54265 -0.44907,-0.98427 -0.99998,-0.98427zM10.00289,31.4806v-1.9695h-3.99971v1.9695zM12.00263,18.69378c0,-0.54457 -0.44895,-0.98427 -0.99987,-0.98427h-5.99945c-0.55092,0 -0.99987,0.4397 -0.99987,0.98427v7.8674c0,0.54457 0.44895,0.98523 0.99987,0.98523h5.99945c0.55092,0 0.99987,-0.44066 0.99987,-0.98523zM32.00084,7.87358c0,-2.16962 1.79375,-3.93418 3.99971,-3.93418c2.20585,0 3.9996,1.76456 3.9996,3.93418c0,2.17058 -1.79375,3.93515 -3.9996,3.93515c-2.20596,0 -3.99971,-1.76456 -3.99971,-3.93515zM34.00069,7.87358c0,1.08722 0.89699,1.96757 1.99986,1.96757c1.10275,0 1.99974,-0.88036 1.99974,-1.96757c0,-1.08337 -0.89699,-1.96853 -1.99974,-1.96853c-1.10287,0 -1.99986,0.88517 -1.99986,1.96853zM6.00318,19.67805h3.99971v1.96565h-3.99971zM6.00318,23.61224h3.99971v1.96565h-3.99971z" fill="#028fea" fill-opacity="1"></path><path d="M4.00344,7.87358c0,-2.16962 1.79375,-3.93418 3.9996,-3.93418c2.20585,0 3.9996,1.76456 3.9996,3.93418c0,2.17058 -1.79375,3.93515 -3.9996,3.93515c-2.20585,0 -3.9996,-1.76456 -3.9996,-3.93515zM6.00318,7.87358c0,1.08722 0.89699,1.96757 1.99986,1.96757c1.10287,0 1.99986,-0.88036 1.99986,-1.96757c0,-1.08337 -0.89699,-1.96853 -1.99986,-1.96853c-1.10287,0 -1.99986,0.88517 -1.99986,1.96853zM8.00304,49.18394c2.20585,0 3.9996,1.76456 3.9996,3.93418c0,2.16962 -1.79375,3.93418 -3.9996,3.93418c-2.20585,0 -3.9996,-1.76456 -3.9996,-3.93418c0,-2.16962 1.79375,-3.93418 3.9996,-3.93418zM8.00304,51.15248c-1.10287,0 -1.99986,0.88132 -1.99986,1.96565c0,1.08529 0.89699,1.96757 1.99986,1.96757c1.10287,0 1.99986,-0.88228 1.99986,-1.96757c0,-1.08433 -0.89699,-1.96565 -1.99986,-1.96565zM40.00014,53.11813c0,2.16962 -1.79375,3.93418 -3.9996,3.93418c-2.20596,0 -3.99971,-1.76456 -3.99971,-3.93418c0,-2.16962 1.79375,-3.93418 3.99971,-3.93418c2.20585,0 3.9996,1.76456 3.9996,3.93418zM38.00029,53.11813c0,-1.08433 -0.89699,-1.96565 -1.99974,-1.96565c-1.10287,0 -1.99986,0.88132 -1.99986,1.96565c0,1.08529 0.89699,1.96757 1.99986,1.96757c1.10275,0 1.99974,-0.88228 1.99974,-1.96757zM43.99974,53.11813c0,4.33828 -3.58852,7.86933 -7.99919,7.86933c-4.41078,0 -7.99931,-3.53105 -7.99931,-7.86933c0,-2.80367 1.55079,-5.40914 3.9996,-6.80424v-6.1625c-1.16077,-0.40795 -1.99974,-1.48843 -1.99974,-2.77096v-18.68665c0,-1.27964 0.83897,-2.36301 1.99974,-2.77v-1.24308c-2.44881,-1.39702 -3.9996,-4.00153 -3.9996,-6.80713c0,-4.33924 3.58852,-7.86837 7.99931,-7.86837c4.41067,0 7.99919,3.52912 7.99919,7.86837c0,2.80559 -1.55079,5.4101 -3.9996,6.80713v1.24308c1.16089,0.40698 1.99986,1.49035 1.99986,2.77v18.68665c0,1.28253 -0.83897,2.36301 -1.99986,2.77096v6.1625c2.44881,1.3951 3.9996,4.00057 3.9996,6.80424zM33.43066,13.20094l0.57003,0.26651v2.27642h3.9996v-2.27642l0.57003,-0.26651c2.08385,-0.97657 3.42968,-3.0673 3.42968,-5.32736c0,-3.25395 -2.69073,-5.90272 -5.99945,-5.90272c-3.30872,0 -5.99945,2.64877 -5.99945,5.90272c0,2.26006 1.34571,4.35079 3.42957,5.32736zM32.00084,37.38043c0,0.54361 0.44907,0.98427 0.99987,0.98427h5.99968c0.55069,0 0.99976,-0.44066 0.99976,-0.98427v-18.68665c0,-0.54457 -0.44907,-0.98427 -0.99976,-0.98427h-5.99968c-0.5508,0 -0.99987,0.4397 -0.99987,0.98427zM42,53.11813c0,-2.2591 -1.34583,-4.35079 -3.42968,-5.32447l-0.57003,-0.26747v-7.19391h-3.9996v7.19391l-0.57003,0.26747c-2.08385,0.97368 -3.42957,3.06537 -3.42957,5.32447c0,3.25491 2.69073,5.90176 5.99945,5.90176c3.30872,0 5.99945,-2.64684 5.99945,-5.90176zM12.00263,14.68071v1.24308c1.16089,0.40698 1.99986,1.49035 1.99986,2.77v7.8674c0,1.28061 -0.83897,2.36494 -1.99986,2.77096v2.14845h0.99987c1.65401,0 2.99984,1.32294 2.99984,2.94992c0,1.62505 -1.34583,2.94992 -2.99984,2.94992h-0.99987v1.9695h0.99987c1.65401,0 2.99984,1.3239 2.99984,2.94992c0,1.62601 -1.34583,2.95088 -2.99984,2.95088h-0.99987v1.06316c2.44892,1.3951 3.99971,4.00057 3.99971,6.80424c0,4.33828 -3.58864,7.86933 -7.99931,7.86933c-4.41055,0 -7.99931,-3.53105 -7.99931,-7.86933c0,-2.80367 1.5509,-5.40914 3.99971,-6.80424v-1.06316h-0.99998c-1.65379,0 -2.99973,-1.32486 -2.99973,-2.95088c0,-1.62601 1.34594,-2.94992 2.99973,-2.94992h0.99998v-1.9695h-0.99998c-1.65379,0 -2.99973,-1.32486 -2.99973,-2.94992c0,-1.62698 1.34594,-2.94992 2.99973,-2.94992h0.99998v-2.14845c-1.16089,-0.40602 -1.99986,-1.49035 -1.99986,-2.77096v-7.8674c0,-1.27964 0.83897,-2.36301 1.99986,-2.77v-1.24308c-2.44881,-1.39702 -3.99971,-4.00153 -3.99971,-6.80713c0,-4.33924 3.58875,-7.86837 7.99931,-7.86837c4.41067,0 7.99931,3.52912 7.99931,7.86837c0,2.80559 -1.55079,5.4101 -3.99971,6.80713zM5.43327,13.20094l0.56992,0.26651v2.27642h3.99971v-2.27642l0.56992,-0.26651c2.08385,-0.97657 3.42968,-3.0673 3.42968,-5.32736c0,-3.25395 -2.69073,-5.90272 -5.99945,-5.90272c-3.30872,0 -5.99945,2.64877 -5.99945,5.90272c0,2.26006 1.34583,4.35079 3.42968,5.32736zM10.00289,47.52618v-2.27546h-3.99971v2.27546l-0.56992,0.26747c-2.08385,0.97368 -3.42968,3.06537 -3.42968,5.32447c0,3.25491 2.69073,5.90176 5.99945,5.90176c3.30872,0 5.99945,-2.64684 5.99945,-5.90176c0,-2.2591 -1.34583,-4.35079 -3.42968,-5.32447zM13.0025,41.31558h-9.99905c-0.55092,0 -0.99987,0.4397 -0.99987,0.98427c0,0.54265 0.44895,0.98427 0.99987,0.98427h9.99905c0.55092,0 0.99998,-0.44162 0.99998,-0.98427c0,-0.54457 -0.44907,-0.98427 -0.99998,-0.98427zM10.00289,37.38043h-3.99971v1.9695h3.99971zM13.0025,33.44625h-9.99905c-0.55092,0 -0.99987,0.44162 -0.99987,0.98427c0,0.54265 0.44895,0.98427 0.99987,0.98427h9.99905c0.55092,0 0.99998,-0.44162 0.99998,-0.98427c0,-0.54265 -0.44907,-0.98427 -0.99998,-0.98427zM10.00289,31.4806v-1.9695h-3.99971v1.9695zM12.00263,18.69378c0,-0.54457 -0.44895,-0.98427 -0.99987,-0.98427h-5.99945c-0.55092,0 -0.99987,0.4397 -0.99987,0.98427v7.8674c0,0.54457 0.44895,0.98523 0.99987,0.98523h5.99945c0.55092,0 0.99987,-0.44066 0.99987,-0.98523zM32.00084,7.87358c0,-2.16962 1.79375,-3.93418 3.99971,-3.93418c2.20585,0 3.9996,1.76456 3.9996,3.93418c0,2.17058 -1.79375,3.93515 -3.9996,3.93515c-2.20596,0 -3.99971,-1.76456 -3.99971,-3.93515zM34.00069,7.87358c0,1.08722 0.89699,1.96757 1.99986,1.96757c1.10275,0 1.99974,-0.88036 1.99974,-1.96757c0,-1.08337 -0.89699,-1.96853 -1.99974,-1.96853c-1.10287,0 -1.99986,0.88517 -1.99986,1.96853zM6.00318,19.67805h3.99971v1.96565h-3.99971zM6.00318,23.61224h3.99971v1.96565h-3.99971z" fill="url(#LinearGradient1065)"></path></g></g></svg>