<?xml version="1.0" encoding="UTF-8"?>
<svg id="SVGDoc" width="59" height="68" xmlns="http://www.w3.org/2000/svg" version="1.1" xmlns:xlink="http://www.w3.org/1999/xlink" xmlns:avocode="https://avocode.com/" viewBox="0 0 59 68"><defs><linearGradient id="LinearGradient1290" gradientUnits="userSpaceOnUse" x1="0.0037150694988667965" y1="6.986534535884857" x2="59.00371506949887" y2="60.99948924779892"><stop stop-opacity="0" stop-color="#ffffff" offset="0"></stop><stop stop-opacity="1" stop-color="#0d225d" offset="1"></stop></linearGradient></defs><desc>Generated with Avocode.</desc><g><g><title>Shape 49</title><path d="M1.92314,30.67674h1.56509c0.12806,-1.32005 1.25381,-2.35628 2.61932,-2.35628h0.2116c0.70335,0 1.34171,0.2771 1.81469,0.72353l3.67424,-0.21937l1.10378,-5.93735c-1.19751,-0.80242 -2.23228,-1.88194 -2.99538,-3.20777l-3.38161,-5.88059c-0.03136,-0.0077 -0.06283,-0.01347 -0.09418,-0.02213c-0.72247,-0.1982 -1.32454,-0.66003 -1.69533,-1.30466l-0.32833,-0.57055c-0.37079,-0.64559 -0.46589,-1.3951 -0.26756,-2.11093c0.19821,-0.71487 0.66559,-1.31139 1.31676,-1.67893l13.73772,-7.7481c1.34354,-0.75913 3.05981,-0.29249 3.82542,1.03911l0.32833,0.57055c0.37056,0.64367 0.46589,1.39414 0.26768,2.10997c-0.02197,0.07793 -0.04818,0.1549 -0.07679,0.23091l3.33263,5.79592c1.29044,2.24178 1.62117,4.8511 0.93178,7.34111c-0.4612,1.66546 -1.34342,3.14138 -2.55341,4.32385l2.66933,6.08264l5.19939,-0.31269c0.51819,-0.70717 1.35715,-1.16804 2.30507,-1.16804h0.23964c1.18595,0 2.20402,0.71968 2.63237,1.74436l3.51963,0.73604c0.83038,0.17607 1.43314,0.91114 1.43314,1.75109v0.32905l6.82938,0.30307c0.93143,0.04137 1.661,0.79569 1.661,1.71838v1.41049c0,0.92077 -0.72956,1.67701 -1.661,1.71838l-6.82915,0.30211v0.32905c0,0.84187 -0.60299,1.57887 -1.43337,1.75109l-3.51929,0.737c-0.42847,1.02275 -1.44653,1.74532 -2.63248,1.74532h-0.23987c-1.23665,0 -2.28905,-0.78607 -2.68215,-1.88002l-4.40311,-0.26266v9.12877l3.46722,5.7786c0.7552,1.25848 0.33577,2.89123 -0.93533,3.63977c-0.41977,0.24727 -0.88875,0.37427 -1.36505,0.37427c-0.22179,0 -0.44518,-0.0279 -0.66582,-0.08371c-0.69397,-0.17511 -1.27762,-0.60615 -1.64349,-1.21614l-3.84373,-6.4088c-0.24582,-0.40891 -0.37605,-0.87843 -0.37605,-1.35469v-4.44796c0,-0.55034 0.45021,-0.99678 1.00525,-0.99678c0.5555,0 1.00559,0.44643 1.00559,0.99678v4.44796c0,0.11834 0.03273,0.23669 0.0943,0.33771l3.84315,6.40688c0.09167,0.15298 0.23758,0.2617 0.41119,0.305c0.17326,0.0433 0.35374,0.01828 0.508,-0.07312c0.15369,-0.09044 0.26287,-0.23476 0.30704,-0.40698c0.04406,-0.17126 0.01808,-0.35118 -0.07324,-0.5032l-3.60832,-6.01433c-0.09247,-0.15394 -0.14122,-0.32905 -0.14122,-0.50801v-9.52324l-1.34045,-0.07986v1.6289c0,0.54938 -0.45033,0.99485 -1.00548,0.99485c-0.55538,0 -1.00525,-0.44643 -1.00525,-0.99485v-1.75013l-4.08131,-0.24342v17.66197c0,0.64175 -0.38544,1.19401 -0.93819,1.44609v1.25463c0,0.87939 -0.63526,1.61158 -1.4748,1.77707v0.39929c0,1.1892 -0.97778,2.15711 -2.17987,2.15711h-8.20919c-0.84995,0 -1.54152,0.68504 -1.54152,1.52691c0,0.84283 0.69134,1.52788 1.54152,1.52788h37.40147c0.55538,0 1.00548,0.44547 1.00548,0.99485c0,0.55034 -0.45033,0.99678 -1.00548,0.99678h-37.40147c-1.95866,0 -3.55259,-1.57983 -3.55259,-3.5195c0,-1.93967 1.59393,-3.51854 3.55259,-3.51854h8.20919c0.09315,0 0.16937,-0.07505 0.16937,-0.16549v-0.39929c-0.8392,-0.16549 -1.4748,-0.89671 -1.4748,-1.77707v-1.36239c-0.38509,-0.24631 -0.6609,-0.64848 -0.72578,-1.1257l-2.81055,-18.4413l-1.33621,-0.07986c-0.47264,0.44739 -1.11099,0.72449 -1.81469,0.72449h-0.21126c-1.36585,0 -2.49126,-1.03622 -2.61955,-2.35628h-1.56487c-1.05892,0 -1.9202,-0.85438 -1.9202,-1.90215v-1.48458c-0.00103,-1.04969 0.86071,-1.90215 1.9194,-1.90215zM43.25794,34.39636l6.4793,-0.28672v-0.8919l-6.4793,-0.28576zM38.52226,37.12691l2.72507,-0.57055v-5.78341l-2.72507,-0.57055zM34.59465,38.13042c0,0.45798 0.3764,0.83033 0.83828,0.83033h0.23987c0.46234,0 0.83839,-0.37235 0.83839,-0.83033v-8.93249c0,-0.45798 -0.37628,-0.83033 -0.83839,-0.83033h-0.23987c-0.46246,0 -0.83828,0.37235 -0.83828,0.83033zM21.61018,2.9585l-0.32845,-0.57055c-0.21652,-0.37908 -0.70221,-0.50897 -1.0825,-0.29441l-13.73817,7.75099c-0.18436,0.10199 -0.31654,0.27132 -0.37262,0.47337c-0.0563,0.20205 -0.0293,0.41468 0.07565,0.59845l0.32845,0.57055c0.10494,0.18184 0.27546,0.31269 0.47997,0.37042c0.20473,0.05388 0.41862,0.0279 0.60276,-0.07697l13.73817,-7.75002c0.18414,-0.10295 0.31654,-0.27229 0.37262,-0.4753c0.05608,-0.20109 0.02907,-0.41372 -0.07587,-0.59653zM25.13393,11.09626l-3.00797,-5.23211l-13.47004,7.59897l1.57242,2.7344l2.11601,-0.97946c0.95135,-0.44066 2.05799,-0.47722 3.03703,-0.0991l0.25589,0.09814c0.42549,0.16356 0.89493,0.16645 1.32259,0.0077l2.28756,-0.85053c0.85384,-0.31558 1.79729,-0.32328 2.65629,-0.0202c0.37285,0.13278 0.78632,0.14143 1.16467,0.02694l2.95269,-0.8919c-0.15713,-0.83033 -0.45307,-1.63852 -0.88715,-2.39284zM25.87311,16.9249c0.12726,-0.45798 0.20874,-0.92173 0.24925,-1.38452l-2.46632,0.74469c-0.78896,0.23957 -1.65161,0.21937 -2.42844,-0.05484c-0.41199,-0.14721 -0.86437,-0.1424 -1.27396,0.00962l-2.28756,0.84957c-0.89115,0.33001 -1.87065,0.32424 -2.75791,-0.01732l-0.25578,-0.0991c-0.46955,-0.17992 -1.00033,-0.1626 -1.45672,0.04811l-1.96884,0.91211l0.43671,0.76009c2.11498,3.67825 6.85753,4.9656 10.57079,2.87102c0.40958,-0.23188 0.79136,-0.4955 1.14544,-0.78895c0.01671,-0.01443 0.03456,-0.02983 0.05264,-0.0433c1.17485,-0.99004 2.02377,-2.30336 2.44068,-3.80718zM15.0169,58.42673h0.93853v-0.93039h-0.93853zM14.22039,55.50375h2.67323v-4.24784h-1.03535c-1.05526,0 -1.91368,-0.84957 -1.91368,-1.89637v-6.69744c0,-1.04488 0.85842,-1.89541 1.91368,-1.89541h1.03535v-2.64396l-5.3714,-0.32328zM16.89362,49.26429v-6.50405h-0.93819v6.50405zM32.58392,37.06726v-7.49409l-12.01,0.72064c-0.55275,0.03367 -1.03065,-0.38582 -1.06407,-0.93424c-0.03353,-0.54842 0.38853,-1.02179 0.94265,-1.0545l5.33993,-0.31847l-2.16236,-4.93096c-0.13115,0.08371 -0.26447,0.16356 -0.40009,0.23861c-1.52092,0.85919 -3.17814,1.26617 -4.81476,1.26617c-1.24958,0 -2.48623,-0.23861 -3.64082,-0.69466l-0.89836,4.83378l2.55512,-0.15394c0.55458,-0.03175 1.03065,0.38774 1.06419,0.93616c0.03353,0.54746 -0.38864,1.0189 -0.94265,1.05258l-7.60117,0.45605v4.6606zM5.48615,35.71353c0,0.33963 0.27889,0.61577 0.62141,0.61577h0.21137c0.34275,0 0.62164,-0.27613 0.62164,-0.61577v-4.78471c0,-0.3406 -0.27889,-0.61577 -0.62164,-0.61577h-0.21137c-0.34275,0 -0.62141,0.27517 -0.62141,0.61577zM2.01344,33.97302h1.46175v-1.30466h-1.46175zM26.99726,30.92882l2.6667,-0.30981c0.3907,-0.04426 0.78484,0.0789 1.08204,0.3406c0.31288,0.27613 0.49198,0.67735 0.49198,1.09972v2.41112c0,0.4243 -0.1791,0.82455 -0.49198,1.09972c-0.25692,0.22803 -0.58685,0.35118 -0.92354,0.35118c-0.05264,0 -0.10563,-0.00385 -0.15816,-0.00962l-2.66705,-0.30885c-0.71594,-0.08371 -1.25565,-0.70236 -1.25565,-1.43936v-1.79535c-0.00023,-0.73892 0.5397,-1.35661 1.25565,-1.43936zM27.75246,33.68534l1.4748,0.17126v-1.18151l-1.4748,0.17126zM21.25004,32.26908h1.34079c0.55504,0 1.00525,0.44643 1.00525,0.99581c0,0.54938 -0.45021,0.99678 -1.00525,0.99678h-1.34079c-0.55538,0 -1.00548,-0.44739 -1.00548,-0.99678c0,-0.54938 0.4501,-0.99581 1.00548,-0.99581zM11.19778,32.26908h6.70269c0.55538,0 1.00548,0.44643 1.00548,0.99581c0,0.54938 -0.45033,0.99678 -1.00548,0.99678h-6.70269c-0.55538,0 -1.00559,-0.44739 -1.00559,-0.99678c0,-0.54938 0.45021,-0.99581 1.00559,-0.99581zM55.70145,32.66836h2.27921c0.55515,0 1.00525,0.44547 1.00525,0.99581c0,0.55034 -0.4501,0.99485 -1.00525,0.99485h-2.27921c-0.55515,0 -1.00525,-0.44451 -1.00525,-0.99485c0,-0.55034 0.45044,-0.99581 1.00525,-0.99581zM53.53233,27.91059l1.87374,-1.28542c0.45696,-0.31269 1.0833,-0.20012 1.39915,0.25208c0.31574,0.45413 0.20187,1.07375 -0.25509,1.38548l-1.87386,1.28542c-0.17464,0.11931 -0.37388,0.17703 -0.57106,0.17703c-0.31895,0 -0.63263,-0.15106 -0.82798,-0.43008c-0.31551,-0.4522 -0.20164,-1.07086 0.25509,-1.38452zM53.27724,38.03228c0.31609,-0.4522 0.94242,-0.56381 1.39904,-0.25208l1.87386,1.28445c0.45696,0.31269 0.57083,0.93327 0.25509,1.38548c-0.19512,0.27902 -0.5088,0.42815 -0.82798,0.42815c-0.19695,0 -0.39654,-0.05677 -0.57117,-0.17607l-1.87374,-1.28349c-0.45673,-0.31269 -0.5706,-0.93424 -0.25509,-1.38644z" fill="#028fea" fill-opacity="1"></path><path d="M1.92314,30.67674h1.56509c0.12806,-1.32005 1.25381,-2.35628 2.61932,-2.35628h0.2116c0.70335,0 1.34171,0.2771 1.81469,0.72353l3.67424,-0.21937l1.10378,-5.93735c-1.19751,-0.80242 -2.23228,-1.88194 -2.99538,-3.20777l-3.38161,-5.88059c-0.03136,-0.0077 -0.06283,-0.01347 -0.09418,-0.02213c-0.72247,-0.1982 -1.32454,-0.66003 -1.69533,-1.30466l-0.32833,-0.57055c-0.37079,-0.64559 -0.46589,-1.3951 -0.26756,-2.11093c0.19821,-0.71487 0.66559,-1.31139 1.31676,-1.67893l13.73772,-7.7481c1.34354,-0.75913 3.05981,-0.29249 3.82542,1.03911l0.32833,0.57055c0.37056,0.64367 0.46589,1.39414 0.26768,2.10997c-0.02197,0.07793 -0.04818,0.1549 -0.07679,0.23091l3.33263,5.79592c1.29044,2.24178 1.62117,4.8511 0.93178,7.34111c-0.4612,1.66546 -1.34342,3.14138 -2.55341,4.32385l2.66933,6.08264l5.19939,-0.31269c0.51819,-0.70717 1.35715,-1.16804 2.30507,-1.16804h0.23964c1.18595,0 2.20402,0.71968 2.63237,1.74436l3.51963,0.73604c0.83038,0.17607 1.43314,0.91114 1.43314,1.75109v0.32905l6.82938,0.30307c0.93143,0.04137 1.661,0.79569 1.661,1.71838v1.41049c0,0.92077 -0.72956,1.67701 -1.661,1.71838l-6.82915,0.30211v0.32905c0,0.84187 -0.60299,1.57887 -1.43337,1.75109l-3.51929,0.737c-0.42847,1.02275 -1.44653,1.74532 -2.63248,1.74532h-0.23987c-1.23665,0 -2.28905,-0.78607 -2.68215,-1.88002l-4.40311,-0.26266v9.12877l3.46722,5.7786c0.7552,1.25848 0.33577,2.89123 -0.93533,3.63977c-0.41977,0.24727 -0.88875,0.37427 -1.36505,0.37427c-0.22179,0 -0.44518,-0.0279 -0.66582,-0.08371c-0.69397,-0.17511 -1.27762,-0.60615 -1.64349,-1.21614l-3.84373,-6.4088c-0.24582,-0.40891 -0.37605,-0.87843 -0.37605,-1.35469v-4.44796c0,-0.55034 0.45021,-0.99678 1.00525,-0.99678c0.5555,0 1.00559,0.44643 1.00559,0.99678v4.44796c0,0.11834 0.03273,0.23669 0.0943,0.33771l3.84315,6.40688c0.09167,0.15298 0.23758,0.2617 0.41119,0.305c0.17326,0.0433 0.35374,0.01828 0.508,-0.07312c0.15369,-0.09044 0.26287,-0.23476 0.30704,-0.40698c0.04406,-0.17126 0.01808,-0.35118 -0.07324,-0.5032l-3.60832,-6.01433c-0.09247,-0.15394 -0.14122,-0.32905 -0.14122,-0.50801v-9.52324l-1.34045,-0.07986v1.6289c0,0.54938 -0.45033,0.99485 -1.00548,0.99485c-0.55538,0 -1.00525,-0.44643 -1.00525,-0.99485v-1.75013l-4.08131,-0.24342v17.66197c0,0.64175 -0.38544,1.19401 -0.93819,1.44609v1.25463c0,0.87939 -0.63526,1.61158 -1.4748,1.77707v0.39929c0,1.1892 -0.97778,2.15711 -2.17987,2.15711h-8.20919c-0.84995,0 -1.54152,0.68504 -1.54152,1.52691c0,0.84283 0.69134,1.52788 1.54152,1.52788h37.40147c0.55538,0 1.00548,0.44547 1.00548,0.99485c0,0.55034 -0.45033,0.99678 -1.00548,0.99678h-37.40147c-1.95866,0 -3.55259,-1.57983 -3.55259,-3.5195c0,-1.93967 1.59393,-3.51854 3.55259,-3.51854h8.20919c0.09315,0 0.16937,-0.07505 0.16937,-0.16549v-0.39929c-0.8392,-0.16549 -1.4748,-0.89671 -1.4748,-1.77707v-1.36239c-0.38509,-0.24631 -0.6609,-0.64848 -0.72578,-1.1257l-2.81055,-18.4413l-1.33621,-0.07986c-0.47264,0.44739 -1.11099,0.72449 -1.81469,0.72449h-0.21126c-1.36585,0 -2.49126,-1.03622 -2.61955,-2.35628h-1.56487c-1.05892,0 -1.9202,-0.85438 -1.9202,-1.90215v-1.48458c-0.00103,-1.04969 0.86071,-1.90215 1.9194,-1.90215zM43.25794,34.39636l6.4793,-0.28672v-0.8919l-6.4793,-0.28576zM38.52226,37.12691l2.72507,-0.57055v-5.78341l-2.72507,-0.57055zM34.59465,38.13042c0,0.45798 0.3764,0.83033 0.83828,0.83033h0.23987c0.46234,0 0.83839,-0.37235 0.83839,-0.83033v-8.93249c0,-0.45798 -0.37628,-0.83033 -0.83839,-0.83033h-0.23987c-0.46246,0 -0.83828,0.37235 -0.83828,0.83033zM21.61018,2.9585l-0.32845,-0.57055c-0.21652,-0.37908 -0.70221,-0.50897 -1.0825,-0.29441l-13.73817,7.75099c-0.18436,0.10199 -0.31654,0.27132 -0.37262,0.47337c-0.0563,0.20205 -0.0293,0.41468 0.07565,0.59845l0.32845,0.57055c0.10494,0.18184 0.27546,0.31269 0.47997,0.37042c0.20473,0.05388 0.41862,0.0279 0.60276,-0.07697l13.73817,-7.75002c0.18414,-0.10295 0.31654,-0.27229 0.37262,-0.4753c0.05608,-0.20109 0.02907,-0.41372 -0.07587,-0.59653zM25.13393,11.09626l-3.00797,-5.23211l-13.47004,7.59897l1.57242,2.7344l2.11601,-0.97946c0.95135,-0.44066 2.05799,-0.47722 3.03703,-0.0991l0.25589,0.09814c0.42549,0.16356 0.89493,0.16645 1.32259,0.0077l2.28756,-0.85053c0.85384,-0.31558 1.79729,-0.32328 2.65629,-0.0202c0.37285,0.13278 0.78632,0.14143 1.16467,0.02694l2.95269,-0.8919c-0.15713,-0.83033 -0.45307,-1.63852 -0.88715,-2.39284zM25.87311,16.9249c0.12726,-0.45798 0.20874,-0.92173 0.24925,-1.38452l-2.46632,0.74469c-0.78896,0.23957 -1.65161,0.21937 -2.42844,-0.05484c-0.41199,-0.14721 -0.86437,-0.1424 -1.27396,0.00962l-2.28756,0.84957c-0.89115,0.33001 -1.87065,0.32424 -2.75791,-0.01732l-0.25578,-0.0991c-0.46955,-0.17992 -1.00033,-0.1626 -1.45672,0.04811l-1.96884,0.91211l0.43671,0.76009c2.11498,3.67825 6.85753,4.9656 10.57079,2.87102c0.40958,-0.23188 0.79136,-0.4955 1.14544,-0.78895c0.01671,-0.01443 0.03456,-0.02983 0.05264,-0.0433c1.17485,-0.99004 2.02377,-2.30336 2.44068,-3.80718zM15.0169,58.42673h0.93853v-0.93039h-0.93853zM14.22039,55.50375h2.67323v-4.24784h-1.03535c-1.05526,0 -1.91368,-0.84957 -1.91368,-1.89637v-6.69744c0,-1.04488 0.85842,-1.89541 1.91368,-1.89541h1.03535v-2.64396l-5.3714,-0.32328zM16.89362,49.26429v-6.50405h-0.93819v6.50405zM32.58392,37.06726v-7.49409l-12.01,0.72064c-0.55275,0.03367 -1.03065,-0.38582 -1.06407,-0.93424c-0.03353,-0.54842 0.38853,-1.02179 0.94265,-1.0545l5.33993,-0.31847l-2.16236,-4.93096c-0.13115,0.08371 -0.26447,0.16356 -0.40009,0.23861c-1.52092,0.85919 -3.17814,1.26617 -4.81476,1.26617c-1.24958,0 -2.48623,-0.23861 -3.64082,-0.69466l-0.89836,4.83378l2.55512,-0.15394c0.55458,-0.03175 1.03065,0.38774 1.06419,0.93616c0.03353,0.54746 -0.38864,1.0189 -0.94265,1.05258l-7.60117,0.45605v4.6606zM5.48615,35.71353c0,0.33963 0.27889,0.61577 0.62141,0.61577h0.21137c0.34275,0 0.62164,-0.27613 0.62164,-0.61577v-4.78471c0,-0.3406 -0.27889,-0.61577 -0.62164,-0.61577h-0.21137c-0.34275,0 -0.62141,0.27517 -0.62141,0.61577zM2.01344,33.97302h1.46175v-1.30466h-1.46175zM26.99726,30.92882l2.6667,-0.30981c0.3907,-0.04426 0.78484,0.0789 1.08204,0.3406c0.31288,0.27613 0.49198,0.67735 0.49198,1.09972v2.41112c0,0.4243 -0.1791,0.82455 -0.49198,1.09972c-0.25692,0.22803 -0.58685,0.35118 -0.92354,0.35118c-0.05264,0 -0.10563,-0.00385 -0.15816,-0.00962l-2.66705,-0.30885c-0.71594,-0.08371 -1.25565,-0.70236 -1.25565,-1.43936v-1.79535c-0.00023,-0.73892 0.5397,-1.35661 1.25565,-1.43936zM27.75246,33.68534l1.4748,0.17126v-1.18151l-1.4748,0.17126zM21.25004,32.26908h1.34079c0.55504,0 1.00525,0.44643 1.00525,0.99581c0,0.54938 -0.45021,0.99678 -1.00525,0.99678h-1.34079c-0.55538,0 -1.00548,-0.44739 -1.00548,-0.99678c0,-0.54938 0.4501,-0.99581 1.00548,-0.99581zM11.19778,32.26908h6.70269c0.55538,0 1.00548,0.44643 1.00548,0.99581c0,0.54938 -0.45033,0.99678 -1.00548,0.99678h-6.70269c-0.55538,0 -1.00559,-0.44739 -1.00559,-0.99678c0,-0.54938 0.45021,-0.99581 1.00559,-0.99581zM55.70145,32.66836h2.27921c0.55515,0 1.00525,0.44547 1.00525,0.99581c0,0.55034 -0.4501,0.99485 -1.00525,0.99485h-2.27921c-0.55515,0 -1.00525,-0.44451 -1.00525,-0.99485c0,-0.55034 0.45044,-0.99581 1.00525,-0.99581zM53.53233,27.91059l1.87374,-1.28542c0.45696,-0.31269 1.0833,-0.20012 1.39915,0.25208c0.31574,0.45413 0.20187,1.07375 -0.25509,1.38548l-1.87386,1.28542c-0.17464,0.11931 -0.37388,0.17703 -0.57106,0.17703c-0.31895,0 -0.63263,-0.15106 -0.82798,-0.43008c-0.31551,-0.4522 -0.20164,-1.07086 0.25509,-1.38452zM53.27724,38.03228c0.31609,-0.4522 0.94242,-0.56381 1.39904,-0.25208l1.87386,1.28445c0.45696,0.31269 0.57083,0.93327 0.25509,1.38548c-0.19512,0.27902 -0.5088,0.42815 -0.82798,0.42815c-0.19695,0 -0.39654,-0.05677 -0.57117,-0.17607l-1.87374,-1.28349c-0.45673,-0.31269 -0.5706,-0.93424 -0.25509,-1.38644z" fill="url(#LinearGradient1290)"></path></g></g></svg>