<?xml version="1.0" encoding="UTF-8"?>
<svg id="SVGDoc" width="61" height="60" xmlns="http://www.w3.org/2000/svg" version="1.1" xmlns:xlink="http://www.w3.org/1999/xlink" xmlns:avocode="https://avocode.com/" viewBox="0 0 61 60"><defs><linearGradient id="LinearGradient1190" gradientUnits="userSpaceOnUse" x1="-0.037648677825927734" y1="2.999439495615661" x2="59.96235132217407" y2="56.9995348630473"><stop stop-opacity="0" stop-color="#ffffff" offset="0"></stop><stop stop-opacity="1" stop-color="#0d225d" offset="1"></stop></linearGradient></defs><desc>Generated with Avocode.</desc><g><g><title>Shape 53</title><path d="M60.28004,28.99934v28.00015c0,1.65584 -1.35029,2.99995 -3.01586,2.99995h-20.10578c-1.66569,0 -3.01586,-1.34411 -3.01586,-2.99995v-28.00015c0,-1.65488 1.35017,-2.99995 3.01586,-2.99995h20.10578c1.66557,0 3.01586,1.34507 3.01586,2.99995zM46.20586,49.99993h-10.05283v6.99956c0,0.55419 0.4501,1.00062 1.00536,1.00062h9.04747zM46.20586,39.99947h-10.05283v8.00018h10.05283zM58.26942,49.99993h-10.05283v8.00018h9.04758c0.55515,0 1.00525,-0.44643 1.00525,-1.00062zM58.26942,39.99947h-10.05283v8.00018h10.05283zM58.26942,28.99934c0,-0.55131 -0.4501,-0.9987 -1.00525,-0.9987h-20.10578c-0.55527,0 -1.00536,0.44739 -1.00536,0.9987v9.0008h22.11639zM56.25893,30.99963v4.00057c0,0.55227 -0.4501,0.99966 -1.00536,0.99966h-16.08467c-0.55515,0 -1.00525,-0.44739 -1.00525,-0.99966v-4.00057c0,-0.55131 0.4501,-0.99966 1.00525,-0.99966h16.08467c0.55527,0 1.00536,0.44836 1.00536,0.99966zM54.24831,32.00025h-14.07417v1.99932h14.07417zM44.19525,43.00037v2.00029h-2.0105v1.99932h-2.01061v-1.99932h-2.0105v-2.00029h2.0105v-1.99932h2.01061v1.99932zM56.25893,45.00066h-6.03172v-2.00029h6.03172zM42.60075,54.12077l1.42147,1.41242l-1.42147,1.41434l-1.42147,-1.41434l-1.42159,1.41434l-1.42147,-1.41434l1.42147,-1.41242l-1.42147,-1.41434l1.42147,-1.41338l1.42159,1.41338l1.42147,-1.41338l1.42147,1.41338zM56.25893,54.9992h-6.03172v-1.99932h6.03172zM54.24831,56.50014h-2.01061v-1.00062h2.01061zM54.24831,52.50053h-2.01061v-0.99966h2.01061zM42.18475,1.99982v21.99929h-2.01061v-21.99929h-28.14823v8.00018c0,1.10261 -0.90008,1.99932 -2.0105,1.99932h-8.04245v46.00079h2.01073v-3.99865c0,-0.55419 0.4501,-1.00159 1.00525,-1.00159h2.01061v-2.99995h-2.01061c-0.55515,0 -1.00525,-0.44739 -1.00525,-0.9987v-5.00216c0,-0.55034 0.4501,-0.9987 1.00525,-0.9987h2.01061v-4.00153c0,-0.55034 0.4501,-0.9987 1.00525,-0.9987h8.06843c-2.55215,-1.89156 -4.0535,-4.87419 -4.04732,-8.0377c0.01087,-5.52556 4.52065,-9.9918 10.07263,-9.98218c5.55187,0.01251 10.04425,4.49607 10.03315,10.01971c-0.00298,3.151 -1.50341,6.11727 -4.04709,8.00018h0.02598c0.55527,0 1.00536,0.44836 1.00536,0.9987v5.00023c0,0.55323 -0.4501,1.00159 -1.00536,1.00159h-2.0105v2.99898h2.0105c0.55527,0 1.00536,0.44739 1.00536,1.00159v5.00023c0,0.55034 -0.4501,0.99774 -1.00536,0.99774h-2.0105v3.00091h6.03161v1.99932h-30.15873c-1.11042,0 -2.01061,-0.89575 -2.01061,-1.99932v-46.99949h0.00927c-0.00355,-0.26363 0.09933,-0.51859 0.2853,-0.70717l10.05295,-9.9995c0.18963,-0.18569 0.44552,-0.28768 0.71079,-0.28576v-0.00866h29.15348c1.11042,0 2.01061,0.89671 2.01061,2.00029zM9.01005,49.99993v2.99995h18.09528v-2.99995zM22.07897,38.00014c4.44145,0 8.04222,-3.583 8.04222,-8.00018c0,-4.41814 -3.60077,-8.00018 -8.04222,-8.00018c-4.4418,0 -8.04245,3.58204 -8.04245,8.00018c0.00504,4.41621 3.60271,7.99344 8.04245,8.00018zM9.01005,43.00037h18.09528v-3.00091h-18.09528zM24.08947,47.99964v-2.99898h-18.09517v2.99898zM5.9943,58.00011h18.09517v-3.00091h-18.09517zM10.01541,3.4132l-6.62098,6.5868h6.62098zM21.07372,28.00064c0,0.55131 0.44998,0.9987 1.00525,0.9987c1.27842,-0.00192 2.41894,0.79954 2.84351,1.99932c0.55218,1.55963 -0.27088,3.26742 -1.83826,3.81776v1.18343h-2.0105v-0.99966h-2.01061v-2.00029h3.01586c0.55492,0 1.00525,-0.44836 1.00525,-0.99966c0,-0.55323 -0.45033,-1.00062 -1.00525,-1.00062c-1.27865,0.00096 -2.41905,-0.79954 -2.84374,-1.9974c-0.55195,-1.56059 0.27077,-3.26838 1.83849,-3.81776v-1.18535h2.0105v1.00062h2.01061v2.00029h-3.01586c-0.55527,0 -1.00525,0.44739 -1.00525,1.00062zM58.26942,7.00005v13.00137h-2.0105v-13.00137h-2.01061v16.99906h-2.01061v-17.99872h-6.03184v17.99872h-2.01061v-19.0003c0,-0.55034 0.45033,-0.9987 1.00536,-0.9987h1.00525v-3.00091c0,-0.55227 0.45033,-0.99966 1.00525,-0.99966h4.02134c0.55504,0 1.00525,0.44739 1.00525,0.99966v3.00091h1.00536c0.55492,0 1.00525,0.44836 1.00525,0.9987h2.01061c1.11042,0 2.0105,0.89767 2.0105,2.00125zM50.2272,1.99982h-2.01061v2.00029h2.01061zM32.13169,10h-17.08992v-2.00029h17.08992zM38.16364,15.99989h-34.17995v-1.99932h34.17995zM16.04702,20.00142h-12.06333v-2.00125h12.06333zM38.16364,20.00142h-9.0477v-2.00125h9.0477z" fill="#028fea" fill-opacity="1"></path><path d="M60.28004,28.99934v28.00015c0,1.65584 -1.35029,2.99995 -3.01586,2.99995h-20.10578c-1.66569,0 -3.01586,-1.34411 -3.01586,-2.99995v-28.00015c0,-1.65488 1.35017,-2.99995 3.01586,-2.99995h20.10578c1.66557,0 3.01586,1.34507 3.01586,2.99995zM46.20586,49.99993h-10.05283v6.99956c0,0.55419 0.4501,1.00062 1.00536,1.00062h9.04747zM46.20586,39.99947h-10.05283v8.00018h10.05283zM58.26942,49.99993h-10.05283v8.00018h9.04758c0.55515,0 1.00525,-0.44643 1.00525,-1.00062zM58.26942,39.99947h-10.05283v8.00018h10.05283zM58.26942,28.99934c0,-0.55131 -0.4501,-0.9987 -1.00525,-0.9987h-20.10578c-0.55527,0 -1.00536,0.44739 -1.00536,0.9987v9.0008h22.11639zM56.25893,30.99963v4.00057c0,0.55227 -0.4501,0.99966 -1.00536,0.99966h-16.08467c-0.55515,0 -1.00525,-0.44739 -1.00525,-0.99966v-4.00057c0,-0.55131 0.4501,-0.99966 1.00525,-0.99966h16.08467c0.55527,0 1.00536,0.44836 1.00536,0.99966zM54.24831,32.00025h-14.07417v1.99932h14.07417zM44.19525,43.00037v2.00029h-2.0105v1.99932h-2.01061v-1.99932h-2.0105v-2.00029h2.0105v-1.99932h2.01061v1.99932zM56.25893,45.00066h-6.03172v-2.00029h6.03172zM42.60075,54.12077l1.42147,1.41242l-1.42147,1.41434l-1.42147,-1.41434l-1.42159,1.41434l-1.42147,-1.41434l1.42147,-1.41242l-1.42147,-1.41434l1.42147,-1.41338l1.42159,1.41338l1.42147,-1.41338l1.42147,1.41338zM56.25893,54.9992h-6.03172v-1.99932h6.03172zM54.24831,56.50014h-2.01061v-1.00062h2.01061zM54.24831,52.50053h-2.01061v-0.99966h2.01061zM42.18475,1.99982v21.99929h-2.01061v-21.99929h-28.14823v8.00018c0,1.10261 -0.90008,1.99932 -2.0105,1.99932h-8.04245v46.00079h2.01073v-3.99865c0,-0.55419 0.4501,-1.00159 1.00525,-1.00159h2.01061v-2.99995h-2.01061c-0.55515,0 -1.00525,-0.44739 -1.00525,-0.9987v-5.00216c0,-0.55034 0.4501,-0.9987 1.00525,-0.9987h2.01061v-4.00153c0,-0.55034 0.4501,-0.9987 1.00525,-0.9987h8.06843c-2.55215,-1.89156 -4.0535,-4.87419 -4.04732,-8.0377c0.01087,-5.52556 4.52065,-9.9918 10.07263,-9.98218c5.55187,0.01251 10.04425,4.49607 10.03315,10.01971c-0.00298,3.151 -1.50341,6.11727 -4.04709,8.00018h0.02598c0.55527,0 1.00536,0.44836 1.00536,0.9987v5.00023c0,0.55323 -0.4501,1.00159 -1.00536,1.00159h-2.0105v2.99898h2.0105c0.55527,0 1.00536,0.44739 1.00536,1.00159v5.00023c0,0.55034 -0.4501,0.99774 -1.00536,0.99774h-2.0105v3.00091h6.03161v1.99932h-30.15873c-1.11042,0 -2.01061,-0.89575 -2.01061,-1.99932v-46.99949h0.00927c-0.00355,-0.26363 0.09933,-0.51859 0.2853,-0.70717l10.05295,-9.9995c0.18963,-0.18569 0.44552,-0.28768 0.71079,-0.28576v-0.00866h29.15348c1.11042,0 2.01061,0.89671 2.01061,2.00029zM9.01005,49.99993v2.99995h18.09528v-2.99995zM22.07897,38.00014c4.44145,0 8.04222,-3.583 8.04222,-8.00018c0,-4.41814 -3.60077,-8.00018 -8.04222,-8.00018c-4.4418,0 -8.04245,3.58204 -8.04245,8.00018c0.00504,4.41621 3.60271,7.99344 8.04245,8.00018zM9.01005,43.00037h18.09528v-3.00091h-18.09528zM24.08947,47.99964v-2.99898h-18.09517v2.99898zM5.9943,58.00011h18.09517v-3.00091h-18.09517zM10.01541,3.4132l-6.62098,6.5868h6.62098zM21.07372,28.00064c0,0.55131 0.44998,0.9987 1.00525,0.9987c1.27842,-0.00192 2.41894,0.79954 2.84351,1.99932c0.55218,1.55963 -0.27088,3.26742 -1.83826,3.81776v1.18343h-2.0105v-0.99966h-2.01061v-2.00029h3.01586c0.55492,0 1.00525,-0.44836 1.00525,-0.99966c0,-0.55323 -0.45033,-1.00062 -1.00525,-1.00062c-1.27865,0.00096 -2.41905,-0.79954 -2.84374,-1.9974c-0.55195,-1.56059 0.27077,-3.26838 1.83849,-3.81776v-1.18535h2.0105v1.00062h2.01061v2.00029h-3.01586c-0.55527,0 -1.00525,0.44739 -1.00525,1.00062zM58.26942,7.00005v13.00137h-2.0105v-13.00137h-2.01061v16.99906h-2.01061v-17.99872h-6.03184v17.99872h-2.01061v-19.0003c0,-0.55034 0.45033,-0.9987 1.00536,-0.9987h1.00525v-3.00091c0,-0.55227 0.45033,-0.99966 1.00525,-0.99966h4.02134c0.55504,0 1.00525,0.44739 1.00525,0.99966v3.00091h1.00536c0.55492,0 1.00525,0.44836 1.00525,0.9987h2.01061c1.11042,0 2.0105,0.89767 2.0105,2.00125zM50.2272,1.99982h-2.01061v2.00029h2.01061zM32.13169,10h-17.08992v-2.00029h17.08992zM38.16364,15.99989h-34.17995v-1.99932h34.17995zM16.04702,20.00142h-12.06333v-2.00125h12.06333zM38.16364,20.00142h-9.0477v-2.00125h9.0477z" fill="url(#LinearGradient1190)"></path></g></g></svg>