<?xml version="1.0" encoding="UTF-8"?>
<svg id="SVGDoc" width="71" height="32" xmlns="http://www.w3.org/2000/svg" version="1.1" xmlns:xlink="http://www.w3.org/1999/xlink" xmlns:avocode="https://avocode.com/" viewBox="0 0 71 32"><defs><linearGradient id="LinearGradient1265" gradientUnits="userSpaceOnUse" x1="17.989235877990723" y1="-0.011906147003173828" x2="53.01194095611572" y2="32.00418424606323"><stop stop-opacity="0" stop-color="#ffffff" offset="0"></stop><stop stop-opacity="1" stop-color="#0d225d" offset="1"></stop></linearGradient></defs><desc>Generated with Avocode.</desc><g><g><title>Shape 50</title><path d="M71.01194,13.07603c0,2.4294 -1.20667,4.26035 -2.80689,4.26035h-2.83527c0.00046,0.08467 0.00206,0.17222 0.00206,0.25785c0,3.69076 -0.54691,7.17659 -1.5406,9.81381c-1.1158,2.96531 -2.72884,4.59613 -4.54159,4.59613h-8.91357c-0.58376,0 -1.05686,-0.4753 -1.05686,-1.06412c0,-0.58883 0.4731,-1.06509 1.05686,-1.06509c1.87019,0 3.74393,-0.02983 5.61367,0.00289c-0.9724,-1.45668 -1.54621,-3.12599 -1.95683,-4.81839c-0.5912,-2.43806 -0.82592,-4.95982 -0.82592,-7.46523c0,-2.40823 0.2187,-4.83282 0.75886,-7.18236c0.40638,-1.76649 0.97813,-3.55029 1.99997,-5.0647c0.00767,-0.01058 0.01534,-0.02405 0.02323,-0.03367h-30.89344c-0.83347,0 -1.81652,1.2325 -2.56474,3.22028c-1.07311,2.86332 -1.40305,6.01625 -1.40305,9.06046c0,3.0519 0.32181,6.18751 1.40305,9.05757c0.74799,1.98874 1.73103,3.22316 2.56474,3.22316h21.05164c0.58388,0 1.05709,0.47626 1.05709,1.06509c0,0.58883 -0.47321,1.06412 -1.05709,1.06412h-21.05164c-1.81297,0 -3.42579,-1.63082 -4.54193,-4.59613c-0.59864,-1.58945 -1.03409,-3.48871 -1.28643,-5.55442h-0.06466c-5.98469,0 -10.85346,-4.90498 -10.85346,-10.93181c0,-1.33352 -1.07449,-2.414 -2.39559,-2.414h-1.73527c-2.33173,0 -4.22905,-1.91273 -4.22905,-4.26131c0,-2.34762 1.89732,-4.25842 4.22882,-4.25842h1.73527c1.38954,0 2.74784,0.26363 4.03713,0.78607c0.54188,0.21841 0.80429,0.83995 0.5864,1.38644c-0.21778,0.54457 -0.8337,0.81012 -1.37547,0.58979c-1.03729,-0.41949 -2.1302,-0.63212 -3.24806,-0.63212h-1.73527c-1.16604,0 -2.11464,0.95444 -2.11464,2.12825c0,1.17573 0.9486,2.13017 2.11464,2.13017h1.73527c2.4868,0 4.51,2.03877 4.51,4.54514c0,4.80877 3.85197,8.73044 8.61179,8.80068c-0.00023,-0.00289 -0.00023,-0.00577 -0.00023,-0.0077c-0.03593,-0.70621 -0.06168,-1.41434 -0.06168,-2.12055c0,-0.70813 0.01556,-1.41723 0.06168,-2.12344c0.00023,-0.00289 0.00023,-0.00577 0.00046,-0.00866c-2.42855,-0.06927 -4.38297,-2.08014 -4.38297,-4.54033c0,-2.2158 -0.82397,-4.33443 -2.32018,-5.96622c-0.39619,-0.43296 -0.36942,-1.1055 0.05951,-1.50478c0.42892,-0.39929 1.09795,-0.37331 1.49391,0.05869c1.85795,2.02819 2.88116,4.6606 2.88116,7.41231c0,1.33064 1.07471,2.41304 2.39582,2.41304h0.06466c0.25234,-2.06667 0.68779,-3.96593 1.28643,-5.55731c1.11614,-2.96242 2.72896,-4.59613 4.54193,-4.59613h34.19403c2.02171,0.00096 3.78365,2.04166 4.89555,5.63428h4.01985c1.60023,0 2.80689,1.83191 2.80689,4.26035zM63.25742,17.59423c0,-0.08659 -0.00023,-0.17222 -0.00069,-0.25785h-2.13467c-2.33173,0 -4.22882,-1.91081 -4.22882,-4.26035c0,-2.34858 1.89686,-4.26035 4.22882,-4.26035h0.83633c-0.84972,-2.41016 -1.90842,-3.50315 -2.66876,-3.50315c-0.05093,0 -0.1022,0.00385 -0.15404,0.01347c-0.91026,0.15971 -1.52401,1.31813 -1.89468,2.05513c-1.54919,3.08269 -1.91952,6.80809 -1.91952,10.2131c0,3.43868 0.49828,6.65511 1.40327,9.05757c0.46772,1.24308 1.02688,2.19175 1.58421,2.72766c0.0555,0.05484 0.11124,0.10295 0.16697,0.14913c0.27798,0.22514 0.55298,0.34637 0.81379,0.34637c1.61785,0 3.96778,-4.78471 3.96778,-12.28073zM65.39735,13.07603c0,-0.71006 0.10082,-1.43166 0.34321,-2.10227c0.00309,-0.00866 0.00584,-0.01732 0.00916,-0.02694c-0.00275,0 -4.62811,0 -4.62811,0c-1.1657,0 -2.11441,0.9554 -2.11441,2.12921c0,1.17381 0.94872,2.13114 2.11441,2.13114h4.62833c-0.00332,-0.00962 -0.00607,-0.01828 -0.00938,-0.0279c-0.24033,-0.67061 -0.34321,-1.39125 -0.34321,-2.10323zM68.89776,13.07699c0,-1.28734 -0.48512,-2.03011 -0.69157,-2.1244c-0.00561,0.00289 -0.01122,0.00481 -0.01728,0.00962c-0.00618,0.00289 -0.0127,0.00577 -0.01968,0.01058c-0.00767,0.00577 -0.01625,0.01347 -0.0246,0.0202c-0.24227,0.20012 -0.36438,0.54842 -0.45753,0.83898c-0.12703,0.3964 -0.17487,0.82936 -0.17487,1.24501c0,0.41853 0.04646,0.84476 0.17487,1.24501c0.05024,0.15587 0.10803,0.31077 0.18368,0.45798c0.0753,0.14625 0.16056,0.30307 0.29823,0.40025c0.00675,0.00577 0.01328,0.00866 0.01968,0.01251c0.00607,0.00289 0.01167,0.00673 0.01728,0.00962c0.20645,-0.09814 0.69157,-0.83898 0.6918,-2.12536z" fill="#028fea" fill-opacity="1"></path><path d="M71.01194,13.07603c0,2.4294 -1.20667,4.26035 -2.80689,4.26035h-2.83527c0.00046,0.08467 0.00206,0.17222 0.00206,0.25785c0,3.69076 -0.54691,7.17659 -1.5406,9.81381c-1.1158,2.96531 -2.72884,4.59613 -4.54159,4.59613h-8.91357c-0.58376,0 -1.05686,-0.4753 -1.05686,-1.06412c0,-0.58883 0.4731,-1.06509 1.05686,-1.06509c1.87019,0 3.74393,-0.02983 5.61367,0.00289c-0.9724,-1.45668 -1.54621,-3.12599 -1.95683,-4.81839c-0.5912,-2.43806 -0.82592,-4.95982 -0.82592,-7.46523c0,-2.40823 0.2187,-4.83282 0.75886,-7.18236c0.40638,-1.76649 0.97813,-3.55029 1.99997,-5.0647c0.00767,-0.01058 0.01534,-0.02405 0.02323,-0.03367h-30.89344c-0.83347,0 -1.81652,1.2325 -2.56474,3.22028c-1.07311,2.86332 -1.40305,6.01625 -1.40305,9.06046c0,3.0519 0.32181,6.18751 1.40305,9.05757c0.74799,1.98874 1.73103,3.22316 2.56474,3.22316h21.05164c0.58388,0 1.05709,0.47626 1.05709,1.06509c0,0.58883 -0.47321,1.06412 -1.05709,1.06412h-21.05164c-1.81297,0 -3.42579,-1.63082 -4.54193,-4.59613c-0.59864,-1.58945 -1.03409,-3.48871 -1.28643,-5.55442h-0.06466c-5.98469,0 -10.85346,-4.90498 -10.85346,-10.93181c0,-1.33352 -1.07449,-2.414 -2.39559,-2.414h-1.73527c-2.33173,0 -4.22905,-1.91273 -4.22905,-4.26131c0,-2.34762 1.89732,-4.25842 4.22882,-4.25842h1.73527c1.38954,0 2.74784,0.26363 4.03713,0.78607c0.54188,0.21841 0.80429,0.83995 0.5864,1.38644c-0.21778,0.54457 -0.8337,0.81012 -1.37547,0.58979c-1.03729,-0.41949 -2.1302,-0.63212 -3.24806,-0.63212h-1.73527c-1.16604,0 -2.11464,0.95444 -2.11464,2.12825c0,1.17573 0.9486,2.13017 2.11464,2.13017h1.73527c2.4868,0 4.51,2.03877 4.51,4.54514c0,4.80877 3.85197,8.73044 8.61179,8.80068c-0.00023,-0.00289 -0.00023,-0.00577 -0.00023,-0.0077c-0.03593,-0.70621 -0.06168,-1.41434 -0.06168,-2.12055c0,-0.70813 0.01556,-1.41723 0.06168,-2.12344c0.00023,-0.00289 0.00023,-0.00577 0.00046,-0.00866c-2.42855,-0.06927 -4.38297,-2.08014 -4.38297,-4.54033c0,-2.2158 -0.82397,-4.33443 -2.32018,-5.96622c-0.39619,-0.43296 -0.36942,-1.1055 0.05951,-1.50478c0.42892,-0.39929 1.09795,-0.37331 1.49391,0.05869c1.85795,2.02819 2.88116,4.6606 2.88116,7.41231c0,1.33064 1.07471,2.41304 2.39582,2.41304h0.06466c0.25234,-2.06667 0.68779,-3.96593 1.28643,-5.55731c1.11614,-2.96242 2.72896,-4.59613 4.54193,-4.59613h34.19403c2.02171,0.00096 3.78365,2.04166 4.89555,5.63428h4.01985c1.60023,0 2.80689,1.83191 2.80689,4.26035zM63.25742,17.59423c0,-0.08659 -0.00023,-0.17222 -0.00069,-0.25785h-2.13467c-2.33173,0 -4.22882,-1.91081 -4.22882,-4.26035c0,-2.34858 1.89686,-4.26035 4.22882,-4.26035h0.83633c-0.84972,-2.41016 -1.90842,-3.50315 -2.66876,-3.50315c-0.05093,0 -0.1022,0.00385 -0.15404,0.01347c-0.91026,0.15971 -1.52401,1.31813 -1.89468,2.05513c-1.54919,3.08269 -1.91952,6.80809 -1.91952,10.2131c0,3.43868 0.49828,6.65511 1.40327,9.05757c0.46772,1.24308 1.02688,2.19175 1.58421,2.72766c0.0555,0.05484 0.11124,0.10295 0.16697,0.14913c0.27798,0.22514 0.55298,0.34637 0.81379,0.34637c1.61785,0 3.96778,-4.78471 3.96778,-12.28073zM65.39735,13.07603c0,-0.71006 0.10082,-1.43166 0.34321,-2.10227c0.00309,-0.00866 0.00584,-0.01732 0.00916,-0.02694c-0.00275,0 -4.62811,0 -4.62811,0c-1.1657,0 -2.11441,0.9554 -2.11441,2.12921c0,1.17381 0.94872,2.13114 2.11441,2.13114h4.62833c-0.00332,-0.00962 -0.00607,-0.01828 -0.00938,-0.0279c-0.24033,-0.67061 -0.34321,-1.39125 -0.34321,-2.10323zM68.89776,13.07699c0,-1.28734 -0.48512,-2.03011 -0.69157,-2.1244c-0.00561,0.00289 -0.01122,0.00481 -0.01728,0.00962c-0.00618,0.00289 -0.0127,0.00577 -0.01968,0.01058c-0.00767,0.00577 -0.01625,0.01347 -0.0246,0.0202c-0.24227,0.20012 -0.36438,0.54842 -0.45753,0.83898c-0.12703,0.3964 -0.17487,0.82936 -0.17487,1.24501c0,0.41853 0.04646,0.84476 0.17487,1.24501c0.05024,0.15587 0.10803,0.31077 0.18368,0.45798c0.0753,0.14625 0.16056,0.30307 0.29823,0.40025c0.00675,0.00577 0.01328,0.00866 0.01968,0.01251c0.00607,0.00289 0.01167,0.00673 0.01728,0.00962c0.20645,-0.09814 0.69157,-0.83898 0.6918,-2.12536z" fill="url(#LinearGradient1265)"></path></g></g></svg>