<?xml version="1.0" encoding="UTF-8"?>
<svg id="SVGDoc" width="62" height="55" xmlns="http://www.w3.org/2000/svg" version="1.1" xmlns:xlink="http://www.w3.org/1999/xlink" xmlns:avocode="https://avocode.com/" viewBox="0 0 62 55"><defs><linearGradient id="LinearGradient1040" gradientUnits="userSpaceOnUse" x1="-0.01791459321975708" y1="0.007093548774719238" x2="61.993811786174774" y2="55.00964939594269"><stop stop-opacity="0" stop-color="#ffffff" offset="0"></stop><stop stop-opacity="1" stop-color="#0d225d" offset="1"></stop></linearGradient></defs><desc>Generated with Avocode.</desc><g><g><title>Shape 44</title><path d="M19.9529,14.97988c1.41186,1.42493 1.4122,3.73406 0.00092,5.15995c-1.41277,1.42396 -3.70308,1.42396 -5.11539,-0.00096c-1.4122,-1.42493 -1.4122,-3.7331 0,-5.15706c1.41232,-1.42589 3.70262,-1.42589 5.11539,0zM18.49138,16.45387c-0.44323,-0.44643 -1.11042,-0.58017 -1.68949,-0.33867c-0.57953,0.24053 -0.95707,0.81204 -0.95707,1.44321c0,0.63212 0.37754,1.20171 0.95707,1.44513c0.57907,0.2415 1.24626,0.10776 1.68949,-0.33963c0.60516,-0.61096 0.60516,-1.601 0,-2.21003zM45.57932,50.66366c-2.22233,0 -4.13498,-1.58368 -4.56802,-3.78024c-0.43327,-2.19752 0.73448,-4.39697 2.78767,-5.25231c2.05376,-0.85727 4.42142,-0.13278 5.65487,1.73281c1.23276,1.8627 0.98774,4.34405 -0.58582,5.9287c-0.86861,0.88036 -2.05101,1.37393 -3.28354,1.37105zM42.99936,45.97708c0,0.68985 0.27203,1.3518 0.75703,1.84153c1.02333,0.98234 2.63111,0.98234 3.65433,0c1.00914,-1.01698 1.00914,-2.66608 0,-3.68499c-1.00914,-1.01698 -2.64519,-1.01698 -3.65433,0c-0.485,0.48973 -0.75703,1.15168 -0.75703,1.84346zM61.38853,11.66435c0.80704,0.81397 0.80704,2.13402 0,2.94703l-2.19212,2.21099l-13.15819,13.26692c-0.58147,0.58498 -1.37032,0.91499 -2.19257,0.91499c-0.82272,0 -1.61133,-0.33001 -2.19269,-0.91499l-0.37628,-0.38101c-0.64636,-0.66099 -0.96565,-1.57791 -0.87101,-2.50156c0,-0.00866 -0.00515,-0.01828 -0.00515,-0.0279c0,-0.05292 0.00286,-0.1068 0.00881,-0.15971c0.00538,-0.04041 0.00618,-0.07601 0.01144,-0.11353l-2.00512,2.02145c-0.5246,0.53014 -1.11408,1.15264 -1.74522,1.84538c4.78935,3.761 8.59177,6.09226 10.74875,6.55601c0.58331,0.12508 1.15116,0.31462 1.69189,0.56862l0.44128,-0.44355c0.80715,-0.81397 2.11544,-0.81397 2.92305,0l1.45992,1.47207c0.38807,0.39063 0.60608,0.92077 0.60608,1.474c0,0.55419 -0.21801,1.08241 -0.60608,1.474l-0.38921,0.39159c1.30062,2.7902 1.05503,6.06532 -0.64739,8.62846c-0.32158,0.48203 -0.68974,0.93424 -1.0984,1.34507c-0.41119,0.41661 -0.86117,0.78895 -1.34377,1.11897c-2.53738,1.72319 -5.79014,1.97238 -8.55537,0.65041l-0.38658,0.38967c-0.38795,0.39159 -0.91358,0.61192 -1.46175,0.61192c-0.54886,0 -1.07449,-0.22033 -1.46244,-0.61192l-1.46107,-1.474c-0.38795,-0.38967 -0.60608,-0.92077 -0.60608,-1.47303c0,-0.55227 0.21812,-1.08337 0.60608,-1.474l0.44094,-0.44547c-0.24845,-0.54746 -0.43865,-1.12089 -0.56637,-1.70876c-0.4414,-2.06667 -2.57744,-5.6718 -6.02245,-10.19289c-2.93083,3.85048 -5.50747,7.83565 -6.00803,10.20059c-0.12817,0.58594 -0.31837,1.15553 -0.56614,1.70298l0.44048,0.44451c0.80647,0.81301 0.80647,2.1321 0,2.94607l-1.45649,1.474c-0.38784,0.39159 -0.91347,0.61192 -1.46187,0.61192c-0.5484,0 -1.07437,-0.22033 -1.46187,-0.61192l-0.38658,-0.39159c-2.7673,1.32486 -6.02234,1.07471 -8.56018,-0.65329c-0.96176,-0.6581 -1.79169,-1.49516 -2.44411,-2.46596c-1.69945,-2.56121 -1.94355,-5.83344 -0.64384,-8.62172l-0.3899,-0.39159c-0.3875,-0.39159 -0.60562,-0.9198 -0.60562,-1.474c0,-0.55323 0.21812,-1.08337 0.60562,-1.474l1.45443,-1.47015c0.38738,-0.38967 0.91358,-0.61 1.46187,-0.61c0.5484,0 1.07449,0.22033 1.46198,0.61l0.44048,0.44547c0.54314,-0.25112 1.11134,-0.44451 1.69464,-0.57536c2.48062,-0.52918 6.74,-3.38769 10.74921,-6.54254c-0.62027,-0.68504 -1.22383,-1.32583 -1.7466,-1.85404l-2.00752,-2.0176c0.00435,0.02983 0.0095,0.05773 0.0095,0.08948c0.00664,0.04907 0.0103,0.10102 0.01133,0.15106c0,0.01058 -0.00618,0.01828 -0.00618,0.02886c0.10128,0.93135 -0.21847,1.85789 -0.87044,2.52273l-0.37617,0.38004c-0.58147,0.5869 -1.3702,0.91499 -2.19246,0.91499c-0.82226,0 -1.61144,-0.32809 -2.19292,-0.91499l-13.15464,-13.26404l-2.19234,-2.21099c-0.80669,-0.81204 -0.80669,-2.1321 0,-2.94607l10.96161,-11.04342c0.81802,-0.78799 2.10583,-0.78799 2.92385,0l2.19246,2.20426l2.91676,2.94895l10.23159,10.31412c1.21078,1.22095 1.21078,3.20103 0,4.42102l-0.37777,0.38004c-0.69603,0.69851 -1.67931,1.02179 -2.64999,0.8717c-0.00481,-0.00096 -0.00996,-0.00096 -0.01465,0c-0.03227,-0.00385 -0.06821,-0.01058 -0.10323,-0.01058l2.00077,2.02626c0.60379,0.60615 1.39961,1.36046 2.31926,2.19368c0.87868,-0.79954 1.67095,-1.55097 2.31297,-2.19752l2.00523,-2.02241h-0.01671l-0.09178,0.00962c-0.00458,-0.00096 -0.00996,-0.00096 -0.01465,0c-0.97069,0.14913 -1.95374,-0.17607 -2.64977,-0.87266l-0.3772,-0.37812c-0.58193,-0.5869 -0.90832,-1.38163 -0.90832,-2.21099c0,-0.83033 0.32639,-1.62313 0.90832,-2.21003l10.2317,-10.31605l2.92305,-2.94703l2.19223,-2.20426c0.38761,-0.39255 0.9137,-0.61192 1.4621,-0.61192c0.54817,0 1.0738,0.21937 1.46175,0.61192zM51.51914,10.55597l-5.47771,-5.52267l-1.46141,1.47303l10.96161,11.05882l1.46244,-1.47303zM4.97144,16.08634l1.46244,1.47207l10.95886,-11.03957l-1.46152,-1.47303l-5.47771,5.52364zM2.04851,13.13738l1.46862,1.47784l10.95543,-11.04535l-1.46233,-1.474zM19.52455,27.30968c-0.00618,-0.02983 -0.00618,-0.05869 -0.00618,-0.08755v-0.00866c-0.02357,-0.18762 -0.0444,-0.36369 -0.0515,-0.53784v-0.25112c-0.00618,-0.15683 -0.00092,-0.31558 0.01556,-0.47337v-0.01058c0.0095,-0.14625 0.02369,-0.29057 0.0412,-0.43489c0.0095,-0.09044 0.02506,-0.19628 0.04681,-0.31366c0.04028,-0.22995 0.0927,-0.45509 0.15713,-0.68023c0.01751,-0.06254 0.02884,-0.13085 0.04726,-0.19243l0.01465,-0.03849c0.00904,-0.00962 0.00286,-0.01636 0.00904,-0.03271c0.00618,-0.01636 0.0095,-0.03175 0.01648,-0.04714c0.11124,-0.32328 0.24708,-0.63694 0.40649,-0.93905c0.0341,-0.0635 0.05585,-0.12219 0.09602,-0.18569l0.12211,-0.21937c0.02174,-0.0356 0.04635,-0.06927 0.06809,-0.10295c0.11169,-0.17318 0.20588,-0.30885 0.29434,-0.42623l0.02403,-0.02886c0.04978,-0.06735 0.10048,-0.13181 0.15289,-0.19724c0.13916,-0.17607 0.28816,-0.34541 0.44655,-0.50416c0.15747,-0.15971 0.32455,-0.31077 0.50022,-0.44932c0.06512,-0.05292 0.13,-0.10584 0.19718,-0.15683l0.02712,-0.02405c0.13767,-0.10295 0.29846,-0.20782 0.44746,-0.31173l0.0349,-0.0202c0.02792,-0.01828 0.05688,-0.03175 0.0848,-0.05003l0.23712,-0.13759c0.10574,-0.06446 0.21664,-0.12315 0.33051,-0.17318l0.10311,-0.04907l0.019,-0.00866c0.04223,-0.01924 0.09281,-0.03656 0.13733,-0.05292c0.15701,-0.06735 0.31208,-0.13662 0.47356,-0.19339c0.01213,-0.00481 0.0246,-0.00577 0.03777,-0.01155l0.02174,-0.00866c0.04978,-0.01443 0.08995,-0.02117 0.1387,-0.03464c0.47253,-0.14625 0.96027,-0.23669 1.45294,-0.27132c0.05768,0 0.18723,0 0.24742,0c0.14053,-0.01155 0.28004,-0.01155 0.42057,-0.01155h0.04017c0.25944,0.01058 0.44952,0.03271 0.63789,0.05677c0.02163,0.00577 0.042,0.00577 0.06386,0.00577c0.32787,0.05292 0.66181,-0.05099 0.90122,-0.28479l0.37846,-0.37812c0.40306,-0.40795 0.40306,-1.06605 0,-1.474l-9.50157,-9.57809l-10.96172,11.05208l9.5002,9.57809c0.19398,0.19531 0.45708,0.30596 0.73151,0.30596c0.27443,0 0.53741,-0.11065 0.73093,-0.30596l0.37663,-0.38101c0.23746,-0.24246 0.34538,-0.58306 0.28999,-0.9198zM25.02035,27.44919c0.57152,0.57728 1.23047,1.27868 1.90475,2.0253c0.87009,-0.71102 1.71032,-1.42396 2.50511,-2.11478c-0.87856,-0.79665 -1.63181,-1.51729 -2.2221,-2.11189l-3.04607,-3.07884c-0.01316,0.00673 -0.02266,0.01732 -0.0349,0.01732c-0.25875,0.12893 -0.50503,0.27998 -0.73483,0.45605c-0.02689,0.02309 -0.0515,0.04618 -0.08045,0.06543c-0.03548,0.03271 -0.07416,0.0635 -0.11593,0.09044c-0.11055,0.09237 -0.21515,0.18088 -0.31746,0.28672c-0.1022,0.10295 -0.19535,0.21263 -0.28713,0.32328l-0.0103,0.01347c-0.02197,0.0279 -0.05791,0.06927 -0.07015,0.08852c-0.01282,0.01828 -0.03033,0.0356 -0.04692,0.05773c-0.19238,0.25304 -0.35866,0.52437 -0.49564,0.81204l3.05386,3.06922zM35.28925,32.33396c-0.96588,1.11319 -1.97983,2.32837 -2.98771,3.59647c2.8141,3.65709 6.07407,8.39273 6.72501,11.46291c0.13058,0.64848 0.36152,1.27291 0.6831,1.84827c0.01282,0.02309 0.01282,0.04714 0.02277,0.07024c0.02598,0.05869 0.04543,0.11931 0.05905,0.18184c0.04372,0.12027 0.05356,0.25112 0.02895,0.37812c-0.00652,0.07601 -0.02129,0.15202 -0.0436,0.22418c-0.02026,0.05099 -0.0444,0.10006 -0.07233,0.14721c-0.0349,0.07216 -0.07851,0.13855 -0.13,0.19724c-0.01431,0.01539 -0.01945,0.03656 -0.0341,0.05099l-0.94997,0.95925l1.46141,1.47303l0.91404,-0.92077c0.01831,-0.01828 0.04395,-0.02598 0.06386,-0.0433c0.10597,-0.08082 0.22282,-0.14913 0.34721,-0.1982c0.06306,-0.0202 0.12772,-0.03271 0.19352,-0.03752c0.06386,-0.01058 0.1292,-0.01539 0.19409,-0.01251c0.06329,0.00673 0.12623,0.01828 0.18723,0.03752c0.06866,0.01539 0.13584,0.03849 0.19936,0.06927c0.02346,0.01251 0.04955,0.01251 0.07233,0.02598c2.21134,1.28349 4.95163,1.19979 7.08069,-0.21744c0.25028,-0.17318 0.48786,-0.36369 0.71251,-0.56862c0.01133,-0.00866 0.01511,-0.02117 0.02644,-0.02983c0.09464,-0.07793 0.18539,-0.15875 0.27203,-0.24342l0.02094,-0.01924l0.01499,-0.01828c0.08629,-0.08659 0.16708,-0.17896 0.24193,-0.27421c0.00927,-0.01347 0.02312,-0.01732 0.03204,-0.0279c0.20256,-0.22418 0.38944,-0.46183 0.55927,-0.71391c1.40934,-2.14653 1.49448,-4.91172 0.21996,-7.14291c-0.01328,-0.02309 -0.01328,-0.04907 -0.0246,-0.07312c-0.03078,-0.06446 -0.05436,-0.13181 -0.0705,-0.20205c-0.01751,-0.06061 -0.0293,-0.12412 -0.03593,-0.18665c-0.00286,-0.06831 0.00149,-0.13374 0.01236,-0.20012c0.00744,-0.12989 0.04864,-0.25497 0.11868,-0.36465c0.03262,-0.06446 0.07153,-0.12219 0.11593,-0.17703c0.0174,-0.0202 0.02357,-0.04426 0.04257,-0.06543l0.9137,-0.9198l-1.46164,-1.474l-0.94276,0.94963c-0.09178,0.09429 -0.20107,0.16741 -0.32146,0.21841c-0.0206,0.00962 -0.04005,0.01828 -0.061,0.02405c-0.22694,0.09814 -0.48386,0.09814 -0.71102,0c-0.02026,-0.00577 -0.04005,-0.01443 -0.061,-0.02405c-0.03227,-0.00962 -0.0634,-0.02405 -0.09361,-0.03849c-0.56488,-0.32713 -1.17817,-0.55708 -1.81629,-0.68504c-3.12744,-0.67253 -7.95845,-4.06888 -11.71841,-7.03612zM40.00112,24.3742c-0.00618,-0.01155 -0.01225,-0.02309 -0.01762,-0.03367c-0.06512,-0.13662 -0.13756,-0.27229 -0.21698,-0.40217c-0.07004,-0.11546 -0.15198,-0.22995 -0.23335,-0.33579c-0.02254,-0.02694 -0.04784,-0.05484 -0.06283,-0.07793l0.0246,0.02309l-0.01659,-0.02309c-0.03078,-0.03367 -0.05917,-0.06831 -0.0856,-0.10487l-0.0087,-0.01058c-0.09178,-0.11065 -0.18391,-0.22129 -0.28702,-0.32424c-0.10357,-0.10391 -0.21194,-0.19628 -0.32124,-0.2896l-0.01476,-0.01058c-0.03822,-0.0279 -0.07153,-0.05773 -0.10345,-0.08659c-0.26276,-0.20878 -0.54703,-0.38389 -0.84835,-0.53014l-3.06255,3.07692c-0.67554,0.68793 -1.73012,1.68086 -2.99721,2.81233c-1.24008,1.11031 -2.69531,2.35147 -4.24576,3.61187c-0.00515,0.00289 -0.00195,0.0077 -0.01328,0.01828c-0.01133,0.0077 -0.02495,0.01155 -0.03639,0.02117c-4.28936,3.46562 -9.29581,6.96973 -12.47704,7.65285c-0.64304,0.13374 -1.26183,0.36561 -1.83437,0.69178c-0.02689,0.01636 -0.05585,0.0202 -0.08274,0.03271c-0.02701,0.01443 -0.05447,0.02598 -0.08286,0.0356c-0.10929,0.04041 -0.22522,0.06254 -0.34206,0.06543c-0.11684,-0.00192 -0.23277,-0.02502 -0.34206,-0.06543c-0.02884,-0.01058 -0.05722,-0.02309 -0.08469,-0.03656c-0.11215,-0.04811 -0.21481,-0.11546 -0.30281,-0.20205l-0.9486,-0.95733l-1.46233,1.474l0.91358,0.9198c0.01842,0.01924 0.0246,0.04426 0.04211,0.06446c0.04543,0.0558 0.08423,0.11449 0.11684,0.17992c0.03307,0.05292 0.06054,0.11161 0.08183,0.17126c0.05299,0.18858 0.05722,0.3887 0.01236,0.58113c-0.01614,0.06831 -0.03937,0.1347 -0.06821,0.1982c-0.0127,0.02405 -0.0127,0.05003 -0.02598,0.07408c-1.27464,2.22831 -1.19133,4.99061 0.21618,7.13714c0.1704,0.25304 0.35866,0.49358 0.56305,0.71968c0.0095,0.01058 0.02266,0.01443 0.03216,0.0279c0.16033,0.20494 0.34447,0.39159 0.54886,0.55323c0.01225,0.01058 0.01751,0.02502 0.02884,0.03367c0.22282,0.20301 0.45891,0.39063 0.70679,0.56189c2.12952,1.42204 4.87267,1.50671 7.08492,0.22225c0.02277,-0.01347 0.04875,-0.01347 0.07244,-0.02598c0.0658,-0.03079 0.13527,-0.05388 0.20679,-0.06927c0.06008,-0.01924 0.12154,-0.03079 0.18402,-0.03752c0.06626,-0.00289 0.13298,0.00192 0.19821,0.01347c0.06432,0.00481 0.12726,0.01732 0.18929,0.0356c0.12497,0.05003 0.24216,0.11738 0.34824,0.19916c0.0198,0.01732 0.0444,0.02502 0.0642,0.0433l0.91267,0.92077l1.46244,-1.46822l-0.95089,-0.95733c-0.01648,-0.01828 -0.02186,-0.04041 -0.03742,-0.05773c-0.08034,-0.1068 -0.14751,-0.22418 -0.20004,-0.34733c-0.019,-0.06446 -0.03181,-0.12893 -0.03845,-0.19435c-0.02689,-0.12796 -0.01945,-0.26074 0.02048,-0.38293c0.01465,-0.0712 0.03674,-0.1424 0.06615,-0.20878c0.01053,-0.0202 0.0095,-0.04233 0.02083,-0.0635c0.32169,-0.57536 0.55252,-1.1969 0.68424,-1.84442c0.94048,-4.45085 7.25842,-12.42986 11.39259,-17.11836c0.00515,-0.0077 0.00229,-0.00866 0.01133,-0.02117c0.0095,-0.01251 0.02277,-0.01732 0.03227,-0.02886c1.03226,-1.16707 1.93268,-2.13595 2.57034,-2.77866zM54.08022,19.0324l-10.94421,-11.04823l-9.50123,9.57905c-0.40352,0.40602 -0.40352,1.06509 0,1.47303l0.37617,0.38004c0.23987,0.23091 0.57392,0.33675 0.90237,0.28287c0.02678,-0.00481 0.05241,-0.00481 0.07851,-0.00481h0.01545c0.17658,-0.02405 0.35454,-0.04426 0.53226,-0.05196c0.02094,0 0.29331,0 0.3194,0c0.02563,0 0.05173,0 0.07771,0c0.10208,0.00096 0.21149,0.00481 0.32455,0.01443c0.17029,0.01155 0.34401,0.0279 0.51659,0.05292c0.0444,0.00577 0.0951,0.01251 0.14751,0.02117c0.30945,0.05003 0.61523,0.12219 0.91518,0.21359l0.03159,0.00962c0.03662,0.01251 0.06638,0.0279 0.1038,0.04137c0.19901,0.06735 0.39391,0.14432 0.58468,0.22995c0.0174,0.00866 0.03834,0.01443 0.05585,0.02309c0.03387,0.01539 0.07565,0.04041 0.11158,0.05773c0.12817,0.06254 0.25555,0.12796 0.37937,0.1982l0.20691,0.11642c0.04818,0.03079 0.08228,0.05484 0.12486,0.08274c0.06718,0.0433 0.12486,0.08852 0.1997,0.13566c0.07416,0.04714 0.14317,0.10199 0.20668,0.15009c0.01751,0.01443 0.0349,0.02886 0.05253,0.04522l0.01133,0.00866c0.23197,0.17703 0.45227,0.37235 0.66044,0.57632c0.15816,0.15875 0.30716,0.32905 0.44666,0.50512c0.0515,0.06543 0.10414,0.13181 0.15461,0.20012l0.02197,0.02598c0.10975,0.13759 0.21286,0.30019 0.31643,0.45028l0.01648,0.02983c0.0214,0.03367 0.0404,0.06927 0.06065,0.10487l0.12726,0.22129c0.06386,0.10391 0.12119,0.21648 0.17075,0.32905c0.01842,0.03945 0.03502,0.0789 0.05356,0.11931v0.00962c0.00927,0.02213 0.0174,0.04907 0.02792,0.07216c0.08457,0.19339 0.1656,0.38774 0.23174,0.58979l0.00618,0.01539c0.01133,0.03945 0.01511,0.06831 0.02563,0.10487c0.15312,0.50031 0.24742,1.01602 0.28004,1.53846c0,0.0279 0,0.09044 0,0.11931c0.01225,0.16837 0.0174,0.34348 0.01225,0.52052v0.03945c-0.00893,0.25785 -0.03159,0.44932 -0.05585,0.6379c-0.00469,0.02405 -0.00469,0.04618 -0.00469,0.06831c-0.05482,0.33001 0.04921,0.66676 0.28004,0.90826l0.37617,0.38197c0.19352,0.19628 0.45708,0.305 0.73093,0.305c0.27454,0 0.53741,-0.10872 0.73151,-0.305zM59.92689,13.13738l-10.95451,-11.04535l-1.46244,1.47592l10.95554,11.04342zM42.0202,14.9818c1.41415,-1.42396 3.70274,-1.42493 5.11723,-0.00289c1.41243,1.42493 1.41243,3.73406 -0.00046,5.15802c-1.41277,1.423 -3.70308,1.423 -5.11528,0c-1.41289,-1.42396 -1.41323,-3.7331 -0.00046,-5.15802zM46.12932,17.55841c0,-0.41372 -0.16365,-0.81204 -0.45479,-1.10453c-0.60493,-0.61 -1.58684,-0.61 -2.19189,0c-0.60505,0.61 -0.60505,1.59907 0,2.21003c0.60505,0.61 1.58695,0.61096 2.19189,0c0.29114,-0.29153 0.45479,-0.68889 0.45479,-1.1055zM16.39734,41.27415c1.23585,0 2.42054,0.50031 3.28869,1.38644c1.81641,1.83095 1.81641,4.80107 0,6.63202c-1.81629,1.83095 -4.76097,1.83095 -6.57726,0c-1.81629,-1.83095 -1.81629,-4.80107 0,-6.63202c0.86815,-0.88613 2.05238,-1.38644 3.28857,-1.38644zM18.22416,44.13555c-1.00868,-1.01698 -2.64484,-1.01698 -3.65398,0c-1.00868,1.01698 -1.00914,2.66608 0,3.68306c1.02345,0.98234 2.631,0.98234 3.65444,0c1.00868,-1.01698 1.00868,-2.66608 -0.00046,-3.68306z" fill="#028fea" fill-opacity="1"></path><path d="M19.9529,14.97988c1.41186,1.42493 1.4122,3.73406 0.00092,5.15995c-1.41277,1.42396 -3.70308,1.42396 -5.11539,-0.00096c-1.4122,-1.42493 -1.4122,-3.7331 0,-5.15706c1.41232,-1.42589 3.70262,-1.42589 5.11539,0zM18.49138,16.45387c-0.44323,-0.44643 -1.11042,-0.58017 -1.68949,-0.33867c-0.57953,0.24053 -0.95707,0.81204 -0.95707,1.44321c0,0.63212 0.37754,1.20171 0.95707,1.44513c0.57907,0.2415 1.24626,0.10776 1.68949,-0.33963c0.60516,-0.61096 0.60516,-1.601 0,-2.21003zM45.57932,50.66366c-2.22233,0 -4.13498,-1.58368 -4.56802,-3.78024c-0.43327,-2.19752 0.73448,-4.39697 2.78767,-5.25231c2.05376,-0.85727 4.42142,-0.13278 5.65487,1.73281c1.23276,1.8627 0.98774,4.34405 -0.58582,5.9287c-0.86861,0.88036 -2.05101,1.37393 -3.28354,1.37105zM42.99936,45.97708c0,0.68985 0.27203,1.3518 0.75703,1.84153c1.02333,0.98234 2.63111,0.98234 3.65433,0c1.00914,-1.01698 1.00914,-2.66608 0,-3.68499c-1.00914,-1.01698 -2.64519,-1.01698 -3.65433,0c-0.485,0.48973 -0.75703,1.15168 -0.75703,1.84346zM61.38853,11.66435c0.80704,0.81397 0.80704,2.13402 0,2.94703l-2.19212,2.21099l-13.15819,13.26692c-0.58147,0.58498 -1.37032,0.91499 -2.19257,0.91499c-0.82272,0 -1.61133,-0.33001 -2.19269,-0.91499l-0.37628,-0.38101c-0.64636,-0.66099 -0.96565,-1.57791 -0.87101,-2.50156c0,-0.00866 -0.00515,-0.01828 -0.00515,-0.0279c0,-0.05292 0.00286,-0.1068 0.00881,-0.15971c0.00538,-0.04041 0.00618,-0.07601 0.01144,-0.11353l-2.00512,2.02145c-0.5246,0.53014 -1.11408,1.15264 -1.74522,1.84538c4.78935,3.761 8.59177,6.09226 10.74875,6.55601c0.58331,0.12508 1.15116,0.31462 1.69189,0.56862l0.44128,-0.44355c0.80715,-0.81397 2.11544,-0.81397 2.92305,0l1.45992,1.47207c0.38807,0.39063 0.60608,0.92077 0.60608,1.474c0,0.55419 -0.21801,1.08241 -0.60608,1.474l-0.38921,0.39159c1.30062,2.7902 1.05503,6.06532 -0.64739,8.62846c-0.32158,0.48203 -0.68974,0.93424 -1.0984,1.34507c-0.41119,0.41661 -0.86117,0.78895 -1.34377,1.11897c-2.53738,1.72319 -5.79014,1.97238 -8.55537,0.65041l-0.38658,0.38967c-0.38795,0.39159 -0.91358,0.61192 -1.46175,0.61192c-0.54886,0 -1.07449,-0.22033 -1.46244,-0.61192l-1.46107,-1.474c-0.38795,-0.38967 -0.60608,-0.92077 -0.60608,-1.47303c0,-0.55227 0.21812,-1.08337 0.60608,-1.474l0.44094,-0.44547c-0.24845,-0.54746 -0.43865,-1.12089 -0.56637,-1.70876c-0.4414,-2.06667 -2.57744,-5.6718 -6.02245,-10.19289c-2.93083,3.85048 -5.50747,7.83565 -6.00803,10.20059c-0.12817,0.58594 -0.31837,1.15553 -0.56614,1.70298l0.44048,0.44451c0.80647,0.81301 0.80647,2.1321 0,2.94607l-1.45649,1.474c-0.38784,0.39159 -0.91347,0.61192 -1.46187,0.61192c-0.5484,0 -1.07437,-0.22033 -1.46187,-0.61192l-0.38658,-0.39159c-2.7673,1.32486 -6.02234,1.07471 -8.56018,-0.65329c-0.96176,-0.6581 -1.79169,-1.49516 -2.44411,-2.46596c-1.69945,-2.56121 -1.94355,-5.83344 -0.64384,-8.62172l-0.3899,-0.39159c-0.3875,-0.39159 -0.60562,-0.9198 -0.60562,-1.474c0,-0.55323 0.21812,-1.08337 0.60562,-1.474l1.45443,-1.47015c0.38738,-0.38967 0.91358,-0.61 1.46187,-0.61c0.5484,0 1.07449,0.22033 1.46198,0.61l0.44048,0.44547c0.54314,-0.25112 1.11134,-0.44451 1.69464,-0.57536c2.48062,-0.52918 6.74,-3.38769 10.74921,-6.54254c-0.62027,-0.68504 -1.22383,-1.32583 -1.7466,-1.85404l-2.00752,-2.0176c0.00435,0.02983 0.0095,0.05773 0.0095,0.08948c0.00664,0.04907 0.0103,0.10102 0.01133,0.15106c0,0.01058 -0.00618,0.01828 -0.00618,0.02886c0.10128,0.93135 -0.21847,1.85789 -0.87044,2.52273l-0.37617,0.38004c-0.58147,0.5869 -1.3702,0.91499 -2.19246,0.91499c-0.82226,0 -1.61144,-0.32809 -2.19292,-0.91499l-13.15464,-13.26404l-2.19234,-2.21099c-0.80669,-0.81204 -0.80669,-2.1321 0,-2.94607l10.96161,-11.04342c0.81802,-0.78799 2.10583,-0.78799 2.92385,0l2.19246,2.20426l2.91676,2.94895l10.23159,10.31412c1.21078,1.22095 1.21078,3.20103 0,4.42102l-0.37777,0.38004c-0.69603,0.69851 -1.67931,1.02179 -2.64999,0.8717c-0.00481,-0.00096 -0.00996,-0.00096 -0.01465,0c-0.03227,-0.00385 -0.06821,-0.01058 -0.10323,-0.01058l2.00077,2.02626c0.60379,0.60615 1.39961,1.36046 2.31926,2.19368c0.87868,-0.79954 1.67095,-1.55097 2.31297,-2.19752l2.00523,-2.02241h-0.01671l-0.09178,0.00962c-0.00458,-0.00096 -0.00996,-0.00096 -0.01465,0c-0.97069,0.14913 -1.95374,-0.17607 -2.64977,-0.87266l-0.3772,-0.37812c-0.58193,-0.5869 -0.90832,-1.38163 -0.90832,-2.21099c0,-0.83033 0.32639,-1.62313 0.90832,-2.21003l10.2317,-10.31605l2.92305,-2.94703l2.19223,-2.20426c0.38761,-0.39255 0.9137,-0.61192 1.4621,-0.61192c0.54817,0 1.0738,0.21937 1.46175,0.61192zM51.51914,10.55597l-5.47771,-5.52267l-1.46141,1.47303l10.96161,11.05882l1.46244,-1.47303zM4.97144,16.08634l1.46244,1.47207l10.95886,-11.03957l-1.46152,-1.47303l-5.47771,5.52364zM2.04851,13.13738l1.46862,1.47784l10.95543,-11.04535l-1.46233,-1.474zM19.52455,27.30968c-0.00618,-0.02983 -0.00618,-0.05869 -0.00618,-0.08755v-0.00866c-0.02357,-0.18762 -0.0444,-0.36369 -0.0515,-0.53784v-0.25112c-0.00618,-0.15683 -0.00092,-0.31558 0.01556,-0.47337v-0.01058c0.0095,-0.14625 0.02369,-0.29057 0.0412,-0.43489c0.0095,-0.09044 0.02506,-0.19628 0.04681,-0.31366c0.04028,-0.22995 0.0927,-0.45509 0.15713,-0.68023c0.01751,-0.06254 0.02884,-0.13085 0.04726,-0.19243l0.01465,-0.03849c0.00904,-0.00962 0.00286,-0.01636 0.00904,-0.03271c0.00618,-0.01636 0.0095,-0.03175 0.01648,-0.04714c0.11124,-0.32328 0.24708,-0.63694 0.40649,-0.93905c0.0341,-0.0635 0.05585,-0.12219 0.09602,-0.18569l0.12211,-0.21937c0.02174,-0.0356 0.04635,-0.06927 0.06809,-0.10295c0.11169,-0.17318 0.20588,-0.30885 0.29434,-0.42623l0.02403,-0.02886c0.04978,-0.06735 0.10048,-0.13181 0.15289,-0.19724c0.13916,-0.17607 0.28816,-0.34541 0.44655,-0.50416c0.15747,-0.15971 0.32455,-0.31077 0.50022,-0.44932c0.06512,-0.05292 0.13,-0.10584 0.19718,-0.15683l0.02712,-0.02405c0.13767,-0.10295 0.29846,-0.20782 0.44746,-0.31173l0.0349,-0.0202c0.02792,-0.01828 0.05688,-0.03175 0.0848,-0.05003l0.23712,-0.13759c0.10574,-0.06446 0.21664,-0.12315 0.33051,-0.17318l0.10311,-0.04907l0.019,-0.00866c0.04223,-0.01924 0.09281,-0.03656 0.13733,-0.05292c0.15701,-0.06735 0.31208,-0.13662 0.47356,-0.19339c0.01213,-0.00481 0.0246,-0.00577 0.03777,-0.01155l0.02174,-0.00866c0.04978,-0.01443 0.08995,-0.02117 0.1387,-0.03464c0.47253,-0.14625 0.96027,-0.23669 1.45294,-0.27132c0.05768,0 0.18723,0 0.24742,0c0.14053,-0.01155 0.28004,-0.01155 0.42057,-0.01155h0.04017c0.25944,0.01058 0.44952,0.03271 0.63789,0.05677c0.02163,0.00577 0.042,0.00577 0.06386,0.00577c0.32787,0.05292 0.66181,-0.05099 0.90122,-0.28479l0.37846,-0.37812c0.40306,-0.40795 0.40306,-1.06605 0,-1.474l-9.50157,-9.57809l-10.96172,11.05208l9.5002,9.57809c0.19398,0.19531 0.45708,0.30596 0.73151,0.30596c0.27443,0 0.53741,-0.11065 0.73093,-0.30596l0.37663,-0.38101c0.23746,-0.24246 0.34538,-0.58306 0.28999,-0.9198zM25.02035,27.44919c0.57152,0.57728 1.23047,1.27868 1.90475,2.0253c0.87009,-0.71102 1.71032,-1.42396 2.50511,-2.11478c-0.87856,-0.79665 -1.63181,-1.51729 -2.2221,-2.11189l-3.04607,-3.07884c-0.01316,0.00673 -0.02266,0.01732 -0.0349,0.01732c-0.25875,0.12893 -0.50503,0.27998 -0.73483,0.45605c-0.02689,0.02309 -0.0515,0.04618 -0.08045,0.06543c-0.03548,0.03271 -0.07416,0.0635 -0.11593,0.09044c-0.11055,0.09237 -0.21515,0.18088 -0.31746,0.28672c-0.1022,0.10295 -0.19535,0.21263 -0.28713,0.32328l-0.0103,0.01347c-0.02197,0.0279 -0.05791,0.06927 -0.07015,0.08852c-0.01282,0.01828 -0.03033,0.0356 -0.04692,0.05773c-0.19238,0.25304 -0.35866,0.52437 -0.49564,0.81204l3.05386,3.06922zM35.28925,32.33396c-0.96588,1.11319 -1.97983,2.32837 -2.98771,3.59647c2.8141,3.65709 6.07407,8.39273 6.72501,11.46291c0.13058,0.64848 0.36152,1.27291 0.6831,1.84827c0.01282,0.02309 0.01282,0.04714 0.02277,0.07024c0.02598,0.05869 0.04543,0.11931 0.05905,0.18184c0.04372,0.12027 0.05356,0.25112 0.02895,0.37812c-0.00652,0.07601 -0.02129,0.15202 -0.0436,0.22418c-0.02026,0.05099 -0.0444,0.10006 -0.07233,0.14721c-0.0349,0.07216 -0.07851,0.13855 -0.13,0.19724c-0.01431,0.01539 -0.01945,0.03656 -0.0341,0.05099l-0.94997,0.95925l1.46141,1.47303l0.91404,-0.92077c0.01831,-0.01828 0.04395,-0.02598 0.06386,-0.0433c0.10597,-0.08082 0.22282,-0.14913 0.34721,-0.1982c0.06306,-0.0202 0.12772,-0.03271 0.19352,-0.03752c0.06386,-0.01058 0.1292,-0.01539 0.19409,-0.01251c0.06329,0.00673 0.12623,0.01828 0.18723,0.03752c0.06866,0.01539 0.13584,0.03849 0.19936,0.06927c0.02346,0.01251 0.04955,0.01251 0.07233,0.02598c2.21134,1.28349 4.95163,1.19979 7.08069,-0.21744c0.25028,-0.17318 0.48786,-0.36369 0.71251,-0.56862c0.01133,-0.00866 0.01511,-0.02117 0.02644,-0.02983c0.09464,-0.07793 0.18539,-0.15875 0.27203,-0.24342l0.02094,-0.01924l0.01499,-0.01828c0.08629,-0.08659 0.16708,-0.17896 0.24193,-0.27421c0.00927,-0.01347 0.02312,-0.01732 0.03204,-0.0279c0.20256,-0.22418 0.38944,-0.46183 0.55927,-0.71391c1.40934,-2.14653 1.49448,-4.91172 0.21996,-7.14291c-0.01328,-0.02309 -0.01328,-0.04907 -0.0246,-0.07312c-0.03078,-0.06446 -0.05436,-0.13181 -0.0705,-0.20205c-0.01751,-0.06061 -0.0293,-0.12412 -0.03593,-0.18665c-0.00286,-0.06831 0.00149,-0.13374 0.01236,-0.20012c0.00744,-0.12989 0.04864,-0.25497 0.11868,-0.36465c0.03262,-0.06446 0.07153,-0.12219 0.11593,-0.17703c0.0174,-0.0202 0.02357,-0.04426 0.04257,-0.06543l0.9137,-0.9198l-1.46164,-1.474l-0.94276,0.94963c-0.09178,0.09429 -0.20107,0.16741 -0.32146,0.21841c-0.0206,0.00962 -0.04005,0.01828 -0.061,0.02405c-0.22694,0.09814 -0.48386,0.09814 -0.71102,0c-0.02026,-0.00577 -0.04005,-0.01443 -0.061,-0.02405c-0.03227,-0.00962 -0.0634,-0.02405 -0.09361,-0.03849c-0.56488,-0.32713 -1.17817,-0.55708 -1.81629,-0.68504c-3.12744,-0.67253 -7.95845,-4.06888 -11.71841,-7.03612zM40.00112,24.3742c-0.00618,-0.01155 -0.01225,-0.02309 -0.01762,-0.03367c-0.06512,-0.13662 -0.13756,-0.27229 -0.21698,-0.40217c-0.07004,-0.11546 -0.15198,-0.22995 -0.23335,-0.33579c-0.02254,-0.02694 -0.04784,-0.05484 -0.06283,-0.07793l0.0246,0.02309l-0.01659,-0.02309c-0.03078,-0.03367 -0.05917,-0.06831 -0.0856,-0.10487l-0.0087,-0.01058c-0.09178,-0.11065 -0.18391,-0.22129 -0.28702,-0.32424c-0.10357,-0.10391 -0.21194,-0.19628 -0.32124,-0.2896l-0.01476,-0.01058c-0.03822,-0.0279 -0.07153,-0.05773 -0.10345,-0.08659c-0.26276,-0.20878 -0.54703,-0.38389 -0.84835,-0.53014l-3.06255,3.07692c-0.67554,0.68793 -1.73012,1.68086 -2.99721,2.81233c-1.24008,1.11031 -2.69531,2.35147 -4.24576,3.61187c-0.00515,0.00289 -0.00195,0.0077 -0.01328,0.01828c-0.01133,0.0077 -0.02495,0.01155 -0.03639,0.02117c-4.28936,3.46562 -9.29581,6.96973 -12.47704,7.65285c-0.64304,0.13374 -1.26183,0.36561 -1.83437,0.69178c-0.02689,0.01636 -0.05585,0.0202 -0.08274,0.03271c-0.02701,0.01443 -0.05447,0.02598 -0.08286,0.0356c-0.10929,0.04041 -0.22522,0.06254 -0.34206,0.06543c-0.11684,-0.00192 -0.23277,-0.02502 -0.34206,-0.06543c-0.02884,-0.01058 -0.05722,-0.02309 -0.08469,-0.03656c-0.11215,-0.04811 -0.21481,-0.11546 -0.30281,-0.20205l-0.9486,-0.95733l-1.46233,1.474l0.91358,0.9198c0.01842,0.01924 0.0246,0.04426 0.04211,0.06446c0.04543,0.0558 0.08423,0.11449 0.11684,0.17992c0.03307,0.05292 0.06054,0.11161 0.08183,0.17126c0.05299,0.18858 0.05722,0.3887 0.01236,0.58113c-0.01614,0.06831 -0.03937,0.1347 -0.06821,0.1982c-0.0127,0.02405 -0.0127,0.05003 -0.02598,0.07408c-1.27464,2.22831 -1.19133,4.99061 0.21618,7.13714c0.1704,0.25304 0.35866,0.49358 0.56305,0.71968c0.0095,0.01058 0.02266,0.01443 0.03216,0.0279c0.16033,0.20494 0.34447,0.39159 0.54886,0.55323c0.01225,0.01058 0.01751,0.02502 0.02884,0.03367c0.22282,0.20301 0.45891,0.39063 0.70679,0.56189c2.12952,1.42204 4.87267,1.50671 7.08492,0.22225c0.02277,-0.01347 0.04875,-0.01347 0.07244,-0.02598c0.0658,-0.03079 0.13527,-0.05388 0.20679,-0.06927c0.06008,-0.01924 0.12154,-0.03079 0.18402,-0.03752c0.06626,-0.00289 0.13298,0.00192 0.19821,0.01347c0.06432,0.00481 0.12726,0.01732 0.18929,0.0356c0.12497,0.05003 0.24216,0.11738 0.34824,0.19916c0.0198,0.01732 0.0444,0.02502 0.0642,0.0433l0.91267,0.92077l1.46244,-1.46822l-0.95089,-0.95733c-0.01648,-0.01828 -0.02186,-0.04041 -0.03742,-0.05773c-0.08034,-0.1068 -0.14751,-0.22418 -0.20004,-0.34733c-0.019,-0.06446 -0.03181,-0.12893 -0.03845,-0.19435c-0.02689,-0.12796 -0.01945,-0.26074 0.02048,-0.38293c0.01465,-0.0712 0.03674,-0.1424 0.06615,-0.20878c0.01053,-0.0202 0.0095,-0.04233 0.02083,-0.0635c0.32169,-0.57536 0.55252,-1.1969 0.68424,-1.84442c0.94048,-4.45085 7.25842,-12.42986 11.39259,-17.11836c0.00515,-0.0077 0.00229,-0.00866 0.01133,-0.02117c0.0095,-0.01251 0.02277,-0.01732 0.03227,-0.02886c1.03226,-1.16707 1.93268,-2.13595 2.57034,-2.77866zM54.08022,19.0324l-10.94421,-11.04823l-9.50123,9.57905c-0.40352,0.40602 -0.40352,1.06509 0,1.47303l0.37617,0.38004c0.23987,0.23091 0.57392,0.33675 0.90237,0.28287c0.02678,-0.00481 0.05241,-0.00481 0.07851,-0.00481h0.01545c0.17658,-0.02405 0.35454,-0.04426 0.53226,-0.05196c0.02094,0 0.29331,0 0.3194,0c0.02563,0 0.05173,0 0.07771,0c0.10208,0.00096 0.21149,0.00481 0.32455,0.01443c0.17029,0.01155 0.34401,0.0279 0.51659,0.05292c0.0444,0.00577 0.0951,0.01251 0.14751,0.02117c0.30945,0.05003 0.61523,0.12219 0.91518,0.21359l0.03159,0.00962c0.03662,0.01251 0.06638,0.0279 0.1038,0.04137c0.19901,0.06735 0.39391,0.14432 0.58468,0.22995c0.0174,0.00866 0.03834,0.01443 0.05585,0.02309c0.03387,0.01539 0.07565,0.04041 0.11158,0.05773c0.12817,0.06254 0.25555,0.12796 0.37937,0.1982l0.20691,0.11642c0.04818,0.03079 0.08228,0.05484 0.12486,0.08274c0.06718,0.0433 0.12486,0.08852 0.1997,0.13566c0.07416,0.04714 0.14317,0.10199 0.20668,0.15009c0.01751,0.01443 0.0349,0.02886 0.05253,0.04522l0.01133,0.00866c0.23197,0.17703 0.45227,0.37235 0.66044,0.57632c0.15816,0.15875 0.30716,0.32905 0.44666,0.50512c0.0515,0.06543 0.10414,0.13181 0.15461,0.20012l0.02197,0.02598c0.10975,0.13759 0.21286,0.30019 0.31643,0.45028l0.01648,0.02983c0.0214,0.03367 0.0404,0.06927 0.06065,0.10487l0.12726,0.22129c0.06386,0.10391 0.12119,0.21648 0.17075,0.32905c0.01842,0.03945 0.03502,0.0789 0.05356,0.11931v0.00962c0.00927,0.02213 0.0174,0.04907 0.02792,0.07216c0.08457,0.19339 0.1656,0.38774 0.23174,0.58979l0.00618,0.01539c0.01133,0.03945 0.01511,0.06831 0.02563,0.10487c0.15312,0.50031 0.24742,1.01602 0.28004,1.53846c0,0.0279 0,0.09044 0,0.11931c0.01225,0.16837 0.0174,0.34348 0.01225,0.52052v0.03945c-0.00893,0.25785 -0.03159,0.44932 -0.05585,0.6379c-0.00469,0.02405 -0.00469,0.04618 -0.00469,0.06831c-0.05482,0.33001 0.04921,0.66676 0.28004,0.90826l0.37617,0.38197c0.19352,0.19628 0.45708,0.305 0.73093,0.305c0.27454,0 0.53741,-0.10872 0.73151,-0.305zM59.92689,13.13738l-10.95451,-11.04535l-1.46244,1.47592l10.95554,11.04342zM42.0202,14.9818c1.41415,-1.42396 3.70274,-1.42493 5.11723,-0.00289c1.41243,1.42493 1.41243,3.73406 -0.00046,5.15802c-1.41277,1.423 -3.70308,1.423 -5.11528,0c-1.41289,-1.42396 -1.41323,-3.7331 -0.00046,-5.15802zM46.12932,17.55841c0,-0.41372 -0.16365,-0.81204 -0.45479,-1.10453c-0.60493,-0.61 -1.58684,-0.61 -2.19189,0c-0.60505,0.61 -0.60505,1.59907 0,2.21003c0.60505,0.61 1.58695,0.61096 2.19189,0c0.29114,-0.29153 0.45479,-0.68889 0.45479,-1.1055zM16.39734,41.27415c1.23585,0 2.42054,0.50031 3.28869,1.38644c1.81641,1.83095 1.81641,4.80107 0,6.63202c-1.81629,1.83095 -4.76097,1.83095 -6.57726,0c-1.81629,-1.83095 -1.81629,-4.80107 0,-6.63202c0.86815,-0.88613 2.05238,-1.38644 3.28857,-1.38644zM18.22416,44.13555c-1.00868,-1.01698 -2.64484,-1.01698 -3.65398,0c-1.00868,1.01698 -1.00914,2.66608 0,3.68306c1.02345,0.98234 2.631,0.98234 3.65444,0c1.00868,-1.01698 1.00868,-2.66608 -0.00046,-3.68306z" fill="url(#LinearGradient1040)"></path></g></g></svg>