<!-- Generated by IcoMoon.io -->
<svg version="1.1" xmlns="http://www.w3.org/2000/svg" width="1024" height="1024" viewBox="0 0 1024 1024">
<title></title>
<g id="icomoon-ignore">
</g>
<path fill="#2fa3ee" d="M171.078 93.403l0.4 837.219 0.657-0.001-0.607-88.218c1.045 73.432 21.288 86.703 97.131 86.703l-60.732 1.456 155.603-0.254c26.826 0 48.585 20.791 48.585 46.434 0 25.732-21.759 46.522-48.585 46.522l-143.429 0.261v-0.261h-48.59c-53.663 0-97.164-41.625-97.164-93.001v-49.461h-0.057l-0.352-738.351h0.409v-49.505c0-48.174 38.316-87.84 87.389-92.535l693.738-0.397c48.851 1.785 88.461 38.116 92.966 84.161l0.409 556.188c0.792 3.333 1.211 6.802 1.211 10.364 0 13.437-5.932 25.527-15.422 34.012-2.919 2.794-6.206 5.235-9.788 7.247l-323.863 310.742c-8.658 12.795-23.701 21.247-40.805 21.247-7.031 0-13.713-1.427-19.745-3.996-5.687-2.275-11.016-5.633-15.643-10.072-12.027-11.486-16.43-27.515-13.21-42.362l-0.303-223.329h0.328v-46.522c0-51.375 43.506-93.045 97.169-93.045h51.624v-0.131l191.253-0.249-0.319-435.039c-3.088-63.245-25.107-75.171-96.773-75.171l46.551-1.052-563.341 0.354 30.887 0.698c-75.842 0-96.085 13.355-97.131 86.748l0.602-87.405zM608.61 863.653l173.213-166.263-173.439 0.203 0.113 83.498 0.58-82.817 91.405-0.582c-73.834 0.969-90.8 18.941-91.983 84.908zM851.277 92.976h-0.192l0.215 31.373zM171.483 836.104l0.044 6.298c-0.029-2.052-0.044-4.151-0.044-6.298zM171.527 180.808l-0.044 6.297c0-2.146 0.014-4.246 0.044-6.297zM707.114 697.65l-6.632 0.042c2.162-0.028 4.372-0.042 6.632-0.042zM267.504 233.003l487.735-0.445c26.837 0 48.585 20.834 48.585 46.522s-21.748 46.478-48.585 46.478l-487.735 0.445c-26.837 0-48.59-20.834-48.59-46.478 0-25.688 21.753-46.522 48.59-46.522zM267.504 419.049l487.735-0.445c26.837 0 48.585 20.834 48.585 46.522 0 25.732-21.748 46.478-48.585 46.478l-487.735 0.489c-26.837 0-48.59-20.834-48.59-46.522s21.753-46.522 48.59-46.522z"></path>
</svg>
