<!-- Generated by IcoMoon.io -->
<svg version="1.1"
  xmlns="http://www.w3.org/2000/svg" width="1024" height="1024" viewBox="0 0 1024 1024" fill="#ffffff">
  <title></title>
  <g id="icomoon-ignore">
  </g>
  <path d="M796.445 796.429v0 170.718c0 31.363-25.469 56.815-56.888 56.815h-682.67c-31.419 0-56.888-25.452-56.888-56.815v-682.709c0-31.418 25.469-56.924 56.888-56.924s56.888 25.507 56.888 56.924v625.785h568.893v-170.664c0-31.473 25.469-56.87 56.888-56.87h170.664v-568.915h-568.887v568.915h170.664c31.419 0 56.888 25.397 56.888 56.87 0 31.418-25.469 56.87-56.888 56.87h-227.552c-31.419 0-56.895-25.452-56.895-56.87v-682.709c0-31.363 25.475-56.815 56.895-56.815h682.663c31.419 0 56.888 25.452 56.888 56.815v682.709c0 31.418-25.469 56.87-56.888 56.87z"></path>
</svg>
