<!-- Generated by IcoMoon.io -->
<svg version="1.1"
  xmlns="http://www.w3.org/2000/svg" width="1024" height="1024" viewBox="0 0 1024 1024" fill="#028fea">
  <title></title>
  <g id="icomoon-ignore">
  </g>
  <path d="M635.58 527.785c21.407-20.681 55.524-20.056 76.206 1.302 20.168 20.89 20.168 54.020 0 74.909l-404.198 404.238c-10.1 10.054-23.805 15.732-38.1 15.732h-215.569c-29.766 0-53.894-24.067-53.894-53.864v-215.56c0.006-14.273 5.682-28.026 15.794-38.079l700.601-700.646c21.042-21.045 55.157-21.045 76.206 0l215.569 215.507c21.036 21.15 21.036 55.219 0 76.315l-161.682 161.592c-21.042 21.045-55.157 21.045-76.2 0l-107.787-107.779c-21.414-20.628-22.003-54.75-1.326-76.212 20.677-21.41 54.799-21.931 76.206-1.302 0.446 0.365 0.886 0.886 1.326 1.302l69.682 69.7 85.475-85.432-139.37-139.348-646.708 646.625v139.504h139.364z"></path>
</svg>
