<!-- Generated by IcoMoon.io -->
<svg version="1.1" xmlns="http://www.w3.org/2000/svg" width="1024" height="1024" viewBox="0 0 1024 1024">
<title></title>
<g id="icomoon-ignore">
</g>
<path fill="#028fea" d="M736.023 667.973l-78.445 78.373c-22.175 22.284-58.141 22.284-80.317 0-22.183-22.169-22.183-58.172 0-80.282l99.953-99.905c13.425-13.429 32.682-19.333 51.305-15.57l249.786 49.894c26.583 5.383 45.708 28.767 45.674 55.914v299.541c0 26.336-18.045 49.084-43.628 55.278-192.67 45.785-467.709-29.81-702.817-264.868-235.169-234.944-310.606-510.058-264.746-702.69 6.079-25.642 28.978-43.643 55.285-43.585h299.79c27.022 0 50.341 19.043 55.69 45.553l49.941 249.762c3.724 18.638-2.12 37.855-15.525 51.226l-70.142 70.153c32.868 57.361 75.071 108.934 124.869 152.461 23.662 20.548 26.183 56.493 5.604 80.051-20.585 23.732-56.462 26.278-80.125 5.73-12.338-10.767-24.29-22.052-35.842-33.514-55.119-55.509-100.828-119.642-135.326-189.795-10.857-21.938-6.555-48.158 10.693-65.407l78.452-78.431-34.878-174.226h-205.414c-16.606 152.982 53.591 364.195 241.93 552.428 188.415 188.232 399.625 258.559 552.591 242.006v-205.308zM1023.978 340.88c0 31.198-25.425 56.609-56.8 56.609s-56.8-25.41-56.8-56.609c0-125.605-101.722-227.245-227.197-227.245-31.374 0-56.8-25.468-56.8-56.841 0-31.43 25.425-56.725 56.8-56.725 188.188-0.058 340.761 152.461 340.796 340.695zM853.608 340.88c0 31.198-25.425 56.609-56.8 56.609-31.367 0-56.8-25.41-56.8-56.609 0.034-31.43-25.357-56.898-56.716-56.898-0.042 0-0.076 0-0.11 0-31.374 0-56.8-25.468-56.8-56.841 0-31.315 25.425-56.841 56.8-56.841 94.094 0 170.398 76.346 170.425 170.463z"></path>
</svg>
