<svg xmlns="http://www.w3.org/2000/svg"
  xmlns:xlink="http://www.w3.org/1999/xlink" width="60px" height="61px">
  <defs>
    <linearGradient id="PSgrad_0" x1="0%" x2="74.314%" y1="0%" y2="66.913%">
      <stop offset="0%" stop-color="rgb(255,255,255)" stop-opacity="0" />
      <stop offset="100%" stop-color="rgb(2,143,234)" stop-opacity="1" />
    </linearGradient>

  </defs>
  <path fill-rule="evenodd" fill="rgb(255, 255, 255)" d="M47.461,31.118 C43.584,31.118 40.430,34.273 40.430,38.151 C40.430,42.026 43.584,45.180 47.461,45.180 L57.422,45.180 C57.462,45.180 57.500,45.175 57.540,45.174 C57.579,45.175 57.617,45.180 57.656,45.180 C58.951,45.180 60.000,44.131 60.000,42.835 L60.000,24.438 C60.000,21.318 58.466,18.551 56.115,16.845 L48.141,3.766 C47.816,3.233 47.291,2.852 46.684,2.706 C46.076,2.560 45.436,2.664 44.905,2.996 L39.025,6.640 L36.373,2.152 C36.054,1.614 35.532,1.226 34.925,1.072 C34.317,0.919 33.673,1.016 33.138,1.343 L10.560,15.062 L7.031,15.062 C5.758,15.062 4.719,14.045 4.688,12.779 C4.719,11.513 5.758,10.493 7.031,10.493 L11.367,10.493 C12.662,10.493 13.711,9.444 13.711,8.150 C13.711,6.857 12.662,5.807 11.367,5.807 L7.031,5.807 C3.715,5.807 0.928,8.115 0.191,11.208 C0.068,11.493 -0.000,11.803 -0.000,12.133 L-0.000,12.720 L-0.000,12.838 L-0.000,51.624 C-0.000,56.794 4.206,61.000 9.375,61.000 L50.625,61.000 C54.667,61.000 58.241,58.426 59.520,54.593 C59.929,53.365 59.266,52.038 58.038,51.628 C56.810,51.219 55.483,51.883 55.073,53.110 C54.434,55.025 53.022,56.499 51.000,56.499 L9.000,56.499 C6.415,56.499 4.688,54.211 4.688,51.624 L4.500,20.500 C5.233,20.761 6.678,20.500 7.500,20.500 L51.000,20.500 C53.585,20.500 55.313,21.854 55.313,24.438 L55.313,31.118 L47.461,31.118 ZM55.313,40.492 L47.461,40.492 C46.169,40.494 45.117,39.443 45.117,38.151 C45.117,36.856 46.169,35.807 47.461,35.807 L55.313,35.807 L55.313,40.492 ZM19.500,16.000 L33.544,6.580 L36.040,10.804 C36.088,10.920 36.143,11.034 36.211,11.143 C36.262,11.225 36.319,11.302 36.378,11.374 L39.000,16.000 L19.500,16.000 ZM43.500,16.000 L41.410,10.678 L45.368,8.222 L49.500,16.000 L43.500,16.000 Z"/>
  <path fill="url(#PSgrad_0)" d="M47.461,31.118 C43.584,31.118 40.430,34.273 40.430,38.151 C40.430,42.026 43.584,45.180 47.461,45.180 L57.422,45.180 C57.462,45.180 57.500,45.175 57.540,45.174 C57.579,45.175 57.617,45.180 57.656,45.180 C58.951,45.180 60.000,44.131 60.000,42.835 L60.000,24.438 C60.000,21.318 58.466,18.551 56.115,16.845 L48.141,3.766 C47.816,3.233 47.291,2.852 46.684,2.706 C46.076,2.560 45.436,2.664 44.905,2.996 L39.025,6.640 L36.373,2.152 C36.054,1.614 35.532,1.226 34.925,1.072 C34.317,0.919 33.673,1.016 33.138,1.343 L10.560,15.062 L7.031,15.062 C5.758,15.062 4.719,14.045 4.688,12.779 C4.719,11.513 5.758,10.493 7.031,10.493 L11.367,10.493 C12.662,10.493 13.711,9.444 13.711,8.150 C13.711,6.857 12.662,5.807 11.367,5.807 L7.031,5.807 C3.715,5.807 0.928,8.115 0.191,11.208 C0.068,11.493 -0.000,11.803 -0.000,12.133 L-0.000,12.720 L-0.000,12.838 L-0.000,51.624 C-0.000,56.794 4.206,61.000 9.375,61.000 L50.625,61.000 C54.667,61.000 58.241,58.426 59.520,54.593 C59.929,53.365 59.266,52.038 58.038,51.628 C56.810,51.219 55.483,51.883 55.073,53.110 C54.434,55.025 53.022,56.499 51.000,56.499 L9.000,56.499 C6.415,56.499 4.688,54.211 4.688,51.624 L4.500,20.500 C5.233,20.761 6.678,20.500 7.500,20.500 L51.000,20.500 C53.585,20.500 55.313,21.854 55.313,24.438 L55.313,31.118 L47.461,31.118 ZM55.313,40.492 L47.461,40.492 C46.169,40.494 45.117,39.443 45.117,38.151 C45.117,36.856 46.169,35.807 47.461,35.807 L55.313,35.807 L55.313,40.492 ZM19.500,16.000 L33.544,6.580 L36.040,10.804 C36.088,10.920 36.143,11.034 36.211,11.143 C36.262,11.225 36.319,11.302 36.378,11.374 L39.000,16.000 L19.500,16.000 ZM43.500,16.000 L41.410,10.678 L45.368,8.222 L49.500,16.000 L43.500,16.000 Z"/>
</svg>