<?xml version="1.0" encoding="UTF-8"?>
<svg id="SVGDoc" width="60" height="60"
  xmlns="http://www.w3.org/2000/svg" version="1.1"
  xmlns:xlink="http://www.w3.org/1999/xlink"
  xmlns:avocode="https://avocode.com/" viewBox="0 0 60 60">
  <defs>
    <linearGradient id="LinearGradient1189" gradientUnits="userSpaceOnUse" x1="-4.76837158203125e-7" y1="3.0003767013549805" x2="59.99999952316284" y2="56.999526023864746">
      <stop stop-opacity="0" stop-color="#ffffff" offset="0"></stop>
      <stop stop-opacity="1" stop-color="#028fea" offset="1"></stop>
    </linearGradient>
  </defs>
  <desc>Generated with Avocode.</desc>
  <g>
    <g>
      <title>Shape 502</title>
      <path d="M59.85764,27.65618c0,5.32543 -1.64131,10.49693 -4.74667,14.95451c-0.73929,1.06124 -2.19692,1.32198 -3.25584,0.58113c-1.05869,-0.74181 -1.31767,-2.20233 -0.57827,-3.26453c2.55432,-3.66671 3.9045,-7.9107 3.9045,-12.27111c0,-12.66462 -11.32816,-22.96912 -25.25253,-22.96912c-13.92414,0 -25.25242,10.3045 -25.25242,22.96912c0,5.13012 1.8211,9.98507 5.26634,14.03567c0.56511,0.66484 0.71491,1.58945 0.3883,2.39957l-3.66703,9.09317l10.67905,-4.72025c0.592,-0.2617 1.26572,-0.26459 1.86081,-0.01058c3.36914,1.44032 6.97746,2.17058 10.72495,2.17058c4.31305,0 8.56934,-1.00736 12.30904,-2.90854c1.15139,-0.5869 2.55878,-0.12604 3.14346,1.02756c0.58456,1.1536 0.12543,2.5641 -1.02608,3.151c-4.39259,2.23601 -9.38107,3.41751 -14.42642,3.41751c-4.03107,0 -7.93053,-0.72449 -11.60625,-2.15615l-15.0412,6.64549c-0.30327,0.13374 -0.62428,0.19916 -0.94265,0.19916c-0.59589,0 -1.18263,-0.22899 -1.62792,-0.66195c-0.68333,-0.66291 -0.89699,-1.67701 -0.54028,-2.56121l5.30903,-13.16397c-3.59013,-4.67792 -5.47955,-10.16499 -5.47955,-15.95706c0,-7.42771 3.13969,-14.39744 8.84079,-19.62762c5.6432,-5.17823 13.13255,-8.02904 21.08803,-8.02904c7.95559,0 15.44483,2.85082 21.08814,8.02904c5.70099,5.23018 8.84068,12.19991 8.84068,19.62762zM25.53463,23.06004l-1.87603,1.89541c0,0 1.08891,2.45153 3.85437,5.22345l0.13321,0.13278c2.76558,2.77192 5.21049,3.86395 5.21049,3.86395l1.89022,-1.88002c2.18765,-2.14076 4.38904,-0.86208 6.59042,1.26617c1.09863,1.06124 1.16135,2.80559 0.14179,3.94284l-0.02598,0.02983c-1.33301,1.33545 -3.18695,1.96661 -5.28625,1.95795l-0.01305,-0.01251c-3.73821,-0.01924 -8.25462,-2.07629 -11.99329,-5.81901c-3.73592,-3.74849 -5.78682,-8.27535 -5.80559,-12.02288c-0.0103,-2.1042 0.62016,-3.96209 1.95305,-5.29946l0.02895,-0.02598c1.13583,-1.02179 2.87487,-0.95925 3.93436,0.14143c2.12265,2.20714 3.39993,4.41525 1.26331,6.60604z" fill="#ffffff" fill-opacity="1"></path>
      <path d="M59.85764,27.65618c0,5.32543 -1.64131,10.49693 -4.74667,14.95451c-0.73929,1.06124 -2.19692,1.32198 -3.25584,0.58113c-1.05869,-0.74181 -1.31767,-2.20233 -0.57827,-3.26453c2.55432,-3.66671 3.9045,-7.9107 3.9045,-12.27111c0,-12.66462 -11.32816,-22.96912 -25.25253,-22.96912c-13.92414,0 -25.25242,10.3045 -25.25242,22.96912c0,5.13012 1.8211,9.98507 5.26634,14.03567c0.56511,0.66484 0.71491,1.58945 0.3883,2.39957l-3.66703,9.09317l10.67905,-4.72025c0.592,-0.2617 1.26572,-0.26459 1.86081,-0.01058c3.36914,1.44032 6.97746,2.17058 10.72495,2.17058c4.31305,0 8.56934,-1.00736 12.30904,-2.90854c1.15139,-0.5869 2.55878,-0.12604 3.14346,1.02756c0.58456,1.1536 0.12543,2.5641 -1.02608,3.151c-4.39259,2.23601 -9.38107,3.41751 -14.42642,3.41751c-4.03107,0 -7.93053,-0.72449 -11.60625,-2.15615l-15.0412,6.64549c-0.30327,0.13374 -0.62428,0.19916 -0.94265,0.19916c-0.59589,0 -1.18263,-0.22899 -1.62792,-0.66195c-0.68333,-0.66291 -0.89699,-1.67701 -0.54028,-2.56121l5.30903,-13.16397c-3.59013,-4.67792 -5.47955,-10.16499 -5.47955,-15.95706c0,-7.42771 3.13969,-14.39744 8.84079,-19.62762c5.6432,-5.17823 13.13255,-8.02904 21.08803,-8.02904c7.95559,0 15.44483,2.85082 21.08814,8.02904c5.70099,5.23018 8.84068,12.19991 8.84068,19.62762zM25.53463,23.06004l-1.87603,1.89541c0,0 1.08891,2.45153 3.85437,5.22345l0.13321,0.13278c2.76558,2.77192 5.21049,3.86395 5.21049,3.86395l1.89022,-1.88002c2.18765,-2.14076 4.38904,-0.86208 6.59042,1.26617c1.09863,1.06124 1.16135,2.80559 0.14179,3.94284l-0.02598,0.02983c-1.33301,1.33545 -3.18695,1.96661 -5.28625,1.95795l-0.01305,-0.01251c-3.73821,-0.01924 -8.25462,-2.07629 -11.99329,-5.81901c-3.73592,-3.74849 -5.78682,-8.27535 -5.80559,-12.02288c-0.0103,-2.1042 0.62016,-3.96209 1.95305,-5.29946l0.02895,-0.02598c1.13583,-1.02179 2.87487,-0.95925 3.93436,0.14143c2.12265,2.20714 3.39993,4.41525 1.26331,6.60604z" fill="url(#LinearGradient1189)"></path>
    </g>
  </g>
</svg>