<?xml version="1.0" encoding="UTF-8"?>
<svg id="SVGDoc" width="47" height="60"
  xmlns="http://www.w3.org/2000/svg" version="1.1"
  xmlns:xlink="http://www.w3.org/1999/xlink"
  xmlns:avocode="https://avocode.com/" viewBox="0 0 47 60">
  <defs>
    <linearGradient id="LinearGradient1114" gradientUnits="userSpaceOnUse" x1="0.00002193450927734375" y1="9.000100135803223" x2="47.00002193450928" y2="50.99924182891846">
      <stop stop-opacity="0" stop-color="#ffffff" offset="0"></stop>
      <stop stop-opacity="1" stop-color="#028fea" offset="1"></stop>
    </linearGradient>
  </defs>
  <desc>Generated with Avocode.</desc>
  <g>
    <g>
      <title>Forma 1</title>
      <path d="M37.74916,46.05391c0,1.296 -1.03683,2.34569 -2.31583,2.34569h-6.83189c-1.27911,0 -2.31594,-1.04969 -2.31594,-2.34569c0,-1.29311 1.03683,-2.34281 2.31594,-2.34281h6.83189c1.27899,0 2.31583,1.04969 2.31583,2.34281zM37.74916,31.87392c0,1.296 -1.03683,2.34473 -2.31583,2.34473h-6.83189c-1.27911,0 -2.31594,-1.04873 -2.31594,-2.34473c0,-1.29504 1.03683,-2.34281 2.31594,-2.34281h6.83189c1.27899,0 2.31583,1.04777 2.31583,2.34281zM42.36811,38.90522v-29.52994c0,-2.58527 -2.07779,-4.68754 -4.63177,-4.68754h-28.47267c-2.55398,0 -4.63177,2.10227 -4.63177,4.68754v41.24975c0,2.5843 2.07779,4.68754 4.63177,4.68754h28.47267c2.55398,0 4.63177,-2.10323 4.63177,-4.68754c0,-1.29311 1.03683,-2.34377 2.31594,-2.34377c1.27911,0 2.31594,1.05065 2.31594,2.34377c-0.00023,5.16957 -4.15569,9.37507 -9.26376,9.37507h-28.47256c-5.10807,0 -9.26365,-4.20551 -9.26365,-9.37507v-41.24975c0,-5.16861 4.15558,-9.37604 9.26365,-9.37604h28.47267c5.10796,0 9.26365,4.20743 9.26365,9.37604v29.52994c0,1.29504 -1.03683,2.34569 -2.31594,2.34569c-1.27911,0 -2.31594,-1.05065 -2.31594,-2.34569zM23.78645,12.62442l-5.40482,6.62047c-0.70484,0.88036 -1.74774,1.42781 -2.86457,1.50286c-0.08904,0.00577 -0.17807,0.00866 -0.26653,0.00962c-1.03065,0 -2.03259,-0.40217 -2.78332,-1.1257c-0.02129,-0.0202 -0.04223,-0.04137 -0.06271,-0.06158l-2.48428,-2.5843c-0.89218,-0.92654 -0.87273,-2.41016 0.0436,-3.3136c0.91644,-0.90152 2.38277,-0.88324 3.27496,0.0433l1.97411,2.05128l5.0029,-6.12593c0.81459,-0.9987 2.2744,-1.13917 3.26031,-0.31558c0.98614,0.82551 1.12507,2.3024 0.31036,3.29917zM23.78645,41.2057l-5.40482,6.62047c-0.70496,0.87843 -1.74786,1.42589 -2.86457,1.50094c-0.08904,0.00577 -0.17784,0.00866 -0.26653,0.00962c-1.03065,0 -2.03281,-0.40217 -2.78343,-1.1257c-0.01968,-0.01924 -0.03902,-0.03752 -0.05802,-0.05773l-2.48428,-2.56795c-0.8947,-0.92461 -0.87948,-2.40919 0.03445,-3.3136c0.91381,-0.9073 2.38003,-0.89094 3.27496,0.03271l1.97731,2.04454l5.00427,-6.12978c0.81459,-0.99774 2.2744,-1.13917 3.26031,-0.31558c0.98614,0.82551 1.12507,2.30143 0.31036,3.30206zM37.74916,17.46109c0,1.29408 -1.03683,2.34473 -2.31583,2.34473h-6.83189c-1.27911,0 -2.31594,-1.05065 -2.31594,-2.34473c0,-1.29504 1.03683,-2.34281 2.31594,-2.34281h6.83189c1.27899,0 2.31583,1.04777 2.31583,2.34281zM23.78645,27.02474l-5.40482,6.62143c-0.70496,0.87843 -1.74786,1.42589 -2.86457,1.5019c-0.08904,0.00481 -0.17784,0.0077 -0.26653,0.0077c-1.03065,0 -2.03281,-0.40314 -2.78343,-1.12474c-0.01968,-0.01924 -0.03902,-0.03945 -0.05802,-0.05965l-2.48428,-2.56602c-0.8947,-0.92461 -0.87948,-2.40919 0.03445,-3.3136c0.91381,-0.90633 2.38003,-0.89094 3.27496,0.03464l1.97731,2.04358l5.00427,-6.13074c0.81459,-0.99678 2.2744,-1.13725 3.26031,-0.31366c0.98614,0.82359 1.12507,2.30143 0.31036,3.29917z" fill="#ffffff" fill-opacity="1"></path>
      <path d="M37.74916,46.05391c0,1.296 -1.03683,2.34569 -2.31583,2.34569h-6.83189c-1.27911,0 -2.31594,-1.04969 -2.31594,-2.34569c0,-1.29311 1.03683,-2.34281 2.31594,-2.34281h6.83189c1.27899,0 2.31583,1.04969 2.31583,2.34281zM37.74916,31.87392c0,1.296 -1.03683,2.34473 -2.31583,2.34473h-6.83189c-1.27911,0 -2.31594,-1.04873 -2.31594,-2.34473c0,-1.29504 1.03683,-2.34281 2.31594,-2.34281h6.83189c1.27899,0 2.31583,1.04777 2.31583,2.34281zM42.36811,38.90522v-29.52994c0,-2.58527 -2.07779,-4.68754 -4.63177,-4.68754h-28.47267c-2.55398,0 -4.63177,2.10227 -4.63177,4.68754v41.24975c0,2.5843 2.07779,4.68754 4.63177,4.68754h28.47267c2.55398,0 4.63177,-2.10323 4.63177,-4.68754c0,-1.29311 1.03683,-2.34377 2.31594,-2.34377c1.27911,0 2.31594,1.05065 2.31594,2.34377c-0.00023,5.16957 -4.15569,9.37507 -9.26376,9.37507h-28.47256c-5.10807,0 -9.26365,-4.20551 -9.26365,-9.37507v-41.24975c0,-5.16861 4.15558,-9.37604 9.26365,-9.37604h28.47267c5.10796,0 9.26365,4.20743 9.26365,9.37604v29.52994c0,1.29504 -1.03683,2.34569 -2.31594,2.34569c-1.27911,0 -2.31594,-1.05065 -2.31594,-2.34569zM23.78645,12.62442l-5.40482,6.62047c-0.70484,0.88036 -1.74774,1.42781 -2.86457,1.50286c-0.08904,0.00577 -0.17807,0.00866 -0.26653,0.00962c-1.03065,0 -2.03259,-0.40217 -2.78332,-1.1257c-0.02129,-0.0202 -0.04223,-0.04137 -0.06271,-0.06158l-2.48428,-2.5843c-0.89218,-0.92654 -0.87273,-2.41016 0.0436,-3.3136c0.91644,-0.90152 2.38277,-0.88324 3.27496,0.0433l1.97411,2.05128l5.0029,-6.12593c0.81459,-0.9987 2.2744,-1.13917 3.26031,-0.31558c0.98614,0.82551 1.12507,2.3024 0.31036,3.29917zM23.78645,41.2057l-5.40482,6.62047c-0.70496,0.87843 -1.74786,1.42589 -2.86457,1.50094c-0.08904,0.00577 -0.17784,0.00866 -0.26653,0.00962c-1.03065,0 -2.03281,-0.40217 -2.78343,-1.1257c-0.01968,-0.01924 -0.03902,-0.03752 -0.05802,-0.05773l-2.48428,-2.56795c-0.8947,-0.92461 -0.87948,-2.40919 0.03445,-3.3136c0.91381,-0.9073 2.38003,-0.89094 3.27496,0.03271l1.97731,2.04454l5.00427,-6.12978c0.81459,-0.99774 2.2744,-1.13917 3.26031,-0.31558c0.98614,0.82551 1.12507,2.30143 0.31036,3.30206zM37.74916,17.46109c0,1.29408 -1.03683,2.34473 -2.31583,2.34473h-6.83189c-1.27911,0 -2.31594,-1.05065 -2.31594,-2.34473c0,-1.29504 1.03683,-2.34281 2.31594,-2.34281h6.83189c1.27899,0 2.31583,1.04777 2.31583,2.34281zM23.78645,27.02474l-5.40482,6.62143c-0.70496,0.87843 -1.74786,1.42589 -2.86457,1.5019c-0.08904,0.00481 -0.17784,0.0077 -0.26653,0.0077c-1.03065,0 -2.03281,-0.40314 -2.78343,-1.12474c-0.01968,-0.01924 -0.03902,-0.03945 -0.05802,-0.05965l-2.48428,-2.56602c-0.8947,-0.92461 -0.87948,-2.40919 0.03445,-3.3136c0.91381,-0.90633 2.38003,-0.89094 3.27496,0.03464l1.97731,2.04358l5.00427,-6.13074c0.81459,-0.99678 2.2744,-1.13725 3.26031,-0.31366c0.98614,0.82359 1.12507,2.30143 0.31036,3.29917z" fill="url(#LinearGradient1114)"></path>
    </g>
  </g>
</svg>