<?xml version="1.0" encoding="UTF-8"?>
<svg id="SVGDoc" width="60" height="60" xmlns="http://www.w3.org/2000/svg" version="1.1" xmlns:xlink="http://www.w3.org/1999/xlink" xmlns:avocode="https://avocode.com/" viewBox="0 0 60 60"><defs><linearGradient id="LinearGradient1164" gradientUnits="userSpaceOnUse" x1="-0.0018885135650634766" y1="3.0020623207092285" x2="59.99811148643494" y2="56.99830102920532"><stop stop-opacity="0" stop-color="#ffffff" offset="0"></stop><stop stop-opacity="1" stop-color="#028fea" offset="1"></stop></linearGradient></defs><desc>Generated with Avocode.</desc><g><g><title>Forma 1</title><path d="M8.54733,49.61794c0.97092,0 1.75793,0.78799 1.75793,1.75975c0,0.96984 -0.78701,1.75783 -1.75793,1.75783c-0.97103,0 -1.75804,-0.78799 -1.75804,-1.75783c0,-0.97176 0.78701,-1.75975 1.75804,-1.75975zM56.80352,56.80127c-4.68166,4.6808 -12.42531,4.14008 -16.413,-1.13532c-1.18652,-1.44994 -10.7317,-13.11298 -12.00462,-14.66972l-13.96248,16.10234c-3.27862,3.86298 -9.28024,3.89858 -12.5948,-0.05677c-1.42651,-1.70202 -2.05181,-3.89474 -1.76067,-6.175c0.27946,-2.18886 1.36208,-4.18145 3.04882,-5.61119l18.6224,-16.05809l-8.3836,-8.38215l-7.06467,-2.35531c-0.43957,-0.14625 -0.80372,-0.46183 -1.0128,-0.87458l-5.08953,-10.06204c-0.34298,-0.67638 -0.21172,-1.49901 0.32558,-2.03685l4.97234,-4.97041c0.5373,-0.53784 1.35876,-0.66869 2.03659,-0.32713l10.06165,5.09067c0.41348,0.20782 0.72773,0.57247 0.87433,1.01121l2.35439,7.06402l8.93497,8.93538l2.33402,-2.01376c0.00412,-0.00289 0.00824,-0.00673 0.01236,-0.00962c0.39562,-0.33386 0.60219,-0.82359 0.60219,-1.34122v-6.85716c0,-1.40761 0.56889,-2.73343 1.56509,-3.72925l5.76473,-5.76417c3.43529,-3.4358 8.99574,-3.4358 12.43057,0c0.68653,0.68504 0.68653,1.79824 0,2.48424l-4.97223,4.97329c-0.68722,0.68793 -0.68722,1.79824 0,2.4852c0.68527,0.686 1.80061,0.686 2.486,0l4.97234,-4.97041c0.32959,-0.33001 0.77682,-0.51667 1.24306,-0.51667c0.46623,0 0.91335,0.18665 1.24306,0.51667c3.42705,3.42714 3.42705,9.00273 0,12.4289l-5.76473,5.76417c-0.99609,0.99678 -2.32029,1.54519 -3.72917,1.54519h-6.85753c-0.51807,0 -1.00731,0.22514 -1.34193,0.62154c-0.00458,0.00673 -0.00927,0.01155 -0.01373,0.01732l-0.59486,0.686c3.87188,2.75653 12.33421,8.7824 16.47263,11.72943c0.0119,0.0077 0.02346,0.01732 0.03502,0.02598c5.30434,3.97748 5.86143,11.74193 1.16821,16.43524zM24.40907,26.89512l2.66979,-2.3024l-9.04472,-9.04314c-0.19283,-0.19435 -0.3384,-0.42815 -0.42469,-0.68793l-2.25723,-6.77153l-8.28003,-4.18915l-3.17127,3.17121l4.18808,8.28112l6.77216,2.25621c0.25887,0.08755 0.49416,0.23188 0.6871,0.4243zM37.06052,25.62703c1.00388,-1.18054 2.46769,-1.83287 4.01814,-1.83287h6.85753c0.46944,0 0.91095,-0.20686 1.24294,-0.5388l5.76473,-5.76417c1.62071,-1.6212 1.96404,-4.04194 1.03008,-6.00182l-3.5162,3.51565c-2.05616,2.05513 -5.40218,2.05513 -7.45834,0c-2.05639,-2.05609 -2.05639,-5.40241 0,-7.45753l3.5178,-3.51854c-1.92101,-0.9198 -4.35162,-0.62058 -6.00403,1.03141l-5.76473,5.76417c-0.33211,0.33386 -0.53513,0.77548 -0.53513,1.24404v6.85716c0,1.55097 -0.65781,3.0163 -1.84044,4.02078c-3.86353,3.32996 -13.3532,11.53507 -28.96545,24.97614c-0.00412,0.00289 -0.00835,0.0077 -0.01247,0.01155c-2.09759,1.77226 -2.49653,4.91075 -0.87147,6.85042c1.91265,2.28219 5.3524,2.24563 7.22408,0.03367c0.00458,-0.00481 0.00927,-0.01058 0.01385,-0.01539zM33.06298,41.16075l6.56536,-7.87799l-2.81445,-2.0051l-6.09055,7.02361zM53.54218,43.19182l-11.0416,-7.86356l-7.16984,8.60344l7.80315,9.53287c0.01579,0.0202 0.03113,0.04041 0.04601,0.05965c2.696,3.59551 7.95753,3.97074 11.1375,0.79088c3.17024,-3.17025 2.81033,-8.42063 -0.77522,-11.12328z" fill="#ffffff" fill-opacity="1"></path><path d="M8.54733,49.61794c0.97092,0 1.75793,0.78799 1.75793,1.75975c0,0.96984 -0.78701,1.75783 -1.75793,1.75783c-0.97103,0 -1.75804,-0.78799 -1.75804,-1.75783c0,-0.97176 0.78701,-1.75975 1.75804,-1.75975zM56.80352,56.80127c-4.68166,4.6808 -12.42531,4.14008 -16.413,-1.13532c-1.18652,-1.44994 -10.7317,-13.11298 -12.00462,-14.66972l-13.96248,16.10234c-3.27862,3.86298 -9.28024,3.89858 -12.5948,-0.05677c-1.42651,-1.70202 -2.05181,-3.89474 -1.76067,-6.175c0.27946,-2.18886 1.36208,-4.18145 3.04882,-5.61119l18.6224,-16.05809l-8.3836,-8.38215l-7.06467,-2.35531c-0.43957,-0.14625 -0.80372,-0.46183 -1.0128,-0.87458l-5.08953,-10.06204c-0.34298,-0.67638 -0.21172,-1.49901 0.32558,-2.03685l4.97234,-4.97041c0.5373,-0.53784 1.35876,-0.66869 2.03659,-0.32713l10.06165,5.09067c0.41348,0.20782 0.72773,0.57247 0.87433,1.01121l2.35439,7.06402l8.93497,8.93538l2.33402,-2.01376c0.00412,-0.00289 0.00824,-0.00673 0.01236,-0.00962c0.39562,-0.33386 0.60219,-0.82359 0.60219,-1.34122v-6.85716c0,-1.40761 0.56889,-2.73343 1.56509,-3.72925l5.76473,-5.76417c3.43529,-3.4358 8.99574,-3.4358 12.43057,0c0.68653,0.68504 0.68653,1.79824 0,2.48424l-4.97223,4.97329c-0.68722,0.68793 -0.68722,1.79824 0,2.4852c0.68527,0.686 1.80061,0.686 2.486,0l4.97234,-4.97041c0.32959,-0.33001 0.77682,-0.51667 1.24306,-0.51667c0.46623,0 0.91335,0.18665 1.24306,0.51667c3.42705,3.42714 3.42705,9.00273 0,12.4289l-5.76473,5.76417c-0.99609,0.99678 -2.32029,1.54519 -3.72917,1.54519h-6.85753c-0.51807,0 -1.00731,0.22514 -1.34193,0.62154c-0.00458,0.00673 -0.00927,0.01155 -0.01373,0.01732l-0.59486,0.686c3.87188,2.75653 12.33421,8.7824 16.47263,11.72943c0.0119,0.0077 0.02346,0.01732 0.03502,0.02598c5.30434,3.97748 5.86143,11.74193 1.16821,16.43524zM24.40907,26.89512l2.66979,-2.3024l-9.04472,-9.04314c-0.19283,-0.19435 -0.3384,-0.42815 -0.42469,-0.68793l-2.25723,-6.77153l-8.28003,-4.18915l-3.17127,3.17121l4.18808,8.28112l6.77216,2.25621c0.25887,0.08755 0.49416,0.23188 0.6871,0.4243zM37.06052,25.62703c1.00388,-1.18054 2.46769,-1.83287 4.01814,-1.83287h6.85753c0.46944,0 0.91095,-0.20686 1.24294,-0.5388l5.76473,-5.76417c1.62071,-1.6212 1.96404,-4.04194 1.03008,-6.00182l-3.5162,3.51565c-2.05616,2.05513 -5.40218,2.05513 -7.45834,0c-2.05639,-2.05609 -2.05639,-5.40241 0,-7.45753l3.5178,-3.51854c-1.92101,-0.9198 -4.35162,-0.62058 -6.00403,1.03141l-5.76473,5.76417c-0.33211,0.33386 -0.53513,0.77548 -0.53513,1.24404v6.85716c0,1.55097 -0.65781,3.0163 -1.84044,4.02078c-3.86353,3.32996 -13.3532,11.53507 -28.96545,24.97614c-0.00412,0.00289 -0.00835,0.0077 -0.01247,0.01155c-2.09759,1.77226 -2.49653,4.91075 -0.87147,6.85042c1.91265,2.28219 5.3524,2.24563 7.22408,0.03367c0.00458,-0.00481 0.00927,-0.01058 0.01385,-0.01539zM33.06298,41.16075l6.56536,-7.87799l-2.81445,-2.0051l-6.09055,7.02361zM53.54218,43.19182l-11.0416,-7.86356l-7.16984,8.60344l7.80315,9.53287c0.01579,0.0202 0.03113,0.04041 0.04601,0.05965c2.696,3.59551 7.95753,3.97074 11.1375,0.79088c3.17024,-3.17025 2.81033,-8.42063 -0.77522,-11.12328z" fill="url(#LinearGradient1164)"></path></g></g></svg>