<?xml version="1.0" encoding="UTF-8"?>
<svg id="SVGDoc" width="60" height="60" xmlns="http://www.w3.org/2000/svg" version="1.1" xmlns:xlink="http://www.w3.org/1999/xlink" xmlns:avocode="https://avocode.com/" viewBox="0 0 60 60"><defs><linearGradient id="LinearGradient1139" gradientUnits="userSpaceOnUse" x1="0.1420729160308838" y1="2.9981794357299805" x2="60.142072916030884" y2="57.00020503997803"><stop stop-opacity="0" stop-color="#ffffff" offset="0"></stop><stop stop-opacity="1" stop-color="#028fea" offset="1"></stop></linearGradient></defs><desc>Generated with Avocode.</desc><g><g><title>Forma 1 copy</title><path d="M39.77444,38.08452c0,3.31649 -1.50112,6.28565 -3.85792,8.26669v11.30416c0,0.78607 -0.39356,1.51922 -1.04816,1.95314c-0.38841,0.25882 -0.83794,0.38967 -1.29021,0.38967c-0.30979,0 -0.62084,-0.06158 -0.91438,-0.18665l-3.76225,-1.60292l-3.76225,1.601c-0.72201,0.30788 -1.54953,0.23188 -2.20425,-0.20205c-0.65426,-0.43392 -1.04771,-1.16804 -1.04771,-1.95603v-11.50429c-2.22153,-1.97623 -3.62411,-4.85687 -3.62411,-8.06272c0,-5.94505 4.82494,-10.78076 10.75562,-10.78076c5.93079,0 10.75562,4.83571 10.75562,10.78076zM31.24024,48.63436c-0.71709,0.15106 -1.46004,0.23188 -2.22141,0.23188c-0.84446,0 -1.66615,-0.0991 -2.4551,-0.28479v5.53133l1.42433,-0.60903c0.58445,-0.24727 1.24432,-0.24727 1.82854,0.00192l1.42365,0.60711zM35.09816,38.08452c0,-3.35979 -2.72713,-6.09418 -6.07933,-6.09418c-3.35209,0 -6.07933,2.7344 -6.07933,6.09418c0,3.35979 2.72724,6.09322 6.07933,6.09322c3.3522,0 6.07933,-2.73343 6.07933,-6.09322zM60.00005,37.98061v7.10443c0,4.13238 -3.3371,7.49409 -7.45113,7.52873c-0.01064,0.00096 -0.0206,0.00192 -0.03113,0.00192h-9.58672c-1.29124,0 -2.33814,-1.04873 -2.33814,-2.34281c0,-1.29408 1.04691,-2.34473 2.33814,-2.34473h2.42844c-0.35866,-0.87651 -0.55779,-1.83576 -0.55779,-2.84216v-37.55514c0,-1.56925 -1.27247,-2.84312 -2.83653,-2.84312h-0.17246c-1.56406,0 -2.83653,1.27387 -2.83653,2.84312v6.63587c0,1.29408 -1.04679,2.34377 -2.33826,2.34377l-24.50432,-0.00962v26.99952c0,1.90215 2.0208,3.34247 3.77289,4.07177c1.19259,0.4955 1.75781,1.86943 1.26251,3.06249c-0.37365,0.90249 -1.24363,1.44706 -2.16019,1.44706c-0.29926,0 -0.60287,-0.05869 -0.89607,-0.17992c-3.50327,-1.45956 -6.46843,-4.59806 -6.46843,-8.40139v-26.99952l-5.144,0.00962c-1.29135,0 -2.33826,-1.04969 -2.33826,-2.34377v-4.79145c0,-5.16861 4.19575,-9.37507 9.35291,-9.37507h32.47021c4.14265,0 7.51293,3.37807 7.51293,7.53066v28.10598h8.18356c1.29147,0 2.33837,1.04969 2.33837,2.34377zM34.56029,4.49916h-25.43953c-2.57858,0 -4.30229,2.29085 -4.30229,4.87612l-0.187,2.62471h29.92882l-0.28049,-4.46913c0,-1.00447 -0.07771,-2.1523 0.28049,-3.0317zM55.32353,40.32438h-5.84541v4.76066c0,1.56829 1.27247,2.84312 2.83653,2.84312h0.17246c1.56406,0 2.83642,-1.27483 2.83642,-2.84312z" fill="#ffffff" fill-opacity="1"></path><path d="M39.77444,38.08452c0,3.31649 -1.50112,6.28565 -3.85792,8.26669v11.30416c0,0.78607 -0.39356,1.51922 -1.04816,1.95314c-0.38841,0.25882 -0.83794,0.38967 -1.29021,0.38967c-0.30979,0 -0.62084,-0.06158 -0.91438,-0.18665l-3.76225,-1.60292l-3.76225,1.601c-0.72201,0.30788 -1.54953,0.23188 -2.20425,-0.20205c-0.65426,-0.43392 -1.04771,-1.16804 -1.04771,-1.95603v-11.50429c-2.22153,-1.97623 -3.62411,-4.85687 -3.62411,-8.06272c0,-5.94505 4.82494,-10.78076 10.75562,-10.78076c5.93079,0 10.75562,4.83571 10.75562,10.78076zM31.24024,48.63436c-0.71709,0.15106 -1.46004,0.23188 -2.22141,0.23188c-0.84446,0 -1.66615,-0.0991 -2.4551,-0.28479v5.53133l1.42433,-0.60903c0.58445,-0.24727 1.24432,-0.24727 1.82854,0.00192l1.42365,0.60711zM35.09816,38.08452c0,-3.35979 -2.72713,-6.09418 -6.07933,-6.09418c-3.35209,0 -6.07933,2.7344 -6.07933,6.09418c0,3.35979 2.72724,6.09322 6.07933,6.09322c3.3522,0 6.07933,-2.73343 6.07933,-6.09322zM60.00005,37.98061v7.10443c0,4.13238 -3.3371,7.49409 -7.45113,7.52873c-0.01064,0.00096 -0.0206,0.00192 -0.03113,0.00192h-9.58672c-1.29124,0 -2.33814,-1.04873 -2.33814,-2.34281c0,-1.29408 1.04691,-2.34473 2.33814,-2.34473h2.42844c-0.35866,-0.87651 -0.55779,-1.83576 -0.55779,-2.84216v-37.55514c0,-1.56925 -1.27247,-2.84312 -2.83653,-2.84312h-0.17246c-1.56406,0 -2.83653,1.27387 -2.83653,2.84312v6.63587c0,1.29408 -1.04679,2.34377 -2.33826,2.34377l-24.50432,-0.00962v26.99952c0,1.90215 2.0208,3.34247 3.77289,4.07177c1.19259,0.4955 1.75781,1.86943 1.26251,3.06249c-0.37365,0.90249 -1.24363,1.44706 -2.16019,1.44706c-0.29926,0 -0.60287,-0.05869 -0.89607,-0.17992c-3.50327,-1.45956 -6.46843,-4.59806 -6.46843,-8.40139v-26.99952l-5.144,0.00962c-1.29135,0 -2.33826,-1.04969 -2.33826,-2.34377v-4.79145c0,-5.16861 4.19575,-9.37507 9.35291,-9.37507h32.47021c4.14265,0 7.51293,3.37807 7.51293,7.53066v28.10598h8.18356c1.29147,0 2.33837,1.04969 2.33837,2.34377zM34.56029,4.49916h-25.43953c-2.57858,0 -4.30229,2.29085 -4.30229,4.87612l-0.187,2.62471h29.92882l-0.28049,-4.46913c0,-1.00447 -0.07771,-2.1523 0.28049,-3.0317zM55.32353,40.32438h-5.84541v4.76066c0,1.56829 1.27247,2.84312 2.83653,2.84312h0.17246c1.56406,0 2.83642,-1.27483 2.83642,-2.84312z" fill="url(#LinearGradient1139)"></path></g></g></svg>