<?xml version="1.0" encoding="UTF-8"?>
<svg id="SVGDoc" width="48" height="60" xmlns="http://www.w3.org/2000/svg" version="1.1" xmlns:xlink="http://www.w3.org/1999/xlink" xmlns:avocode="https://avocode.com/" viewBox="0 0 48 60"><defs><linearGradient id="LinearGradient1089" gradientUnits="userSpaceOnUse" x1="-0.0000095367431640625" y1="8.00009822845459" x2="47.999990463256836" y2="52.00021266937256"><stop stop-opacity="0" stop-color="#ffffff" offset="0"></stop><stop stop-opacity="1" stop-color="#028fea" offset="1"></stop></linearGradient></defs><desc>Generated with Avocode.</desc><g><g><title>Forma 1</title><path d="M43.26965,38.90619v-29.53091c0,-2.58527 -2.12208,-4.68754 -4.73042,-4.68754h-29.07852c-2.60834,0 -4.7303,2.10227 -4.7303,4.68754v41.24975c0,2.5843 2.12196,4.68754 4.7303,4.68754h29.07852c2.60834,0 4.73042,-2.10323 4.73042,-4.68754c0,-1.29311 1.05881,-2.34377 2.36515,-2.34377c1.30623,0 2.36515,1.05065 2.36515,2.34377c-0.00011,5.16861 -4.24404,9.37507 -9.46083,9.37507h-29.07841c-5.21656,0 -9.46072,-4.20647 -9.46072,-9.37507v-41.24975c0,-5.16861 4.24416,-9.37507 9.46072,-9.37507h29.07841c5.21667,0 9.46072,4.20647 9.46072,9.37507v29.53091c0,1.29408 -1.05892,2.34473 -2.36515,2.34473c-1.30623,0 -2.36515,-1.05065 -2.36504,-2.34473zM38.53912,16.40562c0,1.29504 -1.05881,2.34473 -2.36515,2.34473h-24.36127c-1.30634,0 -2.36526,-1.04969 -2.36526,-2.34473c0,-1.29311 1.05892,-2.34281 2.36526,-2.34281h24.36127c1.30611,0 2.36515,1.04969 2.36515,2.34281zM38.53912,25.7807c0,1.29504 -1.05881,2.34377 -2.36515,2.34377h-24.36127c-1.30634,0 -2.36526,-1.04873 -2.36526,-2.34377c0,-1.29311 1.05892,-2.34377 2.36526,-2.34377h24.36127c1.30611,0 2.36515,1.05065 2.36515,2.34377zM28.97334,35.15673c0,1.29311 -1.05881,2.34281 -2.36504,2.34281h-14.79561c-1.30634,0 -2.36526,-1.04969 -2.36526,-2.34281c0,-1.29504 1.05892,-2.34473 2.36526,-2.34473h14.79527c1.30634,0 2.36526,1.04969 2.36538,2.34473z" fill="#ffffff" fill-opacity="1"></path><path d="M43.26965,38.90619v-29.53091c0,-2.58527 -2.12208,-4.68754 -4.73042,-4.68754h-29.07852c-2.60834,0 -4.7303,2.10227 -4.7303,4.68754v41.24975c0,2.5843 2.12196,4.68754 4.7303,4.68754h29.07852c2.60834,0 4.73042,-2.10323 4.73042,-4.68754c0,-1.29311 1.05881,-2.34377 2.36515,-2.34377c1.30623,0 2.36515,1.05065 2.36515,2.34377c-0.00011,5.16861 -4.24404,9.37507 -9.46083,9.37507h-29.07841c-5.21656,0 -9.46072,-4.20647 -9.46072,-9.37507v-41.24975c0,-5.16861 4.24416,-9.37507 9.46072,-9.37507h29.07841c5.21667,0 9.46072,4.20647 9.46072,9.37507v29.53091c0,1.29408 -1.05892,2.34473 -2.36515,2.34473c-1.30623,0 -2.36515,-1.05065 -2.36504,-2.34473zM38.53912,16.40562c0,1.29504 -1.05881,2.34473 -2.36515,2.34473h-24.36127c-1.30634,0 -2.36526,-1.04969 -2.36526,-2.34473c0,-1.29311 1.05892,-2.34281 2.36526,-2.34281h24.36127c1.30611,0 2.36515,1.04969 2.36515,2.34281zM38.53912,25.7807c0,1.29504 -1.05881,2.34377 -2.36515,2.34377h-24.36127c-1.30634,0 -2.36526,-1.04873 -2.36526,-2.34377c0,-1.29311 1.05892,-2.34377 2.36526,-2.34377h24.36127c1.30611,0 2.36515,1.05065 2.36515,2.34377zM28.97334,35.15673c0,1.29311 -1.05881,2.34281 -2.36504,2.34281h-14.79561c-1.30634,0 -2.36526,-1.04969 -2.36526,-2.34281c0,-1.29504 1.05892,-2.34473 2.36526,-2.34473h14.79527c1.30634,0 2.36526,1.04969 2.36538,2.34473z" fill="url(#LinearGradient1089)"></path></g></g></svg>