<?xml version="1.0" encoding="UTF-8"?>
<svg id="SVGDoc" width="60" height="64" xmlns="http://www.w3.org/2000/svg" version="1.1" xmlns:xlink="http://www.w3.org/1999/xlink" xmlns:avocode="https://avocode.com/" viewBox="0 0 60 64"><defs><linearGradient id="LinearGradient1201" gradientUnits="userSpaceOnUse" x1="-3.2782554626464844e-7" y1="4.88527512550354" x2="59.999999672174454" y2="58.980058908462524"><stop stop-opacity="0" stop-color="#ffffff" offset="0"></stop><stop stop-opacity="1" stop-color="#0d225d" offset="1"></stop></linearGradient></defs><desc>Generated with Avocode.</desc><g><g><title>Shape 600</title><path d="M37.99999,63.88527c-0.25589,0 -0.51167,-0.09814 -0.70702,-0.29345l-3.29292,-3.28666l-3.29304,3.28666c-0.39059,0.39063 -1.02345,0.39063 -1.41403,0l-3.29304,-3.28666l-3.29292,3.28666c-0.39059,0.39063 -1.02345,0.39063 -1.41403,0l-3.29304,-3.28666l-3.29292,3.28666c-0.39059,0.39063 -1.02345,0.39063 -1.41403,0l-3.29304,-3.28666l-3.29292,3.28666c-0.39059,0.39063 -1.02345,0.39063 -1.41403,0l-5.00004,-4.99157c-0.18745,-0.18665 -0.29297,-0.44066 -0.29297,-0.70621v-46.93021c0,-2.75268 2.24316,-4.99253 5.00004,-4.99253h41.99993c2.75688,0 5.00004,2.23986 5.00004,4.99253v37.94384c0,1.65103 1.34571,2.9961 2.99995,2.9961c1.65436,0 3.00007,-1.34507 3.00007,-2.9961v-46.93021h-40.00008v1.99644h-1.99997v-2.9961c0,-0.55131 0.44781,-0.99774 0.99998,-0.99774h42.00005c0.55218,0 0.99998,0.44643 0.99998,0.99774v47.92988c0,2.75172 -2.24316,4.99157 -5.00004,4.99157h-8.99998v-1.99547h5.00354c-0.62979,-0.83509 -1.00349,-1.87296 -1.00349,-2.9961v-37.94384c0,-1.65199 -1.34571,-2.9961 -3.00007,-2.9961c-1.65424,0 -2.99995,1.34411 -2.99995,2.9961v46.93021c0,0.26555 -0.10551,0.51955 -0.29297,0.70621l-5.00004,4.99157c-0.19535,0.19531 -0.45113,0.29345 -0.70702,0.29345zM34.00005,57.89403c0.25589,0 0.51167,0.09718 0.7069,0.29249l3.29304,3.28859l4.00005,-3.99384v-46.51746c0,-1.12378 0.37342,-2.16192 1.00239,-2.9961h-38.0024c-1.65436,0 -3.00007,1.34411 -3.00007,2.9961v46.51746l4.00005,3.99384l3.29292,-3.28859c0.3907,-0.38967 1.02345,-0.38967 1.41403,0l3.29304,3.28859l3.29304,-3.28859c0.39059,-0.38967 1.02333,-0.38967 1.41392,0l3.29304,3.28859l3.29304,-3.28859c0.39059,-0.38967 1.02333,-0.38967 1.41392,0l3.29304,3.28859l3.29304,-3.28859c0.19524,-0.19531 0.45101,-0.29249 0.70702,-0.29249zM10.99995,53.89924h-1.99997v-1.99547h1.99997zM15,53.89924h-1.99997v-1.99547h1.99997zM19.00005,53.89924h-2.00008v-1.99547h2.00008zM22.99999,53.89924h-1.99997v-1.99547h1.99997zM27.00005,53.89924h-2.00008v-1.99547h2.00008zM30.99998,53.89924h-1.99997v-1.99547h1.99997zM35.00004,53.89924h-2.00008v-1.99547h2.00008zM38.99998,53.89924h-1.99997v-1.99547h1.99997zM21.00002,13.95992h-7.99999v-1.9974h7.99999zM38.99998,17.95375h-25.99995v-1.9974h25.99995zM10.99995,49.90636h-1.99997v-17.97467h1.99997zM7.00001,53.89924h-1.99997v-1.99547h1.99997zM7.00001,49.90636h-1.99997v-17.97467h1.99997zM15,49.90636h-1.99997v-7.98863h1.99997zM22.99999,49.90636h-1.99997v-19.9711h1.99997zM19.00005,49.90636h-2.00008v-13.97987h2.00008zM27.00005,49.90636h-2.00008v-11.98343h2.00008zM30.99998,49.90636h-1.99997v-17.97467h1.99997zM35.00004,49.90636h-2.00008v-9.98603h2.00008zM38.99998,49.90636h-1.99997v-21.9685h1.99997zM38.99998,13.95992h-15.99998v-1.9974h15.99998zM9.99996,17.95375h-3.99994c-0.55218,0 -0.99998,-0.44739 -0.99998,-0.9987v-3.99384c0,-0.55227 0.44781,-0.9987 0.99998,-0.9987h3.99994c0.55229,0 0.99998,0.44643 0.99998,0.9987v3.99384c0,0.55131 -0.44769,0.9987 -0.99998,0.9987zM7.00001,15.95635h1.99997v-1.99644h-1.99997z" fill="#028fea" fill-opacity="1"></path><path d="M37.99999,63.88527c-0.25589,0 -0.51167,-0.09814 -0.70702,-0.29345l-3.29292,-3.28666l-3.29304,3.28666c-0.39059,0.39063 -1.02345,0.39063 -1.41403,0l-3.29304,-3.28666l-3.29292,3.28666c-0.39059,0.39063 -1.02345,0.39063 -1.41403,0l-3.29304,-3.28666l-3.29292,3.28666c-0.39059,0.39063 -1.02345,0.39063 -1.41403,0l-3.29304,-3.28666l-3.29292,3.28666c-0.39059,0.39063 -1.02345,0.39063 -1.41403,0l-5.00004,-4.99157c-0.18745,-0.18665 -0.29297,-0.44066 -0.29297,-0.70621v-46.93021c0,-2.75268 2.24316,-4.99253 5.00004,-4.99253h41.99993c2.75688,0 5.00004,2.23986 5.00004,4.99253v37.94384c0,1.65103 1.34571,2.9961 2.99995,2.9961c1.65436,0 3.00007,-1.34507 3.00007,-2.9961v-46.93021h-40.00008v1.99644h-1.99997v-2.9961c0,-0.55131 0.44781,-0.99774 0.99998,-0.99774h42.00005c0.55218,0 0.99998,0.44643 0.99998,0.99774v47.92988c0,2.75172 -2.24316,4.99157 -5.00004,4.99157h-8.99998v-1.99547h5.00354c-0.62979,-0.83509 -1.00349,-1.87296 -1.00349,-2.9961v-37.94384c0,-1.65199 -1.34571,-2.9961 -3.00007,-2.9961c-1.65424,0 -2.99995,1.34411 -2.99995,2.9961v46.93021c0,0.26555 -0.10551,0.51955 -0.29297,0.70621l-5.00004,4.99157c-0.19535,0.19531 -0.45113,0.29345 -0.70702,0.29345zM34.00005,57.89403c0.25589,0 0.51167,0.09718 0.7069,0.29249l3.29304,3.28859l4.00005,-3.99384v-46.51746c0,-1.12378 0.37342,-2.16192 1.00239,-2.9961h-38.0024c-1.65436,0 -3.00007,1.34411 -3.00007,2.9961v46.51746l4.00005,3.99384l3.29292,-3.28859c0.3907,-0.38967 1.02345,-0.38967 1.41403,0l3.29304,3.28859l3.29304,-3.28859c0.39059,-0.38967 1.02333,-0.38967 1.41392,0l3.29304,3.28859l3.29304,-3.28859c0.39059,-0.38967 1.02333,-0.38967 1.41392,0l3.29304,3.28859l3.29304,-3.28859c0.19524,-0.19531 0.45101,-0.29249 0.70702,-0.29249zM10.99995,53.89924h-1.99997v-1.99547h1.99997zM15,53.89924h-1.99997v-1.99547h1.99997zM19.00005,53.89924h-2.00008v-1.99547h2.00008zM22.99999,53.89924h-1.99997v-1.99547h1.99997zM27.00005,53.89924h-2.00008v-1.99547h2.00008zM30.99998,53.89924h-1.99997v-1.99547h1.99997zM35.00004,53.89924h-2.00008v-1.99547h2.00008zM38.99998,53.89924h-1.99997v-1.99547h1.99997zM21.00002,13.95992h-7.99999v-1.9974h7.99999zM38.99998,17.95375h-25.99995v-1.9974h25.99995zM10.99995,49.90636h-1.99997v-17.97467h1.99997zM7.00001,53.89924h-1.99997v-1.99547h1.99997zM7.00001,49.90636h-1.99997v-17.97467h1.99997zM15,49.90636h-1.99997v-7.98863h1.99997zM22.99999,49.90636h-1.99997v-19.9711h1.99997zM19.00005,49.90636h-2.00008v-13.97987h2.00008zM27.00005,49.90636h-2.00008v-11.98343h2.00008zM30.99998,49.90636h-1.99997v-17.97467h1.99997zM35.00004,49.90636h-2.00008v-9.98603h2.00008zM38.99998,49.90636h-1.99997v-21.9685h1.99997zM38.99998,13.95992h-15.99998v-1.9974h15.99998zM9.99996,17.95375h-3.99994c-0.55218,0 -0.99998,-0.44739 -0.99998,-0.9987v-3.99384c0,-0.55227 0.44781,-0.9987 0.99998,-0.9987h3.99994c0.55229,0 0.99998,0.44643 0.99998,0.9987v3.99384c0,0.55131 -0.44769,0.9987 -0.99998,0.9987zM7.00001,15.95635h1.99997v-1.99644h-1.99997z" fill="url(#LinearGradient1201)"></path></g></g></svg>