<?xml version="1.0" encoding="UTF-8"?>
<svg id="SVGDoc" width="64" height="64" xmlns="http://www.w3.org/2000/svg" version="1.1" xmlns:xlink="http://www.w3.org/1999/xlink" xmlns:avocode="https://avocode.com/" viewBox="0 0 64 64"><defs><linearGradient id="LinearGradient1101" gradientUnits="userSpaceOnUse" x1="-0.00000762939453125" y1="2.9977723509073257" x2="63.99999237060547" y2="61.03146757185459"><stop stop-opacity="0" stop-color="#ffffff" offset="0"></stop><stop stop-opacity="1" stop-color="#0d225d" offset="1"></stop></linearGradient></defs><desc>Generated with Avocode.</desc><g><g><title>Shape 599</title><path d="M29.00002,54.0031h-1.99997c0,-2.2033 1.79386,-3.99672 3.99994,-3.99672h11.00006c0.71859,0 1.35014,-0.38141 1.70281,-0.95212l-0.00073,-0.00232l0.00267,-0.00083c0.18717,-0.30415 0.29522,-0.66182 0.29522,-1.04406c0,-1.10165 -0.89756,-1.99932 -1.99997,-1.99932h-9.17587l-10.99995,-3.99768h-7.82421v13.99238h4.17091l0.16205,0.05677l16.83792,5.94024h1.58501l24.62975,-12.80029c0.27454,-0.31462 0.61432,-0.84283 0.61432,-1.19209c0,-1.05547 -0.82317,-1.92428 -1.8623,-1.99451l-15.25738,4.76634c-0.72804,0.7554 -1.75005,1.22586 -2.88025,1.22586h-11.00006c-1.10252,0 -1.99997,0.89767 -1.99997,1.99836zM22.17579,40.01264l11.00006,3.99672h8.8242c2.20608,0 3.99994,1.7915 3.99994,3.99768c0,0.11394 -0.00479,0.22677 -0.01417,0.33831l14.01419,-4.33599c2.20608,0 4.00005,1.7915 4.00005,3.99768c0,1.37008 -1.15929,2.57276 -1.29204,2.70457l-0.24708,0.18184l-25.21683,13.10432h-2.41505l-0.16205,-0.0558l-16.83792,-5.94024h-3.82908c0,1.10165 -0.89756,1.99932 -1.99997,1.99932h-12.00005v-1.99932h12.00005v-17.9891h-12.00005v-2.00029h12.00005c1.10241,0 1.99997,0.89575 1.99997,2.00029zM9.99996,56.00242h-1.99997v-1.99932h1.99997zM6.00002,56.00242h-1.99997v-1.99932h1.99997zM32.99995,33.01598h2.00008c0,1.10069 0.89745,1.9974 1.99997,1.9974c1.10252,0 1.99997,-0.89671 1.99997,-1.9974c0,-0.64944 -1.42376,-1.64622 -2.40921,-2.08688c-0.59956,-0.26844 -3.59081,-1.71838 -3.59081,-3.91109c0,-1.86017 1.27649,-3.42665 3.00007,-3.87132v-2.12569h1.99997v2.12569c1.72354,0.44467 2.99995,2.01115 2.99995,3.87132h-1.99997c0,-1.10165 -0.89745,-1.99836 -1.99997,-1.99836c-1.10252,0 -1.99997,0.89671 -1.99997,1.99836c0,0.64848 1.42376,1.64526 2.40921,2.08592c0.59956,0.26844 3.5907,1.71934 3.5907,3.91205c0,1.85855 -1.27641,3.42614 -2.99995,3.8712v2.12485h-1.99997v-2.12485c-1.72357,-0.44506 -3.00007,-2.01265 -3.00007,-3.8712zM45,31.01473h-1.99997v-1.99836h1.99997zM30.99998,31.01473h-1.99997v-1.99836h1.99997zM28.10555,3.47737c-0.24719,-0.49454 -0.04692,-1.09395 0.44712,-1.34026l4.00005,-2.00029c0.2813,-0.14047 0.61329,-0.14047 0.89458,0l3.5527,1.77611l3.5527,-1.77611c0.2813,-0.14047 0.61329,-0.14047 0.89458,0l4.00005,2.00029c0.49404,0.24631 0.6942,0.84572 0.44712,1.34026l-3.45932,6.91558c0.93167,0.50991 1.56487,1.4998 1.56487,2.63364c0,0.53711 -0.14225,1.04187 -0.39111,1.47855c4.63419,1.46651 12.39105,6.72604 12.39105,21.50886v7.99537h-1.99997v-7.99537c0,-16.59785 -10.25391,-19.98938 -13.00003,-19.98938h-7.99999c-0.12989,0 -12.99992,0.2261 -12.99992,19.98938v1.99836h-2.00008v-1.99836c0,-16.0192 8.06516,-20.36967 12.36814,-21.55c-0.23459,-0.42712 -0.36809,-0.91709 -0.36809,-1.43741c0,-1.13386 0.63321,-2.12375 1.56486,-2.63366zM43.65818,3.47737l-2.65823,-1.32679l-3.55259,1.77322c-0.28141,0.14143 -0.6134,0.14143 -0.8947,0l-3.5527,-1.77322l-2.65812,1.32679l3.27633,6.54927h6.76369zM31.99997,13.02659c0,0.55034 0.44827,0.9987 0.99998,0.9987h7.99999c0.55183,0 1.0001,-0.44836 1.0001,-0.9987c0,-0.55227 -0.44827,-0.99966 -1.0001,-0.99966h-7.99999c-0.55172,0 -0.99998,0.44739 -0.99998,0.99966z" fill="#028fea" fill-opacity="1"></path><path d="M29.00002,54.0031h-1.99997c0,-2.2033 1.79386,-3.99672 3.99994,-3.99672h11.00006c0.71859,0 1.35014,-0.38141 1.70281,-0.95212l-0.00073,-0.00232l0.00267,-0.00083c0.18717,-0.30415 0.29522,-0.66182 0.29522,-1.04406c0,-1.10165 -0.89756,-1.99932 -1.99997,-1.99932h-9.17587l-10.99995,-3.99768h-7.82421v13.99238h4.17091l0.16205,0.05677l16.83792,5.94024h1.58501l24.62975,-12.80029c0.27454,-0.31462 0.61432,-0.84283 0.61432,-1.19209c0,-1.05547 -0.82317,-1.92428 -1.8623,-1.99451l-15.25738,4.76634c-0.72804,0.7554 -1.75005,1.22586 -2.88025,1.22586h-11.00006c-1.10252,0 -1.99997,0.89767 -1.99997,1.99836zM22.17579,40.01264l11.00006,3.99672h8.8242c2.20608,0 3.99994,1.7915 3.99994,3.99768c0,0.11394 -0.00479,0.22677 -0.01417,0.33831l14.01419,-4.33599c2.20608,0 4.00005,1.7915 4.00005,3.99768c0,1.37008 -1.15929,2.57276 -1.29204,2.70457l-0.24708,0.18184l-25.21683,13.10432h-2.41505l-0.16205,-0.0558l-16.83792,-5.94024h-3.82908c0,1.10165 -0.89756,1.99932 -1.99997,1.99932h-12.00005v-1.99932h12.00005v-17.9891h-12.00005v-2.00029h12.00005c1.10241,0 1.99997,0.89575 1.99997,2.00029zM9.99996,56.00242h-1.99997v-1.99932h1.99997zM6.00002,56.00242h-1.99997v-1.99932h1.99997zM32.99995,33.01598h2.00008c0,1.10069 0.89745,1.9974 1.99997,1.9974c1.10252,0 1.99997,-0.89671 1.99997,-1.9974c0,-0.64944 -1.42376,-1.64622 -2.40921,-2.08688c-0.59956,-0.26844 -3.59081,-1.71838 -3.59081,-3.91109c0,-1.86017 1.27649,-3.42665 3.00007,-3.87132v-2.12569h1.99997v2.12569c1.72354,0.44467 2.99995,2.01115 2.99995,3.87132h-1.99997c0,-1.10165 -0.89745,-1.99836 -1.99997,-1.99836c-1.10252,0 -1.99997,0.89671 -1.99997,1.99836c0,0.64848 1.42376,1.64526 2.40921,2.08592c0.59956,0.26844 3.5907,1.71934 3.5907,3.91205c0,1.85855 -1.27641,3.42614 -2.99995,3.8712v2.12485h-1.99997v-2.12485c-1.72357,-0.44506 -3.00007,-2.01265 -3.00007,-3.8712zM45,31.01473h-1.99997v-1.99836h1.99997zM30.99998,31.01473h-1.99997v-1.99836h1.99997zM28.10555,3.47737c-0.24719,-0.49454 -0.04692,-1.09395 0.44712,-1.34026l4.00005,-2.00029c0.2813,-0.14047 0.61329,-0.14047 0.89458,0l3.5527,1.77611l3.5527,-1.77611c0.2813,-0.14047 0.61329,-0.14047 0.89458,0l4.00005,2.00029c0.49404,0.24631 0.6942,0.84572 0.44712,1.34026l-3.45932,6.91558c0.93167,0.50991 1.56487,1.4998 1.56487,2.63364c0,0.53711 -0.14225,1.04187 -0.39111,1.47855c4.63419,1.46651 12.39105,6.72604 12.39105,21.50886v7.99537h-1.99997v-7.99537c0,-16.59785 -10.25391,-19.98938 -13.00003,-19.98938h-7.99999c-0.12989,0 -12.99992,0.2261 -12.99992,19.98938v1.99836h-2.00008v-1.99836c0,-16.0192 8.06516,-20.36967 12.36814,-21.55c-0.23459,-0.42712 -0.36809,-0.91709 -0.36809,-1.43741c0,-1.13386 0.63321,-2.12375 1.56486,-2.63366zM43.65818,3.47737l-2.65823,-1.32679l-3.55259,1.77322c-0.28141,0.14143 -0.6134,0.14143 -0.8947,0l-3.5527,-1.77322l-2.65812,1.32679l3.27633,6.54927h6.76369zM31.99997,13.02659c0,0.55034 0.44827,0.9987 0.99998,0.9987h7.99999c0.55183,0 1.0001,-0.44836 1.0001,-0.9987c0,-0.55227 -0.44827,-0.99966 -1.0001,-0.99966h-7.99999c-0.55172,0 -0.99998,0.44739 -0.99998,0.99966z" fill="url(#LinearGradient1101)"></path></g></g></svg>