<?xml version="1.0" encoding="UTF-8"?>
<svg id="SVGDoc" width="50" height="64" xmlns="http://www.w3.org/2000/svg" version="1.1" xmlns:xlink="http://www.w3.org/1999/xlink" xmlns:avocode="https://avocode.com/" viewBox="0 0 50 64"><defs><linearGradient id="LinearGradient1251" gradientUnits="userSpaceOnUse" x1="0" y1="8.999757904064609" x2="50" y2="55.000250000011874"><stop stop-opacity="0" stop-color="#ffffff" offset="0"></stop><stop stop-opacity="1" stop-color="#0d225d" offset="1"></stop></linearGradient></defs><desc>Generated with Avocode.</desc><g><g><title>Shape 602</title><path d="M28.00003,2.00054h-6.00002v2.21295c0.97999,-0.14077 1.98162,-0.21362 2.99995,-0.21362c1.01837,0 2.02004,0.07286 3.00007,0.21364zM20.00004,0.00025h9.99996v4.60099c2.32772,0.57062 4.50431,1.53036 6.4566,2.80603l3.6372,-2.72718l6.2265,6.226l-2.94725,3.93064c0.89097,1.60435 1.57789,3.33696 2.02546,5.16252l4.60152,0v10.00046h-4.60606c-0.44588,1.81209 -1.12955,3.54692 -2.0234,5.16178l2.94973,3.93235l-6.2265,6.226l-3.6304,-2.72208c-0.89534,0.58453 -1.8422,1.10484 -2.83551,1.55308l-0.82214,-1.82229c6.80031,-3.07018 11.19427,-9.87058 11.19427,-17.32907c0,-10.47576 -8.52345,-18.99934 -19.00005,-18.99934c-10.47661,0 -18.99994,8.52358 -18.99994,18.99934c0,7.46234 4.39648,14.26466 11.20068,17.33003l-0.82134,1.82421c-0.99604,-0.4488 -1.94539,-0.97003 -2.84295,-1.55578l-3.63006,2.72189l-6.22662,-6.226l2.94906,-3.93157c-0.8938,-1.61495 -1.57737,-3.35001 -2.02312,-5.16256h-4.60567v-10.00046l4.60151,0c0.44756,-1.82555 1.13446,-3.55814 2.02541,-5.16247l-2.94719,-3.9307l6.22662,-6.226l3.63707,2.72715c1.95229,-1.27567 4.12889,-2.2354 6.45662,-2.80602zM47.99995,28.0004v-6.00182h-2.21374c0.14087,0.9803 0.21377,1.98225 0.21377,3.00091c0,1.01337 -0.0734,2.01578 -0.21613,3.00091zM1.99997,21.99858v6.00182l2.21605,0c-0.14262,-0.98506 -0.21597,-1.98747 -0.21597,-3.00091c0,-1.01866 0.0729,-2.02061 0.21377,-3.00091zM10.0938,7.3202l-3.77346,3.77254l1.44235,1.92422c1.1484,-1.64698 2.52656,-3.12241 4.08763,-4.37944zM6.32034,38.90527l3.77346,3.77447l1.74921,-1.31184c-1.57074,-1.26551 -2.94289,-2.74486 -4.08156,-4.38408zM43.6797,11.09275l-3.77335,-3.77254l-1.75664,1.31737c1.56106,1.25703 2.93922,2.73245 4.08762,4.37942zM39.90635,42.67974l3.77335,-3.77447l-1.44178,-1.92233c-1.13868,1.63926 -2.51078,3.1188 -4.08138,4.38456zM24.99996,41.00081c-1.02508,0 -2.02796,-0.09693 -2.99995,-0.2821v18.28178c0,1.65488 1.34571,2.99898 2.99995,2.99898c1.65436,0 3.00007,-1.34411 3.00007,-2.99898v-18.2818c-0.97203,0.18518 -1.97495,0.28211 -3.00007,0.28211zM8.99998,24.99949c0,-8.82184 7.17773,-16.00036 15.99998,-16.00036c8.82236,0 15.99998,7.17851 15.99998,16.00036c0,7.07662 -4.61863,13.09641 -10.99995,15.20125v18.79975c0,2.75653 -2.24316,4.99927 -5.00004,4.99927c-2.75677,0 -4.99992,-2.24274 -4.99992,-4.99927v-18.79973c-6.38132,-2.10481 -11.00006,-8.12463 -11.00006,-15.20127zM24.99996,11.00038c-7.71961,0 -14.00002,6.27891 -14.00002,13.99911c0,7.71923 6.2804,14.00007 14.00002,14.00007c7.71973,0 14.00002,-6.28084 14.00002,-14.00007c0,-7.7202 -6.28029,-13.99911 -14.00002,-13.99911zM24.99996,35.99962c-6.06537,0 -10.99995,-4.93384 -10.99995,-11.00013c0,-6.06532 4.93458,-10.99916 10.99995,-10.99916c6.06548,0 11.00006,4.93384 11.00006,10.99916c0,6.06628 -4.93458,11.00013 -11.00006,11.00013zM24.99996,16.00061c-4.96239,0 -8.99998,4.03713 -8.99998,8.99888c0,4.96463 4.03759,9.0008 8.99998,9.0008c4.96239,0 9.00009,-4.03617 9.00009,-9.0008c0,-4.96175 -4.0377,-8.99888 -9.00009,-8.99888zM25.99995,50.00065h-1.99997v-1.99932h1.99997zM25.99995,54.00026h-1.99997v-2.00029h1.99997zM25.99995,57.99987h-1.99997v-2.00125h1.99997zM23.99998,29.41474l-4.70695,-4.70774l1.41403,-1.41338l3.29292,3.29244l5.29301,-5.29272l1.41403,1.41338zM1.99997,16.00061h-1.99997v-2.00029h1.99997zM1.99997,35.99962h-1.99997v-1.99932h1.99997zM15.99998,2.00054h-1.99997v-2.00029h1.99997zM36.00002,2.00054h-1.99997v-2.00029h1.99997zM50.00004,16.00061h-2.00008v-2.00029h2.00008zM50.00004,35.99962h-2.00008v-1.99932h2.00008z" fill="#028fea" fill-opacity="1"></path><path d="M28.00003,2.00054h-6.00002v2.21295c0.97999,-0.14077 1.98162,-0.21362 2.99995,-0.21362c1.01837,0 2.02004,0.07286 3.00007,0.21364zM20.00004,0.00025h9.99996v4.60099c2.32772,0.57062 4.50431,1.53036 6.4566,2.80603l3.6372,-2.72718l6.2265,6.226l-2.94725,3.93064c0.89097,1.60435 1.57789,3.33696 2.02546,5.16252l4.60152,0v10.00046h-4.60606c-0.44588,1.81209 -1.12955,3.54692 -2.0234,5.16178l2.94973,3.93235l-6.2265,6.226l-3.6304,-2.72208c-0.89534,0.58453 -1.8422,1.10484 -2.83551,1.55308l-0.82214,-1.82229c6.80031,-3.07018 11.19427,-9.87058 11.19427,-17.32907c0,-10.47576 -8.52345,-18.99934 -19.00005,-18.99934c-10.47661,0 -18.99994,8.52358 -18.99994,18.99934c0,7.46234 4.39648,14.26466 11.20068,17.33003l-0.82134,1.82421c-0.99604,-0.4488 -1.94539,-0.97003 -2.84295,-1.55578l-3.63006,2.72189l-6.22662,-6.226l2.94906,-3.93157c-0.8938,-1.61495 -1.57737,-3.35001 -2.02312,-5.16256h-4.60567v-10.00046l4.60151,0c0.44756,-1.82555 1.13446,-3.55814 2.02541,-5.16247l-2.94719,-3.9307l6.22662,-6.226l3.63707,2.72715c1.95229,-1.27567 4.12889,-2.2354 6.45662,-2.80602zM47.99995,28.0004v-6.00182h-2.21374c0.14087,0.9803 0.21377,1.98225 0.21377,3.00091c0,1.01337 -0.0734,2.01578 -0.21613,3.00091zM1.99997,21.99858v6.00182l2.21605,0c-0.14262,-0.98506 -0.21597,-1.98747 -0.21597,-3.00091c0,-1.01866 0.0729,-2.02061 0.21377,-3.00091zM10.0938,7.3202l-3.77346,3.77254l1.44235,1.92422c1.1484,-1.64698 2.52656,-3.12241 4.08763,-4.37944zM6.32034,38.90527l3.77346,3.77447l1.74921,-1.31184c-1.57074,-1.26551 -2.94289,-2.74486 -4.08156,-4.38408zM43.6797,11.09275l-3.77335,-3.77254l-1.75664,1.31737c1.56106,1.25703 2.93922,2.73245 4.08762,4.37942zM39.90635,42.67974l3.77335,-3.77447l-1.44178,-1.92233c-1.13868,1.63926 -2.51078,3.1188 -4.08138,4.38456zM24.99996,41.00081c-1.02508,0 -2.02796,-0.09693 -2.99995,-0.2821v18.28178c0,1.65488 1.34571,2.99898 2.99995,2.99898c1.65436,0 3.00007,-1.34411 3.00007,-2.99898v-18.2818c-0.97203,0.18518 -1.97495,0.28211 -3.00007,0.28211zM8.99998,24.99949c0,-8.82184 7.17773,-16.00036 15.99998,-16.00036c8.82236,0 15.99998,7.17851 15.99998,16.00036c0,7.07662 -4.61863,13.09641 -10.99995,15.20125v18.79975c0,2.75653 -2.24316,4.99927 -5.00004,4.99927c-2.75677,0 -4.99992,-2.24274 -4.99992,-4.99927v-18.79973c-6.38132,-2.10481 -11.00006,-8.12463 -11.00006,-15.20127zM24.99996,11.00038c-7.71961,0 -14.00002,6.27891 -14.00002,13.99911c0,7.71923 6.2804,14.00007 14.00002,14.00007c7.71973,0 14.00002,-6.28084 14.00002,-14.00007c0,-7.7202 -6.28029,-13.99911 -14.00002,-13.99911zM24.99996,35.99962c-6.06537,0 -10.99995,-4.93384 -10.99995,-11.00013c0,-6.06532 4.93458,-10.99916 10.99995,-10.99916c6.06548,0 11.00006,4.93384 11.00006,10.99916c0,6.06628 -4.93458,11.00013 -11.00006,11.00013zM24.99996,16.00061c-4.96239,0 -8.99998,4.03713 -8.99998,8.99888c0,4.96463 4.03759,9.0008 8.99998,9.0008c4.96239,0 9.00009,-4.03617 9.00009,-9.0008c0,-4.96175 -4.0377,-8.99888 -9.00009,-8.99888zM25.99995,50.00065h-1.99997v-1.99932h1.99997zM25.99995,54.00026h-1.99997v-2.00029h1.99997zM25.99995,57.99987h-1.99997v-2.00125h1.99997zM23.99998,29.41474l-4.70695,-4.70774l1.41403,-1.41338l3.29292,3.29244l5.29301,-5.29272l1.41403,1.41338zM1.99997,16.00061h-1.99997v-2.00029h1.99997zM1.99997,35.99962h-1.99997v-1.99932h1.99997zM15.99998,2.00054h-1.99997v-2.00029h1.99997zM36.00002,2.00054h-1.99997v-2.00029h1.99997zM50.00004,16.00061h-2.00008v-2.00029h2.00008zM50.00004,35.99962h-2.00008v-1.99932h2.00008z" fill="url(#LinearGradient1251)"></path></g></g></svg>