<?xml version="1.0" encoding="UTF-8"?>
<svg id="SVGDoc" width="64" height="60" xmlns="http://www.w3.org/2000/svg" version="1.1" xmlns:xlink="http://www.w3.org/1999/xlink" xmlns:avocode="https://avocode.com/" viewBox="0 0 64 60"><defs><linearGradient id="LinearGradient1151" gradientUnits="userSpaceOnUse" x1="-0.00001049041748046875" y1="1.0010662078857422" x2="63.99998950958252" y2="58.999250411987305"><stop stop-opacity="0" stop-color="#ffffff" offset="0"></stop><stop stop-opacity="1" stop-color="#0d225d" offset="1"></stop></linearGradient></defs><desc>Generated with Avocode.</desc><g><g><title>Shape 597</title><path d="M16.99997,60.00107c-0.26024,0 -0.51556,-0.10391 -0.70702,-0.29538l-9.70711,-9.70509h-1.58581c-2.75688,0 -5.00004,-2.24274 -5.00004,-5.00119v-31.99975c0,-2.75653 2.24316,-5.00023 5.00004,-5.00023h16.99997v2.00029h-16.99997c-1.65436,0 -3.00007,1.34603 -3.00007,2.99995v31.99975c0,1.65488 1.34571,2.99995 3.00007,2.99995h1.99997c0.26505,0 0.51945,0.10584 0.70702,0.29345l8.29296,8.29267v-7.5855c0,-0.55227 0.44781,-1.00062 0.99998,-1.00062h18.00007c1.65424,0 2.99995,-1.34507 2.99995,-2.99995v-10.00046c0,-0.55131 0.44781,-0.99966 0.99998,-0.99966h4.91215l-5.83099,-13.6056c-0.05379,-0.12412 -0.08114,-0.25785 -0.08114,-0.39255v-7.00148c0,-1.65392 -1.34571,-2.99995 -2.99995,-2.99995h-7.00001v-2.00029h7.00001c2.75677,0 4.99992,2.24371 4.99992,5.00023v6.79654l5.91888,13.80957c0.0539,0.12508 0.08114,0.25882 0.08114,0.39351v0.99966c0,0.55419 -0.44781,1.00159 -0.99998,1.00159h-5.00004v8.99888c0,2.75845 -2.24316,5.00119 -4.99992,5.00119h-17.00008v8.99984c0,0.40314 -0.24364,0.76875 -0.61718,0.92269c-0.12394,0.05196 -0.25383,0.07793 -0.3828,0.07793zM46.99997,51.99992c-0.12886,0 -0.25875,-0.02405 -0.3828,-0.07793c-0.37342,-0.15202 -0.61718,-0.51859 -0.61718,-0.92173v-9.0008h-3.99994v-2.00029h4.99992c0.55218,0 0.99998,0.44836 0.99998,0.99966v7.58742l8.29308,-8.29363c0.18745,-0.18665 0.44186,-0.29345 0.70702,-0.29345h1.99997c1.65424,0 2.99995,-1.34411 2.99995,-2.99898v-31.99975c0,-1.65584 -1.34571,-2.99995 -2.99995,-2.99995h-30c-1.65436,0 -3.00007,1.34411 -3.00007,2.99995v8.99888c0,0.13566 -0.02724,0.27036 -0.08102,0.39544l-5.83099,13.60463h4.91203c0.55229,0 0.99998,0.44932 0.99998,1.00062v8.00018c0,1.65488 1.34571,2.99898 3.00007,2.99898h7.00001v2.00029h-7.00001c-2.75677,0 -5.00004,-2.24274 -5.00004,-4.99927v-6.99956h-4.99992c-0.55229,0 -1.0001,-0.44836 -1.0001,-1.00062v-1.00062c0,-0.1347 0.02735,-0.26747 0.08114,-0.39351l5.91888,-13.81053v-8.79491c0,-2.75749 2.24327,-5.00119 5.00004,-5.00119h30c2.75677,0 5.00004,2.24371 5.00004,5.00119v31.99975c0,2.75653 -2.24327,4.99927 -5.00004,4.99927h-1.58592l-9.70711,9.70797c-0.19135,0.19147 -0.44666,0.29249 -0.70702,0.29249zM58.00003,9.99971h-14.00002v-2.00029h14.00002zM58.00003,13.99932h-14.00002v-1.99932h14.00002zM53.99998,17.99892h-9.99996v-1.99836h9.99996zM17.99995,16.00056h-11.99993v-2.00125h11.99993zM17.99995,20.00113h-11.99993v-2.00221h11.99993zM14.00002,23.99978h-7.99999v-1.99932h7.99999z" fill="#028fea" fill-opacity="1"></path><path d="M16.99997,60.00107c-0.26024,0 -0.51556,-0.10391 -0.70702,-0.29538l-9.70711,-9.70509h-1.58581c-2.75688,0 -5.00004,-2.24274 -5.00004,-5.00119v-31.99975c0,-2.75653 2.24316,-5.00023 5.00004,-5.00023h16.99997v2.00029h-16.99997c-1.65436,0 -3.00007,1.34603 -3.00007,2.99995v31.99975c0,1.65488 1.34571,2.99995 3.00007,2.99995h1.99997c0.26505,0 0.51945,0.10584 0.70702,0.29345l8.29296,8.29267v-7.5855c0,-0.55227 0.44781,-1.00062 0.99998,-1.00062h18.00007c1.65424,0 2.99995,-1.34507 2.99995,-2.99995v-10.00046c0,-0.55131 0.44781,-0.99966 0.99998,-0.99966h4.91215l-5.83099,-13.6056c-0.05379,-0.12412 -0.08114,-0.25785 -0.08114,-0.39255v-7.00148c0,-1.65392 -1.34571,-2.99995 -2.99995,-2.99995h-7.00001v-2.00029h7.00001c2.75677,0 4.99992,2.24371 4.99992,5.00023v6.79654l5.91888,13.80957c0.0539,0.12508 0.08114,0.25882 0.08114,0.39351v0.99966c0,0.55419 -0.44781,1.00159 -0.99998,1.00159h-5.00004v8.99888c0,2.75845 -2.24316,5.00119 -4.99992,5.00119h-17.00008v8.99984c0,0.40314 -0.24364,0.76875 -0.61718,0.92269c-0.12394,0.05196 -0.25383,0.07793 -0.3828,0.07793zM46.99997,51.99992c-0.12886,0 -0.25875,-0.02405 -0.3828,-0.07793c-0.37342,-0.15202 -0.61718,-0.51859 -0.61718,-0.92173v-9.0008h-3.99994v-2.00029h4.99992c0.55218,0 0.99998,0.44836 0.99998,0.99966v7.58742l8.29308,-8.29363c0.18745,-0.18665 0.44186,-0.29345 0.70702,-0.29345h1.99997c1.65424,0 2.99995,-1.34411 2.99995,-2.99898v-31.99975c0,-1.65584 -1.34571,-2.99995 -2.99995,-2.99995h-30c-1.65436,0 -3.00007,1.34411 -3.00007,2.99995v8.99888c0,0.13566 -0.02724,0.27036 -0.08102,0.39544l-5.83099,13.60463h4.91203c0.55229,0 0.99998,0.44932 0.99998,1.00062v8.00018c0,1.65488 1.34571,2.99898 3.00007,2.99898h7.00001v2.00029h-7.00001c-2.75677,0 -5.00004,-2.24274 -5.00004,-4.99927v-6.99956h-4.99992c-0.55229,0 -1.0001,-0.44836 -1.0001,-1.00062v-1.00062c0,-0.1347 0.02735,-0.26747 0.08114,-0.39351l5.91888,-13.81053v-8.79491c0,-2.75749 2.24327,-5.00119 5.00004,-5.00119h30c2.75677,0 5.00004,2.24371 5.00004,5.00119v31.99975c0,2.75653 -2.24327,4.99927 -5.00004,4.99927h-1.58592l-9.70711,9.70797c-0.19135,0.19147 -0.44666,0.29249 -0.70702,0.29249zM58.00003,9.99971h-14.00002v-2.00029h14.00002zM58.00003,13.99932h-14.00002v-1.99932h14.00002zM53.99998,17.99892h-9.99996v-1.99836h9.99996zM17.99995,16.00056h-11.99993v-2.00125h11.99993zM17.99995,20.00113h-11.99993v-2.00221h11.99993zM14.00002,23.99978h-7.99999v-1.99932h7.99999z" fill="url(#LinearGradient1151)"></path></g></g></svg>