<?xml version="1.0" encoding="UTF-8"?>
<svg id="SVGDoc" width="56" height="64" xmlns="http://www.w3.org/2000/svg" version="1.1" xmlns:xlink="http://www.w3.org/1999/xlink" xmlns:avocode="https://avocode.com/" viewBox="0 0 56 64"><defs><linearGradient id="LinearGradient1126" gradientUnits="userSpaceOnUse" x1="-0.0000209808349609375" y1="7.000675201416016" x2="55.99997901916504" y2="56.99924087524414"><stop stop-opacity="0" stop-color="#ffffff" offset="0"></stop><stop stop-opacity="1" stop-color="#0d225d" offset="1"></stop></linearGradient></defs><desc>Generated with Avocode.</desc><g><g><title>Shape 596</title><path d="M15.99998,31.99996c-1.02508,0 -2.02796,-0.09692 -2.99995,-0.28206v19.28237c0,1.65295 1.34571,2.99995 2.99995,2.99995c1.65436,0 3.00007,-1.34699 3.00007,-2.99995v-19.28238c-0.97203,0.18516 -1.97495,0.28208 -3.00007,0.28208zM0,16.00056c0,-8.82281 7.17773,-16.00132 15.99998,-16.00132c8.82236,0 15.99998,7.17851 15.99998,16.00132c0,7.07585 -4.61863,13.09487 -10.99995,15.19943v19.80027c0,2.75653 -2.24327,5.00023 -5.00004,5.00023c-2.75677,0 -5.00004,-2.24371 -5.00004,-5.00023l0,-19.80029c-6.38126,-2.10457 -10.99995,-8.12358 -10.99995,-15.19941zM15.99998,2.00049c-7.71973,0 -14.00002,6.27891 -14.00002,14.00007c0,7.71923 6.28029,14.00007 14.00002,14.00007c7.71973,0 14.00002,-6.28084 14.00002,-14.00007c0,-7.72116 -6.28029,-14.00007 -14.00002,-14.00007zM16.99997,41.99946h-1.99997v-2.00029h1.99997zM16.99997,46.00003h-1.99997v-1.99932h1.99997zM16.99997,50.0006h-1.99997v-2.00125h1.99997zM46.41415,64.00067h-31.41415v-6.00086h1.99997v4.00057h28.00003v-9.0008l8.99998,0v-45.00016h-22.00001v-2.00029h23.99998v48.41479zM46.99997,54.99987v5.58619l5.585,-5.58619zM23.99998,23.99978h-15.99998v-16.00036h12.00005v2.00029h-10.00008v12.00075h12.00005v-5.99989h1.99997zM15.99998,19.41519l-3.70697,-3.70808l1.41403,-1.41531l2.29294,2.29374l6.29299,-6.29238l1.41403,1.41434zM29.00002,38.99951h-6.00002v-5.99797h6.00002zM24.99996,37.00019h2.00008v-2.00125h-2.00008zM29.00002,46.99969h-6.00002v-6.00086h6.00002zM24.99996,44.99941h2.00008v-1.99932h-2.00008zM29.00002,54.99987h-6.00002v-5.99989h6.00002zM24.99996,52.99959h2.00008v-1.99932h-2.00008zM50.00004,34.99894h-19.00005v-1.9974h19.00005zM50.00004,38.99951h-19.00005v-1.99932h19.00005zM50.00004,43.00008h-19.00005v-2.00125h19.00005zM50.00004,46.99969h-19.00005v-2.00029h19.00005zM40.99995,54.99987h-9.99996v-2.00029h9.99996zM50.00004,51.00026h-19.00005v-2.00029h19.00005zM50.00004,29.00001h-19.00005v-1.99932h16.99997v-8.00114h-13.9999v-2.00029h15.99998zM50.00004,14.99994h-2.00008v-2.00029h2.00008zM45.99998,14.99994h-1.99997v-2.00029h1.99997zM42.00005,14.99994h-2.00008v-2.00029h2.00008z" fill="#028fea" fill-opacity="1"></path><path d="M15.99998,31.99996c-1.02508,0 -2.02796,-0.09692 -2.99995,-0.28206v19.28237c0,1.65295 1.34571,2.99995 2.99995,2.99995c1.65436,0 3.00007,-1.34699 3.00007,-2.99995v-19.28238c-0.97203,0.18516 -1.97495,0.28208 -3.00007,0.28208zM0,16.00056c0,-8.82281 7.17773,-16.00132 15.99998,-16.00132c8.82236,0 15.99998,7.17851 15.99998,16.00132c0,7.07585 -4.61863,13.09487 -10.99995,15.19943v19.80027c0,2.75653 -2.24327,5.00023 -5.00004,5.00023c-2.75677,0 -5.00004,-2.24371 -5.00004,-5.00023l0,-19.80029c-6.38126,-2.10457 -10.99995,-8.12358 -10.99995,-15.19941zM15.99998,2.00049c-7.71973,0 -14.00002,6.27891 -14.00002,14.00007c0,7.71923 6.28029,14.00007 14.00002,14.00007c7.71973,0 14.00002,-6.28084 14.00002,-14.00007c0,-7.72116 -6.28029,-14.00007 -14.00002,-14.00007zM16.99997,41.99946h-1.99997v-2.00029h1.99997zM16.99997,46.00003h-1.99997v-1.99932h1.99997zM16.99997,50.0006h-1.99997v-2.00125h1.99997zM46.41415,64.00067h-31.41415v-6.00086h1.99997v4.00057h28.00003v-9.0008l8.99998,0v-45.00016h-22.00001v-2.00029h23.99998v48.41479zM46.99997,54.99987v5.58619l5.585,-5.58619zM23.99998,23.99978h-15.99998v-16.00036h12.00005v2.00029h-10.00008v12.00075h12.00005v-5.99989h1.99997zM15.99998,19.41519l-3.70697,-3.70808l1.41403,-1.41531l2.29294,2.29374l6.29299,-6.29238l1.41403,1.41434zM29.00002,38.99951h-6.00002v-5.99797h6.00002zM24.99996,37.00019h2.00008v-2.00125h-2.00008zM29.00002,46.99969h-6.00002v-6.00086h6.00002zM24.99996,44.99941h2.00008v-1.99932h-2.00008zM29.00002,54.99987h-6.00002v-5.99989h6.00002zM24.99996,52.99959h2.00008v-1.99932h-2.00008zM50.00004,34.99894h-19.00005v-1.9974h19.00005zM50.00004,38.99951h-19.00005v-1.99932h19.00005zM50.00004,43.00008h-19.00005v-2.00125h19.00005zM50.00004,46.99969h-19.00005v-2.00029h19.00005zM40.99995,54.99987h-9.99996v-2.00029h9.99996zM50.00004,51.00026h-19.00005v-2.00029h19.00005zM50.00004,29.00001h-19.00005v-1.99932h16.99997v-8.00114h-13.9999v-2.00029h15.99998zM50.00004,14.99994h-2.00008v-2.00029h2.00008zM45.99998,14.99994h-1.99997v-2.00029h1.99997zM42.00005,14.99994h-2.00008v-2.00029h2.00008z" fill="url(#LinearGradient1126)"></path></g></g></svg>