<?xml version="1.0" encoding="UTF-8"?>
<svg id="SVGDoc" width="64" height="64" xmlns="http://www.w3.org/2000/svg" version="1.1" xmlns:xlink="http://www.w3.org/1999/xlink" xmlns:avocode="https://avocode.com/" viewBox="0 0 64 64"><defs><linearGradient id="LinearGradient1226" gradientUnits="userSpaceOnUse" x1="0.06794437766075134" y1="2.9872514605522156" x2="64.06794437766075" y2="61.078647792339325"><stop stop-opacity="0" stop-color="#ffffff" offset="0"></stop><stop stop-opacity="1" stop-color="#0d225d" offset="1"></stop></linearGradient></defs><desc>Generated with Avocode.</desc><g><g><title>Shape 598</title><path d="M59.69193,20.66698c-0.8979,-2.18694 -2.05547,-4.2642 -3.44685,-6.18655c-0.7093,0.37908 -1.48979,0.5744 -2.29992,0.5744c-2.75047,0 -4.98859,-2.23986 -4.98859,-4.99157c0,-0.81108 0.19684,-1.59234 0.57484,-2.30143c-1.66569,-1.21037 -3.44776,-2.24082 -5.31796,-3.07884c-0.89344,1.45764 -2.48898,2.38514 -4.23649,2.38514c-2.6984,0 -4.90334,-2.15711 -4.98619,-4.83859c-2.03831,-0.20686 -3.9529,-0.20686 -5.99121,0c-0.08274,2.68148 -2.28767,4.83859 -4.98619,4.83859c-1.74751,0 -3.34293,-0.9275 -4.23649,-2.38514c-1.87019,0.83802 -3.65227,1.86847 -5.31796,3.07884c0.37811,0.7091 0.57495,1.49035 0.57495,2.30143c0,2.75172 -2.23812,4.99157 -4.98871,4.99157c-0.81013,0 -1.5905,-0.19531 -2.29992,-0.5744c-1.39137,1.92235 -2.54894,3.99961 -3.44673,6.18655l-1.84536,-0.75913c1.0825,-2.63722 2.51862,-5.12531 4.26899,-7.39211l0.63137,-0.81782l0.79456,0.6581c0.38635,0.32039 1.02951,0.70236 1.89709,0.70236c1.65058,0 2.9932,-1.34314 2.9932,-2.99514c0,-0.86881 -0.38143,-1.51248 -0.70095,-1.89926l-0.65826,-0.79569l0.81654,-0.63116c2.26536,-1.75205 4.75044,-3.18949 7.38647,-4.27286l0.97343,-0.40121l0.34733,0.99485c0.42091,1.20267 1.5501,2.01183 2.81044,2.01183c1.65058,0 2.9932,-1.34411 2.9932,-2.99514c0,-0.16164 -0.01854,-0.33963 -0.05608,-0.54072l-0.19341,-1.03526l1.04359,-0.13855c2.85381,-0.37523 5.53528,-0.37523 8.38909,0l1.04347,0.13855l-0.19329,1.03526c-0.03754,0.20109 -0.05608,0.37908 -0.05608,0.54072c0,1.65103 1.34262,2.99514 2.99309,2.99514c1.26034,0 2.38964,-0.80916 2.81055,-2.01183l0.34733,-0.99485l0.97332,0.40121c2.63615,1.08337 5.12112,2.5208 7.38647,4.27286l0.81654,0.63116l-0.65815,0.79569c-0.31963,0.38678 -0.70107,1.03045 -0.70107,1.89926c0,1.65199 1.34262,2.99514 2.9932,2.99514c0.86758,0 1.51073,-0.38197 1.89709,-0.70236l0.79456,-0.6581l0.63137,0.81782c1.75037,2.2668 3.18661,4.75489 4.2691,7.39211zM31.99516,63.98725c-1.35624,0 -2.76752,-0.09621 -4.19449,-0.28383l-1.04359,-0.13759l0.19341,-1.03526c0.03754,-0.20301 0.05608,-0.38004 0.05608,-0.54072c0,-1.65199 -1.34262,-2.99514 -2.9932,-2.99514c-1.26034,0 -2.38953,0.80723 -2.81044,2.01183l-0.34733,0.99293l-0.97343,-0.40025c-2.63603,-1.08241 -5.12112,-2.52176 -7.38647,-4.27189l-0.81654,-0.63212l0.65826,-0.79665c0.31952,-0.38486 0.70095,-1.02853 0.70095,-1.8983c0,-1.65199 -1.34262,-2.99514 -2.9932,-2.99514c-0.86758,0 -1.51073,0.38101 -1.89709,0.7014l-0.79456,0.65906l-0.63137,-0.81782c-1.75037,-2.26584 -3.18649,-4.75392 -4.26899,-7.39211l1.84536,-0.76009c0.89779,2.1879 2.05536,4.26612 3.44673,6.18847c0.70942,-0.37908 1.48979,-0.57728 2.29992,-0.57728c2.75059,0 4.98871,2.24178 4.98871,4.9935c0,0.81204 -0.19684,1.5933 -0.57495,2.3024c1.66569,1.20845 3.44776,2.24082 5.31796,3.07884c0.89355,-1.45956 2.48898,-2.38514 4.23649,-2.38514c2.69852,0 4.90345,2.15519 4.98619,4.83667c2.03831,0.20782 3.9529,0.20782 5.99121,0c0.08286,-2.68148 2.28779,-4.83667 4.98619,-4.83667c1.74751,0 3.34305,0.92558 4.23649,2.38514c1.87019,-0.83802 3.65227,-1.8704 5.31796,-3.07884c-0.378,-0.7091 -0.57484,-1.49035 -0.57484,-2.3024c0,-2.75172 2.23812,-4.9935 4.98859,-4.9935c0.81013,0 1.59061,0.1982 2.29992,0.57728c1.39137,-1.92235 2.54894,-4.00057 3.44685,-6.18847l1.84536,0.76009c-1.0825,2.63818 -2.51873,5.12627 -4.2691,7.39211l-0.63137,0.81782l-0.79456,-0.65906c-0.38635,-0.32039 -1.02951,-0.7014 -1.89709,-0.7014c-1.65058,0 -2.9932,1.34314 -2.9932,2.99514c0,0.86977 0.38143,1.51344 0.70107,1.8983l0.65815,0.79665l-0.81654,0.63212c-2.26536,1.75013 -4.75033,3.18949 -7.38647,4.27189l-0.97332,0.40025l-0.34733,-0.99293c-0.42091,-1.2046 -1.55022,-2.01183 -2.81055,-2.01183c-1.65047,0 -2.99309,1.34314 -2.99309,2.99514c0,0.16068 0.01854,0.33771 0.05608,0.54072l0.19329,1.03526l-1.04347,0.13759c-1.42696,0.18762 -2.83825,0.28383 -4.1946,0.28383zM31.99516,50.00546c-17.35588,0 -31.12484,-16.63441 -31.70208,-17.34254c-0.30018,-0.36657 -0.30018,-0.89383 0,-1.26329c0.57724,-0.70813 14.3462,-17.34254 31.70208,-17.34254c17.356,0 31.12495,16.63441 31.70219,17.34254c0.30006,0.36946 0.30006,0.89671 0,1.26329c-0.57724,0.70813 -14.3462,17.34254 -31.70219,17.34254zM2.38449,32.0308c1.89198,2.129 8.53126,9.12325 17.34326,13.11661c-3.50092,-3.28196 -5.69168,-7.94786 -5.69168,-13.11661c0,-5.17159 2.19359,-9.83994 5.69847,-13.12211c-8.82034,3.99221 -15.45841,10.99264 -17.35004,13.12211zM61.60595,32.03176c-1.89202,-2.12827 -8.53102,-9.1225 -17.3427,-13.11612c3.50054,3.28181 5.69101,7.94722 5.69101,13.11516c0,5.17255 -2.19395,9.8415 -5.69935,13.12383c8.82079,-3.9917 15.45926,-10.99198 17.35104,-13.12287zM31.99516,16.05353c-8.80222,0 -15.96359,7.16889 -15.96359,15.97727c0,8.81126 7.16137,15.97823 15.96359,15.97823c8.80222,0 15.96359,-7.16697 15.96359,-15.97823c0,-8.80838 -7.16137,-15.97727 -15.96359,-15.97727zM31.99516,44.01519c-6.60164,0 -11.97269,-5.37643 -11.97269,-11.98439c0,-6.60604 5.37106,-11.98151 11.97269,-11.98151c6.60164,0 11.97269,5.37547 11.97269,11.98151c0,6.60796 -5.37106,11.98439 -11.97269,11.98439zM31.99516,22.04573c-5.50163,0 -9.97719,4.47972 -9.97719,9.98507c0,5.50728 4.47556,9.98699 9.97719,9.98699c5.50163,0 9.9773,-4.47972 9.9773,-9.98699c0,-5.50535 -4.47567,-9.98507 -9.9773,-9.98507zM27.00657,32.0308h-1.99551c0,-3.85336 3.13305,-6.98897 6.9841,-6.98897v1.9974c-2.75047,0 -4.98859,2.2389 -4.98859,4.99157zM32.99286,9.0636h-1.99539v-1.99547h1.99539zM44.96567,12.05969h-1.99551v-1.99644h1.99551zM21.02016,12.05969h-1.99539v-1.99644h1.99539zM32.99286,56.99636h-1.99539v-1.9974h1.99539zM44.96567,54.00026h-1.99551v-1.99644h1.99551zM21.02016,54.00026h-1.99539v-1.99644h1.99539z" fill="#028fea" fill-opacity="1"></path><path d="M59.69193,20.66698c-0.8979,-2.18694 -2.05547,-4.2642 -3.44685,-6.18655c-0.7093,0.37908 -1.48979,0.5744 -2.29992,0.5744c-2.75047,0 -4.98859,-2.23986 -4.98859,-4.99157c0,-0.81108 0.19684,-1.59234 0.57484,-2.30143c-1.66569,-1.21037 -3.44776,-2.24082 -5.31796,-3.07884c-0.89344,1.45764 -2.48898,2.38514 -4.23649,2.38514c-2.6984,0 -4.90334,-2.15711 -4.98619,-4.83859c-2.03831,-0.20686 -3.9529,-0.20686 -5.99121,0c-0.08274,2.68148 -2.28767,4.83859 -4.98619,4.83859c-1.74751,0 -3.34293,-0.9275 -4.23649,-2.38514c-1.87019,0.83802 -3.65227,1.86847 -5.31796,3.07884c0.37811,0.7091 0.57495,1.49035 0.57495,2.30143c0,2.75172 -2.23812,4.99157 -4.98871,4.99157c-0.81013,0 -1.5905,-0.19531 -2.29992,-0.5744c-1.39137,1.92235 -2.54894,3.99961 -3.44673,6.18655l-1.84536,-0.75913c1.0825,-2.63722 2.51862,-5.12531 4.26899,-7.39211l0.63137,-0.81782l0.79456,0.6581c0.38635,0.32039 1.02951,0.70236 1.89709,0.70236c1.65058,0 2.9932,-1.34314 2.9932,-2.99514c0,-0.86881 -0.38143,-1.51248 -0.70095,-1.89926l-0.65826,-0.79569l0.81654,-0.63116c2.26536,-1.75205 4.75044,-3.18949 7.38647,-4.27286l0.97343,-0.40121l0.34733,0.99485c0.42091,1.20267 1.5501,2.01183 2.81044,2.01183c1.65058,0 2.9932,-1.34411 2.9932,-2.99514c0,-0.16164 -0.01854,-0.33963 -0.05608,-0.54072l-0.19341,-1.03526l1.04359,-0.13855c2.85381,-0.37523 5.53528,-0.37523 8.38909,0l1.04347,0.13855l-0.19329,1.03526c-0.03754,0.20109 -0.05608,0.37908 -0.05608,0.54072c0,1.65103 1.34262,2.99514 2.99309,2.99514c1.26034,0 2.38964,-0.80916 2.81055,-2.01183l0.34733,-0.99485l0.97332,0.40121c2.63615,1.08337 5.12112,2.5208 7.38647,4.27286l0.81654,0.63116l-0.65815,0.79569c-0.31963,0.38678 -0.70107,1.03045 -0.70107,1.89926c0,1.65199 1.34262,2.99514 2.9932,2.99514c0.86758,0 1.51073,-0.38197 1.89709,-0.70236l0.79456,-0.6581l0.63137,0.81782c1.75037,2.2668 3.18661,4.75489 4.2691,7.39211zM31.99516,63.98725c-1.35624,0 -2.76752,-0.09621 -4.19449,-0.28383l-1.04359,-0.13759l0.19341,-1.03526c0.03754,-0.20301 0.05608,-0.38004 0.05608,-0.54072c0,-1.65199 -1.34262,-2.99514 -2.9932,-2.99514c-1.26034,0 -2.38953,0.80723 -2.81044,2.01183l-0.34733,0.99293l-0.97343,-0.40025c-2.63603,-1.08241 -5.12112,-2.52176 -7.38647,-4.27189l-0.81654,-0.63212l0.65826,-0.79665c0.31952,-0.38486 0.70095,-1.02853 0.70095,-1.8983c0,-1.65199 -1.34262,-2.99514 -2.9932,-2.99514c-0.86758,0 -1.51073,0.38101 -1.89709,0.7014l-0.79456,0.65906l-0.63137,-0.81782c-1.75037,-2.26584 -3.18649,-4.75392 -4.26899,-7.39211l1.84536,-0.76009c0.89779,2.1879 2.05536,4.26612 3.44673,6.18847c0.70942,-0.37908 1.48979,-0.57728 2.29992,-0.57728c2.75059,0 4.98871,2.24178 4.98871,4.9935c0,0.81204 -0.19684,1.5933 -0.57495,2.3024c1.66569,1.20845 3.44776,2.24082 5.31796,3.07884c0.89355,-1.45956 2.48898,-2.38514 4.23649,-2.38514c2.69852,0 4.90345,2.15519 4.98619,4.83667c2.03831,0.20782 3.9529,0.20782 5.99121,0c0.08286,-2.68148 2.28779,-4.83667 4.98619,-4.83667c1.74751,0 3.34305,0.92558 4.23649,2.38514c1.87019,-0.83802 3.65227,-1.8704 5.31796,-3.07884c-0.378,-0.7091 -0.57484,-1.49035 -0.57484,-2.3024c0,-2.75172 2.23812,-4.9935 4.98859,-4.9935c0.81013,0 1.59061,0.1982 2.29992,0.57728c1.39137,-1.92235 2.54894,-4.00057 3.44685,-6.18847l1.84536,0.76009c-1.0825,2.63818 -2.51873,5.12627 -4.2691,7.39211l-0.63137,0.81782l-0.79456,-0.65906c-0.38635,-0.32039 -1.02951,-0.7014 -1.89709,-0.7014c-1.65058,0 -2.9932,1.34314 -2.9932,2.99514c0,0.86977 0.38143,1.51344 0.70107,1.8983l0.65815,0.79665l-0.81654,0.63212c-2.26536,1.75013 -4.75033,3.18949 -7.38647,4.27189l-0.97332,0.40025l-0.34733,-0.99293c-0.42091,-1.2046 -1.55022,-2.01183 -2.81055,-2.01183c-1.65047,0 -2.99309,1.34314 -2.99309,2.99514c0,0.16068 0.01854,0.33771 0.05608,0.54072l0.19329,1.03526l-1.04347,0.13759c-1.42696,0.18762 -2.83825,0.28383 -4.1946,0.28383zM31.99516,50.00546c-17.35588,0 -31.12484,-16.63441 -31.70208,-17.34254c-0.30018,-0.36657 -0.30018,-0.89383 0,-1.26329c0.57724,-0.70813 14.3462,-17.34254 31.70208,-17.34254c17.356,0 31.12495,16.63441 31.70219,17.34254c0.30006,0.36946 0.30006,0.89671 0,1.26329c-0.57724,0.70813 -14.3462,17.34254 -31.70219,17.34254zM2.38449,32.0308c1.89198,2.129 8.53126,9.12325 17.34326,13.11661c-3.50092,-3.28196 -5.69168,-7.94786 -5.69168,-13.11661c0,-5.17159 2.19359,-9.83994 5.69847,-13.12211c-8.82034,3.99221 -15.45841,10.99264 -17.35004,13.12211zM61.60595,32.03176c-1.89202,-2.12827 -8.53102,-9.1225 -17.3427,-13.11612c3.50054,3.28181 5.69101,7.94722 5.69101,13.11516c0,5.17255 -2.19395,9.8415 -5.69935,13.12383c8.82079,-3.9917 15.45926,-10.99198 17.35104,-13.12287zM31.99516,16.05353c-8.80222,0 -15.96359,7.16889 -15.96359,15.97727c0,8.81126 7.16137,15.97823 15.96359,15.97823c8.80222,0 15.96359,-7.16697 15.96359,-15.97823c0,-8.80838 -7.16137,-15.97727 -15.96359,-15.97727zM31.99516,44.01519c-6.60164,0 -11.97269,-5.37643 -11.97269,-11.98439c0,-6.60604 5.37106,-11.98151 11.97269,-11.98151c6.60164,0 11.97269,5.37547 11.97269,11.98151c0,6.60796 -5.37106,11.98439 -11.97269,11.98439zM31.99516,22.04573c-5.50163,0 -9.97719,4.47972 -9.97719,9.98507c0,5.50728 4.47556,9.98699 9.97719,9.98699c5.50163,0 9.9773,-4.47972 9.9773,-9.98699c0,-5.50535 -4.47567,-9.98507 -9.9773,-9.98507zM27.00657,32.0308h-1.99551c0,-3.85336 3.13305,-6.98897 6.9841,-6.98897v1.9974c-2.75047,0 -4.98859,2.2389 -4.98859,4.99157zM32.99286,9.0636h-1.99539v-1.99547h1.99539zM44.96567,12.05969h-1.99551v-1.99644h1.99551zM21.02016,12.05969h-1.99539v-1.99644h1.99539zM32.99286,56.99636h-1.99539v-1.9974h1.99539zM44.96567,54.00026h-1.99551v-1.99644h1.99551zM21.02016,54.00026h-1.99539v-1.99644h1.99539z" fill="url(#LinearGradient1226)"></path></g></g></svg>