<?xml version="1.0" encoding="UTF-8"?>
<svg id="SVGDoc" width="64" height="62" xmlns="http://www.w3.org/2000/svg" version="1.1" xmlns:xlink="http://www.w3.org/1999/xlink" xmlns:avocode="https://avocode.com/" viewBox="0 0 64 62"><defs><linearGradient id="LinearGradient1176" gradientUnits="userSpaceOnUse" x1="0" y1="1.99949312210083" x2="64" y2="60.000248432159424"><stop stop-opacity="0" stop-color="#ffffff" offset="0"></stop><stop stop-opacity="1" stop-color="#0d225d" offset="1"></stop></linearGradient></defs><desc>Generated with Avocode.</desc><g><g><title>Shape 601</title><path d="M14.00002,42.00143c-1.06342,0 -2.0455,-0.31175 -2.89405,-0.86987l-5.10594,3.40318v1.46534c0,1.22384 0.70313,2.00125 0.99998,2.00125h14.00002c0.29686,0 0.99998,-0.77741 0.99998,-2.00125v-1.46534l-5.10594,-3.40318c-0.84855,0.55812 -1.83063,0.86987 -2.89405,0.86987zM7.99999,34.49964c0,-3.02689 0.68161,-6.49924 6.00002,-6.49924c5.31841,0 6.00002,3.47236 6.00002,6.49924c0,2.06891 -0.60386,3.89206 -1.61476,5.22288l5.6147,3.74232v2.53523c0,2.16866 -1.37398,4.00057 -2.99995,4.00057h-14.00002c-1.62598,0 -2.99995,-1.83191 -2.99995,-4.00057v-2.53523l5.61466,-3.74237c-1.01087,-1.33082 -1.61472,-3.15395 -1.61472,-5.22284zM14.00002,29.99972c-3.02834,0 -4.00005,1.09491 -4.00005,4.49992c0,2.66705 1.40236,5.50054 4.00005,5.50054c2.59769,0 3.99994,-2.8335 3.99994,-5.50054c0,-3.40501 -0.9716,-4.49992 -3.99994,-4.49992zM23.99998,61.99948c-0.15232,0 -0.30464,-0.03271 -0.44724,-0.10487l-15.78907,-7.89434h-4.76372c-1.65424,0 -2.99995,-1.34507 -2.99995,-3.00091v-23.99957c0,-1.65488 1.34571,-2.99898 2.99995,-2.99898h22.00001c1.65436,0 3.00007,1.34411 3.00007,2.99898v23.99957c0,1.65584 -1.34571,3.00091 -3.00007,3.00091h-3.38173l3.27621,6.55216c0.19249,0.38582 0.1173,0.85053 -0.18745,1.15457c-0.19238,0.19243 -0.44815,0.29249 -0.70702,0.29249zM2.99995,25.99915c-0.55172,0 -0.99998,0.44932 -0.99998,1.00062v23.99957c0,0.55323 0.44827,1.00062 0.99998,1.00062h5.00004c0.1553,0 0.30865,0.0356 0.44735,0.10487l13.31635,6.65896l-2.65823,-5.31678c-0.1553,-0.30981 -0.1387,-0.67735 0.04395,-0.97176c0.18265,-0.29634 0.50388,-0.4753 0.85064,-0.4753h4.99992c0.55183,0 0.99998,-0.44739 0.99998,-1.00062v-23.99957c0,-0.55131 -0.44815,-1.00062 -0.99998,-1.00062zM50.00004,31.99905c-1.06304,0 -2.04477,-0.31123 -2.89309,-0.86858l-5.1069,3.40478v1.46437c0,1.22384 0.70301,2.00029 0.99998,2.00029h14.00002c0.29686,0 0.99998,-0.77645 0.99998,-2.00029v-1.46437l-5.10699,-3.40477c-0.8483,0.55735 -1.83001,0.86857 -2.893,0.86857zM44.00002,24.49918c0,-3.02496 0.68161,-6.49924 6.00002,-6.49924c5.31841,0 5.99991,3.47428 5.99991,6.49924c0,2.06931 -0.6038,3.89196 -1.6146,5.2222l5.61465,3.74397v2.53427c0,2.1677 -1.37398,4.00057 -2.99995,4.00057h-14.00002c-1.62598,0 -3.00007,-1.83287 -3.00007,-4.00057v-2.53427l5.61466,-3.74397c-1.01081,-1.33023 -1.61461,-3.15289 -1.61461,-5.22219zM50.00004,19.99926c-3.02834,0 -4.00005,1.09491 -4.00005,4.49992c0,2.66705 1.40236,5.50054 4.00005,5.50054c2.59769,0 3.99994,-2.8335 3.99994,-5.50054c0,-3.40501 -0.97172,-4.49992 -3.99994,-4.49992zM39.99996,51.99997c-0.25875,0 -0.51453,-0.10006 -0.70702,-0.29345c-0.30464,-0.30404 -0.37983,-0.76875 -0.18745,-1.1536l3.27633,-6.55312h-3.38184c-1.65424,0 -2.99995,-1.34603 -2.99995,-2.99898v-9.00176h1.99997v9.00176c0,0.55034 0.44815,1.00062 0.99998,1.00062h5.00004c0.34664,0 0.66799,0.178 0.85064,0.47337c0.18253,0.29538 0.19913,0.66195 0.04383,0.97368l-2.65823,5.31485l13.31646,-6.658c0.1387,-0.07024 0.29194,-0.10391 0.44724,-0.10391h5.00004c0.55183,0 0.99998,-0.45028 0.99998,-1.00062v-24.00054c0,-0.55323 -0.44815,-0.99966 -0.99998,-0.99966h-16.99997v-2.00029h16.99997c1.65436,0 3.00007,1.34507 3.00007,2.99995v24.00054c0,1.65295 -1.34571,2.99898 -3.00007,2.99898h-4.76372l-15.78896,7.89531c-0.14259,0.0712 -0.29503,0.10487 -0.44735,0.10487zM28.00003,17.99994c-1.063,0 -2.04471,-0.3113 -2.89301,-0.86871l-5.10699,3.40395v1.46341h-2.00008v-2.53235l5.61442,-3.74466c-1.01067,-1.33031 -1.61437,-3.15283 -1.61437,-5.22151c0,-3.02592 0.68161,-6.50021 6.00002,-6.50021c5.31841,0 6.00002,3.47428 6.00002,6.50021c0,2.0687 -0.60374,3.89122 -1.61444,5.22154l5.61438,3.74462v2.53235c0,2.16962 -1.37398,4.00057 -2.99995,4.00057h-5.00004v-1.99836h5.00004c0.29686,0 0.99998,-0.77645 0.99998,-2.00221v-1.46341l-5.10706,-3.40393c-0.84829,0.55741 -1.82998,0.8687 -2.89293,0.8687zM28.00003,6.00015c-3.02834,0 -4.00005,1.09395 -4.00005,4.49992c0,2.66608 1.40236,5.50054 4.00005,5.50054c2.59769,0 3.99994,-2.83446 3.99994,-5.50054c0,-3.40597 -0.97172,-4.49992 -3.99994,-4.49992zM30.83302,35.55607l-1.66409,-1.10935l3.99902,-6.00086c0.18551,-0.27902 0.49805,-0.44547 0.8321,-0.44547h4.99992c0.55183,0 0.99998,-0.44739 0.99998,-1.00062v-23.99957c0,-0.55131 -0.44815,-0.99966 -0.99998,-0.99966h-22.00001c-0.55172,0 -0.99998,0.44836 -0.99998,0.99966v18.99838h-1.99997v-18.99838c0,-1.65488 1.34571,-2.99995 2.99995,-2.99995h22.00001c1.65436,0 3.00007,1.34507 3.00007,2.99995v23.99957c0,1.65488 -1.34571,2.99995 -3.00007,2.99995h-4.4648zM40.99995,57.99987h-1.99997v-2.00125h1.99997zM37.00001,57.99987h-1.99997v-2.00125h1.99997zM32.99995,57.99987h-1.99997v-2.00125h1.99997zM45,57.99987h-1.99997v-2.00125h1.99997z" fill="#028fea" fill-opacity="1"></path><path d="M14.00002,42.00143c-1.06342,0 -2.0455,-0.31175 -2.89405,-0.86987l-5.10594,3.40318v1.46534c0,1.22384 0.70313,2.00125 0.99998,2.00125h14.00002c0.29686,0 0.99998,-0.77741 0.99998,-2.00125v-1.46534l-5.10594,-3.40318c-0.84855,0.55812 -1.83063,0.86987 -2.89405,0.86987zM7.99999,34.49964c0,-3.02689 0.68161,-6.49924 6.00002,-6.49924c5.31841,0 6.00002,3.47236 6.00002,6.49924c0,2.06891 -0.60386,3.89206 -1.61476,5.22288l5.6147,3.74232v2.53523c0,2.16866 -1.37398,4.00057 -2.99995,4.00057h-14.00002c-1.62598,0 -2.99995,-1.83191 -2.99995,-4.00057v-2.53523l5.61466,-3.74237c-1.01087,-1.33082 -1.61472,-3.15395 -1.61472,-5.22284zM14.00002,29.99972c-3.02834,0 -4.00005,1.09491 -4.00005,4.49992c0,2.66705 1.40236,5.50054 4.00005,5.50054c2.59769,0 3.99994,-2.8335 3.99994,-5.50054c0,-3.40501 -0.9716,-4.49992 -3.99994,-4.49992zM23.99998,61.99948c-0.15232,0 -0.30464,-0.03271 -0.44724,-0.10487l-15.78907,-7.89434h-4.76372c-1.65424,0 -2.99995,-1.34507 -2.99995,-3.00091v-23.99957c0,-1.65488 1.34571,-2.99898 2.99995,-2.99898h22.00001c1.65436,0 3.00007,1.34411 3.00007,2.99898v23.99957c0,1.65584 -1.34571,3.00091 -3.00007,3.00091h-3.38173l3.27621,6.55216c0.19249,0.38582 0.1173,0.85053 -0.18745,1.15457c-0.19238,0.19243 -0.44815,0.29249 -0.70702,0.29249zM2.99995,25.99915c-0.55172,0 -0.99998,0.44932 -0.99998,1.00062v23.99957c0,0.55323 0.44827,1.00062 0.99998,1.00062h5.00004c0.1553,0 0.30865,0.0356 0.44735,0.10487l13.31635,6.65896l-2.65823,-5.31678c-0.1553,-0.30981 -0.1387,-0.67735 0.04395,-0.97176c0.18265,-0.29634 0.50388,-0.4753 0.85064,-0.4753h4.99992c0.55183,0 0.99998,-0.44739 0.99998,-1.00062v-23.99957c0,-0.55131 -0.44815,-1.00062 -0.99998,-1.00062zM50.00004,31.99905c-1.06304,0 -2.04477,-0.31123 -2.89309,-0.86858l-5.1069,3.40478v1.46437c0,1.22384 0.70301,2.00029 0.99998,2.00029h14.00002c0.29686,0 0.99998,-0.77645 0.99998,-2.00029v-1.46437l-5.10699,-3.40477c-0.8483,0.55735 -1.83001,0.86857 -2.893,0.86857zM44.00002,24.49918c0,-3.02496 0.68161,-6.49924 6.00002,-6.49924c5.31841,0 5.99991,3.47428 5.99991,6.49924c0,2.06931 -0.6038,3.89196 -1.6146,5.2222l5.61465,3.74397v2.53427c0,2.1677 -1.37398,4.00057 -2.99995,4.00057h-14.00002c-1.62598,0 -3.00007,-1.83287 -3.00007,-4.00057v-2.53427l5.61466,-3.74397c-1.01081,-1.33023 -1.61461,-3.15289 -1.61461,-5.22219zM50.00004,19.99926c-3.02834,0 -4.00005,1.09491 -4.00005,4.49992c0,2.66705 1.40236,5.50054 4.00005,5.50054c2.59769,0 3.99994,-2.8335 3.99994,-5.50054c0,-3.40501 -0.97172,-4.49992 -3.99994,-4.49992zM39.99996,51.99997c-0.25875,0 -0.51453,-0.10006 -0.70702,-0.29345c-0.30464,-0.30404 -0.37983,-0.76875 -0.18745,-1.1536l3.27633,-6.55312h-3.38184c-1.65424,0 -2.99995,-1.34603 -2.99995,-2.99898v-9.00176h1.99997v9.00176c0,0.55034 0.44815,1.00062 0.99998,1.00062h5.00004c0.34664,0 0.66799,0.178 0.85064,0.47337c0.18253,0.29538 0.19913,0.66195 0.04383,0.97368l-2.65823,5.31485l13.31646,-6.658c0.1387,-0.07024 0.29194,-0.10391 0.44724,-0.10391h5.00004c0.55183,0 0.99998,-0.45028 0.99998,-1.00062v-24.00054c0,-0.55323 -0.44815,-0.99966 -0.99998,-0.99966h-16.99997v-2.00029h16.99997c1.65436,0 3.00007,1.34507 3.00007,2.99995v24.00054c0,1.65295 -1.34571,2.99898 -3.00007,2.99898h-4.76372l-15.78896,7.89531c-0.14259,0.0712 -0.29503,0.10487 -0.44735,0.10487zM28.00003,17.99994c-1.063,0 -2.04471,-0.3113 -2.89301,-0.86871l-5.10699,3.40395v1.46341h-2.00008v-2.53235l5.61442,-3.74466c-1.01067,-1.33031 -1.61437,-3.15283 -1.61437,-5.22151c0,-3.02592 0.68161,-6.50021 6.00002,-6.50021c5.31841,0 6.00002,3.47428 6.00002,6.50021c0,2.0687 -0.60374,3.89122 -1.61444,5.22154l5.61438,3.74462v2.53235c0,2.16962 -1.37398,4.00057 -2.99995,4.00057h-5.00004v-1.99836h5.00004c0.29686,0 0.99998,-0.77645 0.99998,-2.00221v-1.46341l-5.10706,-3.40393c-0.84829,0.55741 -1.82998,0.8687 -2.89293,0.8687zM28.00003,6.00015c-3.02834,0 -4.00005,1.09395 -4.00005,4.49992c0,2.66608 1.40236,5.50054 4.00005,5.50054c2.59769,0 3.99994,-2.83446 3.99994,-5.50054c0,-3.40597 -0.97172,-4.49992 -3.99994,-4.49992zM30.83302,35.55607l-1.66409,-1.10935l3.99902,-6.00086c0.18551,-0.27902 0.49805,-0.44547 0.8321,-0.44547h4.99992c0.55183,0 0.99998,-0.44739 0.99998,-1.00062v-23.99957c0,-0.55131 -0.44815,-0.99966 -0.99998,-0.99966h-22.00001c-0.55172,0 -0.99998,0.44836 -0.99998,0.99966v18.99838h-1.99997v-18.99838c0,-1.65488 1.34571,-2.99995 2.99995,-2.99995h22.00001c1.65436,0 3.00007,1.34507 3.00007,2.99995v23.99957c0,1.65488 -1.34571,2.99995 -3.00007,2.99995h-4.4648zM40.99995,57.99987h-1.99997v-2.00125h1.99997zM37.00001,57.99987h-1.99997v-2.00125h1.99997zM32.99995,57.99987h-1.99997v-2.00125h1.99997zM45,57.99987h-1.99997v-2.00125h1.99997z" fill="url(#LinearGradient1176)"></path></g></g></svg>