<?xml version="1.0" encoding="UTF-8"?>
<svg id="SVGDoc" width="64" height="64"
  xmlns="http://www.w3.org/2000/svg" version="1.1"
  xmlns:xlink="http://www.w3.org/1999/xlink"
  xmlns:avocode="https://avocode.com/" viewBox="0 0 64 64">
  <defs>
    <linearGradient id="LinearGradient1076" gradientUnits="userSpaceOnUse" x1="-4.76837158203125e-7" y1="3.000669479370117" x2="63.99999952316284" y2="60.99923515319824">
      <stop stop-opacity="0" stop-color="#ffffff" offset="0"></stop>
      <stop stop-opacity="1" stop-color="#0d225d" offset="1"></stop>
    </linearGradient>
  </defs>
  <desc>Generated with Avocode.</desc>
  <g>
    <g>
      <title>Shape 588</title>
      <path d="M50.00004,64.00067h-48.00007l0,-10.00046h-1.99997v-2.00029l1.99997,0l0,-1.99932h-1.99997v-2.00125l1.99997,0l0,-1.99932h-1.99997v-1.99932h1.99997v-2.00125h-1.99997v-2.00029h1.99997l0,-15.9994h-1.99997v-1.99932l1.99997,0l0,-1.99932h-1.99997v-2.00221l1.99997,0v-1.99836h-1.99997v-2.00125l1.99997,0l0,-1.99932h-1.99997v-2.00029l1.99997,0v-10.00046h48.00007zM4.00005,62.00039h5.99991l0,-59.9999h-5.99991v7.99922h3.99994v2.00029h-3.99994v1.99932h3.99994v2.00125h-3.99994v1.99836h3.99994v2.00221h-3.99994v1.99932h3.99994v1.99932h-3.99994v15.9994h3.99994v2.00029l-3.99994,0v2.00125h3.99994v1.99932l-3.99994,0v1.99932h3.99994v2.00125l-3.99994,0v1.99932h3.99994v2.00029h-3.99994zM47.99995,62.00039v-59.9999l-35.99991,0v59.9999zM58.00003,7.99942l-4.00005,0v30.00043l4.00005,0zM53.99998,51.00026h4.00005v-11.00109h-4.00005zM52.00001,-0.00076h7.99999l0,11.00013h4.00005v17.00002h-2.00008v-14.99973h-1.99997v45.00016c0,0.18088 -0.04875,0.35984 -0.14259,0.51474l-2.99995,4.99927c-0.1807,0.30115 -0.50583,0.48684 -0.85751,0.48684c-0.35156,0 -0.6768,-0.18569 -0.85739,-0.48684l-2.99995,-4.99927c-0.09384,-0.1549 -0.14259,-0.33386 -0.14259,-0.51474zM53.99998,5.99914h4.00005v-3.99865h-4.00005zM53.99998,57.72368l1.99997,3.33285l2.00008,-3.33285v-4.7241h-4.00005zM35.00004,33.00154h-2.00008v-2.00125h2.00008zM30.99998,33.00154h-1.99997v-2.00125h1.99997zM27.00005,33.00154h-2.00008v-2.00125h2.00008zM44.00002,39.99917h-28.00003v-15.9994h28.00003zM17.99995,37.99985h24.00009v-11.99979h-24.00009zM44.00002,7.99942h-28.00003v-2.00029h28.00003zM44.00002,57.99982h-28.00003v-1.99932h28.00003z" fill="#028fea" fill-opacity="1"></path>
      <path d="M50.00004,64.00067h-48.00007l0,-10.00046h-1.99997v-2.00029l1.99997,0l0,-1.99932h-1.99997v-2.00125l1.99997,0l0,-1.99932h-1.99997v-1.99932h1.99997v-2.00125h-1.99997v-2.00029h1.99997l0,-15.9994h-1.99997v-1.99932l1.99997,0l0,-1.99932h-1.99997v-2.00221l1.99997,0v-1.99836h-1.99997v-2.00125l1.99997,0l0,-1.99932h-1.99997v-2.00029l1.99997,0v-10.00046h48.00007zM4.00005,62.00039h5.99991l0,-59.9999h-5.99991v7.99922h3.99994v2.00029h-3.99994v1.99932h3.99994v2.00125h-3.99994v1.99836h3.99994v2.00221h-3.99994v1.99932h3.99994v1.99932h-3.99994v15.9994h3.99994v2.00029l-3.99994,0v2.00125h3.99994v1.99932l-3.99994,0v1.99932h3.99994v2.00125l-3.99994,0v1.99932h3.99994v2.00029h-3.99994zM47.99995,62.00039v-59.9999l-35.99991,0v59.9999zM58.00003,7.99942l-4.00005,0v30.00043l4.00005,0zM53.99998,51.00026h4.00005v-11.00109h-4.00005zM52.00001,-0.00076h7.99999l0,11.00013h4.00005v17.00002h-2.00008v-14.99973h-1.99997v45.00016c0,0.18088 -0.04875,0.35984 -0.14259,0.51474l-2.99995,4.99927c-0.1807,0.30115 -0.50583,0.48684 -0.85751,0.48684c-0.35156,0 -0.6768,-0.18569 -0.85739,-0.48684l-2.99995,-4.99927c-0.09384,-0.1549 -0.14259,-0.33386 -0.14259,-0.51474zM53.99998,5.99914h4.00005v-3.99865h-4.00005zM53.99998,57.72368l1.99997,3.33285l2.00008,-3.33285v-4.7241h-4.00005zM35.00004,33.00154h-2.00008v-2.00125h2.00008zM30.99998,33.00154h-1.99997v-2.00125h1.99997zM27.00005,33.00154h-2.00008v-2.00125h2.00008zM44.00002,39.99917h-28.00003v-15.9994h28.00003zM17.99995,37.99985h24.00009v-11.99979h-24.00009zM44.00002,7.99942h-28.00003v-2.00029h28.00003zM44.00002,57.99982h-28.00003v-1.99932h28.00003z" fill="url(#LinearGradient1076)"></path>
    </g>
  </g>
</svg>