<?xml version="1.0" encoding="UTF-8"?>
<svg id="SVGDoc" width="16" height="15" xmlns="http://www.w3.org/2000/svg" version="1.1" xmlns:xlink="http://www.w3.org/1999/xlink" xmlns:avocode="https://avocode.com/" viewBox="0 0 16 15"><defs><mask id="Mask1065" x="-1" y="-1" width="2" height="2"><rect width="16" height="14" x="0" y="0" fill="#ffffff"></rect><path d="M16.00002,7.00025v3.9997c0,0.55287 -0.44724,1.00027 -0.99998,1.00027h-0.99998v0.99987c0,0.55267 -0.44735,1.00007 -0.99998,1.00007h-0.99998c-0.55275,0 -1.0001,-0.44741 -1.0001,-1.00007v-0.99987h-5.99991v0.99987c0,0.55267 -0.44735,1.00007 -0.99998,1.00007h-0.99998c-0.55275,0 -1.0001,-0.44741 -1.0001,-1.00007v-0.99987h-0.99998c-0.55264,0 -0.99998,-0.44741 -0.99998,-1.00027v-3.9997c0,-0.55267 0.44735,-1.00007 0.99998,-1.00007c0,-2.07505 1.25393,-5.99984 6.00002,-5.99984h1.99997c4.74609,0 6.00002,3.9248 6.00002,5.99984c0.55275,0 0.99998,0.44741 0.99998,1.00007zM3.0001,6.00017h9.99996c-0.00401,-0.40526 -0.14751,-4.0001 -4.00005,-4.0001h-1.99997c-3.95416,0 -3.99994,3.83691 -3.99994,4.0001zM14.00005,7.99992c0,0 -1.99997,0 -1.99997,0c0.55264,0 0.99998,0.44741 0.99998,1.00047c0,0.55227 -0.44735,0.99967 -0.99998,0.99967c-0.55275,0 -1.0001,-0.44741 -1.0001,-0.99967c0,-0.55307 0.44735,-1.00047 1.0001,-1.00047l-7.99999,0c0,0 0,0 0,0c0.55264,0 0.99998,0.44741 0.99998,1.00047c0,0.55227 -0.44735,0.99967 -0.99998,0.99967c-0.55275,0 -0.99998,-0.44741 -0.99998,-0.99967c0,-0.55307 0.44724,-1.00047 0.99998,-1.00047h-2.00008v2.00015h12.00005z" fill="#000000"></path></mask><filter id="Filter1069" width="36" height="35" x="-10" y="-10" filterUnits="userSpaceOnUse"><feOffset dx="0" dy="1" result="FeOffset1070Out" in="SourceGraphic"></feOffset><feGaussianBlur stdDeviation="0 0" result="FeGaussianBlur1071Out" in="FeOffset1070Out"></feGaussianBlur></filter></defs><desc>Generated with Avocode.</desc><g><g><title>Car</title><g filter="url(#Filter1069)"><path d="M16.00002,7.00025v3.9997c0,0.55287 -0.44724,1.00027 -0.99998,1.00027h-0.99998v0.99987c0,0.55267 -0.44735,1.00007 -0.99998,1.00007h-0.99998c-0.55275,0 -1.0001,-0.44741 -1.0001,-1.00007v-0.99987h-5.99991v0.99987c0,0.55267 -0.44735,1.00007 -0.99998,1.00007h-0.99998c-0.55275,0 -1.0001,-0.44741 -1.0001,-1.00007v-0.99987h-0.99998c-0.55264,0 -0.99998,-0.44741 -0.99998,-1.00027v-3.9997c0,-0.55267 0.44735,-1.00007 0.99998,-1.00007c0,-2.07505 1.25393,-5.99984 6.00002,-5.99984h1.99997c4.74609,0 6.00002,3.9248 6.00002,5.99984c0.55275,0 0.99998,0.44741 0.99998,1.00007zM3.0001,6.00017h9.99996c-0.00401,-0.40526 -0.14751,-4.0001 -4.00005,-4.0001h-1.99997c-3.95416,0 -3.99994,3.83691 -3.99994,4.0001zM14.00005,7.99992c0,0 -1.99997,0 -1.99997,0c0.55264,0 0.99998,0.44741 0.99998,1.00047c0,0.55227 -0.44735,0.99967 -0.99998,0.99967c-0.55275,0 -1.0001,-0.44741 -1.0001,-0.99967c0,-0.55307 0.44735,-1.00047 1.0001,-1.00047l-7.99999,0c0,0 0,0 0,0c0.55264,0 0.99998,0.44741 0.99998,1.00047c0,0.55227 -0.44735,0.99967 -0.99998,0.99967c-0.55275,0 -0.99998,-0.44741 -0.99998,-0.99967c0,-0.55307 0.44724,-1.00047 0.99998,-1.00047h-2.00008v2.00015h12.00005z" fill="none" stroke-opacity="0.3" stroke-width="0" mask="url(&quot;#Mask1065&quot;)"></path><path d="M16.00002,7.00025v3.9997c0,0.55287 -0.44724,1.00027 -0.99998,1.00027h-0.99998v0.99987c0,0.55267 -0.44735,1.00007 -0.99998,1.00007h-0.99998c-0.55275,0 -1.0001,-0.44741 -1.0001,-1.00007v-0.99987h-5.99991v0.99987c0,0.55267 -0.44735,1.00007 -0.99998,1.00007h-0.99998c-0.55275,0 -1.0001,-0.44741 -1.0001,-1.00007v-0.99987h-0.99998c-0.55264,0 -0.99998,-0.44741 -0.99998,-1.00027v-3.9997c0,-0.55267 0.44735,-1.00007 0.99998,-1.00007c0,-2.07505 1.25393,-5.99984 6.00002,-5.99984h1.99997c4.74609,0 6.00002,3.9248 6.00002,5.99984c0.55275,0 0.99998,0.44741 0.99998,1.00007zM3.0001,6.00017h9.99996c-0.00401,-0.40526 -0.14751,-4.0001 -4.00005,-4.0001h-1.99997c-3.95416,0 -3.99994,3.83691 -3.99994,4.0001zM14.00005,7.99992c0,0 -1.99997,0 -1.99997,0c0.55264,0 0.99998,0.44741 0.99998,1.00047c0,0.55227 -0.44735,0.99967 -0.99998,0.99967c-0.55275,0 -1.0001,-0.44741 -1.0001,-0.99967c0,-0.55307 0.44735,-1.00047 1.0001,-1.00047l-7.99999,0c0,0 0,0 0,0c0.55264,0 0.99998,0.44741 0.99998,1.00047c0,0.55227 -0.44735,0.99967 -0.99998,0.99967c-0.55275,0 -0.99998,-0.44741 -0.99998,-0.99967c0,-0.55307 0.44724,-1.00047 0.99998,-1.00047h-2.00008v2.00015h12.00005z" fill="#000000" fill-opacity="0.3"></path></g><path d="M16.00002,7.00025v3.9997c0,0.55287 -0.44724,1.00027 -0.99998,1.00027h-0.99998v0.99987c0,0.55267 -0.44735,1.00007 -0.99998,1.00007h-0.99998c-0.55275,0 -1.0001,-0.44741 -1.0001,-1.00007v-0.99987h-5.99991v0.99987c0,0.55267 -0.44735,1.00007 -0.99998,1.00007h-0.99998c-0.55275,0 -1.0001,-0.44741 -1.0001,-1.00007v-0.99987h-0.99998c-0.55264,0 -0.99998,-0.44741 -0.99998,-1.00027v-3.9997c0,-0.55267 0.44735,-1.00007 0.99998,-1.00007c0,-2.07505 1.25393,-5.99984 6.00002,-5.99984h1.99997c4.74609,0 6.00002,3.9248 6.00002,5.99984c0.55275,0 0.99998,0.44741 0.99998,1.00007zM3.0001,6.00017h9.99996c-0.00401,-0.40526 -0.14751,-4.0001 -4.00005,-4.0001h-1.99997c-3.95416,0 -3.99994,3.83691 -3.99994,4.0001zM14.00005,7.99992c0,0 -1.99997,0 -1.99997,0c0.55264,0 0.99998,0.44741 0.99998,1.00047c0,0.55227 -0.44735,0.99967 -0.99998,0.99967c-0.55275,0 -1.0001,-0.44741 -1.0001,-0.99967c0,-0.55307 0.44735,-1.00047 1.0001,-1.00047l-7.99999,0c0,0 0,0 0,0c0.55264,0 0.99998,0.44741 0.99998,1.00047c0,0.55227 -0.44735,0.99967 -0.99998,0.99967c-0.55275,0 -0.99998,-0.44741 -0.99998,-0.99967c0,-0.55307 0.44724,-1.00047 0.99998,-1.00047h-2.00008v2.00015h12.00005z" fill="#ffffff" fill-opacity="1"></path></g></g></svg>