<!-- Generated by IcoMoon.io -->
<svg version="1.1" xmlns="http://www.w3.org/2000/svg" width="1024" height="1024" viewBox="0 0 1024 1024">
<title></title>
<g id="icomoon-ignore">
</g>
<path d="M926.214 1014.71l-414.211-414.189-414.211 414.189c-12.225 12.348-32.050 12.348-44.275 0l-44.282-44.171c-12.225-12.348-12.225-32.069 0-44.294l414.211-414.127-414.211-414.189c-12.225-12.287-12.225-32.13 0-44.417l44.282-44.232c12.225-12.348 32.050-12.348 44.275 0l414.211 414.127 414.211-414.127c12.225-12.348 32.042-12.348 44.267 0l44.282 44.232c12.225 12.287 12.225 32.13 0 44.417l-414.211 414.189 414.211 414.127c12.225 12.226 12.225 31.946 0 44.294l-44.282 44.171c-12.225 12.348-32.042 12.348-44.267 0z"></path>
</svg>
