<!-- Generated by IcoMoon.io -->
<svg version="1.1" xmlns="http://www.w3.org/2000/svg" width="1024" height="1024" viewBox="0 0 1024 1024">
<title></title>
<g id="icomoon-ignore">
</g>
<path d="M460.807 409.606v0-358.403c0-28.277 22.922-51.195 51.199-51.195 282.756 0 511.963 229.215 511.963 511.997 0 282.773-229.207 511.997-511.963 511.997s-511.963-229.224-511.963-511.997c-0.082-188.060 102.961-361.017 268.371-450.464 24.867-13.473 55.951-4.234 69.422 20.638 13.471 24.862 4.236 55.95-20.631 69.423v0c-199.002 107.554-273.146 356.058-165.603 555.079 107.537 199.021 356.039 273.17 555.041 165.626 199.002-107.554 273.146-356.077 165.603-555.088-62.836-116.282-177.92-195.094-309.047-211.638v406.425c0 28.277-22.916 51.195-51.193 51.195-11.080 0-21.855-3.592-30.721-10.245l-204.785-153.594c-22.617-16.972-27.205-49.064-10.236-71.684 16.963-22.62 49.055-27.198 71.672-10.235z"></path>
</svg>
