<!-- Generated by IcoMoon.io -->
<svg version="1.1" xmlns="http://www.w3.org/2000/svg" width="1024" height="1024" viewBox="0 0 1024 1024">
<title></title>
<g id="icomoon-ignore">
</g>
<path d="M1010.36 177.701l-456.935 404.328c-1.898 3.082-4.196 5.99-6.897 8.652-7.407 7.305-16.692 11.633-26.323 12.981-15.042 3.324-31.438-0.773-43.144-12.288-3.088-3.044-5.652-6.408-7.691-9.982l-270.024-220.913c-18.173-17.862-18.173-46.922 0-64.886 18.168-17.862 47.629-17.862 65.797 0l245.681 201.031 345.643-305.824-706.824 0.355c-45.939 1.719-54.817 10.512-56.528 55.343l0.312 540.646c2.343 37.66 12.31 44.535 54.673 45.774l-54.647-0.372 0.001 0.986 773.375-0.555c61.935-1.347 63.991-11.422 64.052-86.413l-0.313-372.915c0-25.331 20.832-45.895 46.529-45.895s46.529 20.564 46.529 45.895l0.348 413.628h-0.364v45.862c0 50.729-41.666 91.847-93.058 91.847h-837.511c-48.391 0-88.158-36.454-92.638-83.062l-0.379-653.964c1.399-46.362 37.681-84.081 83.856-88.529l848.737-0.417c41.284 0.886 75.945 28.278 87.167 65.605-1.528 3.158-3.414 6.115-5.604 8.823-1.169 1.476-2.441 2.899-3.82 4.257zM93.083 191.185v0.161l27.174-0.175zM836.377 833.186l30.454-0.207c-8.868 0.193-18.962 0.207-30.454 0.207zM148.101 832.92l39.118 0.266c-15.418 0-28.321 0.050-39.118-0.266z"></path>
</svg>
