<!-- Generated by IcoMoon.io -->
<svg version="1.1" xmlns="http://www.w3.org/2000/svg" width="1024" height="1024" viewBox="0 0 1024 1024">
<title></title>
<g id="icomoon-ignore">
</g>
<path d="M561.279 162.020c-39.56 38.372-65.901 75.524-73.209 105.313-1.222 4.784-1.88 9.757-1.969 14.682-0.229 28.286-23.63 51.038-52.265 50.804-28.634-0.188-51.662-23.361-51.433-51.6 0.151-12.806 1.785-25.472 4.876-37.903 12.855-52.586 49.15-103.67 101.359-154.331 30.387-29.366 63.183-56.15 98.045-80.215 23.725-15.809 55.958-9.617 71.982 13.791 6.662 9.757 9.737 21.391 8.692 33.117-7.884 89.691 35.771 178.068 137.912 269.119 161.992 159.96 162.009 419.276 0.039 579.237-161.97 159.914-424.597 159.914-586.592 0.047-161.987-159.96-162.004-419.276-0.034-579.237 0.011-0.047 0.022-0.047 0.034-0.047 20.259-20.031 53.084-20.031 73.326 0 4.591 4.55 8.286 9.944 10.875 15.809 55.010 125.013 129.258 198.287 223.206 224.556 27.73 7.036 44.429 34.948 37.3 62.343-7.125 27.348-35.391 43.86-63.122 36.824-0.798-0.188-1.596-0.422-2.388-0.656-104.466-29.178-188.719-99.308-252.338-207.996-88.883 145.232-41.746 334.089 105.283 421.81 122.596 73.178 279.956 54.227 381.149-45.877 121.48-119.948 121.48-314.434 1.919-432.599-87.516-77.87-142.27-160.336-162.439-246.65l-10.16 9.664z"></path>
</svg>
