<!-- Generated by IcoMoon.io -->
<svg version="1.1" xmlns="http://www.w3.org/2000/svg" width="1024" height="1024" viewBox="0 0 1024 1024">
<title></title>
<g id="icomoon-ignore">
</g>
<path d="M977.174 398.165v570.521c0 30.412-25.121 55.296-55.823 55.296-30.707 0-37.229-16.274-37.229-46.688v-558.321l-372.129-286.236-372.299 286.236v511.795h558.324v-372.212h-372.214l9.429 244.235c0 30.414-25.121 55.299-55.828 55.299-30.702 0-46.654-36.487-46.654-66.901v-279.162c0-30.412 15.825-46.526 46.526-46.526h465.266c30.702 0 46.526 16.116 46.526 46.526v465.268c0 30.414-15.782 46.688-46.483 46.688h-641.946c-30.702 0-55.823-24.885-55.823-55.296v-570.521c0-19.358 10.053-36.498 25.681-46.453l-0.559-1.103 409.353-330.682 30.702-19.906 32.938 21.566 402.096 327.918 4.467 2.763c15.074 9.953 25.681 26.539 25.681 45.899z"></path>
</svg>
