<!-- Generated by IcoMoon.io -->
<svg version="1.1" xmlns="http://www.w3.org/2000/svg" width="1024" height="1024" viewBox="0 0 1024 1024">
<title></title>
<g id="icomoon-ignore">
</g>
<path d="M1024.001 282.594v458.961c0 155.623-126.766 282.457-282.594 282.457h-458.82c-155.816 0-282.583-126.834-282.583-282.457v-458.961c0-155.842 126.766-282.617 282.583-282.617h458.82c155.829 0 282.601 126.775 282.594 282.617zM933.15 741.555v-458.961c0-105.762-86.015-191.728-191.743-191.728h-458.82c-105.722 0-191.731 85.966-191.731 191.728v458.961c0 105.543 86.010 191.669 191.731 191.669h458.826c105.728 0 191.743-86.126 191.743-191.669zM775.86 511.965c0 145.586-118.366 263.816-263.857 263.816s-263.863-118.231-263.863-263.816c0-145.423 118.372-263.921 263.863-263.921s263.857 118.498 263.857 263.921zM685.009 511.916c0-95.293-77.609-173.029-173.006-173.029s-173.006 77.735-173.006 173.029c0 95.506 77.615 173.080 173.006 173.080s173.006-77.575 173.006-173.080zM834.053 190.554c12.416 12.379 19.502 29.627 19.502 47.245 0 17.5-7.087 34.585-19.502 47.067-12.416 12.274-29.562 19.528-47.128 19.528-17.504 0-34.706-7.254-47.060-19.528-12.416-12.483-19.564-29.568-19.564-47.067 0-17.618 7.142-34.867 19.564-47.245 12.36-12.319 29.556-19.368 47.060-19.368 17.566 0 34.767 7.048 47.128 19.368z"></path>
</svg>
