<!-- Generated by IcoMoon.io -->
<svg version="1.1" xmlns="http://www.w3.org/2000/svg" width="1024" height="1024" viewBox="0 0 1024 1024">
<title></title>
<g id="icomoon-ignore">
</g>
<path d="M660.176 614.278c7.308-67.95 7.308-136.492 0-204.595h-296.344c-3.633 33.957-5.445 68.199-5.427 102.392v51.131c0 28.241-22.918 51.072-51.198 51.072-28.275 0-51.198-22.831-51.198-51.072v-51.131c0-34.976 1.64-69.275 4.764-102.392h-145.456c-8.596 33.46-12.927 67.855-12.903 102.392 0 75.537 20.48 147.913 58.518 210.904 81.295-24.263 166.845 21.991 191.093 103.173 24.242 81.241-22.004 166.674-103.293 190.925-81.289 24.204-166.845-22.003-191.087-103.232-13.225-44.278-5.755-92.213 20.346-130.396-51.081-81.289-78.114-175.42-77.973-271.373 0-282.582 229.218-511.583 511.984-511.583 282.772 0 511.991 229.001 511.991 511.583 0 282.44-229.218 511.394-511.991 511.394-28.275 0-51.198-22.831-51.198-51.072 0-28.253 22.924-51.178 51.198-51.178 49.458 0 101.887-81.431 130.917-204.583h-182.115c-28.275 0-51.198-22.938-51.198-51.131 0-28.347 22.924-51.225 51.198-51.225zM908.691 614.278c8.397-32.667 12.903-66.968 12.903-102.203 0-35.33-4.506-69.619-12.903-102.392h-145.404c3.070 33.117 4.711 67.417 4.711 102.392 0 34.892-1.64 69.134-4.764 102.203zM866.81 716.634h-118.782c-12.54 60.955-30.718 115.969-53.759 161.879 72.153-35.875 132.154-92.166 172.541-161.879zM642.918 307.432c-29.030-123.105-81.459-204.595-130.917-204.595s-101.881 81.49-130.911 204.595zM275.926 307.432c12.54-61.002 30.718-115.969 53.759-161.927-72.136 35.922-132.113 92.213-172.488 161.927zM866.763 307.432c-40.369-69.678-100.328-126.005-172.441-161.927 23.041 45.995 41.213 100.925 53.759 161.927zM204.809 921.218c28.275 0 51.198-22.867 51.198-51.072 0-28.3-22.924-51.225-51.198-51.225s-51.198 22.926-51.198 51.225c0 28.205 22.924 51.072 51.198 51.072z"></path>
</svg>
