<!-- Generated by IcoMoon.io -->
<svg version="1.1" xmlns="http://www.w3.org/2000/svg" width="1024" height="1024" viewBox="0 0 1024 1024">
<title></title>
<g id="icomoon-ignore">
</g>
<path d="M569.644 294.058c89.975 31.414 137.14 128.973 105.341 217.861-31.804 88.935-130.524 135.523-220.5 104.098-89.975-31.414-137.14-128.961-105.341-217.814 17.395-48.696 56.12-86.897 105.341-104.145v-237.216c0-31.355 25.74-56.822 57.521-56.822 120.917-0.154 237.226 44.515 324.92 127.54 181.024 171.415 181.024 450.541-0.921 622.843l-285.017 258.597c-22.022 19.983-55.831 19.983-77.847 0l-285.938-259.367c-181.030-171.534-181.030-450.659 0-622.073 22.961-21.725 59.41-20.978 81.419 1.718 22.004 22.707 21.23 58.706-1.731 80.419-133.756 126.769-133.756 331.079-0.862 456.9l246.035 223.274 245.172-222.433c133.756-126.662 133.756-330.973 0-457.742-51.592-48.696-117.059-80.703-187.593-91.589zM512.065 511.955c31.799 0 57.579-25.456 57.579-56.87 0-31.461-25.781-56.881-57.579-56.881-31.804 0-57.579 25.42-57.579 56.881 0 31.414 25.775 56.87 57.579 56.87z"></path>
</svg>
