<!-- Generated by IcoMoon.io -->
<svg version="1.1" xmlns="http://www.w3.org/2000/svg" width="1024" height="1024" viewBox="0 0 1024 1024">
<title></title>
<g id="icomoon-ignore">
</g>
<path d="M317.010 860.555l91.206-56.688c9.991-6.276 21.902-8.608 33.539-6.783 23.006 3.696 46.454 5.521 70.247 5.521 216.581 0 389.978-153.174 389.978-339.103 0-185.873-173.397-339.002-389.978-339.002-216.587 0-389.978 153.129-389.978 339.002 0 72.79 26.465 142.222 75.066 199.969 17.557 20.248 15.24 50.874-5.171 68.293-20.413 17.443-51.19 15.087-68.746-5.138-0.29-0.383-0.575-0.699-0.859-1.037-62.983-74.851-97.789-166.008-97.789-262.088 0-242.077 219.46-435.882 487.476-435.882 268.010 0 487.47 193.806 487.47 435.882 0 242.133-219.46 435.984-487.47 435.984-22.621 0-45.042-1.375-67.173-4.091l-150.731 93.602c-22.828 14.186-52.902 7.257-67.173-15.414-4.843-7.685-7.409-16.631-7.409-25.713v-162.087c0-26.75 21.823-48.428 48.746-48.428s48.746 21.679 48.746 48.428zM344.066 552.269c-22.398 14.851-52.674 8.867-67.614-13.443-14.94-22.208-8.898-52.316 13.501-67.179l146.245-96.824c19.335-12.823 45.086-10.31 61.517 6.005l69.226 68.801 112.996-74.807c22.398-14.885 52.668-8.856 67.608 13.352 14.946 22.287 8.898 52.372-13.501 67.269l-146.245 96.824c-19.335 12.845-45.081 10.265-61.517-6.084l-69.22-68.756z"></path>
</svg>
