<?xml version="1.0" encoding="UTF-8"?>
<svg id="SVGDoc" width="20" height="20"
  xmlns="http://www.w3.org/2000/svg" version="1.1"
  xmlns:xlink="http://www.w3.org/1999/xlink"
  xmlns:avocode="https://avocode.com/" viewBox="0 0 20 20">
  <defs></defs>
  <desc>Generated with Avocode.</desc>
  <g>
    <g>
      <title>Shape 791 copy</title>
      <path d="M6.00089,11.00009c-0.55229,0 -0.99998,-0.44781 -0.99998,-1.00007c0,-0.55227 0.44769,-0.99987 0.99998,-0.99987h6.99955c-0.55229,0 -0.99987,0.44761 -0.99987,0.99987c0,0.55227 0.44758,1.00007 0.99987,1.00007zM10.0006,2.00003c-0.55218,0 -0.99987,-0.44761 -0.99987,-1.00007c0,-0.55227 0.44769,-0.99987 0.99987,-0.99987c5.52269,0 9.9995,4.47686 9.9995,9.99994c0,5.52288 -4.47681,9.99994 -9.9995,9.99994c-5.52258,0 -9.99939,-4.47706 -9.99939,-9.99994c-0.00126,-3.67992 2.0192,-7.06323 5.2597,-8.80692c0.48603,-0.26245 1.09257,-0.08109 1.35498,0.40486c0.26218,0.48616 0.08091,1.09275 -0.40501,1.355c-3.89179,2.09143 -5.35126,6.942 -3.26008,10.83384c2.09129,3.89204 6.94141,5.3515 10.83321,3.26028c3.89168,-2.09143 5.35126,-6.9418 3.25996,-10.83384c-1.39355,-2.59356 -4.09916,-4.21202 -7.04338,-4.21321zM14.00043,11.00009c0.55229,0 0.99987,-0.44781 0.99987,-1.00007c0,-0.55227 -0.44758,-0.99987 -0.99987,-0.99987h-0.99976v1.99995z"></path>
    </g>
  </g>
</svg>