<!-- Generated by IcoMoon.io -->
<svg version="1.1" xmlns="http://www.w3.org/2000/svg" width="1024" height="1024" viewBox="0 0 1024 1024">
<title></title>
<g id="icomoon-ignore">
</g>
<path d="M870.402 366.158v292.782c0 201.285-160.788 365.034-358.404 365.034-197.628 0-358.404-164.241-358.404-366.117v-291.699c0-201.876 160.776-366.15 358.404-366.15 197.616 0 358.404 164.274 358.404 366.15zM802.987 366.158c0-164.471-130.529-298.365-290.989-298.365-160.452 0-290.993 133.895-290.993 298.365v291.666c0 164.503 130.541 298.365 290.993 298.365 160.46 0 290.989-133.336 290.989-297.249zM545.705 314.169v118.722c0 18.719-15.090 33.893-33.708 33.893s-33.708-15.173-33.708-33.893v-118.722c0-18.687 15.090-33.893 33.708-33.893s33.708 15.205 33.708 33.893z"></path>
</svg>
