<!-- Generated by IcoMoon.io -->
<svg version="1.1" xmlns="http://www.w3.org/2000/svg" width="1024" height="1024" viewBox="0 0 1024 1024">
<title></title>
<g id="icomoon-ignore">
</g>
<path d="M512.003 0.001c283.304 0 511.998 228.693 511.998 511.999s-228.694 511.999-511.998 511.999c-283.31 0-512.004-228.693-512.004-511.999s228.694-511.999 512.004-511.999zM512.003 846.504c184.317 0 334.503-150.18 334.503-334.503 0-177.496-136.529-324.268-310.608-334.503v177.487c75.093 10.245 133.119 75.095 133.119 153.598 0 88.748-68.271 157.016-157.013 157.016-88.748 0-157.019-71.676-157.019-157.016 0-78.503 58.032-143.353 133.125-153.598v-177.487c-174.079 13.654-310.615 157.007-310.615 334.503 0 184.323 150.185 334.503 334.508 334.503zM512.003 157.017c37.543 0 68.265-30.725 68.265-68.268 0-37.552-30.722-68.268-68.265-68.268-37.55 0-68.271 30.716-68.271 68.268 0 37.543 30.722 68.268 68.271 68.268z"></path>
</svg>
