<!-- Generated by IcoMoon.io -->
<svg version="1.1" xmlns="http://www.w3.org/2000/svg" width="1024" height="1024" viewBox="0 0 1024 1024">
<title></title>
<g id="icomoon-ignore">
</g>
<path d="M736.3 668.198l-78.543 78.373c-22.203 22.408-58.214 22.408-80.418 0-22.211-22.047-22.211-58.111 0-80.34l100.078-100.019c13.442-13.368 32.723-19.274 51.369-15.518l250.099 50.015c26.616 5.323 45.765 28.708 45.731 55.859v299.943c0 26.402-18.068 49.148-43.683 55.338-192.911 45.843-468.295-29.87-703.697-265.279-235.464-235.176-310.995-510.577-265.078-703.51 6.087-25.702 29.014-43.693 55.354-43.642h300.166c27.056 0 50.404 19.045 55.76 45.726l50.004 249.998c3.729 18.64-2.123 37.915-15.544 51.283l-70.23 70.211c32.909 57.489 75.165 109.059 125.025 152.647 23.692 20.596 26.216 56.543 5.611 80.158-20.611 23.797-56.533 26.285-80.225 5.739-12.353-10.763-24.32-21.996-35.887-33.576-55.188-55.571-100.954-119.76-135.496-190.033-10.871-21.879-6.563-48.215 10.706-65.467l78.55-78.54-34.922-174.464h-205.671c-16.627 153.156 53.658 364.664 242.233 553.13 188.651 188.582 400.126 258.973 553.283 242.354v-205.473zM1024.616 340.636c0 31.375-25.457 56.789-56.871 56.789s-56.871-25.414-56.871-56.789c0-125.716-101.849-227.535-227.482-227.535-31.413 0-56.871-25.464-56.871-56.89 0-31.375 25.457-56.792 56.871-56.792 188.424-0.051 341.188 152.635 341.223 341.101zM854.032 340.636c0 31.375-25.457 56.789-56.871 56.789-31.406 0-56.871-25.414-56.871-56.789 0.034-31.425-25.389-56.96-56.787-56.96-0.042 0-0.076 0-0.11 0-31.413 0-56.871-25.464-56.871-56.827 0-31.437 25.457-56.956 56.871-56.956 94.212 0 170.611 76.401 170.639 170.626z"></path>
</svg>
