<?xml version="1.0" encoding="UTF-8"?>
<svg id="SVGDoc" width="20" height="21" xmlns="http://www.w3.org/2000/svg" version="1.1" xmlns:xlink="http://www.w3.org/1999/xlink" xmlns:avocode="https://avocode.com/" viewBox="0 0 20 21"><defs><mask id="Mask1318" x="-1" y="-1" width="2" height="2"><rect width="20" height="20" x="0" y="0" fill="#ffffff"></rect><path d="M20.00004,9.9998c0,5.49285 -4.50748,9.9995 -10.00019,9.9995c-1.78699,0 -3.53622,-0.48299 -5.07832,-1.39991l-4.15043,1.37008c-0.20782,0.07024 -0.44174,0.01636 -0.59967,-0.13951c-0.15678,-0.15779 -0.21172,-0.39063 -0.14133,-0.60134l1.37043,-4.1497c-0.91724,-1.54231 -1.40076,-3.29051 -1.40076,-5.07913c0,-5.49188 4.50748,-10.00046 10.00008,-10.00046c5.49271,0 10.00019,4.50858 10.00019,10.00046zM11.75777,15.85923c0,-0.96887 -0.78861,-1.75783 -1.75793,-1.75783c-0.96931,0 -1.75781,0.78895 -1.75781,1.75783c0,0.96887 0.7885,1.75879 1.75781,1.75879c0.96931,0 1.75793,-0.78992 1.75793,-1.75879zM13.51547,6.53899c0,-1.9695 -1.60091,-3.57146 -3.56941,-3.57146c-1.90887,0 -3.46184,1.55385 -3.46184,3.46274c0,0.64656 0.52586,1.17188 1.17188,1.17188c0.64602,0 1.17188,-0.52533 1.17188,-1.17188c0,-0.61577 0.50182,-1.118 1.11809,-1.118c0.67589,0 1.22578,0.55034 1.22578,1.22673c0,0.38582 -0.05871,0.69082 -0.35889,0.99004l-1.29833,1.29985c-0.44289,0.44162 -0.68665,1.02949 -0.68665,1.6568v1.27195c0,0.64559 0.52586,1.17285 1.17188,1.17285c0.64613,0 1.17199,-0.52725 1.17199,-1.17285v-1.27195l1.29833,-1.29889c0.6831,-0.68408 1.04542,-1.54135 1.0453,-2.6478z" fill="#000000"></path></mask><filter id="Filter1322" width="40" height="41" x="-10" y="-10" filterUnits="userSpaceOnUse"><feOffset dx="0" dy="1" result="FeOffset1323Out" in="SourceGraphic"></feOffset><feGaussianBlur stdDeviation="0 0" result="FeGaussianBlur1324Out" in="FeOffset1323Out"></feGaussianBlur></filter></defs><desc>Generated with Avocode.</desc><g><g><title>Forma 1</title><g filter="url(#Filter1322)"><path d="M20.00004,9.9998c0,5.49285 -4.50748,9.9995 -10.00019,9.9995c-1.78699,0 -3.53622,-0.48299 -5.07832,-1.39991l-4.15043,1.37008c-0.20782,0.07024 -0.44174,0.01636 -0.59967,-0.13951c-0.15678,-0.15779 -0.21172,-0.39063 -0.14133,-0.60134l1.37043,-4.1497c-0.91724,-1.54231 -1.40076,-3.29051 -1.40076,-5.07913c0,-5.49188 4.50748,-10.00046 10.00008,-10.00046c5.49271,0 10.00019,4.50858 10.00019,10.00046zM11.75777,15.85923c0,-0.96887 -0.78861,-1.75783 -1.75793,-1.75783c-0.96931,0 -1.75781,0.78895 -1.75781,1.75783c0,0.96887 0.7885,1.75879 1.75781,1.75879c0.96931,0 1.75793,-0.78992 1.75793,-1.75879zM13.51547,6.53899c0,-1.9695 -1.60091,-3.57146 -3.56941,-3.57146c-1.90887,0 -3.46184,1.55385 -3.46184,3.46274c0,0.64656 0.52586,1.17188 1.17188,1.17188c0.64602,0 1.17188,-0.52533 1.17188,-1.17188c0,-0.61577 0.50182,-1.118 1.11809,-1.118c0.67589,0 1.22578,0.55034 1.22578,1.22673c0,0.38582 -0.05871,0.69082 -0.35889,0.99004l-1.29833,1.29985c-0.44289,0.44162 -0.68665,1.02949 -0.68665,1.6568v1.27195c0,0.64559 0.52586,1.17285 1.17188,1.17285c0.64613,0 1.17199,-0.52725 1.17199,-1.17285v-1.27195l1.29833,-1.29889c0.6831,-0.68408 1.04542,-1.54135 1.0453,-2.6478z" fill="none" stroke-opacity="0.3" stroke-width="0" mask="url(&quot;#Mask1318&quot;)"></path><path d="M20.00004,9.9998c0,5.49285 -4.50748,9.9995 -10.00019,9.9995c-1.78699,0 -3.53622,-0.48299 -5.07832,-1.39991l-4.15043,1.37008c-0.20782,0.07024 -0.44174,0.01636 -0.59967,-0.13951c-0.15678,-0.15779 -0.21172,-0.39063 -0.14133,-0.60134l1.37043,-4.1497c-0.91724,-1.54231 -1.40076,-3.29051 -1.40076,-5.07913c0,-5.49188 4.50748,-10.00046 10.00008,-10.00046c5.49271,0 10.00019,4.50858 10.00019,10.00046zM11.75777,15.85923c0,-0.96887 -0.78861,-1.75783 -1.75793,-1.75783c-0.96931,0 -1.75781,0.78895 -1.75781,1.75783c0,0.96887 0.7885,1.75879 1.75781,1.75879c0.96931,0 1.75793,-0.78992 1.75793,-1.75879zM13.51547,6.53899c0,-1.9695 -1.60091,-3.57146 -3.56941,-3.57146c-1.90887,0 -3.46184,1.55385 -3.46184,3.46274c0,0.64656 0.52586,1.17188 1.17188,1.17188c0.64602,0 1.17188,-0.52533 1.17188,-1.17188c0,-0.61577 0.50182,-1.118 1.11809,-1.118c0.67589,0 1.22578,0.55034 1.22578,1.22673c0,0.38582 -0.05871,0.69082 -0.35889,0.99004l-1.29833,1.29985c-0.44289,0.44162 -0.68665,1.02949 -0.68665,1.6568v1.27195c0,0.64559 0.52586,1.17285 1.17188,1.17285c0.64613,0 1.17199,-0.52725 1.17199,-1.17285v-1.27195l1.29833,-1.29889c0.6831,-0.68408 1.04542,-1.54135 1.0453,-2.6478z" fill="#000000" fill-opacity="0.3"></path></g><path d="M20.00004,9.9998c0,5.49285 -4.50748,9.9995 -10.00019,9.9995c-1.78699,0 -3.53622,-0.48299 -5.07832,-1.39991l-4.15043,1.37008c-0.20782,0.07024 -0.44174,0.01636 -0.59967,-0.13951c-0.15678,-0.15779 -0.21172,-0.39063 -0.14133,-0.60134l1.37043,-4.1497c-0.91724,-1.54231 -1.40076,-3.29051 -1.40076,-5.07913c0,-5.49188 4.50748,-10.00046 10.00008,-10.00046c5.49271,0 10.00019,4.50858 10.00019,10.00046zM11.75777,15.85923c0,-0.96887 -0.78861,-1.75783 -1.75793,-1.75783c-0.96931,0 -1.75781,0.78895 -1.75781,1.75783c0,0.96887 0.7885,1.75879 1.75781,1.75879c0.96931,0 1.75793,-0.78992 1.75793,-1.75879zM13.51547,6.53899c0,-1.9695 -1.60091,-3.57146 -3.56941,-3.57146c-1.90887,0 -3.46184,1.55385 -3.46184,3.46274c0,0.64656 0.52586,1.17188 1.17188,1.17188c0.64602,0 1.17188,-0.52533 1.17188,-1.17188c0,-0.61577 0.50182,-1.118 1.11809,-1.118c0.67589,0 1.22578,0.55034 1.22578,1.22673c0,0.38582 -0.05871,0.69082 -0.35889,0.99004l-1.29833,1.29985c-0.44289,0.44162 -0.68665,1.02949 -0.68665,1.6568v1.27195c0,0.64559 0.52586,1.17285 1.17188,1.17285c0.64613,0 1.17199,-0.52725 1.17199,-1.17285v-1.27195l1.29833,-1.29889c0.6831,-0.68408 1.04542,-1.54135 1.0453,-2.6478z" fill="#ffffff" fill-opacity="1"></path></g></g></svg>