<!-- Generated by IcoMoon.io -->
<svg version="1.1" xmlns="http://www.w3.org/2000/svg" width="1024" height="1024" viewBox="0 0 1024 1024">
<title></title>
<g id="icomoon-ignore">
</g>
<path d="M1018.287 390.351c-15.101-45.384-56.242-74.727-104.804-74.727h-204.599c-13.567 0-24.868-7.645-28.772-19.356l-63.249-191.478c-15.039-45.163-56.2-74.373-104.862-74.373s-89.829 29.21-104.888 74.461l-63.201 191.301c-3.927 11.798-15.233 19.444-28.799 19.444h-204.599c-48.562 0-89.702 29.342-104.804 74.727-15.159 45.605 0.542 93.154 39.99 121.17l165.528 117.503c10.643 7.512 15.064 20.814 11.001 33.055l-63.227 190.108c-15.039 45.251 0.684 92.536 40.052 120.463 19.684 14.008 42.25 20.946 64.809 20.946 22.564 0 45.125-6.938 64.809-20.946l165.528-117.503c10.639-7.512 24.947-7.557 35.59 0l165.528 117.503c39.37 27.929 90.244 27.929 129.614 0 39.375-27.929 55.095-75.213 40.058-120.463l-43.285-130.141c-6.822-20.505-29.387-31.73-50.392-25.056s-32.499 28.679-25.677 49.184l43.285 130.186c6.307 18.958-6.828 30.094-11.001 33.099-4.178 2.96-19.080 11.711-35.595 0l-165.524-117.547c-38.765-27.487-90.854-27.487-129.618 0l-165.524 117.547c-16.515 11.711-31.421 2.96-35.595 0-4.178-3.004-17.304-14.141-11.001-33.099l63.227-190.152c14.807-44.5-1.288-92.889-40.052-120.419l-165.528-117.503c-16.636-11.798-12.578-28.812-10.933-33.761 1.619-4.861 8.473-20.769 28.73-20.769h204.599c48.115 0 90.255-29.52 104.888-73.534l63.206-191.212c6.307-19.002 23.637-20.505 28.793-20.505 5.161 0 22.491 1.502 28.772 20.416l63.253 191.39c14.607 43.925 56.746 73.445 104.862 73.445h204.599c20.258 0 27.112 15.909 28.73 20.769 1.645 4.95 5.708 21.963-10.933 33.761l-112.867 80.161c-17.866 12.638-21.829 37.075-8.847 54.532 12.984 17.5 37.992 21.3 55.863 8.661l112.863-80.117c39.453-28.017 55.154-75.566 39.995-121.17z"></path>
</svg>
