<?xml version="1.0" encoding="UTF-8"?>
<svg id="SVGDoc" width="20" height="22"
  xmlns="http://www.w3.org/2000/svg" version="1.1"
  xmlns:xlink="http://www.w3.org/1999/xlink"
  xmlns:avocode="https://avocode.com/" viewBox="0 0 20 22">
  <defs></defs>
  <desc>Generated with Avocode.</desc>
  <g>
    <g>
      <title>Shape 792</title>
      <path d="M12.37305,13.46955c-0.12691,-0.42064 0.02277,-0.87784 0.37067,-1.1325l1.55388,-1.13649c0.44563,-0.32117 1.05858,-0.20792 1.36917,0.25286c0.30704,0.4554 0.2037,1.08157 -0.23232,1.40634l-0.97069,0.71046v0l1.89423,6.29126c0.28519,0.94635 -0.77694,1.71193 -1.5382,1.10813l-4.87106,-3.86448v0l-4.87106,3.86448c-0.76218,0.6038 -1.82327,-0.16179 -1.53809,-1.10813l1.90201,-6.31662v0l-4.93893,-3.88265c-0.7513,-0.58962 0.59692,-2.7158 0.59692,-2.7158v0h6.04443v0l1.86459,-5.38087c0.28416,-0.95873 1.59611,-0.95873 1.88038,0l1.86459,6.39752v0h6.04431v0c0,0 0.98442,0.32637 0.98545,0.88802c0.00114,0.56126 -0.98145,0.12863 -0.98145,0.12863v0h-6.77216v0c0,0 -0.81528,0.61518 -0.94208,0.18735l-1.13892,-3.83691v0l-1.1388,3.83691c-0.12691,0.42783 -0.94219,0.8293 -0.94219,0.8293v0h-3.84327v0l3.15685,2.36107c0.32948,0.25906 0.46669,0.70367 0.34321,1.11213l-1.18607,3.93658v0l3.0114,-2.38923c0.35328,-0.28043 0.84457,-0.28043 1.19785,0l3.01128,2.38923v0z"></path>
    </g>
  </g>
</svg>