<!-- Generated by IcoMoon.io -->
<svg version="1.1" xmlns="http://www.w3.org/2000/svg" width="1024" height="1024" viewBox="0 0 1024 1024">
<title></title>
<g id="icomoon-ignore">
</g>
<path d="M958.258 88.6c35.653-13.671 72.491 17.171 64.655 54.086l-159.89 756.42c-7.503 35.434-49.577 51.345-79.114 29.853l-241.414-175.281-123.039 124.314c-21.591 21.764-58.891 12.961-68.166-16.080l-88.812-278.922-237.976-69.394c-31.224-9.081-33.074-52.227-2.736-63.986zM840.846 256.39c10.414-9.133-1.681-25.103-13.489-17.942l-513.682 315.292c-9.053 5.471-13.163 16.4-10.011 26.463l68.915 219.741c1.439 4.651 8.239 4.004 8.793-0.867l16.745-147.337c0.644-5.691 3.406-10.878 7.744-14.82z"></path>
</svg>
