<!-- Generated by IcoMoon.io -->
<svg version="1.1" xmlns="http://www.w3.org/2000/svg" width="1024" height="1024" viewBox="0 0 1024 1024">
<title></title>
<g id="icomoon-ignore">
</g>
<path d="M486.972 0.749c299.621-14.088 546.061 227.377 536.762 523.441-8.694 276.231-241.052 495.522-519.699 491.363-78.965-1.197-153.582-20.057-219.999-52.892l-258.531 60.549c-14.18 3.604-27.060-8.964-24.105-23.066l54.352-261.578c-35.415-68.848-55.478-146.775-55.732-229.124-0.82-270.652 214.312-495.68 486.952-508.693zM795.463 788.998c75.054-74.476 117.432-175.903 117.406-281.147 0-106.173-41.689-206.010-117.406-281.147-75.71-75.023-176.398-116.285-283.463-116.285-106.135 0-208.441 41.919-283.476 116.285-75.71 75.137-117.412 174.974-117.412 281.147 0 63.603 14.655 124.321 43.569 180.598l17.734 34.377-33.352 160.496 158.521-37.214 35.981 17.918c55.706 27.491 115.733 41.37 178.434 41.37 107.064 0 207.751-41.259 283.463-116.395zM760.47 617.963c23.753 6.725 34.205 34.314 20.968 55.080-19.413 30.217-50.174 67.27-88.681 76.554-67.876 16.338-172.122 0.393-302.309-120.214-112.668-104.201-142.479-191.088-135.431-259.889 3.996-39.123 36.84-74.476 64.504-97.539 18.872-15.897 47.76-9.346 57.75 13.17l41.715 93.553c5.48 12.179 3.735 26.499-4.555 37.101l-21.17 27.164c-8.928 11.578-10.132 27.16-2.851 39.717 25.178 43.451 123.88 130.609 170.789 149.231 13.536 5.529 29.044 2.25 39.287-8.131l24.235-24.484c9.501-9.624 23.545-13.28 36.574-9.624z"></path>
</svg>
