<!-- Generated by IcoMoon.io -->
<svg version="1.1" xmlns="http://www.w3.org/2000/svg" width="1024" height="1024" viewBox="0 0 1024 1024">
<title></title>
<g id="icomoon-ignore">
</g>
<path d="M501.016 813.831v0h61.203c0 0 18.479-2.168 27.93-12.793 8.694-9.743 8.407-27.989 8.407-27.989v0c0 0-1.189-85.502 36.912-98.197 37.591-12.3 85.84 82.75 136.972 119.305 38.675 27.689 68.070 21.492 68.070 21.492v0l136.75-1.817c0 0 71.527-4.581 37.603-63.218-2.766-4.868-19.751-43.293-101.683-122.696-85.747-82.754-74.257-69.376 29.031-212.783 62.908-87.321 88.055-140.608 80.198-163.432-7.488-21.845-53.757-16.088-53.757-16.088v0l-153.964 1.038c0 0-11.431-1.632-19.892 3.589-8.267 5.162-13.581 17.218-13.581 17.218v0c0 0-24.373 67.547-56.873 125.052-68.562 121.374-95.982 127.673-107.179 120.241-26.084-17.605-19.563-70.542-19.563-108.128 0-117.633 17.114-166.485-33.32-179.137-16.733-4.369-29.061-7.079-71.867-7.574-54.946-0.638-101.438 0.1-127.768 13.576-17.518 8.962-31.035 28.835-22.798 30.015 10.183 1.431 33.226 6.54 45.449 23.858 15.779 22.341 15.216 72.468 15.216 72.468v0c0 0 9.081 138.44-21.169 155.517-20.752 11.858-49.222-12.155-110.349-122.256-31.305-56.327-54.963-118.522-54.963-118.522v0c0 0-4.547-11.749-12.69-17.902-9.861-7.531-23.641-10.087-23.641-10.087v0l-146.323 1.034c0 0-21.954 0.641-30.028 10.672-7.177 8.86-0.574 27.060-0.574 27.060v0c0 0 114.544 279.151 244.257 419.849 118.944 129.048 253.982 120.637 253.982 120.637z"></path>
</svg>
