<!-- Generated by IcoMoon.io -->
<svg version="1.1" xmlns="http://www.w3.org/2000/svg" width="1024" height="1024" viewBox="0 0 1024 1024">
<title></title>
<g id="icomoon-ignore">
</g>
<path fill="#000" d="M873.044 148.836c-95.795-95.908-223.195-148.749-358.92-148.806-279.674 0-507.287 227.608-507.4 507.356-0.037 89.427 23.324 176.723 67.728 253.669l-71.984 262.925 268.981-70.559c74.115 40.429 157.555 61.735 242.469 61.759h0.212c279.643 0 507.282-227.626 507.387-507.387 0.057-135.581-52.673-263.056-148.474-358.957zM514.124 929.491h-0.175c-75.671-0.031-149.886-20.368-214.645-58.784l-15.393-9.143-159.617 41.873 42.604-155.623-10.030-15.955c-42.217-67.147-64.509-144.756-64.472-224.439 0.087-232.52 189.278-421.691 421.898-421.691 112.644 0.037 218.533 43.961 298.154 123.675s123.444 185.672 123.406 298.361c-0.1 232.539-189.278 421.73-421.73 421.73zM745.45 613.638c12.675 6.35 21.131 9.518 24.292 14.806 3.175 5.294 3.175 30.674-7.387 60.29-10.574 29.611-61.216 56.641-85.577 60.285-21.849 3.263-49.479 4.625-79.852-5.025-18.418-5.844-42.029-13.637-72.278-26.711-127.175-54.909-210.239-182.966-216.577-191.428s-51.766-68.746-51.766-131.15c0-62.403 32.748-93.071 44.367-105.763 11.624-12.699 25.361-15.868 33.811-15.868 8.456 0 16.911 0.075 24.299 0.444 7.787 0.387 18.231-2.95 28.53 21.761 10.562 25.393 35.917 87.795 39.080 94.139 3.175 6.343 5.294 13.75 1.062 22.211-4.225 8.456-17.968 26.324-31.692 43.366-5.624 6.975-12.95 13.175-5.562 25.874 7.399 12.687 32.842 54.203 70.528 87.821 48.429 43.191 89.277 56.585 101.958 62.928 12.681 6.35 20.067 5.287 27.467-3.175 7.399-8.456 31.692-37.017 40.148-49.704 8.443-12.687 16.906-10.581 28.517-6.35 11.624 4.238 73.959 34.899 86.634 41.248z"></path>
</svg>
