<?xml version="1.0" encoding="UTF-8"?>
<svg id="SVGDoc" width="16" height="17" xmlns="http://www.w3.org/2000/svg" version="1.1" xmlns:xlink="http://www.w3.org/1999/xlink" xmlns:avocode="https://avocode.com/" viewBox="0 0 16 17"><defs><mask id="Mask1045" x="-1" y="-1" width="2" height="2"><rect width="16" height="16" x="0" y="0" fill="#ffffff"></rect><path d="M15.55473,15.832c-0.16994,0.11345 -0.36335,0.16798 -0.55275,0.16798c-0.32433,0 -0.64064,-0.15599 -0.83393,-0.44521c-0.06844,-0.09767 -1.81458,-2.55461 -6.16802,-2.55461c-4.4141,0 -6.1504,2.52925 -6.16802,2.55461c-0.30659,0.45899 -0.92766,0.58303 -1.38668,0.27723c-0.45902,-0.30639 -0.58399,-0.92637 -0.27729,-1.38676c0.09373,-0.14041 2.35931,-3.44523 7.83199,-3.44523c5.47268,0 7.73827,3.30482 7.83199,3.44523c0.3067,0.46039 0.18173,1.08037 -0.27729,1.38676zM4.00008,9.00005v-4.99997c0,-2.21007 1.79089,-4.0001 3.99994,-4.0001c2.20894,0 4.00005,1.79003 4.00005,4.0001v4.99997c0,0.55267 -0.44735,1.00007 -1.0001,1.00007c-0.55264,0 -0.99998,-0.44741 -0.99998,-1.00007v-4.99997c0,-1.10454 -0.89447,-1.99995 -1.99997,-1.99995c-1.10355,0 -1.99997,0.89541 -1.99997,1.99995v4.99997c0,0.55267 -0.44735,1.00007 -0.99998,1.00007c-0.55275,0 -0.99998,-0.44741 -0.99998,-1.00007z" fill="#000000"></path></mask><filter id="Filter1049" width="36" height="37" x="-10" y="-10" filterUnits="userSpaceOnUse"><feOffset dx="0" dy="1" result="FeOffset1050Out" in="SourceGraphic"></feOffset><feGaussianBlur stdDeviation="0 0" result="FeGaussianBlur1051Out" in="FeOffset1050Out"></feGaussianBlur></filter></defs><desc>Generated with Avocode.</desc><g><g><title>Woman</title><g filter="url(#Filter1049)"><path d="M15.55473,15.832c-0.16994,0.11345 -0.36335,0.16798 -0.55275,0.16798c-0.32433,0 -0.64064,-0.15599 -0.83393,-0.44521c-0.06844,-0.09767 -1.81458,-2.55461 -6.16802,-2.55461c-4.4141,0 -6.1504,2.52925 -6.16802,2.55461c-0.30659,0.45899 -0.92766,0.58303 -1.38668,0.27723c-0.45902,-0.30639 -0.58399,-0.92637 -0.27729,-1.38676c0.09373,-0.14041 2.35931,-3.44523 7.83199,-3.44523c5.47268,0 7.73827,3.30482 7.83199,3.44523c0.3067,0.46039 0.18173,1.08037 -0.27729,1.38676zM4.00008,9.00005v-4.99997c0,-2.21007 1.79089,-4.0001 3.99994,-4.0001c2.20894,0 4.00005,1.79003 4.00005,4.0001v4.99997c0,0.55267 -0.44735,1.00007 -1.0001,1.00007c-0.55264,0 -0.99998,-0.44741 -0.99998,-1.00007v-4.99997c0,-1.10454 -0.89447,-1.99995 -1.99997,-1.99995c-1.10355,0 -1.99997,0.89541 -1.99997,1.99995v4.99997c0,0.55267 -0.44735,1.00007 -0.99998,1.00007c-0.55275,0 -0.99998,-0.44741 -0.99998,-1.00007z" fill="none" stroke-opacity="0.3" stroke-width="0" mask="url(&quot;#Mask1045&quot;)"></path><path d="M15.55473,15.832c-0.16994,0.11345 -0.36335,0.16798 -0.55275,0.16798c-0.32433,0 -0.64064,-0.15599 -0.83393,-0.44521c-0.06844,-0.09767 -1.81458,-2.55461 -6.16802,-2.55461c-4.4141,0 -6.1504,2.52925 -6.16802,2.55461c-0.30659,0.45899 -0.92766,0.58303 -1.38668,0.27723c-0.45902,-0.30639 -0.58399,-0.92637 -0.27729,-1.38676c0.09373,-0.14041 2.35931,-3.44523 7.83199,-3.44523c5.47268,0 7.73827,3.30482 7.83199,3.44523c0.3067,0.46039 0.18173,1.08037 -0.27729,1.38676zM4.00008,9.00005v-4.99997c0,-2.21007 1.79089,-4.0001 3.99994,-4.0001c2.20894,0 4.00005,1.79003 4.00005,4.0001v4.99997c0,0.55267 -0.44735,1.00007 -1.0001,1.00007c-0.55264,0 -0.99998,-0.44741 -0.99998,-1.00007v-4.99997c0,-1.10454 -0.89447,-1.99995 -1.99997,-1.99995c-1.10355,0 -1.99997,0.89541 -1.99997,1.99995v4.99997c0,0.55267 -0.44735,1.00007 -0.99998,1.00007c-0.55275,0 -0.99998,-0.44741 -0.99998,-1.00007z" fill="#000000" fill-opacity="0.3"></path></g><path d="M15.55473,15.832c-0.16994,0.11345 -0.36335,0.16798 -0.55275,0.16798c-0.32433,0 -0.64064,-0.15599 -0.83393,-0.44521c-0.06844,-0.09767 -1.81458,-2.55461 -6.16802,-2.55461c-4.4141,0 -6.1504,2.52925 -6.16802,2.55461c-0.30659,0.45899 -0.92766,0.58303 -1.38668,0.27723c-0.45902,-0.30639 -0.58399,-0.92637 -0.27729,-1.38676c0.09373,-0.14041 2.35931,-3.44523 7.83199,-3.44523c5.47268,0 7.73827,3.30482 7.83199,3.44523c0.3067,0.46039 0.18173,1.08037 -0.27729,1.38676zM4.00008,9.00005v-4.99997c0,-2.21007 1.79089,-4.0001 3.99994,-4.0001c2.20894,0 4.00005,1.79003 4.00005,4.0001v4.99997c0,0.55267 -0.44735,1.00007 -1.0001,1.00007c-0.55264,0 -0.99998,-0.44741 -0.99998,-1.00007v-4.99997c0,-1.10454 -0.89447,-1.99995 -1.99997,-1.99995c-1.10355,0 -1.99997,0.89541 -1.99997,1.99995v4.99997c0,0.55267 -0.44735,1.00007 -0.99998,1.00007c-0.55275,0 -0.99998,-0.44741 -0.99998,-1.00007z" fill="#ffffff" fill-opacity="1"></path></g></g></svg>