<!-- Generated by IcoMoon.io -->
<svg version="1.1" xmlns="http://www.w3.org/2000/svg" width="1024" height="1024" viewBox="0 0 1024 1024">
<title></title>
<g id="icomoon-ignore">
</g>
<path d="M779.989 45.069v936.453c0 24.843-17.819 42.184-43.335 42.184h-81.265c-22.749 0-41.98-18.732-41.98-40.909v-314.731h-12.582l-172.407 328.282c-7.903 17.421-24.378 27.358-45.51 27.358h-93.011c-16.781 0-31.656-8.024-39.793-21.469-8.338-13.763-8.109-31.131 0.608-46.454l183.886-323.995c-100.462-55.761-155.275-153.806-155.275-279.686 0-243.028 152.698-351.814 304.029-351.814h149.368c27.835 0 47.272 18.414 47.267 44.78zM613.415 146.116h-33.993c-60.742 0-125.654 50.749-125.654 193.191 0 114.552 51.383 182.944 137.45 182.944h22.197z"></path>
</svg>
